<?xml version="1.0" encoding="UTF-8"?>
<svg width="48px" height="48px" viewBox="0 0 48 48" version="1.1" xmlns="http://www.w3.org/2000/svg" xmlns:xlink="http://www.w3.org/1999/xlink">
    <!-- Generator: Sketch 61.1 (89650) - https://sketch.com -->
    <title>专属授权证明</title>
    <desc>Created with Sketch.</desc>
    <g id="专属授权证明" stroke="none" stroke-width="1" fill="none" fill-rule="evenodd">
        <g id="1541159181437-48x48" transform="translate(0.000000, 4.000000)">
            <polygon id="Combined-Shape" fill="#334966" fill-rule="nonzero" points="20 38 20 40 0 40 0 0 48 0 48 28 46 28 46 2 2 2 2 38"></polygon>
            <polygon id="Fill-7" fill="#00A4FF" fill-rule="nonzero" points="6 9 42 9 42 7 6 7"></polygon>
            <polygon id="Fill-8" fill="#00A4FF" fill-rule="nonzero" points="6 16 25 16 25 14 6 14"></polygon>
            <polygon id="Fill-8-Copy" fill="#00A4FF" fill-rule="nonzero" points="6 23 20 23 20 21 6 21"></polygon>
            <polygon id="Fill-11" fill="#FFFFFF" fill-rule="nonzero" points="28.243 31.656 25.415 28.828 24 30.242 26.829 33.07 28.243 34.484 29.657 33.07 35.314 27.414 33.899 26"></polygon>
            <path d="M25,33 L25,39 L47,39 L47,33 L41.7274925,33 C40.2391631,33 38.9758493,31.9088174 38.7593902,30.4363128 L37.9119517,24.6714486 L38.499274,24.331701 C40.0350152,23.4433227 41,21.8062608 41,20 C41,17.2385763 38.7614237,15 36,15 C33.2385763,15 31,17.2385763 31,20 C31,21.8062608 31.9649848,23.4433227 33.500726,24.331701 L34.0880483,24.6714486 L33.2406098,30.4363128 C33.0241507,31.9088174 31.7608369,33 30.2725075,33 L25,33 Z" id="Combined-Shape" stroke="#334966" stroke-width="2"></path>
            <polygon id="Rectangle-36" fill="#00A4FF" fill-rule="nonzero" points="26 34 46 34 46 38 26 38"></polygon>
        </g>
    </g>
</svg>