<?xml version="1.0" encoding="utf-8"?><!DOCTYPE svg PUBLIC "-//W3C//DTD SVG 1.1//EN" "http://www.w3.org/Graphics/SVG/1.1/DTD/svg11.dtd"><svg width="224" height="199" viewBox="0 0 224 199" xmlns="http://www.w3.org/2000/svg" xmlns:xlink="http://www.w3.org/1999/xlink"><svg id="arrow-812-1" viewBox="-1 -1 10 14" width="10" height="14" x="206" y="129"><style>.aast0{fill-rule:evenodd;clip-rule:evenodd;fill:#7d848d}</style><g id="aaXMLID_2_"><g id="aaXMLID_48_"><path id="aaXMLID_49_" class="aast0" d="M8 6L6.5 4.5 2 0 .5 1.5 5 6 .5 10.5 2 12l4.5-4.5z"/></g></g></svg><svg id="arrow-812-2" viewBox="-1 -1 10 14" width="10" height="14" x="206" y="34"><style>.abst0{fill-rule:evenodd;clip-rule:evenodd;fill:#00a4ff}</style><g id="abXMLID_2_"><g id="abXMLID_48_"><path id="abXMLID_49_" class="abst0" d="M8 6L6.5 4.5 2 0 .5 1.5 5 6 .5 10.5 2 12l4.5-4.5z"/></g></g></svg><svg width="14" height="10" viewBox="-1 -1 14 10" id="arrow-double" x="206" y="143"><title>Group 9</title><g fill="#7C848E" fill-rule="evenodd" opacity=".9"><path d="M3.547 4L0 1.031 1.227 0 6 4 1.227 8 0 6.969zM9.547 4L6 1.031 7.227 0 12 4 7.227 8 6 6.969z"/></g></svg><svg width="14" height="10" viewBox="-1 -1 14 10" id="arrow-double-active" x="206" y="153"><title>Group 9</title><g fill="#00A4FF" fill-rule="evenodd" opacity=".9"><path d="M3.547 4L0 1.031 1.227 0 6 4 1.227 8 0 6.969zM9.547 4L6 1.031 7.227 0 12 4 7.227 8 6 6.969z"/></g></svg><svg width="14" height="10" viewBox="-1 -1 14 10" id="arrow-double-light" x="206" y="110"><title>Group 9</title><g fill="#999" fill-rule="evenodd" opacity=".9"><path d="M3.547 4L0 1.031 1.227 0 6 4 1.227 8 0 6.969zM9.547 4L6 1.031 7.227 0 12 4 7.227 8 6 6.969z"/></g></svg><svg width="14" height="9" viewBox="-1 -1 14 9" id="arrow-down" x="206" y="120"><title>Shape Copy 5</title><path d="M1.41 0L6 4.327 10.59 0 12 1.332 6 7 0 1.332z" fill="#999" fill-rule="evenodd"/></svg><svg width="8" height="10" viewBox="-1 -1 8 10" id="arrow-s" x="206" y="182"><title>Combined Shape Copy 9</title><path d="M3.547 4L0 1.031 1.227 0 6 4 1.227 8 0 6.969z" fill="#7C848E" fill-rule="evenodd" opacity=".9"/></svg><svg width="8" height="10" viewBox="-1 -1 8 10" id="arrow-s-active" x="216" y="129"><title>Combined Shape Copy 9</title><path d="M3.547 4L0 1.031 1.227 0 6 4 1.227 8 0 6.969z" fill="#00A4FF" fill-rule="evenodd" opacity=".9"/></svg><svg width="8" height="10" viewBox="-1 -1 8 10" id="arrow-s-curr" x="216" y="34"><title>Combined Shape Copy 9</title><path d="M3.547 4L0 1.031 1.227 0 6 4 1.227 8 0 6.969z" fill="#FFF" fill-rule="evenodd" opacity=".9"/></svg><svg width="14" height="10" viewBox="-1 -1 14 10" id="arrow-s-db" x="206" y="163"><title>Artboard</title><g fill="#7C848E" fill-rule="evenodd" opacity=".9"><path d="M3.547 4L0 1.031 1.227 0 6 4 1.227 8 0 6.969zM9.547 4L6 1.031 7.227 0 12 4 7.227 8 6 6.969z"/></g></svg><svg width="14" height="10" viewBox="-1 -1 14 10" id="arrow-s-db-active" x="206" y="48"><title>Artboard</title><g fill="#00A4FF" fill-rule="evenodd" opacity=".9"><path d="M3.547 4L0 1.031 1.227 0 6 4 1.227 8 0 6.969zM9.547 4L6 1.031 7.227 0 12 4 7.227 8 6 6.969z"/></g></svg><svg width="14" height="10" viewBox="-1 -1 14 10" id="arrow-s-db-curr" x="206" y="58"><title>Artboard</title><g fill="#fff" fill-rule="evenodd" opacity=".9"><path d="M3.547 4L0 1.031 1.227 0 6 4 1.227 8 0 6.969zM9.547 4L6 1.031 7.227 0 12 4 7.227 8 6 6.969z"/></g></svg><svg id="ask-1616" data-name="图层 1" width="18" height="18" viewBox="-1 -1 18 18" x="180" y="181"><defs><style>.amcls-1{fill:#7d848d}</style></defs><title>2</title><path class="amcls-1" d="M8 1.75a6 6 0 0 1 6.25 5.75A6 6 0 0 1 8 13.25 5.2 5.2 0 0 1 6.11 13l-.63-.24-.63.24-1.1.44v-1.7l-.46-.5A5.48 5.48 0 0 1 1.75 7.5 6 6 0 0 1 8 1.75M8 0a7.8 7.8 0 0 0-8 7.5 7.23 7.23 0 0 0 2 4.9V16l3.5-1.4A6.9 6.9 0 0 0 8 15a7.8 7.8 0 0 0 8-7.5A7.8 7.8 0 0 0 8 0z"/><path class="amcls-1" d="M9.9 3.94a3.49 3.49 0 0 0-2.09-.6 3 3 0 0 0-1.62.43A2.64 2.64 0 0 0 5.06 6v.13h1.8V6a1.48 1.48 0 0 1 .24-.79.84.84 0 0 1 .78-.35.89.89 0 0 1 .77.28 1.14 1.14 0 0 1 .22.67 1 1 0 0 1-.19.58 1.24 1.24 0 0 1-.28.29L8 7a2.29 2.29 0 0 0-.76.85A3.87 3.87 0 0 0 7.06 9h1.71a1.93 1.93 0 0 1 .05-.43 1 1 0 0 1 .37-.5l.38-.29a4.09 4.09 0 0 0 .81-.78 2.07 2.07 0 0 0 .37-1.25 2.11 2.11 0 0 0-.85-1.81zM7.02 10h1.86v1.58H7.02z"/></svg><svg version="undefined" width="18" height="18" viewBox="-1 -1 18 18" id="ask-1616-#00a4ff" x="126" y="181"><defs><style>.ancls-1{fill:#00a4ff}</style></defs><path class="ancls-1" d="M8 1.75a6 6 0 0 1 6.25 5.75A6 6 0 0 1 8 13.25 5.2 5.2 0 0 1 6.11 13l-.63-.24-.63.24-1.1.44v-1.7l-.46-.5A5.48 5.48 0 0 1 1.75 7.5 6 6 0 0 1 8 1.75M8 0a7.8 7.8 0 0 0-8 7.5 7.23 7.23 0 0 0 2 4.9V16l3.5-1.4A6.9 6.9 0 0 0 8 15a7.8 7.8 0 0 0 8-7.5A7.8 7.8 0 0 0 8 0z"/><path class="ancls-1" d="M9.9 3.94a3.49 3.49 0 0 0-2.09-.6 3 3 0 0 0-1.62.43A2.64 2.64 0 0 0 5.06 6v.13h1.8V6a1.48 1.48 0 0 1 .24-.79.84.84 0 0 1 .78-.35.89.89 0 0 1 .77.28 1.14 1.14 0 0 1 .22.67 1 1 0 0 1-.19.58 1.24 1.24 0 0 1-.28.29L8 7a2.29 2.29 0 0 0-.76.85A3.87 3.87 0 0 0 7.06 9h1.71a1.93 1.93 0 0 1 .05-.43 1 1 0 0 1 .37-.5l.38-.29a4.09 4.09 0 0 0 .81-.78 2.07 2.07 0 0 0 .37-1.25 2.11 2.11 0 0 0-.85-1.81zM7.02 10h1.86v1.58H7.02z"/></svg><svg id="ask-1617" data-name="图层 1" width="18" height="18" viewBox="-1 -1 18 18" x="188"><defs><style>.aocls-1{fill:#fff}</style></defs><title>2</title><path class="aocls-1" d="M8 1.75a6 6 0 0 1 6.25 5.75A6 6 0 0 1 8 13.25 5.2 5.2 0 0 1 6.11 13l-.63-.24-.63.24-1.1.44v-1.7l-.46-.5A5.48 5.48 0 0 1 1.75 7.5 6 6 0 0 1 8 1.75M8 0a7.8 7.8 0 0 0-8 7.5 7.23 7.23 0 0 0 2 4.9V16l3.5-1.4A6.9 6.9 0 0 0 8 15a7.8 7.8 0 0 0 8-7.5A7.8 7.8 0 0 0 8 0z"/><path class="aocls-1" d="M9.9 3.94a3.49 3.49 0 0 0-2.09-.6 3 3 0 0 0-1.62.43A2.64 2.64 0 0 0 5.06 6v.13h1.8V6a1.48 1.48 0 0 1 .24-.79.84.84 0 0 1 .78-.35.89.89 0 0 1 .77.28 1.14 1.14 0 0 1 .22.67 1 1 0 0 1-.19.58 1.24 1.24 0 0 1-.28.29L8 7a2.29 2.29 0 0 0-.76.85A3.87 3.87 0 0 0 7.06 9h1.71a1.93 1.93 0 0 1 .05-.43 1 1 0 0 1 .37-.5l.38-.29a4.09 4.09 0 0 0 .81-.78 2.07 2.07 0 0 0 .37-1.25 2.11 2.11 0 0 0-.85-1.81zM7.02 10h1.86v1.58H7.02z"/></svg><svg id="close" viewBox="-1 -1 18 18" width="18" height="18" x="154" y="161"><style>.apst0{fill:#fff}</style><path class="apst0" d="M13.5 14.5c-.3 0-.5-.1-.7-.3l-11-11c-.4-.4-.4-1 0-1.4s1-.4 1.4 0l11 11c.4.4.4 1 0 1.4-.2.2-.4.3-.7.3z"/><path class="apst0" d="M2.5 14.5c-.3 0-.5-.1-.7-.3-.4-.4-.4-1 0-1.4l11-11c.4-.4 1-.4 1.4 0s.4 1 0 1.4l-11 11c-.2.2-.4.3-.7.3z"/></svg><svg id="close-1" viewBox="-1 -1 18 18" width="18" height="18" x="119" y="143"><style>.aqst0{fill:#0085f2}</style><path class="aqst0" d="M13.5 14.5c-.3 0-.5-.1-.7-.3l-11-11c-.4-.4-.4-1 0-1.4s1-.4 1.4 0l11 11c.4.4.4 1 0 1.4-.2.2-.4.3-.7.3z"/><path class="aqst0" d="M2.5 14.5c-.3 0-.5-.1-.7-.3-.4-.4-.4-1 0-1.4l11-11c.4-.4 1-.4 1.4 0s.4 1 0 1.4l-11 11c-.2.2-.4.3-.7.3z"/></svg><svg width="18" height="18" viewBox="-298 388 18 18" id="close-2424-inline" x="83" y="143"><path fill="#FFF" d="M-283.5 403.5c-.3 0-.5-.1-.7-.3l-11-11c-.4-.4-.4-1 0-1.4.4-.4 1-.4 1.4 0l11 11c.4.4.4 1 0 1.4-.2.2-.4.3-.7.3z"/><path fill="#FFF" d="M-294.5 403.5c-.3 0-.5-.1-.7-.3-.4-.4-.4-1 0-1.4l11-11c.4-.4 1-.4 1.4 0 .4.4.4 1 0 1.4l-11 11c-.2.2-.4.3-.7.3z"/></svg><svg id="close-gray" viewBox="-1 -1 18 18" width="18" height="18" x="65" y="143"><style>.asst0{fill:#999}</style><path class="asst0" d="M13.5 14.5c-.3 0-.5-.1-.7-.3l-11-11c-.4-.4-.4-1 0-1.4s1-.4 1.4 0l11 11c.4.4.4 1 0 1.4-.2.2-.4.3-.7.3z"/><path class="asst0" d="M2.5 14.5c-.3 0-.5-.1-.7-.3-.4-.4-.4-1 0-1.4l11-11c.4-.4 1-.4 1.4 0s.4 1 0 1.4l-11 11c-.2.2-.4.3-.7.3z"/></svg><svg width="18" height="18" viewBox="-1 -1 18 18" id="close-icon" x="162" y="181"><path fill="#666" fill-rule="evenodd" d="M8.713 8L14 13.287l-.713.713L8 8.713 2.713 14 2 13.287 7.287 8 2 2.713 2.713 2 8 7.287 13.287 2l.713.713z"/></svg><svg id="csdn" viewBox="-1 -1 18 18" width="18" height="18" x="137" y="143"><style>.aust0{fill-rule:evenodd;clip-rule:evenodd;fill:#fff}</style><path id="auXMLID_2_" class="aust0" d="M15 1.8l-1 3s-8.5-1.9-9.1 3c-.1 1.3.6 4.5 8.1 3-.3 1.4-1 3-1 3S4.2 15 1.8 11.1c-2.4-4 1.1-7.2 3.4-8.2 2-.9 4.9-1.7 9.8-1.1z"/></svg><svg width="18" height="18" viewBox="-1 -1 18 18" id="error-icon" x="108" y="181"><g fill="#E54545"><path d="M8 1a7 7 0 1 0 0 14A7 7 0 0 0 8 1zm0 12c-2.757 0-5-2.243-5-5s2.243-5 5-5 5 2.243 5 5-2.243 5-5 5z"/><path d="M7 4h2v5H7zM7 10h2v2H7z"/></g></svg><svg id="event" width="20" height="20" viewBox="-1 -1 20 20" x="60" y="161"><style>.awst0{fill:#fff}</style><path class="awst0" d="M13.1 2c.2 0 .5 0 .7.3.3.3.3.7.2 1l-.2.7h-3.1l1.7-1.7c.2-.3.5-.3.7-.3M4.9 2c.2 0 .5 0 .7.3L7.3 4H4.2L4 3.3c-.1-.3-.1-.7.2-1 .3-.3.6-.3.7-.3m8.2-2c-.8 0-1.5.3-2.1.9L9 2.8 7.1.9C6.5.3 5.7 0 4.9 0c-.7 0-1.5.3-2.1.9-.8.8-1.1 2-.7 3.1H0v7h1v7h16v-7h1V4h-2.1c.4-1.1.1-2.3-.7-3.1-.6-.6-1.4-.9-2.1-.9zM2 9V6h14v3H2zm8 7v-5h5v5h-5zm-7 0v-5h5v5H3z"/></svg><svg id="facebook" viewBox="-1 -1 18 18" width="18" height="18" x="136" y="161"><style>.axst0{fill-rule:evenodd;clip-rule:evenodd;fill:#fff}</style><path id="axXMLID_3_" class="axst0" d="M13 2H3c-.6 0-1 .4-1 1v10c0 .6.4 1 1 1h5V9H7V7h1V6c0-.5.1-2 2-2h2v2h-1c-.3 0-1 0-1 .2V7h2l-.8 2H10v5h3c.6 0 1-.4 1-1V3c0-.6-.4-1-1-1z"/></svg><svg id="feedback" width="20" height="20" viewBox="-1 -1 20 20" x="40" y="161"><style>.ayst0{fill:#666}</style><g id="ayXMLID_72_"><path id="ayXMLID_78_" class="ayst0" d="M5 13h4l8.7-8.7c.4-.4.4-1 0-1.4L15.1.3c-.2-.2-.5-.3-.7-.3-.3 0-.5.1-.7.3L5 9v4zm9.4-10.6l1.2 1.2-1 1-1.2-1.2 1-1zM7 9.8l4.4-4.5 1.2 1.2L8.2 11H7V9.8zm9 6.2H2V2h7V0H0v18h18V9h-2v7z"/></g></svg><svg id="fs-icon-1" width="34" height="34" viewBox="-1 -1 34 34" x="94"><style>.azst0{fill-rule:evenodd;clip-rule:evenodd;fill:#fff}</style><g id="azXMLID_15_"><path id="azXMLID_29_" class="azst0" d="M16 0C7.2 0 0 7.2 0 16s7.2 16 16 16 16-7.2 16-16S24.8 0 16 0zm0 30C8.3 30 2 23.7 2 16S8.3 2 16 2s14 6.3 14 14-6.3 14-14 14z"/><path id="azXMLID_30_" class="azst0" d="M22.5 12.3l-1.4-.5c-.3.9-.6 1.8-.9 2.6h-1.5c-.3-1-.6-1.9-.9-2.6l-1.4.5.9 2.1h-1.9v1.5h8.3v-1.5h-1.8c.1-.6.4-1.3.6-2.1z"/><path id="azXMLID_31_" class="azst0" d="M23.1 10H20c-.2-.6-.4-1.1-.5-1.5l-1.5.3c.2.4.4.8.6 1.3h-3.1v1.4h7.7V10z"/><path id="azXMLID_32_" class="azst0" d="M10.6 10.5h2.8v8.9h1.3V9.2H9.2v10.5h1.4z"/><path id="azXMLID_33_" class="azst0" d="M12.6 11.6h-1.2v5.2c0 1.4-.2 2.5-.6 3.4-.4.8-1.1 1.5-2.3 2l.8 1.2c1.1-.5 1.9-1.3 2.4-2.3.5-1.1.8-2.5.8-4.3v-5.2z"/><path id="azXMLID_34_" class="azst0" d="M12.3 20.7c.9.9 1.6 1.8 2.1 2.6l1-1c-.6-.8-1.4-1.7-2.2-2.5l-.9.9z"/><path id="azXMLID_37_" class="azst0" d="M16.1 23.4h1.4v-.8h3.6v.8h1.4v-6.3H16v6.3zm1.5-4.9h3.6v2.6h-3.6v-2.6z"/></g></svg><svg id="fs-icon-2" width="34" height="34" viewBox="-1 -1 34 34" x="128"><style>.bast0{fill-rule:evenodd;clip-rule:evenodd;fill:#fff}</style><path class="bast0" d="M16 32C7.2 32 0 24.8 0 16S7.2 0 16 0s16 7.2 16 16-7.2 16-16 16zm0-30C8.3 2 2 8.3 2 16s6.3 14 14 14 14-6.3 14-14S23.7 2 16 2zm5 13v2h-4v2h4v2h-4v3h-2v-3h-4v-2h4v-2h-4v-2h3l-4-6h2.3l3.7 5.4L19.7 9H22l-4 6h3z"/></svg><svg id="fs-icon-3" width="34" height="34" viewBox="-1 -1 34 34" x="68" y="79"><style>.bbst0,.bbst1{fill:#fff}.bbst1{fill-rule:evenodd;clip-rule:evenodd}</style><g id="bbXMLID_54_"><path id="bbXMLID_55_" class="bbst0" d="M16 0C7.2 0 0 7.2 0 16s7.2 16 16 16 16-7.2 16-16S24.8 0 16 0zm0 30C8.3 30 2 23.7 2 16S8.3 2 16 2s14 6.3 14 14-6.3 14-14 14z"/></g><g id="bbXMLID_26_"><g id="bbXMLID_91_"><path id="bbXMLID_92_" class="bbst1" d="M23.1 16.1l.7-1.3c-2.2-.3-4.2-.8-5.9-1.4 1.3-.8 2.5-1.8 3.4-2.9V9.2h-6.4l.6-.9-1.6-.3c-1.2 1.7-2.7 3-4.4 4l1 1.2c.8-.5 1.5-1 2.2-1.6.6.6 1.4 1.2 2.2 1.7-1.8.7-3.8 1.2-6.1 1.5l.7 1.3c.5-.1 1-.2 1.6-.3V23h1.5v-.6h7.6v.6h1.5v-7.2H11.3c1.8-.4 3.5-1 5-1.7 1.9.9 4.2 1.6 6.8 2zm-6.1 1h3.1v1.4H17v-1.4zm0 2.6h3.1v1.4H17v-1.4zm-4.6-2.6h3.1v1.4h-3.1v-1.4zm0 2.6h3.1v1.4h-3.1v-1.4zm1.1-9l.2-.2h5.5c-.8.8-1.8 1.5-3 2.1-1-.5-1.9-1.1-2.7-1.9z"/></g></g></svg><svg id="fs-icon-4" width="34" height="34" viewBox="-1 -1 34 34" x="34" y="79"><style>.bcst0{fill-rule:evenodd;clip-rule:evenodd;fill:#fff}</style><path class="bcst0" d="M16 32C7.2 32 0 24.8 0 16S7.2 0 16 0s16 7.2 16 16-7.2 16-16 16zm0-30C8.3 2 2 8.3 2 16s6.3 14 14 14 14-6.3 14-14S23.7 2 16 2zm1.7 22c-6.3 0-5.9-4-5.9-4 0-2.3 1.3-4.3 3.2-5.3-.5-.6-.8-1.3-.8-2.2 0-1.9 1.5-3.5 3.5-3.5 1.9 0 3.5 1.6 3.5 3.5 0 .8-.3 1.6-.8 2.2 1.9 1 3.2 3 3.2 5.3.1 0 .3 4-5.9 4zm0-13c-.8 0-1.5.7-1.5 1.5s.7 1.5 1.5 1.5 1.5-.7 1.5-1.5-.7-1.5-1.5-1.5zm4 9c0-2.2-1.8-4-3.9-4-2.2 0-3.9 1.8-3.9 4 0 0-.3 2 3.9 2 4 0 3.9-2 3.9-2zM12.5 9.7c-.5.6-.8 1.4-.8 2.2 0 1 .4 1.8 1 2.5-.8.4-2 1-2.4 1.6l-.4.4c-.5.9-.9 1.6-.9 3.3 0 0 0 .3.1.7-1.2-.9-1.2-2.2-1.2-2.2 0-1.9 1-3.5 2.6-4.3-.4-.5-.6-1.1-.6-1.7 0-1.5 1.2-2.8 2.8-2.8h.3c-.1.1-.2.1-.2.2-.2 0-.2.1-.3.1z"/></svg><svg id="fs-icon-5" width="34" height="34" viewBox="-1 -1 34 34" y="79"><style>.bdst0{fill:#fff}</style><g id="bdXMLID_68_"><path id="bdXMLID_69_" class="bdst0" d="M16 0C7.2 0 0 7.2 0 16s7.2 16 16 16 16-7.2 16-16S24.8 0 16 0zm0 30C8.3 30 2 23.7 2 16S8.3 2 16 2s14 6.3 14 14-6.3 14-14 14zm3.4-12.8c-.8 0-1.3.4-2 .4s-3.5-2.9-3.5-3.7c0-.8.7-.6.7-1.5 0-.6-2.4-4.5-3.3-4.5-.9.1-3.3 2-3.3 3.5C8 15.8 15.8 24 20.7 24c1.4 0 3.3-1.7 3.3-3.4 0-.6-3.8-3.3-4.6-3.4zm2.3 4.5c-.2.2-.4.3-.6.4-.1.1-.3.1-.4.1-.9 0-2-.4-3.3-1.1-1.2-.7-2.5-1.8-3.7-3-1.2-1.2-2.2-2.5-2.9-3.7-.4-.6-.6-1.2-.8-1.7-.2-.5-.3-.9-.3-1.3 0 0 0-.2.1-.3.1-.2.3-.4.5-.6.2-.2.5-.4.7-.5 0 .1.1.1.1.2.2.3.5.6.7 1 .4.6.7 1.2.8 1.5 0 .1-.1.1-.1.2-.2.4-.4.7-.4 1.5 0 .5.2 1.1.8 1.8.3.4.7.9 1.2 1.4.5.5 1 .9 1.4 1.2.7.5 1.2.8 1.8.8.7 0 1.2-.3 1.6-.5.1-.1.2 0 .3.1.3.1.8.4 1.5 1 .7.5 1.1.8 1.3 1 .1.1-.1.3-.3.5z"/></g></svg><svg id="github" viewBox="-38 4 18 18" width="18" height="18" x="100" y="161"><style>.best0{fill:#fff}</style><path id="beXMLID_1_" class="best0" d="M-29 6.2c-3.9 0-7 3.1-7 7 0 3.1 2 5.7 4.8 6.6.4.1.5-.1.5-.3v-1.3c-1.8.3-2.2-.4-2.4-.8-.1-.2-.4-.8-.7-1-.2-.1-.6-.5 0-.5s.9.5 1.1.7c.6 1.1 1.6.8 2 .6.1-.5.2-.8.4-.9-1.6-.2-3.2-.8-3.2-3.5 0-.8.3-1.4.7-1.9 0-.2-.2-.9.1-1.8 0 0 .6-.2 1.9.7.6-.2 1.2-.2 1.8-.2s1.2.1 1.8.2c1.3-.9 1.9-.7 1.9-.7.4 1 .1 1.7.1 1.9.4.5.7 1.1.7 1.9 0 2.7-1.6 3.3-3.2 3.5.3.2.5.6.5 1.3v1.9c0 .2.1.4.5.3 2.8-1 4.8-3.6 4.8-6.6-.1-4-3.2-7.1-7.1-7.1z"/></svg><svg id="global-1616-1" viewBox="-1 -1 18 18" width="18" height="18" x="188" y="18"><style>.bfst0{fill:#fff}.bfst0,.bfst1,.bfst2{fill-rule:evenodd;clip-rule:evenodd}.bfst1{opacity:.2;fill:#fff}.bfst2{fill:none;stroke:#fff;stroke-miterlimit:10}</style><g id="bfXMLID_2_"><g id="bfXMLID_41_"><path id="bfXMLID_42_" class="bfst0" d="M8 1C4.1 1 1 4.1 1 8s3.1 7 7 7 7-3.1 7-7-3.1-7-7-7zm0 13c-3.3 0-6-2.7-6-6s2.7-6 6-6 6 2.7 6 6-2.7 6-6 6z"/></g></g><path id="bfXMLID_1_" class="bfst1" d="M2.5 5.1s1.4-.4 3.2-.8c1 .7-.3 2.2-.9 2.6-.6.4 0 1.7 0 1.7v.9h.9l.9 1.5.9.5.9-.3s1.1-1.5 0-3.5c1.9 0 1.7-1.7 1.7-1.7l4.2.7s-.9-4.1-5.1-5C5 .8 2.7 4 2.5 5.1z"/><path id="bfXMLID_3_" class="bfst2" d="M2.5 5.1s1.4-.4 3.2-.8c1 .7-.3 2.2-.9 2.6-.6.4 0 1.7 0 1.7v.9h.9l.9 1.5.9.5.9-.3s1.1-1.5 0-3.5c1.9 0 1.7-1.7 1.7-1.7l4.2.7s-.9-4.1-5.1-5C5 .8 2.7 4 2.5 5.1z"/></svg><svg id="global-1616-1" viewBox="-6 6 18 18" width="18" height="18" x="188" y="72"><style>.bgst0{fill:#fff}.bgst1{fill:none;stroke:#fff;stroke-miterlimit:10}</style><g id="bgXMLID_2_"><g id="bgXMLID_41_"><path id="bgXMLID_42_" class="bgst0" d="M3 8c-3.9 0-7 3.1-7 7s3.1 7 7 7 7-3.1 7-7-3.1-7-7-7zm0 13c-3.3 0-6-2.7-6-6s2.7-6 6-6 6 2.7 6 6-2.7 6-6 6z"/></g></g><path id="bgXMLID_3_" class="bgst1" d="M-2.5 12.1s1.4-.4 3.2-.8c1 .7-.3 2.2-.9 2.6s0 1.7 0 1.7v.9h.9l.9 1.5.9.5.9-.3s1.1-1.5 0-3.5c1.9 0 1.7-1.7 1.7-1.7l4.2.7s-.9-4.1-5.1-5C0 7.8-2.3 11-2.5 12.1z"/></svg><svg width="18" height="18" viewBox="-1 -1 18 18" id="global-1616-1-new" x="188" y="126"><g fill="none" fill-rule="evenodd" stroke="#FFF"><circle cx="8" cy="8" r="7" stroke-width="2"/><path d="M1.345 4.537l5.308 1.086L5.61 8.747l1.76.88.852 1.702 1.404-.702.926-1.85.13-.163 2.192-1.803 2.605.632A7.5 7.5 0 0 0 1.345 4.537z"/></g></svg><svg id="global-1616-2" viewBox="-1 -1 18 18" width="18" height="18" x="188" y="144"><style>.bist0{fill:#00a4ff}.bist0,.bist1,.bist2{fill-rule:evenodd;clip-rule:evenodd}.bist1{opacity:.2;fill:#598aff}.bist2{fill:none;stroke:#00a4ff;stroke-miterlimit:10}</style><g id="biXMLID_2_"><g id="biXMLID_37_"><path id="biXMLID_38_" class="bist0" d="M8 1C4.1 1 1 4.1 1 8s3.1 7 7 7 7-3.1 7-7-3.1-7-7-7zm0 13c-3.3 0-6-2.7-6-6s2.7-6 6-6 6 2.7 6 6-2.7 6-6 6z"/></g></g><path id="biXMLID_1_" class="bist1" d="M2.5 5.1s1.4-.4 3.2-.8c1 .7-.3 2.2-.9 2.6-.6.4 0 1.7 0 1.7v.9h.9l.9 1.5.9.5.9-.3s1.1-1.5 0-3.5c1.9 0 1.7-1.7 1.7-1.7l4.2.7s-.9-4.1-5.1-5C5 .8 2.7 4 2.5 5.1z"/><path id="biXMLID_3_" class="bist2" d="M2.5 5.1s1.4-.4 3.2-.8c1 .7-.3 2.2-.9 2.6-.6.4 0 1.7 0 1.7v.9h.9l.9 1.5.9.5.9-.3s1.1-1.5 0-3.5c1.9 0 1.7-1.7 1.7-1.7l4.2.7s-.9-4.1-5.1-5C5 .8 2.7 4 2.5 5.1z"/></svg><svg width="18" height="18" viewBox="-1 -1 18 18" id="global-1616-2-new" x="72" y="181"><g fill="none" fill-rule="evenodd" stroke="#00a4ff"><circle cx="8" cy="8" r="7" stroke-width="2"/><path d="M1.345 4.537l5.308 1.086L5.61 8.747l1.76.88.852 1.702 1.404-.702.926-1.85.13-.163 2.192-1.803 2.605.632A7.5 7.5 0 0 0 1.345 4.537z"/></g></svg><svg width="26" height="26" viewBox="-1 -1 26 26" id="hasmsg-2424-1-inline" x="102" y="79"><title>hasmsg-2424-1-inline</title><g fill="none" fill-rule="evenodd"><path d="M21.9 8.9c.3 1 .5 2 .5 3.1 0 2.1-.6 4-1.7 5.6-1.1-2.4-3.2-4.3-5.7-5.1 1.1-.9 1.8-2.2 1.8-3.7C16.8 6.1 14.7 4 12 4 9.3 4 7.2 6.1 7.2 8.8c0 1.5.7 2.8 1.8 3.7-2.5.8-4.6 2.7-5.7 5.1C2.2 16 1.6 14.1 1.6 12 1.6 6.3 6.3 1.6 12 1.6c1.5 0 3 .3 4.3.9.2-.5.4-1 .7-1.4C15.4.4 13.8 0 12 0 5.4 0 0 5.4 0 12s5.4 12 12 12 12-5.4 12-12c0-1.3-.2-2.5-.6-3.7-.4.3-.9.5-1.5.6zM8.8 8.8c0-1.8 1.4-3.2 3.2-3.2 1.8 0 3.2 1.4 3.2 3.2 0 1.8-1.4 3.2-3.2 3.2-1.8 0-3.2-1.4-3.2-3.2zM12 22.4c-3 0-5.7-1.3-7.6-3.3 1-3.2 4-5.5 7.6-5.5 3.5 0 6.5 2.3 7.6 5.5-1.9 2-4.6 3.3-7.6 3.3z" fill="#FFF" fill-rule="nonzero"/><path d="M21 1c1.7 0 3 1.3 3 3s-1.3 3-3 3-3-1.3-3-3 1.3-3 3-3z" fill="#00A4FF"/></g></svg><svg width="26" height="26" viewBox="-294 384 26 26" id="hasmsg-2424-2-inline" x="162"><path fill="#00A4FF" d="M-271.1 393.9c.3 1 .5 2 .5 3.1 0 2.1-.6 4-1.7 5.6-1.1-2.4-3.2-4.3-5.7-5.1 1.1-.9 1.8-2.2 1.8-3.7 0-2.7-2.1-4.8-4.8-4.8s-4.8 2.1-4.8 4.8c0 1.5.7 2.8 1.8 3.7-2.5.8-4.6 2.7-5.7 5.1-1.1-1.6-1.7-3.5-1.7-5.6 0-5.7 4.7-10.4 10.4-10.4 1.5 0 3 .3 4.3.9.2-.5.4-1 .7-1.4-1.6-.7-3.2-1.1-5-1.1-6.6 0-12 5.4-12 12s5.4 12 12 12 12-5.4 12-12c0-1.3-.2-2.5-.6-3.7-.4.3-.9.5-1.5.6zm-13.1-.1c0-1.8 1.4-3.2 3.2-3.2s3.2 1.4 3.2 3.2c0 1.8-1.4 3.2-3.2 3.2s-3.2-1.4-3.2-3.2zm3.2 13.6c-3 0-5.7-1.3-7.6-3.3 1-3.2 4-5.5 7.6-5.5 3.5 0 6.5 2.3 7.6 5.5-1.9 2-4.6 3.3-7.6 3.3z"/><path fill="#00A4FF" d="M-272 386c1.7 0 3 1.3 3 3s-1.3 3-3 3-3-1.3-3-3 1.3-3 3-3z"/></svg><svg width="18" height="18" viewBox="-1 -1 18 18" id="icon-add" x="144" y="181"><path fill="#666" fill-rule="evenodd" d="M8 8V3h1v5h5v1H9v5H8V9H3V8h5z"/></svg><svg width="34" height="34" viewBox="-1 -1 34 34" id="icon-error" x="128" y="34"><title>Page 1</title><defs><path id="bna" d="M0 0h32v32H0z"/></defs><g fill="none" fill-rule="evenodd"><mask id="bnb" fill="#fff"><use xlink:href="#bna"/></mask><path d="M16 28.903C8.885 28.903 3.097 23.115 3.097 16S8.885 3.097 16 3.097 28.903 8.885 28.903 16 23.115 28.903 16 28.903zM16 0C7.164 0 0 7.163 0 16c0 8.836 7.164 16 16 16s16-7.164 16-16c0-8.837-7.164-16-16-16zm-1.548 18.58h3.097V8.257h-3.097V18.58zm0 5.162h3.097v-3.097h-3.097v3.097z" fill="#E54545" mask="url(#bnb)"/></g></svg><svg width="16" height="16" viewBox="-1 -1 16 16" id="icon-succeed-upload" x="206" y="18"><title>正确</title><g fill="#0ABF5B" fill-rule="evenodd"><path d="M9.586 4.211L6.042 7.79 4.299 6.048 2.885 7.462l3.157 3.157 1.414-1.414L11 5.625z"/><path d="M7 0a7 7 0 1 0 0 14A7 7 0 0 0 7 0zm0 12c-2.757 0-5-2.243-5-5s2.243-5 5-5 5 2.243 5 5-2.243 5-5 5z" fill-rule="nonzero"/></g></svg><svg id="icon-tc" width="93" height="18" viewBox="-1 -1 93 18" y="27"><style>.bpst0{fill:#999}</style><g id="bpXMLID_80_"><path id="bpXMLID_81_" class="bpst0" d="M83.8 1.9l-.6 3h-3.8l1.5 2h2l-1.6 8.8h3.4L86.2 7h4.3l-6.7-5.1zM16.4 0H.9L.5 2.3h6L4 15.8h3.4L9.9 2.3H16l.4-2.3zM19 4.7c-4.3 0-7.1 2.6-7.7 5.5-.6 3.3 1.6 5.7 5.9 5.7 2 0 3.8-.3 5.3-1.1l.5-2.5c-1.5 1-3.3 1.5-4.9 1.5-2.2 0-3.9-.9-3.6-2.8h9c.1-.2.2-.6.3-1.1.5-2.3-.4-5.2-4.8-5.2zm1.7 4.5h-5.9c.4-1.1 1.5-2.6 3.6-2.6 2.3 0 2.5 1.6 2.3 2.6zm13.4-4.5c-2.1 0-3.7.8-4.5 1.7h-.1l-3-1.7c-.1.9-.3 2.2-.5 3.5l-1.4 7.6H28l1.2-6.4.3-.9c.5-.8 1.6-1.6 2.9-1.6 1.9 0 2.4 1.2 2.1 2.7l-1.1 6.1h3.4L38 9.4c.6-3.5-1.6-4.7-3.9-4.7zm40.9 0c-2.1 0-3.7.8-4.5 1.7h-.1l-3-1.7c-.1.9-.3 2.2-.5 3.5l-1.4 7.6H69l1.2-6.4.3-.9c.5-.8 1.6-1.6 2.9-1.6 1.9 0 2.4 1.2 2.1 2.7l-1.1 6.1h3.4L79 9.4c.6-3.5-1.6-4.7-4-4.7zm-15.1 0c-4.3 0-7.1 2.6-7.7 5.5-.6 3.3 1.6 5.7 5.9 5.7 2 0 3.8-.3 5.3-1.1l.5-2.5c-1.5 1-3.3 1.5-4.9 1.5-2.2 0-3.9-.9-3.6-2.8h9c.1-.2.2-.6.3-1.1.5-2.3-.4-5.2-4.8-5.2zm1.8 4.5h-5.9c.4-1.1 1.5-2.6 3.6-2.6 2.3 0 2.5 1.6 2.3 2.6zm-22.3 1c-.6 3.3 1.9 5.8 6.1 5.8 1.7 0 3.7-.5 4.5-.7l.6-2.9c-1.2 1.2-2.8 1.4-3.9 1.4-2.3 0-4.1-1.3-3.7-3.5.4-2 2.4-3.5 5-3.5 1.1 0 2.5.3 3.4 1.5l.5-2.9c-.7-.3-1.9-.6-3.7-.6-4.8-.1-8.2 2.2-8.8 5.4z"/></g></svg><svg width="18" height="18" viewBox="-1 -1 18 18" id="icon-wrong-upload" x="90" y="181"><title>错误</title><g fill="none" fill-rule="evenodd"><path d="M0 0h16v16H0z"/><circle stroke="#E54545" stroke-width="2" cx="8" cy="8" r="7"/><path fill="#E54545" fill-rule="nonzero" d="M11.536 10.121L9.414 8l2.122-2.121-1.415-1.415L8 6.586 5.879 4.464 4.464 5.88 6.586 8l-2.122 2.121 1.415 1.415L8 9.414l2.121 2.122z"/></g></svg><svg width="8" height="6" viewBox="-303 394 8 6" id="lang-64-1-inline" x="206" y="192"><path fill="#FFF" d="M-299 397l1.5-2h1.5l-3 4-3-4h1.5l1.5 2z"/></svg><svg width="8" height="6" viewBox="-303 394 8 6" id="lang-64-2-inline" x="214" y="182"><path fill="#00A4FF" d="M-299 397l1.5-2h1.5l-3 4-3-4h1.5l1.5 2z"/></svg><svg id="link-1212-1" viewBox="-1 -1 14 14" width="14" height="14" x="206" y="68"><style>.btst0{fill-rule:evenodd;clip-rule:evenodd;fill:#7d848d}</style><path id="btXMLID_2_" class="btst0" d="M1 11V1h3v1H2v8h8V8h1v3H1zm5.1-4.4l-.7-.7 2.8-2.8L6 1h5v5L8.9 3.9 6.1 6.6z"/></svg><svg id="link-1212-2" viewBox="-1 -1 14 14" width="14" height="14" x="206" y="82"><style>.bust0{fill-rule:evenodd;clip-rule:evenodd;fill:#00a4ff}</style><path id="buXMLID_2_" class="bust0" d="M1 11V1h3v1H2v8h8V8h1v3H1zm5.1-4.4l-.7-.7 2.8-2.8L6 1h5v5L8.9 3.9 6.1 6.6z"/></svg><svg id="link-1212-3" viewBox="-1 -1 14 14" width="14" height="14" x="206" y="96"><style>.bvst0{fill-rule:evenodd;clip-rule:evenodd;fill:#fff}</style><path id="bvXMLID_2_" class="bvst0" d="M1 11V1h3v1H2v8h8V8h1v3H1zm5.1-4.4l-.7-.7 2.8-2.8L6 1h5v5L8.9 3.9 6.1 6.6z"/></svg><svg id="linkedin" viewBox="-1 -1 18 18" width="18" height="18" x="101" y="143"><style>.bwst0{fill-rule:evenodd;clip-rule:evenodd;fill:#fff}</style><path id="bwXMLID_9_" class="bwst0" d="M13 2H3c-.6 0-1 .4-1 1v10c0 .6.4 1 1 1h10c.6 0 1-.4 1-1V3c0-.6-.4-1-1-1zM6 12H4V7h2v5zM5 6c-.6 0-1-.4-1-1s.4-1 1-1 1 .4 1 1-.4 1-1 1zm7 6h-2V9H9v3H7V7h2v1l1-1h2v5z"/></svg><svg id="logo-9225-color" viewBox="-1 -1 94 27" width="94" height="27"><style>.bxst0{fill:#fff}.bxst1{fill:#00a3ff}.bxst2{fill:#00c8dc}.bxst3{fill:#006eff}</style><g id="bxXMLID_25_"><path id="bxXMLID_38_" class="bxst0" d="M72.8 4.6h-10V6h3v5.3h-3.5v1.5h3.5v8.9h1.6v-8.9h3.8v8.7h3V20h-1.4V4.6zm-5.4 6.7V6h3.8v5.3h-3.8z"/><path id="bxXMLID_14_" class="bxst0" d="M45 17.6h7.9v1.5H45z"/><path id="bxXMLID_33_" class="bxst0" d="M39.6 14.9c0 2.6-.2 4.6-.7 6.4 0 .2 0 .2.1.2h1.5c.5-2.4.5-4.5.6-5.9h2v4.5h-1.4c-.1 0-.1 0-.1.1l.4 1.3h2.6V4.6h-4.9v10.3zm1.5-.6v-3.5h2v3.5h-2zm2-8.2v3.4h-2V6.1h2z"/><path id="bxXMLID_30_" class="bxst0" d="M53.5 10.5h1.9V9.2h-5.7c.2-.4.3-.9.5-1.4h4.9V6.5h-1.4c.2-.8.5-1.8.5-1.8 0-.1 0-.1-.1-.1h-1.2l-.6 1.9h-1.7c.1-.7.2-1.6.4-2.5 0-.1 0-.1-.1-.1h-1.4c-.1 1-.3 1.9-.5 2.7h-.9l-.6-1.9h-1.2c-.1 0-.1 0-.1.1s.3 1 .5 1.8h-1.4v1.3h3.2c-.1.4-.3.9-.5 1.4h-3v1.3h2.3c-.9 1.3-1.9 1.9-2.3 2.2v1.5c0 .1.1.2.3 0 .4-.2.9-.5 1.4-.9H52v2h-4.3l.1-1.2c0-.1 0-.1-.1-.1h-1.4l-.1 2.5c0 .1 0 .1.1.1h7.4v3.5h-3.3c-.1 0-.1 0-.1.1l.4 1.3h4.6v-6.3h-1.8l.1-2.5c.7.6 1.4 1.1 2 1.4.2.1.3.1.3 0v-1.5c-.5-.3-1.5-.9-2.4-2.2zm-1.8 0c.3.6.7 1.1 1.1 1.5H48c.4-.4.7-.9 1.1-1.5h2.6z"/><path id="bxXMLID_8_" class="bxst0" d="M63.8 16.6s-1.4 1-2.7 2V9.2h-3.7v1.6h2.1v9c-.5.4-.9.6-.9.6l.9 1.2 4.4-3.3v-1.6c.1-.1 0-.2-.1-.1z"/><path id="bxXMLID_7_" class="bxst0" d="M59.7 7.7h1.7c.1 0 .1-.1.1-.1l-2.2-3.4h-1.7l-.1.1c.1.1 2.2 3.4 2.2 3.4z"/><path id="bxXMLID_6_" class="bxst0" d="M77.6 5h12.6v1.6H77.6z"/><path id="bxXMLID_5_" class="bxst0" d="M82.2 12.6H92V11H75.8v1.6h4.5c-.9 2.4-3.2 8.5-3.3 8.6 0 .1 0 .1.1.1H91c.1 0 .1-.1.1-.1L89 15.7h-1.7c-.1 0-.1.1-.1.1 0 .1 1.5 3.9 1.5 3.9h-9.2l2.7-7.1z"/></g><g id="bxXMLID_19_"><path id="bxXMLID_22_" class="bxst1" d="M29.5 20.6c-.6.6-1.7 1.3-3.5 1.3H14.3c3.5-3.4 6.5-6.3 6.8-6.6.3-.3 1-1 1.6-1.5 1.3-1.2 2.5-1.4 3.4-1.4 1.3 0 2.5.6 3.4 1.4 1.9 1.9 1.9 4.9 0 6.8m2.3-9c-1.4-1.5-3.4-2.4-5.6-2.4-1.9 0-3.5.7-5 1.8-.6.5-1.3 1.1-2.1 1.9-.5.5-12.3 12-12.3 12 .6.1 1.4.1 2.2.1h14.9c1.1 0 1.9 0 2.7-.1 1.8-.1 3.6-.8 5-2.2 3.2-3 3.2-8 .2-11.1z"/><path id="bxXMLID_2_" class="bxst2" d="M12.6 10.9c-1.4-1-3-1.6-4.7-1.6-2.2 0-4.2.9-5.6 2.4-3 3.1-3 8.1.1 11.2 1.3 1.2 2.8 1.9 4.4 2.1l3.1-3H8.1c-1.8-.1-2.9-.7-3.5-1.3a4.86 4.86 0 0 1-.1-6.8c.9-.9 2.1-1.4 3.4-1.4.8 0 2 .2 3.3 1.3.6.5 2 1.7 2.6 2.2h.1l2.1-2.1v-.1c-1.1-1-2.5-2.3-3.4-2.9"/><path id="bxXMLID_1_" class="bxst3" d="M27 7.5c-1.5-4.1-5.4-7-10-7-5.3 0-9.6 3.9-10.4 8.9.4-.1.8-.2 1.3-.2.6 0 1.2.1 1.8.2.7-3.4 3.7-5.9 7.3-5.9 3 0 5.6 1.8 6.8 4.4 0 0 .1.1.1 0 .9-.2 2-.4 3-.3.1 0 .1-.1.1-.1"/></g></svg><svg id="nav-2218" viewBox="-1 -1 24 20" width="24" height="20" x="162" y="78"><style>.byst0{fill-rule:evenodd;clip-rule:evenodd;fill:#fff}</style><g id="byXMLID_2_"><g id="byXMLID_42_"><path id="byXMLID_43_" class="byst0" d="M0 0v2h22V0H0zm0 10h22V8H0v2zm0 8h22v-2H0v2z"/></g></g></svg><svg id="nav-2218-actived" viewBox="-1 -1 24 20" width="24" height="20" x="162" y="98"><style>.bzst0{fill-rule:evenodd;clip-rule:evenodd;fill:#00a4ff}</style><g id="bzXMLID_2_"><g id="bzXMLID_46_"><path id="bzXMLID_47_" class="bzst0" d="M0 0v2h22V0H0zm0 10h22V8H0v2zm0 8h22v-2H0v2z"/></g></g></svg><svg width="18" height="18" viewBox="-1 -1 18 18" id="nav-2218-actived-new" x="118" y="161"><path fill="#00a4ff" fill-rule="evenodd" d="M1 2h14v2H1V2zm0 5h14v2H1V7zm0 5h14v2H1v-2z"/></svg><svg width="18" height="18" viewBox="-1 -1 18 18" id="nav-2218-new" x="206"><path fill="#FFF" fill-rule="evenodd" d="M1 2h14v2H1V2zm0 5h14v2H1V7zm0 5h14v2H1v-2z"/></svg><svg width="34" height="34" viewBox="-290 380 34 34" id="nav-3232-actived-inline" x="34" y="45"><path fill="#00A4FF" d="M-285.5 390h25c.8 0 1.5-.7 1.5-1.5s-.7-1.5-1.5-1.5h-25c-.8 0-1.5.7-1.5 1.5s.7 1.5 1.5 1.5zm25 6h-25c-.8 0-1.5.7-1.5 1.5s.7 1.5 1.5 1.5h25c.8 0 1.5-.7 1.5-1.5s-.7-1.5-1.5-1.5zm0 9h-25c-.8 0-1.5.7-1.5 1.5s.7 1.5 1.5 1.5h25c.8 0 1.5-.7 1.5-1.5s-.7-1.5-1.5-1.5z"/></svg><svg width="34" height="34" viewBox="-290 380 34 34" id="nav-3232-inline" y="45"><path fill="#FFF" d="M-285.5 390h25c.8 0 1.5-.7 1.5-1.5s-.7-1.5-1.5-1.5h-25c-.8 0-1.5.7-1.5 1.5s.7 1.5 1.5 1.5zm25 6h-25c-.8 0-1.5.7-1.5 1.5s.7 1.5 1.5 1.5h25c.8 0 1.5-.7 1.5-1.5s-.7-1.5-1.5-1.5zm0 9h-25c-.8 0-1.5.7-1.5 1.5s.7 1.5 1.5 1.5h25c.8 0 1.5-.7 1.5-1.5s-.7-1.5-1.5-1.5z"/></svg><svg width="29" height="18" viewBox="-1 -1 29 18" id="nav-hot" y="143"><g fill="none" fill-rule="evenodd" transform="translate(0 2)"><path fill="#FF7800" stroke="#FF7800" d="M2.5.5v4H.809L2.5 7.882V12.5h24V.5h-24z"/><path fill="#FFF" d="M6 6h4V3h1v7h-1V7H6v3H5V3h1v3zM19 3h5v1h-5z"/><path fill="#FFF" d="M21 3h1v7h-1z"/><circle cx="15.5" cy="6.5" r="3" stroke="#FFF"/></g></svg><svg data-name="图层 1" width="18" height="18" viewBox="-1 -1 18 18" id="nav-search-cancel-icon" x="188" y="36"><title>关闭</title><path data-name="Page-1" fill="#fff" d="M12.573 2L8 6.573 3.426 2 2 3.427l4.574 4.574L2 12.574 3.426 14 8 9.427 12.573 14 14 12.574 9.426 8.001 14 3.427 12.573 2z"/></svg><svg data-name="图层 1" width="18" height="18" viewBox="-1 -1 18 18" id="nav-search-cancel-icon-active" x="188" y="54"><title>关闭</title><path data-name="Page-1" fill="#00a4ff" d="M12.573 2L8 6.573 3.426 2 2 3.427l4.574 4.574L2 12.574 3.426 14 8 9.427 12.573 14 14 12.574 9.426 8.001 14 3.427 12.573 2z"/></svg><svg id="phone" width="20" height="20" viewBox="-1 -1 20 20" x="80" y="161"><style>.chst0{fill:#666}</style><g id="chXMLID_51_"><path id="chXMLID_52_" class="chst0" d="M12 7h2c0-1.7-1.3-3-3-3v2c.5 0 1 .5 1 1zm4 0h2c0-3.9-3.1-7-7-7v2c2.8 0 5 2.2 5 5zm1 3h-5l-1 1c-.1.1-.3.2-.4.2C9.2 11.2 6.1 7.9 7 7l1-1V1c0-.6-.4-1-1-1H1C.5 0 0 .5 0 1c.3 11.9 5.1 16.7 17 17 .6 0 1-.4 1-1v-6c0-.5-.5-1-1-1zm-1 6C6.2 15.5 2.5 11.8 2 2h4v3.5L4.7 7c0 .2.1 1 .4 1.8 1 2.5 4.4 4.3 5.9 4.4l1.5-1.2H16v4z"/></g></svg><svg id="phone-1616" data-name="图层 1" width="18" height="18" viewBox="-1 -1 18 18" x="188" y="90"><defs><style>.cicls-1{fill:#7d848d}</style></defs><title>2</title><path id="cicgXMLID" class="cicls-1" d="M3.06 2a16 16 0 0 1 1.63 2.4A2.53 2.53 0 0 0 4.15 6c0 1.75 3.51 5.35 5.21 5.35h.18a4.8 4.8 0 0 0 1.32-.27l.32-.1A18.59 18.59 0 0 1 14.13 13a2.42 2.42 0 0 1-1.43 1.21c-4 0-11-7.49-11-10.82A3.65 3.65 0 0 1 3.06 2m.24-2C2.4 0 0 1.9 0 3.4 0 7.8 7.8 16 12.7 16a3.83 3.83 0 0 0 3.3-3.4c0-.6-3.8-3.3-4.6-3.4s-1.3.4-2 .4c-.79 0-3.5-2.81-3.5-3.6s.7-.6.7-1.5C6.6 3.9 4.2 0 3.3 0z"/></svg><svg id="phone-1617" data-name="图层 1" width="18" height="18" viewBox="-1 -1 18 18" x="188" y="108"><defs><style>.cjcls-1{fill:#fff}</style></defs><title>2</title><path id="cjcgXMLID" class="cjcls-1" d="M3.06 2a16 16 0 0 1 1.63 2.4A2.53 2.53 0 0 0 4.15 6c0 1.75 3.51 5.35 5.21 5.35h.18a4.8 4.8 0 0 0 1.32-.27l.32-.1A18.59 18.59 0 0 1 14.13 13a2.42 2.42 0 0 1-1.43 1.21c-4 0-11-7.49-11-10.82A3.65 3.65 0 0 1 3.06 2m.24-2C2.4 0 0 1.9 0 3.4 0 7.8 7.8 16 12.7 16a3.83 3.83 0 0 0 3.3-3.4c0-.6-3.8-3.3-4.6-3.4s-1.3.4-2 .4c-.79 0-3.5-2.81-3.5-3.6s.7-.6.7-1.5C6.6 3.9 4.2 0 3.3 0z"/></svg><svg width="20" height="20" viewBox="-1 -1 20 20" id="questionnaire" x="162" y="118"><title>Artboard Copy</title><g fill="#666" fill-rule="nonzero"><path d="M14 11H4v2h10z"/><path d="M3 3v12h12V3H3zM1 1h16v16H1V1z"/><path d="M9 10h5V8h-3zM7.5 9l.7-.7L11 5.5 9.7 4 6.8 6.8 5.4 5.4 4 6.8l2.8 2.8z"/></g></svg><svg id="research" width="20" height="20" viewBox="-1 -1 20 20" x="162" y="138"><style>.clst0{fill:#666}</style><g id="clXMLID_55_"><path id="clXMLID_56_" class="clst0" d="M14 12H4v2h10v-2zM0 0v18h18V0H0zm16 16H2V2h14v14zm-7-6h5V8h-3l-2 2zM7.5 9l.7-.7L11 5.5 9.7 4 6.8 6.8 5.4 5.4 4 6.8l2.8 2.8.7-.6z"/></g></svg><svg width="18" height="18" viewBox="-298 388 18 18" id="search-1616-1-inline" x="188" y="162"><path fill="#FFF" d="M-282.3 403.3l-2.5-2.5c1-1.1 1.7-2.7 1.7-4.3 0-3.6-2.9-6.5-6.5-6.5-3.5 0-6.4 2.9-6.4 6.5s2.9 6.4 6.4 6.4c1.2 0 2.3-.3 3.2-.9l2.7 2.7c.4.4 1 .4 1.4 0 .4-.4.4-1 0-1.4zm-7.3-2.4c-2.4 0-4.4-2-4.4-4.4s2-4.5 4.4-4.5c2.5 0 4.5 2 4.5 4.5s-2 4.4-4.5 4.4z"/></svg><svg width="18" height="18" viewBox="-298 388 18 18" id="search-1616-1-inline-#00a4ff" y="181"><path fill="#00a4ff" d="M-282.3 403.3l-2.5-2.5c1-1.1 1.7-2.7 1.7-4.3 0-3.6-2.9-6.5-6.5-6.5-3.5 0-6.4 2.9-6.4 6.5s2.9 6.4 6.4 6.4c1.2 0 2.3-.3 3.2-.9l2.7 2.7c.4.4 1 .4 1.4 0 .4-.4.4-1 0-1.4zm-7.3-2.4c-2.4 0-4.4-2-4.4-4.4s2-4.5 4.4-4.5c2.5 0 4.5 2 4.5 4.5s-2 4.4-4.5 4.4z"/></svg><svg width="18" height="18" viewBox="-298 388 18 18" id="search-1616-1-inline-#aaa" x="18" y="181"><path fill="#aaa" d="M-282.3 403.3l-2.5-2.5c1-1.1 1.7-2.7 1.7-4.3 0-3.6-2.9-6.5-6.5-6.5-3.5 0-6.4 2.9-6.4 6.5s2.9 6.4 6.4 6.4c1.2 0 2.3-.3 3.2-.9l2.7 2.7c.4.4 1 .4 1.4 0 .4-.4.4-1 0-1.4zm-7.3-2.4c-2.4 0-4.4-2-4.4-4.4s2-4.5 4.4-4.5c2.5 0 4.5 2 4.5 4.5s-2 4.4-4.5 4.4z"/></svg><svg width="18" height="18" viewBox="-298 388 18 18" id="search-1616-2-inline" x="36" y="181"><path fill="#00A4FF" d="M-282.3 403.3l-2.5-2.5c1-1.1 1.7-2.7 1.7-4.3 0-3.6-2.9-6.5-6.5-6.5-3.5 0-6.4 2.9-6.4 6.5s2.9 6.4 6.4 6.4c1.2 0 2.3-.3 3.2-.9l2.7 2.7c.4.4 1 .4 1.4 0 .4-.4.4-1 0-1.4zm-7.3-2.4c-2.4 0-4.4-2-4.4-4.4s2-4.5 4.4-4.5c2.5 0 4.5 2 4.5 4.5s-2 4.4-4.5 4.4z"/></svg><svg width="18" height="18" viewBox="-298 388 18 18" id="search-1616-3-inline" x="54" y="181"><path fill="#999" d="M-282.3 403.3l-2.5-2.5c1-1.1 1.7-2.7 1.7-4.3 0-3.6-2.9-6.5-6.5-6.5-3.5 0-6.4 2.9-6.4 6.5s2.9 6.4 6.4 6.4c1.2 0 2.3-.3 3.2-.9l2.7 2.7c.4.4 1 .4 1.4 0 .4-.4.4-1 0-1.4zm-7.3-2.4c-2.4 0-4.4-2-4.4-4.4s2-4.5 4.4-4.5c2.5 0 4.5 2 4.5 4.5s-2 4.4-4.5 4.4z"/></svg><svg width="20" height="20" viewBox="-1 -1 20 20" id="service" y="161"><title>Artboard</title><path d="M2 7h1c0-3.3 2.7-6 6-6s6 2.7 6 6h1c1.1 0 2 .9 2 2v2c0 1.1-.9 2-2 2h-1c0 2.2-1.8 4-4 4H7v-3h4v1c1.1 0 2-.9 2-2V7c0-2.2-1.8-4-4-4S5 4.8 5 7v6H2c-1.1 0-2-.9-2-2V9c0-1.1.9-2 2-2zm14 4V9h-1v2h1zM2 11h1V9H2v2z" fill="#666" fill-rule="nonzero"/></svg><svg id="shopping" width="20" height="20" viewBox="-1 -1 20 20" x="20" y="161"><style>.csst0{fill-rule:evenodd;clip-rule:evenodd;fill:#666}</style><path class="csst0" d="M0 18V0h18v18H0zM16 2H2v2h14V2zm0 4H2v10h14V6zm-7 5c1.7 0 3-1.3 3-3h2c0 2.8-2.2 5-5 5s-5-2.2-5-5h2c0 1.7 1.3 3 3 3z"/></svg><svg width="26" height="26" viewBox="-1 -1 26 26" id="sousuo" x="162" y="26"><linearGradient id="cta" gradientUnits="userSpaceOnUse" x1="5.13" y1="4.569" x2="21.377" y2="20.817"><stop offset="0" stop-color="#fff"/><stop offset="1" stop-color="#fff"/></linearGradient><path fill-rule="evenodd" clip-rule="evenodd" fill="url(#cta)" d="M21.5 20.6l-3.6-3.4c1.6-1.6 2.6-3.8 2.6-6.3 0-5-4-9-9-9s-9 4-9 9 4 9 9 9c1.8 0 3.5-.5 4.9-1.4l3.8 3.6 1.3-1.5zM11.4 18c-3.9 0-7-3.1-7-7s3.1-7 7-7 7 3.1 7 7c.1 3.9-3.1 7-7 7z"/></svg><svg width="34" height="34" viewBox="-1 -1 34 34" id="success" x="94" y="34"><defs><path id="cua" d="M0 0h32v32H0z"/></defs><g fill="none" fill-rule="evenodd"><mask id="cub" fill="#fff"><use xlink:href="#cua"/></mask><path fill="#0ABF5B" d="M16 30C8.268 30 2 23.732 2 16S8.268 2 16 2s14 6.268 14 14-6.268 14-14 14m0-30C7.163 0 0 7.163 0 16c0 8.836 7.163 16 16 16s16-7.164 16-16c0-8.837-7.163-16-16-16" mask="url(#cub)"/><path fill="#0ABF5B" d="M13.707 18.793L9.414 14.5 8 15.914l5.707 5.707 10.207-10.207L22.5 10z"/></g></svg><svg width="26" height="26" viewBox="-294 384 26 26" id="user-2424-1-inline" x="162" y="52"><path fill="#FFF" d="M-281 385c-6.6 0-12 5.4-12 12s5.4 12 12 12 12-5.4 12-12-5.4-12-12-12zm0 1.6c5.7 0 10.4 4.7 10.4 10.4 0 2.1-.6 4-1.7 5.6-1.1-2.4-3.2-4.3-5.7-5.1 1.1-.9 1.8-2.2 1.8-3.7 0-2.7-2.1-4.8-4.8-4.8s-4.8 2.1-4.8 4.8c0 1.5.7 2.8 1.8 3.7-2.5.8-4.6 2.7-5.7 5.1-1.1-1.6-1.7-3.5-1.7-5.6 0-5.7 4.7-10.4 10.4-10.4zm0 10.4c-1.8 0-3.2-1.4-3.2-3.2 0-1.8 1.4-3.2 3.2-3.2s3.2 1.4 3.2 3.2c0 1.8-1.4 3.2-3.2 3.2zm0 10.4c-3 0-5.7-1.3-7.6-3.3 1-3.2 4-5.5 7.6-5.5 3.5 0 6.5 2.3 7.6 5.5-1.9 2-4.6 3.3-7.6 3.3z"/></svg><svg width="26" height="26" viewBox="-294 384 26 26" id="user-2424-2-inline" x="68" y="45"><path fill="#00A4FF" d="M-281 385c-6.6 0-12 5.4-12 12s5.4 12 12 12 12-5.4 12-12-5.4-12-12-12zm0 1.6c5.7 0 10.4 4.7 10.4 10.4 0 2.1-.6 4-1.7 5.6-1.1-2.4-3.2-4.3-5.7-5.1 1.1-.9 1.8-2.2 1.8-3.7 0-2.7-2.1-4.8-4.8-4.8s-4.8 2.1-4.8 4.8c0 1.5.7 2.8 1.8 3.7-2.5.8-4.6 2.7-5.7 5.1-1.1-1.6-1.7-3.5-1.7-5.6 0-5.7 4.7-10.4 10.4-10.4zm0 10.4c-1.8 0-3.2-1.4-3.2-3.2 0-1.8 1.4-3.2 3.2-3.2s3.2 1.4 3.2 3.2c0 1.8-1.4 3.2-3.2 3.2zm0 10.4c-3 0-5.7-1.3-7.6-3.3 1-3.2 4-5.5 7.6-5.5 3.5 0 6.5 2.3 7.6 5.5-1.9 2-4.6 3.3-7.6 3.3z"/></svg><svg width="30" height="30" viewBox="-1 -1 30 30" id="user-black" x="60" y="113"><g fill="#2B303B" fill-rule="evenodd"><path fill-rule="nonzero" d="M19.726 1.22a5.017 5.017 0 0 0-1.248 1.643A11.967 11.967 0 0 0 14 2C7.373 2 2 7.373 2 14s5.373 12 12 12 12-5.373 12-12c0-1.583-.307-3.094-.863-4.478a5.017 5.017 0 0 0 1.642-1.248A13.95 13.95 0 0 1 28 14c0 7.732-6.268 14-14 14S0 21.732 0 14 6.268 0 14 0c2.04 0 3.978.436 5.726 1.22z"/><path fill-rule="nonzero" d="M14 26a11.96 11.96 0 0 0 8.4-3.43A9.996 9.996 0 0 0 14 18a9.996 9.996 0 0 0-8.4 4.57A11.96 11.96 0 0 0 14 26zm0-10c4.786 0 8.918 2.802 10.844 6.855A13.972 13.972 0 0 1 14 28a13.972 13.972 0 0 1-10.844-5.145A12.001 12.001 0 0 1 14 16z"/><circle cx="23" cy="5" r="3"/><path fill-rule="nonzero" d="M14 16a4 4 0 1 0 0-8 4 4 0 0 0 0 8zm0 2a6 6 0 1 1 0-12 6 6 0 0 1 0 12z"/></g></svg><svg width="30" height="30" viewBox="-1 -1 30 30" id="user-black-has-msg" y="113"><g fill="none" fill-rule="evenodd"><path fill="#2B303B" fill-rule="nonzero" d="M19.726 1.22a5.017 5.017 0 0 0-1.248 1.643A11.967 11.967 0 0 0 14 2C7.373 2 2 7.373 2 14s5.373 12 12 12 12-5.373 12-12c0-1.583-.307-3.094-.863-4.478a5.017 5.017 0 0 0 1.642-1.248A13.95 13.95 0 0 1 28 14c0 7.732-6.268 14-14 14S0 21.732 0 14 6.268 0 14 0c2.04 0 3.978.436 5.726 1.22z"/><path fill="#2B303B" fill-rule="nonzero" d="M14 26a11.96 11.96 0 0 0 8.4-3.43A9.996 9.996 0 0 0 14 18a9.996 9.996 0 0 0-8.4 4.57A11.96 11.96 0 0 0 14 26zm0-10c4.786 0 8.918 2.802 10.844 6.855A13.972 13.972 0 0 1 14 28a13.972 13.972 0 0 1-10.844-5.145A12.001 12.001 0 0 1 14 16z"/><circle cx="23" cy="5" r="3" fill="#00A4FF"/><path fill="#2B303B" fill-rule="nonzero" d="M14 16a4 4 0 1 0 0-8 4 4 0 0 0 0 8zm0 2a6 6 0 1 1 0-12 6 6 0 0 1 0 12z"/></g></svg><svg width="30" height="30" viewBox="-1 -1 30 30" id="user-icon" x="128" y="68"><g fill="#FFF" fill-rule="evenodd"><path fill-rule="nonzero" d="M19.726 1.22a5.017 5.017 0 0 0-1.248 1.643A11.967 11.967 0 0 0 14 2C7.373 2 2 7.373 2 14s5.373 12 12 12 12-5.373 12-12c0-1.583-.307-3.094-.863-4.478a5.017 5.017 0 0 0 1.642-1.248A13.95 13.95 0 0 1 28 14c0 7.732-6.268 14-14 14S0 21.732 0 14 6.268 0 14 0c2.04 0 3.978.436 5.726 1.22z"/><path fill-rule="nonzero" d="M14 26a11.96 11.96 0 0 0 8.4-3.43A9.996 9.996 0 0 0 14 18a9.996 9.996 0 0 0-8.4 4.57A11.96 11.96 0 0 0 14 26zm0-10c4.786 0 8.918 2.802 10.844 6.855A13.972 13.972 0 0 1 14 28a13.972 13.972 0 0 1-10.844-5.145A12.001 12.001 0 0 1 14 16z"/><circle cx="23" cy="5" r="3"/><path fill-rule="nonzero" d="M14 16a4 4 0 1 0 0-8 4 4 0 0 0 0 8zm0 2a6 6 0 1 1 0-12 6 6 0 0 1 0 12z"/></g></svg><svg width="30" height="30" viewBox="-1 -1 30 30" id="user-icon-active" x="90" y="113"><g fill="#00a4ff" fill-rule="evenodd"><path fill-rule="nonzero" d="M19.726 1.22a5.017 5.017 0 0 0-1.248 1.643A11.967 11.967 0 0 0 14 2C7.373 2 2 7.373 2 14s5.373 12 12 12 12-5.373 12-12c0-1.583-.307-3.094-.863-4.478a5.017 5.017 0 0 0 1.642-1.248A13.95 13.95 0 0 1 28 14c0 7.732-6.268 14-14 14S0 21.732 0 14 6.268 0 14 0c2.04 0 3.978.436 5.726 1.22z"/><path fill-rule="nonzero" d="M14 26a11.96 11.96 0 0 0 8.4-3.43A9.996 9.996 0 0 0 14 18a9.996 9.996 0 0 0-8.4 4.57A11.96 11.96 0 0 0 14 26zm0-10c4.786 0 8.918 2.802 10.844 6.855A13.972 13.972 0 0 1 14 28a13.972 13.972 0 0 1-10.844-5.145A12.001 12.001 0 0 1 14 16z"/><circle cx="23" cy="5" r="3"/><path fill-rule="nonzero" d="M14 16a4 4 0 1 0 0-8 4 4 0 0 0 0 8zm0 2a6 6 0 1 1 0-12 6 6 0 0 1 0 12z"/></g></svg><svg width="30" height="30" viewBox="-1 -1 30 30" id="user-icon-hasmsg" x="120" y="113"><g fill="none" fill-rule="evenodd"><path fill="#FFF" fill-rule="nonzero" d="M19.726 1.22a5.017 5.017 0 0 0-1.248 1.643A11.967 11.967 0 0 0 14 2C7.373 2 2 7.373 2 14s5.373 12 12 12 12-5.373 12-12c0-1.583-.307-3.094-.863-4.478a5.017 5.017 0 0 0 1.642-1.248A13.95 13.95 0 0 1 28 14c0 7.732-6.268 14-14 14S0 21.732 0 14 6.268 0 14 0c2.04 0 3.978.436 5.726 1.22z"/><path fill="#FFF" fill-rule="nonzero" d="M14 26a11.96 11.96 0 0 0 8.4-3.43A9.996 9.996 0 0 0 14 18a9.996 9.996 0 0 0-8.4 4.57A11.96 11.96 0 0 0 14 26zm0-10c4.786 0 8.918 2.802 10.844 6.855A13.972 13.972 0 0 1 14 28a13.972 13.972 0 0 1-10.844-5.145A12.001 12.001 0 0 1 14 16z"/><circle cx="23" cy="5" r="3" fill="#00A4FF"/><path fill="#FFF" fill-rule="nonzero" d="M14 16a4 4 0 1 0 0-8 4 4 0 0 0 0 8zm0 2a6 6 0 1 1 0-12 6 6 0 0 1 0 12z"/></g></svg><svg width="30" height="30" viewBox="-1 -1 30 30" id="user-icon-hasmsg-active" x="30" y="113"><g fill="none" fill-rule="evenodd"><path fill="#00a4ff" fill-rule="nonzero" d="M19.726 1.22a5.017 5.017 0 0 0-1.248 1.643A11.967 11.967 0 0 0 14 2C7.373 2 2 7.373 2 14s5.373 12 12 12 12-5.373 12-12c0-1.583-.307-3.094-.863-4.478a5.017 5.017 0 0 0 1.642-1.248A13.95 13.95 0 0 1 28 14c0 7.732-6.268 14-14 14S0 21.732 0 14 6.268 0 14 0c2.04 0 3.978.436 5.726 1.22z"/><path fill="#00a4ff" fill-rule="nonzero" d="M14 26a11.96 11.96 0 0 0 8.4-3.43A9.996 9.996 0 0 0 14 18a9.996 9.996 0 0 0-8.4 4.57A11.96 11.96 0 0 0 14 26zm0-10c4.786 0 8.918 2.802 10.844 6.855A13.972 13.972 0 0 1 14 28a13.972 13.972 0 0 1-10.844-5.145A12.001 12.001 0 0 1 14 16z"/><circle cx="23" cy="5" r="3" fill="#00A4FF"/><path fill="#00a4ff" fill-rule="nonzero" d="M14 16a4 4 0 1 0 0-8 4 4 0 0 0 0 8zm0 2a6 6 0 1 1 0-12 6 6 0 0 1 0 12z"/></g></svg><svg id="wechat" viewBox="-1 -1 18 18" width="18" height="18" x="29" y="143"><style>.ddst0{fill-rule:evenodd;clip-rule:evenodd;fill:#fff}</style><g id="ddXMLID_2_"><g id="ddXMLID_50_"><path id="ddXMLID_51_" class="ddst0" d="M5.7 1C2.5 1 0 3.1 0 5.8c0 1.6.8 2.8 2.3 3.8l-.6 1.7 2-1c.7.1 1.3.3 2 .3h.5C6.1 10.2 6 9.4 6 9c0-1.8 1.7-3.8 4-4 .3 0 1.2-.1 1.4-.1-.5-2.2-3-3.9-5.7-3.9zm-2 3.9c-.4 0-.7-.4-.7-.8s.3-.7.7-.7c.4 0 .8.3.8.7 0 .4-.4.8-.8.8zm4 0c-.4 0-.8-.3-.8-.7 0-.4.3-.7.8-.7.4 0 .8.3.8.7-.1.3-.4.7-.8.7z"/></g></g><path id="ddXMLID_19_" class="ddst0" d="M12 12l2 2v-2h-2"/><path id="ddXMLID_8_" class="ddst0" d="M11.5 6C9 6 7 7.6 7 9.5S9 13 11.5 13 16 11.5 16 9.5C16 7.6 14 6 11.5 6zm-2 3c-.3 0-.5-.2-.5-.5s.2-.5.5-.5.5.2.5.5-.2.5-.5.5zm3 0c-.3 0-.5-.2-.5-.5s.2-.5.5-.5.5.2.5.5-.2.5-.5.5z"/></svg><svg id="weibo" viewBox="-1 -1 18 18" width="18" height="18" x="47" y="143"><style>.dest0{fill:#fff}</style><g id="deXMLID_2_"><g id="deXMLID_83_"><path id="deXMLID_84_" class="dest0" d="M14.9 2.4c-1.1-1.2-2.6-1.6-4-1.3-.3.1-.5.4-.5.7.1.3.4.5.7.5 1-.2 2.1.1 2.9.9.7.8.9 2 .6 3-.1.3.1.7.4.8.3.1.7-.1.8-.4.4-1.4.2-3-.9-4.2zm-1.8 3.8c.3.1.6-.1.7-.3.2-.7.1-1.5-.4-2-.5-.6-1.3-.8-2-.6-.3.1-.5.3-.4.6.1.3.3.5.6.4.3-.1.7 0 1 .3.3.3.3.7.2 1-.2.2 0 .5.3.6zM12 7.3c-.2-.1-.5-.1-.3-.4.3-.6.4-1.2.1-1.6-.5-.7-1.9-.7-3.6 0 0 0-.5.2-.4-.2.3-.9.2-1.5-.2-1.9-.9-.9-3.2 0-5.2 2.1C.9 6.7 0 8.3 0 9.7 0 12.4 3.4 14 6.7 14c4.4 0 7.2-2.5 7.2-4.5.1-1.3-1-2-1.9-2.2zM6.7 13c-2.6.3-4.9-.9-5.1-2.7C1.4 8.6 3.5 7 6.1 6.7c2.6-.3 4.9.9 5.1 2.7.2 1.7-1.8 3.4-4.5 3.6zM7 8.1c-1.3-.4-2.7.3-3.2 1.4-.6 1.1 0 2.4 1.3 2.8 1.3.4 2.9-.2 3.4-1.5C9 9.6 8.3 8.4 7 8.1zM6 11c-.3.4-.8.6-1.2.4-.4-.2-.5-.7-.3-1.1.3-.4.8-.6 1.2-.4.4.2.6.7.3 1.1zm.9-1.1c-.1.2-.3.2-.5.2-.1-.1-.2-.3-.1-.4.1-.2.3-.2.4-.2.2 0 .3.2.2.4z"/></g></g></svg><svg width="13" height="9" viewBox="-1 -1 13 9" id="xiala" x="206" y="173"><path fill-rule="evenodd" clip-rule="evenodd" fill="#999" d="M10.5 1.4L9.8.6 5.5 4.9 1.2.6l-.7.8 4.3 4.2.7.8v-.1.1l.7-.8z"/></svg></svg>