<?xml version="1.0" encoding="utf-8"?>
<!-- Generator: Adobe Illustrator 23.0.3, SVG Export Plug-In . SVG Version: 6.00 Build 0)  -->
<svg version="1.1" id="svgwrapper_svg" xmlns="http://www.w3.org/2000/svg" xmlns:xlink="http://www.w3.org/1999/xlink" x="0px"
	 y="0px" width="830px" height="322px" viewBox="0 0 830 322" style="enable-background:new 0 0 830 322;" xml:space="preserve">
<g>
	<g>
		<path style="fill:#00A4FF;" d="M794.5,0h-5v1h5V0L794.5,0z M784.5,0h-5v1h5V0L784.5,0z M774.5,0h-5v1h5V0L774.5,0z M764.5,0h-5v1
			h5V0L764.5,0z M754.5,0h-5v1h5V0L754.5,0z M744.5,0h-5v1h5V0L744.5,0z M734.5,0h-5v1h5V0L734.5,0z M724.5,0h-5v1h5V0L724.5,0z
			 M714.5,0h-5v1h5V0L714.5,0z M704.5,0h-5v1h5V0L704.5,0z M694.5,0h-5v1h5V0L694.5,0z M684.5,0h-5v1h5V0L684.5,0z M674.5,0h-5v1h5
			V0L674.5,0z M664.5,0h-5v1h5V0L664.5,0z M654.5,0h-5v1h5V0L654.5,0z M644.5,0h-5v1h5V0L644.5,0z M634.5,0h-5v1h5V0L634.5,0z
			 M624.5,0h-5v1h5V0L624.5,0z M614.5,0h-5v1h5V0L614.5,0z M604.5,0h-5v1h5V0L604.5,0z M594.5,0h-5v1h5V0L594.5,0z M584.5,0h-5v1h5
			V0L584.5,0z M574.5,0h-5v1h5V0L574.5,0z M564.5,0h-5v1h5V0L564.5,0z M554.5,0h-5v1h5V0L554.5,0z M544.5,0h-5v1h5V0L544.5,0z
			 M534.5,0h-5v1h5V0L534.5,0z M524.5,0h-5v1h5V0L524.5,0z M514.5,0h-5v1h5V0L514.5,0z M504.5,0h-5v1h5V0L504.5,0z M494.5,0h-5v1h5
			V0L494.5,0z M484.5,0h-5v1h5V0L484.5,0z M474.5,0h-5v1h5V0L474.5,0z M464.5,0h-5v1h5V0L464.5,0z M454.5,0h-5v1h5V0L454.5,0z
			 M444.5,0h-5v1h5V0L444.5,0z M434.5,0h-5v1h5V0L434.5,0z M424.5,0h-5v1h5V0L424.5,0z M414.5,0h-5v1h5V0L414.5,0z M404.5,0h-5v1h5
			V0L404.5,0z M394.5,0h-5v1h5V0L394.5,0z M384.5,0h-5v1h5V0L384.5,0z M374.5,0h-5v1h5V0L374.5,0z M364.5,0h-5v1h5V0L364.5,0z
			 M354.5,0h-5v1h5V0L354.5,0z M344.5,0h-5v1h5V0L344.5,0z M334.5,0h-5v1h5V0L334.5,0z M324.5,0h-5v1h5V0L324.5,0z M314.5,0h-5v1h5
			V0L314.5,0z M304.5,0h-5v1h5V0L304.5,0z M294.5,0h-5v1h5V0L294.5,0z M284.5,0h-5v1h5V0L284.5,0z M274.5,0h-5v1h5V0L274.5,0z
			 M264.5,0h-5v1h5V0L264.5,0z M254.5,0h-5v1h5V0L254.5,0z M244.5,0h-5v1h5V0L244.5,0z M234.5,0h-5v1h5V0L234.5,0z M224.5,0h-5v1h5
			V0L224.5,0z M219.4,3.9h-1v5h1V3.9L219.4,3.9z M219.4,13.9h-1v5h1V13.9L219.4,13.9z M219.4,23.9h-1v5h1V23.9L219.4,23.9z
			 M219.4,33.9h-1v5h1V33.9L219.4,33.9z M219.4,43.9h-1v5h1V43.9L219.4,43.9z M219.4,53.9h-1v5h1V53.9L219.4,53.9z M219.4,63.9h-1v5
			h1V63.9L219.4,63.9z M219.4,73.9h-1v5h1V73.9L219.4,73.9z M219.4,83.9h-1v5h1V83.9L219.4,83.9z M219.4,93.9h-1v5h1V93.9
			L219.4,93.9z M219.4,103.9h-1v5h1V103.9L219.4,103.9z M219.4,113.9h-1v5h1V113.9L219.4,113.9z M219.4,123.9h-1v5h1V123.9
			L219.4,123.9z M219.4,133.9h-1v5h1V133.9L219.4,133.9z M219.4,143.9h-1v5h1V143.9L219.4,143.9z M219.4,153.9h-1v5h1V153.9
			L219.4,153.9z M219.4,163.9h-1v5h1V163.9L219.4,163.9z M219.4,173.9h-1v5h1V173.9L219.4,173.9z M219.4,183.9h-1v5h1V183.9
			L219.4,183.9z M219.4,193.9h-1v5h1V193.9L219.4,193.9z M219.4,203.9h-1v5h1V203.9L219.4,203.9z M219.4,213.9h-1v5h1V213.9
			L219.4,213.9z M219.4,223.9h-1v5h1V223.9L219.4,223.9z M219.4,233.9h-1v5h1V233.9L219.4,233.9z M219.4,243.9h-1v5h1V243.9
			L219.4,243.9z M219.4,253.9h-1v5h1V253.9L219.4,253.9z M219.4,263.9h-1v5h1V263.9L219.4,263.9z M219.4,273.9h-1v5h1V273.9
			L219.4,273.9z M219.4,283.9h-1v5h1V283.9L219.4,283.9z M219.4,293.9h-1v5h1V293.9L219.4,293.9z M219.4,303.9h-1v5h1V303.9
			L219.4,303.9z M219.4,313.9h-1v5h1V313.9L219.4,313.9z M225.3,321h-5v1h5V321L225.3,321z M235.3,321h-5v1h5V321L235.3,321z
			 M245.3,321h-5v1h5V321L245.3,321z M255.3,321h-5v1h5V321L255.3,321z M265.3,321h-5v1h5V321L265.3,321z M275.3,321h-5v1h5V321
			L275.3,321z M285.3,321h-5v1h5V321L285.3,321z M295.3,321h-5v1h5V321L295.3,321z M305.3,321h-5v1h5V321L305.3,321z M315.3,321h-5
			v1h5V321L315.3,321z M325.3,321h-5v1h5V321L325.3,321z M335.3,321h-5v1h5V321L335.3,321z M345.3,321h-5v1h5V321L345.3,321z
			 M355.3,321h-5v1h5V321L355.3,321z M365.3,321h-5v1h5V321L365.3,321z M375.3,321h-5v1h5V321L375.3,321z M385.3,321h-5v1h5V321
			L385.3,321z M395.3,321h-5v1h5V321L395.3,321z M405.3,321h-5v1h5V321L405.3,321z M415.3,321h-5v1h5V321L415.3,321z M425.3,321h-5
			v1h5V321L425.3,321z M435.3,321h-5v1h5V321L435.3,321z M445.3,321h-5v1h5V321L445.3,321z M455.3,321h-5v1h5V321L455.3,321z
			 M465.3,321h-5v1h5V321L465.3,321z M475.3,321h-5v1h5V321L475.3,321z M485.3,321h-5v1h5V321L485.3,321z M495.3,321h-5v1h5V321
			L495.3,321z M505.3,321h-5v1h5V321L505.3,321z M515.3,321h-5v1h5V321L515.3,321z M525.3,321h-5v1h5V321L525.3,321z M535.3,321h-5
			v1h5V321L535.3,321z M545.3,321h-5v1h5V321L545.3,321z M555.3,321h-5v1h5V321L555.3,321z M565.3,321h-5v1h5V321L565.3,321z
			 M575.3,321h-5v1h5V321L575.3,321z M585.3,321h-5v1h5V321L585.3,321z M595.3,321h-5v1h5V321L595.3,321z M605.3,321h-5v1h5V321
			L605.3,321z M615.3,321h-5v1h5V321L615.3,321z M625.3,321h-5v1h5V321L625.3,321z M635.3,321h-5v1h5V321L635.3,321z M645.3,321h-5
			v1h5V321L645.3,321z M655.3,321h-5v1h5V321L655.3,321z M665.3,321h-5v1h5V321L665.3,321z M675.3,321h-5v1h5V321L675.3,321z
			 M685.3,321h-5v1h5V321L685.3,321z M695.3,321h-5v1h5V321L695.3,321z M705.3,321h-5v1h5V321L705.3,321z M715.3,321h-5v1h5V321
			L715.3,321z M725.3,321h-5v1h5V321L725.3,321z M735.3,321h-5v1h5V321L735.3,321z M745.3,321h-5v1h5V321L745.3,321z M755.3,321h-5
			v1h5V321L755.3,321z M765.3,321h-5v1h5V321L765.3,321z M775.3,321h-5v1h5V321L775.3,321z M785.3,321h-5v1h5V321L785.3,321z
			 M794.5,321h-4.2v1h4.2V321L794.5,321z M794.5,311.2h-1v5h1V311.2L794.5,311.2z M794.5,301.2h-1v5h1V301.2L794.5,301.2z
			 M794.5,291.2h-1v5h1V291.2L794.5,291.2z M794.5,281.2h-1v5h1V281.2L794.5,281.2z M794.5,271.2h-1v5h1V271.2L794.5,271.2z
			 M794.5,261.2h-1v5h1V261.2L794.5,261.2z M794.5,251.2h-1v5h1V251.2L794.5,251.2z M794.5,241.2h-1v5h1V241.2L794.5,241.2z
			 M794.5,231.2h-1v5h1V231.2L794.5,231.2z M794.5,221.2h-1v5h1V221.2L794.5,221.2z M794.5,211.2h-1v5h1V211.2L794.5,211.2z
			 M794.5,201.2h-1v5h1V201.2L794.5,201.2z M794.5,191.2h-1v5h1V191.2L794.5,191.2z M794.5,181.2h-1v5h1V181.2L794.5,181.2z
			 M794.5,171.2h-1v5h1V171.2L794.5,171.2z M794.5,161.2h-1v5h1V161.2L794.5,161.2z M794.5,151.2h-1v5h1V151.2L794.5,151.2z
			 M794.5,141.2h-1v5h1V141.2L794.5,141.2z M794.5,131.2h-1v5h1V131.2L794.5,131.2z M794.5,121.2h-1v5h1V121.2L794.5,121.2z
			 M794.5,111.2h-1v5h1V111.2L794.5,111.2z M794.5,101.2h-1v5h1V101.2L794.5,101.2z M794.5,91.2h-1v5h1V91.2L794.5,91.2z
			 M794.5,81.2h-1v5h1V81.2L794.5,81.2z M794.5,71.2h-1v5h1V71.2L794.5,71.2z M794.5,61.2h-1v5h1V61.2L794.5,61.2z M794.5,51.2h-1v5
			h1V51.2L794.5,51.2z M794.5,41.2h-1v5h1V41.2L794.5,41.2z M794.5,31.2h-1v5h1V31.2L794.5,31.2z M794.5,21.2h-1v5h1V21.2
			L794.5,21.2z M794.5,11.2h-1v5h1V11.2L794.5,11.2z M794.5,1.2h-1v5h1V1.2L794.5,1.2z"/>
	</g>
	<g id="ShadowBasicRect5_4_" transform="translate(540,125)">
		<rect x="-302.6" y="11.8" style="opacity:0.6;fill:#BBBBBB;enable-background:new    ;" width="137" height="50"/>
		<g>
			<rect x="-304.1" y="10.3" style="fill:#FFFFFF;" width="136" height="49"/>
			<path style="fill:#E5E5E5;" d="M-168.6,10.8v48h-135v-48H-168.6 M-167.6,9.8h-137v50h137V9.8L-167.6,9.8z"/>
		</g>
		<g transform="translate(20 9)">
			<g style="enable-background:new    ;">
				<path style="fill:#444444;" d="M-253.2,24v1h-6.7c-1.3,2.6-2.4,4.5-3.4,5.5c2.5-0.1,5-0.4,7.5-0.7c-0.5-0.9-1.1-1.8-1.7-2.8
					l0.8-0.5c1.3,1.9,2.3,3.6,3,5.1l-0.9,0.6c-0.2-0.5-0.5-1-0.7-1.5c-2.8,0.4-5.9,0.6-9.3,0.9l-0.3-1c0.1,0,0.2-0.1,0.2-0.1
					c0.9-0.7,2.1-2.5,3.6-5.5h-4.7v-1H-253.2z M-254.4,20.1v1h-10v-1H-254.4z"/>
				<path style="fill:#444444;" d="M-240,20.2v1h-2.3v3.7h3.1v1h-3.1V32h-1v-6.2h-4c-0.1,1.4-0.4,2.6-0.8,3.6
					c-0.5,1.2-1.4,2.1-2.6,2.7l-0.5-0.9c1.1-0.6,1.9-1.5,2.4-2.6c0.3-0.8,0.5-1.8,0.6-2.9h-3.2v-1h3.3c0-0.2,0-0.4,0-0.5v-3.2h-2.5
					v-1H-240z M-247.3,24.4c0,0.2,0,0.3,0,0.5h4v-3.7h-4V24.4z"/>
				<path style="fill:#444444;" d="M-235.8,19.7l1,0.2l-0.8,2.8h2.5c0.3-1.1,0.5-2.2,0.7-3.4l1,0.1c-0.2,1.2-0.4,2.3-0.7,3.3h6.6v1
					h-6.8c-0.2,0.6-0.3,1.1-0.5,1.6h5.7v0.9c-0.4,1.2-1.1,2.3-2.3,3.3c1.1,0.7,2.5,1.3,4.1,1.8l-0.5,0.9c-1.8-0.7-3.3-1.4-4.5-2.1
					c-1.1,0.8-2.6,1.5-4.3,2.2l-0.5-0.9c1.6-0.6,2.9-1.2,3.9-1.9c-1.1-0.8-1.9-1.8-2.3-2.7c-1,2.2-2.3,4-3.9,5.3l-0.5-0.9
					c2-1.8,3.5-4.2,4.5-7.4h-3.5L-235.8,19.7z M-230.3,28.8c1-0.8,1.8-1.7,2.1-2.6h-4.5C-232.2,27.1-231.4,28-230.3,28.8z
					 M-226.6,21.6l-0.7,0.7c-0.6-0.7-1.4-1.5-2.5-2.4l0.7-0.7C-228.1,20.1-227.2,20.9-226.6,21.6z"/>
				<path style="fill:#444444;" d="M-211.7,21.4c0.8,0.6,1.2,1.4,1.3,2.4h-1.1c-0.1-0.7-0.5-1.3-1.1-1.7c-0.5-0.4-1.2-0.6-2-0.6
					c-1.2,0-2.1,0.4-2.7,1.2c-0.6,0.8-0.9,1.8-0.9,3c0,1.2,0.3,2.2,0.9,3c0.6,0.8,1.5,1.2,2.7,1.2c0.8,0,1.5-0.2,2-0.6
					c0.6-0.4,1-1.1,1.2-2h1.1c-0.2,1.2-0.7,2.1-1.6,2.7c-0.8,0.6-1.7,0.9-2.8,0.9c-1.6,0-2.7-0.5-3.6-1.5c-0.8-0.9-1.1-2.1-1.1-3.6
					c0-1.5,0.4-2.7,1.1-3.7c0.8-1.1,2-1.6,3.6-1.6C-213.4,20.6-212.5,20.9-211.7,21.4z"/>
				<path style="fill:#444444;" d="M-207.5,20.8v9h5.8v1h-6.9v-10H-207.5z"/>
				<path style="fill:#444444;" d="M-199.2,20.8v10h-1.1v-10H-199.2z"/>
			</g>
			<g>
				<g>
					<g>
						<path style="fill-rule:evenodd;clip-rule:evenodd;fill:#00B4FF;" d="M-281.5,34.8v-24h-22v30h22v-2h-20v-26h18v22H-281.5z
							 M-290.5,34.8v-2h-4v2H-290.5z"/>
					</g>
				</g>
				<g>
					<polygon style="fill:#00B4FF;" points="-293.5,24.3 -293.5,24.3 -285.5,24.3 -285.5,22.3 -293.5,22.3 					"/>
				</g>
				<g>
					<polygon style="fill:#00B4FF;" points="-297.8,24.5 -299.2,23.1 -295.9,19.8 -299.2,16.5 -297.8,15.1 -293.1,19.8 					"/>
				</g>
			</g>
		</g>
	</g>
	<g id="ShadowBasicRect5_1_" transform="translate(540,125)">
		<rect x="-121.5" y="11.8" style="opacity:0.6;fill:#BBBBBB;enable-background:new    ;" width="138" height="50"/>
		<g>
			<rect x="-123" y="10.3" style="fill:#FFFFFF;" width="137" height="49"/>
			<path style="fill:#E5E5E5;" d="M13.5,10.8v48h-136v-48H13.5 M14.5,9.8h-138v50h138V9.8L14.5,9.8z"/>
		</g>
		<g transform="translate(20 9)">
			<g style="enable-background:new    ;">
				<path style="fill:#444444;" d="M-67.2,24v1h-6.7c-1.3,2.6-2.4,4.5-3.4,5.5c2.5-0.1,5-0.4,7.5-0.7c-0.5-0.9-1.1-1.8-1.7-2.8
					l0.8-0.5c1.3,1.9,2.3,3.6,3,5.1l-0.9,0.6c-0.2-0.5-0.5-1-0.7-1.5c-2.8,0.4-5.9,0.6-9.3,0.9l-0.3-1c0.1,0,0.2-0.1,0.2-0.1
					c0.9-0.7,2.1-2.5,3.6-5.5h-4.7v-1H-67.2z M-68.4,20.1v1h-10v-1H-68.4z"/>
				<path style="fill:#444444;" d="M-54,20.2v1h-2.3v3.7h3.1v1h-3.1V32h-1v-6.2h-4c-0.1,1.4-0.4,2.6-0.8,3.6
					c-0.5,1.2-1.4,2.1-2.6,2.7l-0.5-0.9c1.1-0.6,1.9-1.5,2.4-2.6c0.3-0.8,0.5-1.8,0.6-2.9h-3.2v-1h3.3c0-0.2,0-0.4,0-0.5v-3.2h-2.5
					v-1H-54z M-61.3,24.4c0,0.2,0,0.3,0,0.5h4v-3.7h-4V24.4z"/>
				<path style="fill:#444444;" d="M-49.8,19.7l1,0.2l-0.8,2.8h2.5c0.3-1.1,0.5-2.2,0.7-3.4l1,0.1c-0.2,1.2-0.4,2.3-0.7,3.3h6.6v1
					h-6.8c-0.2,0.6-0.3,1.1-0.5,1.6h5.7v0.9c-0.4,1.2-1.1,2.3-2.3,3.3c1.1,0.7,2.5,1.3,4.1,1.8l-0.5,0.9c-1.8-0.7-3.3-1.4-4.5-2.1
					c-1.1,0.8-2.6,1.5-4.3,2.2l-0.5-0.9c1.6-0.6,2.9-1.2,3.9-1.9c-1.1-0.8-1.9-1.8-2.3-2.7c-1,2.2-2.3,4-3.9,5.3l-0.5-0.9
					c2-1.8,3.5-4.2,4.5-7.4h-3.5L-49.8,19.7z M-44.3,28.8c1-0.8,1.8-1.7,2.1-2.6h-4.5C-46.2,27.1-45.4,28-44.3,28.8z M-40.6,21.6
					l-0.7,0.7c-0.6-0.7-1.4-1.5-2.5-2.4l0.7-0.7C-42.1,20.1-41.2,20.9-40.6,21.6z"/>
			</g>
			<g id="云开发-32px_3_">
				<g id="Group_3_" transform="translate(5.000000, 1.000000)">
					<g id="_编组__1_">
						<path id="Shape_3_" style="fill:#00B4FF;" d="M-100.5,33.8v-24h-22v30h22v-2h-20v-26h18v22H-100.5z M-109.5,33.8v-2h-4v2
							H-109.5z"/>
					</g>
					<g id="移动服务-移动开发平台-MobileLine-16px_3_" transform="translate(4.000000, 4.000000)">
						<path id="Combined-Shape_3_" style="fill-rule:evenodd;clip-rule:evenodd;fill:#00B4FF;" d="M-109.8,14.6l-1.9-1.1l-5.8,3.9
							v1.9l5-3.4l0.5-0.9l2.2,1.3V14.6z M-107.8,13.8L-107.8,13.8l0,5.4l-0.4,0.3l0,0l0,0l-0.4,0.3h0l-2.8,1.9l0,0l-1.8,1.2
							l-1.2-0.7l-2-1.2l-0.9,0.6l0,0l-1.1,0.7l0,0l0,0l0,0l-1-0.6l0,0v0l-3-1.7l0-0.3h0v-5.4l0.4-0.3l0,0l0,0l0.4-0.3h0l2.8-1.9l0,0
							l1.8-1.2l1.2,0.7l2,1.1l1-0.6l0.1-0.1l0.9-0.6l0.5,0.7l0.5-0.2l3.1,1.7L-107.8,13.8z M-111.4,17.6l-3.2,2.1l1.3,0.8l3.2-2.2
							L-111.4,17.6z M-119.5,19.5v-1.7l-1-0.6v1.7L-119.5,19.5z M-118.8,15.9l3.2-2.2l-1.3-0.7l-3.2,2.2L-118.8,15.9z"/>
						<path style="fill-rule:evenodd;clip-rule:evenodd;fill:#00B4FF;" d="M-120.5,18.9l1.9,1.1l5.8-3.9v-1.9l-5,3.4l-0.5,0.9
							l-2.2-1.3V18.9z M-122.5,19.8L-122.5,19.8l0-5.4l0.4-0.3l0,0l0,0l0.4-0.3h0l2.8-1.9l0,0l1.8-1.2l1.2,0.7l2,1.2l0.9-0.6l0,0
							l1.1-0.7l0,0l0,0l0,0l1,0.6l0,0v0l3,1.7l0,0.3h0v5.4l-0.4,0.3l0,0l0,0l-0.4,0.3h0l-2.8,1.9l0,0l-1.8,1.2l-1.2-0.7l-2-1.1
							l-1,0.6l-0.1,0.1l-0.9,0.6l-0.5-0.7l-0.5,0.2l-3.1-1.7L-122.5,19.8z M-118.8,15.9l3.2-2.1l-1.3-0.8l-3.2,2.2L-118.8,15.9z
							 M-110.8,14v1.7l1,0.6v-1.7L-110.8,14z M-111.4,17.6l-3.2,2.2l1.3,0.7l3.2-2.2L-111.4,17.6z"/>
					</g>
				</g>
			</g>
		</g>
	</g>
	<g>
		<g id="BlueRectGroup12" transform="translate(726,189.5)">
			<rect x="-126.5" y="-172.7" style="fill:#CEE3FF;" width="178" height="288"/>
		</g>
		<g id="ShadowBasicRect5_2_" transform="translate(540,125)">
			<g>
				<rect x="77.5" y="-90.2" style="opacity:0.6;fill:#BBBBBB;enable-background:new    ;" width="138" height="50"/>
				<g>
					<rect x="76" y="-91.7" style="fill:#FFFFFF;" width="137" height="49"/>
					<path style="fill:#E5E5E5;" d="M212.5-91.2v48h-136v-48H212.5 M213.5-92.2h-138v50h138V-92.2L213.5-92.2z"/>
				</g>
			</g>
			<g transform="translate(20 9)">
				<g style="enable-background:new    ;">
					<path style="fill:#444444;" d="M87.7-82.7v0.9h2.2v0.8h-2.2v1h1.9v0.8h-1.9v1h2.4v0.9h-5.9v-0.9h2.5v-1h-2V-80h2v-1h-2.3v-0.8
						h2.3v-0.9H87.7z M85.8-69.9h-1v-6.7h4.7v5.6c0,0.7-0.3,1-1,1h-0.9l-0.2-0.9l0.8,0c0.2,0,0.4-0.1,0.4-0.3v-1h-2.8V-69.9z
						 M88.6-75.7h-2.8v1h2.8V-75.7z M85.8-72.9h2.8v-1h-2.8V-72.9z M93.3-82.6c-0.1,0.3-0.3,0.5-0.4,0.7h2.8v0.7
						c-0.4,0.7-0.9,1.3-1.3,1.8h1.7v2.5h0.7v0.9h-0.7v2.6h-2.5v2.2c0,0.8-0.4,1.2-1.2,1.2h-1.4l-0.2-1c0.4,0,0.8,0.1,1.2,0.1
						c0.4,0,0.5-0.2,0.5-0.5v-2h-2.1v-1h2.1v-1.6h-2.5v-0.9h2.5v-1.6h-2v-0.9c-0.1,0.1-0.1,0.1-0.2,0.2l-0.6-0.7
						c1-0.7,1.9-1.7,2.5-2.9L93.3-82.6z M93.3-79.4c0.4-0.5,0.9-1,1.3-1.6h-2.2c-0.5,0.6-1,1.1-1.6,1.6H93.3z M93.7-76.9h1.6v-1.6
						h-1.6V-76.9z M93.7-74.3h1.6v-1.6h-1.6V-74.3z"/>
					<path style="fill:#444444;" d="M105-82.7c-0.1,0.5-0.2,1-0.3,1.5h5.4v1h-4.5c0.7,1.6,2.4,2.8,5.2,3.6l-0.5,0.9
						c-3.1-1.1-5-2.6-5.7-4.5h-0.2c-0.3,0.8-0.7,1.5-1.2,2.1c-0.1,0.1-0.1,0.1-0.1,0.2c0.6,0.4,1.3,1,2,1.7l-0.7,0.7
						c-0.7-0.7-1.3-1.3-2-1.8c-0.9,0.7-2.2,1.2-3.9,1.7l-0.4-0.9c2-0.5,3.4-1.2,4.3-2.2c0.4-0.4,0.7-0.9,1-1.5h-4.6v-1h4.9
						c0.2-0.5,0.3-1,0.3-1.6L105-82.7z M100.5-74.3c-0.3,1.5-0.8,2.7-1.4,3.8l-0.9-0.5c0.6-1,1-2.2,1.3-3.4L100.5-74.3z M102.9-70.1
						c-0.9,0-1.3-0.5-1.3-1.4v-3h1v2.8c0,0.4,0.2,0.6,0.6,0.6h3.1c0.3,0,0.5-0.1,0.6-0.3c0.2-0.2,0.3-0.8,0.3-1.7l1,0.3
						c-0.1,1.3-0.3,2-0.6,2.3c-0.3,0.2-0.6,0.4-1.2,0.4H102.9z M106.1-72.7l-0.9,0.4c-0.4-0.9-0.8-1.8-1.2-2.5l0.9-0.3
						C105.3-74.3,105.7-73.5,106.1-72.7z M110.8-71.4l-0.9,0.4c-0.5-1.3-1.1-2.5-1.8-3.5l1-0.3C109.7-73.7,110.3-72.6,110.8-71.4z"
						/>
					<path style="fill:#444444;" d="M121.4-69.9l-0.3-1l1.3,0c0.4,0,0.6-0.2,0.6-0.6v-9.7h-9.2v11.3h-1v-12.2h11.2v10.9
						c0,0.9-0.4,1.3-1.2,1.3H121.4z M116.8-75c-0.5,1.4-1.1,2.5-1.8,3.5l-0.6-0.8c0.7-1,1.3-2.3,1.8-3.7c-0.7-0.9-1.3-1.7-2-2.5
						l0.6-0.6c0.5,0.5,1.1,1.2,1.7,2c0.3-1,0.5-2,0.7-3.2L118-80c-0.2,1.4-0.5,2.8-0.9,4c0.5,0.7,1.1,1.5,1.7,2.4l-0.7,0.7
						C117.6-73.7,117.2-74.4,116.8-75z M120.8-74.7c-0.6,1.4-1.2,2.5-2,3.5l-0.6-0.8c0.8-1.1,1.4-2.3,2-3.7c-0.6-1-1.3-1.8-1.9-2.6
						l0.6-0.6c0.5,0.6,1.1,1.3,1.7,2.1c0.3-1.1,0.5-2.2,0.7-3.4l1,0.2c-0.3,1.6-0.6,3-1,4.2c0.5,0.8,1.1,1.7,1.7,2.7l-0.7,0.7
						C121.7-73.2,121.2-74,120.8-74.7z"/>
					<path style="fill:#444444;" d="M131.6-71.9c-1.6,0.5-3.3,0.8-5.1,1.1l-0.2-1c1-0.1,2-0.3,3-0.5c0.4-2,0.8-4.1,1-6.3l1,0.1
						c-0.2,2.2-0.5,4.1-1,6c0.5-0.1,0.9-0.3,1.4-0.4V-71.9z M128.6-80.4c-0.2-0.8-0.4-1.4-0.6-2.1l1-0.2c0.2,0.6,0.4,1.4,0.5,2.2
						h2.3v1h-5.5v-1H128.6z M128.5-72.9l-0.8,0.2c-0.3-1.9-0.6-3.8-1-5.5l0.9-0.3C127.9-76.9,128.2-75,128.5-72.9z M135.3-82.7v2.5
						h3.5v1h-3.5v2.7h2.8v6.6h-1v-0.9h-4v0.9h-1v-6.6h2v-6.2H135.3z M137.1-71.8v-3.9h-4v3.9H137.1z"/>
					<path style="fill:#444444;" d="M140.5-70l-0.2-1c0.5,0,0.9,0.1,1.3,0.1c0.4,0,0.5-0.2,0.5-0.5v-3.5c-0.6,0.2-1.2,0.4-1.8,0.5
						l-0.3-1c0.7-0.2,1.4-0.3,2.1-0.6V-79h-1.9v-1h1.9v-2.6h1v2.6h1.4v1h-1.4v2.8c0.4-0.2,0.9-0.4,1.3-0.6v1
						c-0.4,0.2-0.9,0.4-1.3,0.5v4.1c0,0.8-0.4,1.2-1.2,1.2H140.5z M152.7-76.5l-4.3,0.6v4.2c0,0.4,0.2,0.6,0.6,0.6h2
						c0.3,0,0.5-0.1,0.6-0.3c0.1-0.3,0.2-1,0.3-2.3l1,0.3c-0.1,1.5-0.3,2.5-0.5,2.8c-0.3,0.3-0.6,0.4-1.1,0.4h-2.5
						c-0.9,0-1.3-0.4-1.3-1.3v-4.3l-2.3,0.3l-0.2-1l2.4-0.3v-3.6c-0.7,0.1-1.3,0.2-2,0.2l-0.3-0.9c2.6-0.2,4.7-0.7,6.4-1.5l0.5,0.8
						c-1.1,0.5-2.4,0.9-3.6,1.1v3.6l4.2-0.6L152.7-76.5z"/>
					<path style="fill:#444444;" d="M155.1-79.3l-0.9-0.6c0.8-0.9,1.5-1.8,1.8-2.9l1,0.2c-0.1,0.3-0.2,0.6-0.3,0.9h3.8v0.9h-2.4
						c0.3,0.4,0.6,0.8,0.8,1.2l-0.9,0.4c-0.3-0.5-0.6-1.1-0.9-1.6h-0.8C155.9-80.2,155.5-79.7,155.1-79.3z M166.4-76.3h-1V-78h-9.9
						v1.7h-1v-2.5h5.5c-0.1-0.3-0.3-0.6-0.4-0.9l1-0.2l-0.1-0.1c0.7-0.8,1.1-1.8,1.5-2.8l1,0.2c-0.1,0.3-0.2,0.6-0.3,0.9h4v0.9h-2.5
						c0.3,0.4,0.5,0.8,0.7,1.1l-0.9,0.3c-0.3-0.5-0.5-1-0.9-1.4h-0.9c-0.3,0.5-0.5,0.9-0.9,1.3l-0.8-0.5c0.2,0.3,0.3,0.7,0.4,1.1
						h5.3V-76.3z M164.5-74.4h-7v1h7.6v3.6h-1v-0.6h-6.6v0.6h-1v-7.3h8V-74.4z M163.5-75.2v-1.1h-6v1.1H163.5z M164.2-71.3v-1.3
						h-6.6v1.3H164.2z"/>
				</g>
			</g>
		</g>
		<g id="ShadowBasicRect5_3_" transform="translate(540,125)">
			<g>
				<rect x="77.5" y="-22.2" style="opacity:0.6;fill:#BBBBBB;enable-background:new    ;" width="138" height="50"/>
				<g>
					<rect x="76" y="-23.7" style="fill:#FFFFFF;" width="137" height="49"/>
					<path style="fill:#E5E5E5;" d="M212.5-23.2v48h-136v-48H212.5 M213.5-24.2h-138v50h138V-24.2L213.5-24.2z"/>
				</g>
			</g>
			<g transform="translate(20 9)">
				<g style="enable-background:new    ;">
					<path style="fill:#444444;" d="M117.8-10v1h-6.7c-1.3,2.6-2.4,4.5-3.4,5.5c2.5-0.1,5-0.4,7.5-0.7c-0.5-0.9-1.1-1.8-1.7-2.8
						l0.8-0.5c1.3,1.9,2.3,3.6,3,5.1l-0.9,0.6c-0.2-0.5-0.5-1-0.7-1.5c-2.8,0.4-5.9,0.6-9.3,0.9l-0.3-1c0.1,0,0.2-0.1,0.2-0.1
						c0.9-0.7,2.1-2.5,3.6-5.5h-4.7v-1H117.8z M116.6-13.9v1h-10v-1H116.6z"/>
					<path style="fill:#444444;" d="M123.4-13.3c0.2-0.5,0.3-1,0.5-1.5l1,0.1c-0.1,0.5-0.3,0.9-0.4,1.4h7.2v1h-7.5
						c-0.5,1.2-1.2,2.3-1.9,3.3v7.1h-1v-5.9c-0.5,0.5-1,1-1.5,1.5l-0.6-0.8c1.7-1.5,3-3.2,3.9-5.2h-3.4v-1H123.4z M127.3-6.7V-8
						c0.8-0.4,1.6-1,2.3-1.6h-5.3v-0.9h6.6v0.9c-0.8,0.7-1.6,1.4-2.6,2v0.9h3.5v1h-3.5v2.6c0,0.8-0.4,1.2-1.2,1.2h-1.8l-0.3-1
						c0.5,0,1,0,1.6,0c0.4,0,0.6-0.2,0.6-0.6v-2.3h-4.1v-1H127.3z"/>
					<path style="fill:#444444;" d="M133.3-8.1L133-9.2c1.1-1.6,1.9-3.4,2.4-5.5l0.9,0.4c-0.3,1-0.6,1.9-0.9,2.7v9.7h-1v-7.8
						C134.1-9.1,133.7-8.6,133.3-8.1z M138.5-10.3v5.9c0.4-0.4,0.7-0.8,1.1-1.3l0.2,1c-0.7,0.9-1.5,1.7-2.2,2.4l-0.4-0.9
						c0.2-0.2,0.3-0.4,0.3-0.5v-5.6h-1.6v-0.9H138.5z M139.3-12l-0.7,0.7c-0.5-0.7-1.2-1.4-2-2.2l0.7-0.7
						C138.1-13.4,138.7-12.7,139.3-12z M141.7-13v-1.6h0.9v1.6h1.6v0.8c0.3-0.6,0.5-1.1,0.8-1.7l0.8,0.4c-0.5,1.2-1,2.2-1.7,3.2h1.6
						v0.9h-2.3c-0.4,0.5-0.8,0.9-1.2,1.3h2.9v6.2h-1v-0.6h-2.6v0.6h-0.9v-5c-0.3,0.2-0.7,0.4-1,0.5l-0.5-0.8
						c1.2-0.5,2.3-1.3,3.2-2.3h-2.5v-0.9h2v-1.8H140V-13H141.7z M144.2-7.2h-2.6v1.5h2.6V-7.2z M141.5-3.3h2.6v-1.5h-2.6V-3.3z
						 M144.2-12.2h-1.6v1.8h0.4C143.4-10.9,143.8-11.5,144.2-12.2z"/>
				</g>
			</g>
		</g>
		<g id="ShadowBasicRect5_5_" transform="translate(540,125)">
			<g>
				<rect x="77.5" y="45.8" style="opacity:0.6;fill:#BBBBBB;enable-background:new    ;" width="138" height="50"/>
				<g>
					<rect x="76" y="44.3" style="fill:#FFFFFF;" width="137" height="49"/>
					<path style="fill:#E5E5E5;" d="M212.5,44.8v48h-136v-48H212.5 M213.5,43.8h-138v50h138V43.8L213.5,43.8z"/>
				</g>
			</g>
			<g transform="translate(20 9)">
				<g style="enable-background:new    ;">
					<path style="fill:#444444;" d="M117.8,58v1h-6.7c-1.3,2.6-2.4,4.5-3.4,5.5c2.5-0.1,5-0.4,7.5-0.7c-0.5-0.9-1.1-1.8-1.7-2.8
						l0.8-0.5c1.3,1.9,2.3,3.6,3,5.1l-0.9,0.6c-0.2-0.5-0.5-1-0.7-1.5c-2.8,0.4-5.9,0.6-9.3,0.9l-0.3-1c0.1,0,0.2-0.1,0.2-0.1
						c0.9-0.7,2.1-2.5,3.6-5.5h-4.7v-1H117.8z M116.6,54.1v1h-10v-1H116.6z"/>
					<path style="fill:#444444;" d="M131.1,56.4v9.8h-1v-0.8h-9.3v0.8h-1v-9.8h1v8.1h9.3v-8.1H131.1z M121.1,62.1
						c1.5-0.8,2.8-1.9,4.1-3.2v-2.4c1.4-0.7,2.5-1.3,3.2-1.7h-7.2v-1h8.7v1c-1.1,0.8-2.4,1.5-3.7,2.3v2.1c1.2,0.8,2.4,1.8,3.7,2.9
						l-0.6,0.9c-1.2-1.2-2.3-2.1-3.1-2.7v2.4c0,0.8-0.4,1.2-1.1,1.2h-1.3l-0.3-0.9c0.4,0,0.7,0,1.2,0c0.4,0,0.6-0.2,0.6-0.7v-2.2
						c-1.2,1.1-2.5,2.1-3.8,3L121.1,62.1z M124.3,58.9l-0.8,0.5c-0.5-0.6-1.1-1.3-1.9-2.1l0.7-0.5C123.2,57.6,123.9,58.3,124.3,58.9
						z M129.5,57.1c-0.6,0.9-1.2,1.7-2,2.3l-0.7-0.5c0.7-0.6,1.4-1.4,1.9-2.2L129.5,57.1z"/>
					<path style="fill:#444444;" d="M136.7,59.9c-0.1,0.3-0.2,0.5-0.3,0.8h2.9v0.8c-0.3,0.9-0.8,1.7-1.6,2.4c0.7,0.3,1.3,0.6,1.9,1
						l-0.5,0.8c-0.6-0.4-1.3-0.7-2.2-1.1c-0.9,0.6-2.1,1.2-3.5,1.6l-0.5-0.8c1.1-0.3,2.1-0.7,3-1.1c-0.6-0.3-1.3-0.5-1.9-0.8
						c0.4-0.6,0.7-1.2,1-1.8h-1.7v-0.9h2c0.1-0.3,0.2-0.6,0.3-0.9L136.7,59.9z M136.2,56v-2.7h0.9V56h2.5v0.9h-2.5V57
						c0.8,0.4,1.5,0.8,2.3,1.3l-0.5,0.8c-0.7-0.6-1.3-1-1.8-1.3v1.8h-0.9v-2.7c-0.5,1.1-1.3,2.1-2.5,2.9l-0.5-0.8
						c1.1-0.6,1.8-1.3,2.3-2.1h-2V56H136.2z M135.4,55.3l-0.7,0.3c-0.3-0.7-0.6-1.3-0.9-1.8l0.8-0.3
						C134.9,54.1,135.1,54.7,135.4,55.3z M138.5,61.6h-2.4c-0.2,0.5-0.5,0.9-0.8,1.3c0.6,0.2,1.1,0.4,1.6,0.6
						C137.6,63,138.1,62.3,138.5,61.6z M139.5,53.9c-0.3,0.6-0.6,1.2-1.1,1.8l-0.7-0.4c0.4-0.6,0.8-1.2,1.1-1.8L139.5,53.9z
						 M141,58.7c-0.3,0.6-0.5,1.2-0.8,1.7l-0.6-0.8c0.8-1.6,1.4-3.7,1.7-6.3l1,0.2c-0.1,0.7-0.2,1.4-0.3,2h3.7v1h-0.9
						c-0.1,2.3-0.5,4.3-1.3,6c0.7,1.3,1.6,2.2,2.6,2.9l-0.5,0.8c-1-0.7-1.8-1.7-2.5-2.8c-0.7,1.1-1.5,2.1-2.6,2.8l-0.5-0.8
						c1.1-0.8,1.9-1.7,2.6-2.9C141.9,61.3,141.4,60.1,141,58.7z M141.5,57.2c0.3,1.6,0.8,3.1,1.4,4.2c0.5-1.4,0.8-3.1,0.9-5h-2.1
						L141.5,57.2z"/>
				</g>
			</g>
		</g>
		<g id="ShadowBasicRect5_6_" transform="translate(540,125)">
			<g>
				<rect x="77.5" y="113.8" style="opacity:0.6;fill:#BBBBBB;enable-background:new    ;" width="138" height="50"/>
				<g>
					<rect x="76" y="112.3" style="fill:#FFFFFF;" width="137" height="49"/>
					<path style="fill:#E5E5E5;" d="M212.5,112.8v48h-136v-48H212.5 M213.5,111.8h-138v50h138V111.8L213.5,111.8z"/>
				</g>
			</g>
			<g transform="translate(20 9)">
				<g style="enable-background:new    ;">
					<path style="fill:#444444;" d="M100,126.4v-3h-1.8v-1h4.5v1H101v3h1.6v1H101v3.3c0.6-0.2,1.3-0.4,1.9-0.7v1
						c-1.4,0.5-2.9,1-4.6,1.4l-0.3-1c0.7-0.1,1.3-0.3,1.9-0.4v-3.6h-1.6v-1H100z M110.5,122v1h-2.5c-0.2,0.6-0.4,1.2-0.6,1.8v9.4h-1
						v-7.5c-0.8,1.4-1.8,2.6-3,3.7l-0.6-0.8c2-1.8,3.5-4,4.3-6.6h-3.6v-1H110.5z M111.1,129.6l-0.8,0.6c-0.7-1.2-1.6-2.5-2.7-3.9
						l0.8-0.5C109.5,127.3,110.4,128.5,111.1,129.6z"/>
					<path style="fill:#444444;" d="M116.3,130.8c-1.2,0.6-2.5,1.1-3.9,1.5l-0.3-1.1c0.5-0.1,1-0.2,1.5-0.4v-5.2h-1.5v-1h1.5v-3.3h1
						v3.3h1.2v1h-1.2v4.8c0.6-0.2,1.1-0.5,1.7-0.7V130.8z M123.8,126.4v4.4H122v1.8c0,0.3,0.1,0.4,0.4,0.4h1.1
						c0.2,0,0.3-0.1,0.4-0.2c0.1-0.2,0.2-0.6,0.2-1.4l0.9,0.3c-0.1,1-0.2,1.6-0.4,1.8c-0.2,0.2-0.5,0.3-0.9,0.3h-1.6
						c-0.7,0-1.1-0.4-1.1-1.1v-2h-1.4c-0.2,0.8-0.5,1.5-1.1,2c-0.6,0.5-1.6,1-2.9,1.3l-0.4-0.9c1.2-0.2,2-0.6,2.5-1
						c0.4-0.4,0.7-0.9,0.9-1.5h-1.5v-4.4H123.8z M119.9,122.4c-0.1-0.4-0.3-0.7-0.4-1l1.1-0.2c0.1,0.4,0.3,0.8,0.4,1.2h3.4v0.8h-1.5
						c-0.1,0.5-0.3,1-0.5,1.5h2.4v0.9h-8.4v-0.9h2.2c-0.1-0.5-0.3-1-0.5-1.5h-1.3v-0.8H119.9z M122.8,128.3v-1h-4.7v1H122.8z
						 M122.8,129h-4.7v1h4.7V129z M121.9,123.2H119c0.2,0.5,0.3,1,0.4,1.5h1.9C121.6,124.2,121.8,123.7,121.9,123.2z"/>
					<path style="fill:#444444;" d="M127.1,124.7l-0.9-0.6c0.8-0.9,1.5-1.8,1.8-2.9l1,0.2c-0.1,0.3-0.2,0.6-0.4,0.9h3.8v0.9h-2.4
						c0.3,0.4,0.6,0.8,0.8,1.2l-0.9,0.4c-0.3-0.5-0.6-1.1-0.9-1.6h-0.8C127.9,123.8,127.5,124.3,127.1,124.7z M138.4,127.7h-1V126
						h-9.9v1.7h-1v-2.5h5.5c-0.1-0.3-0.3-0.6-0.4-0.9l1-0.2l-0.1-0.1c0.7-0.8,1.1-1.8,1.5-2.8l1,0.2c-0.1,0.3-0.2,0.6-0.3,0.9h4v0.9
						h-2.5c0.3,0.4,0.5,0.8,0.7,1.1l-0.9,0.3c-0.3-0.5-0.5-1-0.9-1.4h-0.9c-0.3,0.5-0.5,0.9-0.9,1.3l-0.8-0.5
						c0.2,0.3,0.3,0.7,0.4,1.1h5.3V127.7z M136.5,129.6h-7v1h7.6v3.6h-1v-0.6h-6.6v0.6h-1v-7.3h8V129.6z M135.5,128.8v-1.1h-6v1.1
						H135.5z M136.2,132.7v-1.3h-6.6v1.3H136.2z"/>
					<path style="fill:#444444;" d="M141.9,126.5v-3.3h-1.7v-1h4.5v1h-1.7v3.3h1.5v1h-1.5v3.2c0.5-0.2,1-0.4,1.5-0.6v1
						c-1.3,0.5-2.7,1-4.2,1.3l-0.3-1c0.6-0.1,1.2-0.3,1.8-0.4v-3.5h-1.5v-1H141.9z M152.2,121.9v6.5h-2.9v1.7h3.2v1h-3.2v1.8h3.7v1
						h-8.4v-1h3.8V131h-3.2v-1h3.2v-1.7h-2.9v-6.5H152.2z M148.3,124.7v-1.9h-2v1.9H148.3z M148.3,125.6h-2v1.9h2V125.6z
						 M149.3,124.7h1.9v-1.9h-1.9V124.7z M151.2,125.6h-1.9v1.9h1.9V125.6z"/>
				</g>
			</g>
		</g>
	</g>
	<g id="Link21" transform="translate(0,0)">
		<path style="fill:none;stroke:#888888;" d="M175.5,160.8h38.9"/>
		<g transform="translate(0.5, 0)">
			<polygon style="fill-rule:evenodd;clip-rule:evenodd;fill:#888888;" points="209.4,165.3 215.4,160.8 209.4,156.3 			"/>
		</g>
		<path style="fill:none;stroke:#FF0000;stroke-width:15;stroke-opacity:0;" d="M175.5,160.8h38.9"/>
	</g>
	<g id="Link21_1_" transform="translate(0,0)">
		<path style="fill:none;stroke:#888888;" d="M374.5,160.8h38.9"/>
		<g transform="translate(0.5, 0)">
			<polygon style="fill-rule:evenodd;clip-rule:evenodd;fill:#888888;" points="408.4,165.3 414.4,160.8 408.4,156.3 			"/>
		</g>
		<path style="fill:none;stroke:#FF0000;stroke-width:15;stroke-opacity:0;" d="M374.5,160.8h38.9"/>
	</g>
	<g id="Link21_2_" transform="translate(0,0)">
		<path style="fill:none;stroke:#888888;" d="M556.5,160.8h38.9"/>
		<g transform="translate(0.5, 0)">
			<polygon style="fill-rule:evenodd;clip-rule:evenodd;fill:#888888;" points="590.4,165.3 596.4,160.8 590.4,156.3 			"/>
		</g>
		<path style="fill:none;stroke:#FF0000;stroke-width:15;stroke-opacity:0;" d="M556.5,160.8h38.9"/>
	</g>
	<g id="RectEndPoint2" transform="translate(185,274.5)">
		<rect x="-147.5" y="-137.7" style="opacity:0.6;fill:#BBBBBB;enable-background:new    ;" width="138" height="50"/>
		<g>
			<rect x="-149" y="-139.2" style="fill:#FFFFFF;" width="137" height="49"/>
			<path style="fill:#E5E5E5;" d="M-12.5-138.7v48h-136v-48H-12.5 M-11.5-139.7h-138v50h138V-139.7L-11.5-139.7z"/>
		</g>
		<g transform="translate(20 9)">
			<g>
				<g>
					<path style="fill:#878787;" d="M-125.5-134.6c2.2,0,4,1.8,4,4s-1.8,4-4,4s-4-1.8-4-4S-127.7-134.6-125.5-134.6 M-125.5-136.6
						c-3.3,0-6,2.7-6,6c0,3.3,2.7,6,6,6s6-2.7,6-6C-119.5-133.9-122.2-136.6-125.5-136.6z"/>
					<path style="fill:#878787;" d="M-121.5-120.6c3.3,0,6,2.7,6,6v1h-20v-1c0-3.3,2.7-6,6-6H-121.5 M-121.5-122.6h-8
						c-4.4,0-8,3.6-8,8v3h24v-3C-113.5-119-117.1-122.6-121.5-122.6z"/>
					<path style="fill:#878787;" d="M-112.5-122.6h-3c0.8,0.6,1.4,1.2,2,2h1c2.2,0,4,1.8,4,4v1h-3c0,0.3,0,0.7,0,1v1h5v-3
						C-106.5-119.9-109.2-122.6-112.5-122.6z"/>
					<path style="fill:#878787;" d="M-116.5-135.6c-0.8,0-1.6,0.2-2.3,0.6c0.4,0.6,0.7,1.2,0.9,1.8c1.4-0.8,3.3-0.3,4.1,1.1
						c0.8,1.4,0.3,3.3-1.1,4.1c-0.9,0.5-2,0.5-3,0c-0.2,0.6-0.5,1.2-0.9,1.8c0.7,0.4,1.5,0.6,2.3,0.6c2.8,0,5-2.2,5-5
						C-111.5-133.4-113.7-135.6-116.5-135.6z"/>
				</g>
			</g>
			<g style="enable-background:new    ;">
				<path style="fill:#444444;" d="M-89.3-127.7c-0.2,0.3-0.4,0.6-0.6,0.9h5.2v0.8c-0.6,0.8-1.4,1.5-2.5,2.1c1.5,0.6,3.2,1,5.1,1.1
					l-0.2,0.9c-2.2-0.2-4.2-0.7-6-1.5c-1.7,0.8-3.7,1.3-6.3,1.8l-0.4-0.9c2.3-0.4,4.1-0.8,5.6-1.4c-0.7-0.4-1.4-0.9-2-1.4
					c-0.5,0.5-1.1,0.9-1.8,1.3l-0.6-0.8c1.4-0.8,2.5-1.8,3.4-3.2L-89.3-127.7z M-82.8-126.5h-1v-1.7h-9.3v1.7h-1v-2.6h5.1
					c-0.2-0.4-0.3-0.7-0.5-1l1.1-0.2c0.2,0.3,0.3,0.7,0.5,1.1h5.2V-126.5z M-84.4-117.3h-1v-0.6h-6v0.6h-1v-4.4h8V-117.3z
					 M-85.4-118.8v-2h-6v2H-85.4z M-86-125.9h-4.7l0,0c0.7,0.6,1.6,1.1,2.4,1.6C-87.3-124.8-86.5-125.4-86-125.9z"/>
				<path style="fill:#444444;" d="M-80.3-117.3L-81-118c1.1-1.6,1.7-3.6,1.7-6.1v-4.4h4.6c-0.3-0.6-0.5-1.1-0.8-1.6l1.1-0.2
					c0.3,0.5,0.5,1.1,0.8,1.8h4.4v4.7h-9C-78.4-121.2-79-119.1-80.3-117.3z M-78.3-127.5v2.7h8v-2.7H-78.3z"/>
			</g>
		</g>
	</g>
	<g transform="translate(10 10)">
		<g style="enable-background:new    ;">
			<path style="fill:#00A4FF;" d="M239.2,12.6v1.1h-7c-1.3,2.9-2.5,5-3.5,6.1c2.6-0.2,5.3-0.4,7.9-0.8c-0.5-1-1.1-2-1.8-3.1l0.8-0.6
				c1.3,2.1,2.4,4,3.1,5.6l-0.9,0.7c-0.2-0.5-0.5-1.1-0.8-1.6c-3,0.4-6.2,0.7-9.7,1l-0.3-1.1c0.1,0,0.2-0.1,0.2-0.1
				c0.9-0.7,2.2-2.8,3.7-6.1h-4.9v-1.1H239.2z M237.9,8.2v1.1h-10.4V8.2H237.9z"/>
			<path style="fill:#00A4FF;" d="M253,8.3v1.1h-2.4v4.1h3.2v1.1h-3.2v6.9h-1.1v-6.9h-4.2c-0.1,1.6-0.4,2.9-0.8,4
				c-0.6,1.3-1.5,2.3-2.8,3l-0.6-1c1.2-0.7,2-1.7,2.5-2.8c0.3-0.9,0.5-2,0.6-3.2h-3.4v-1.1h3.4c0-0.2,0-0.4,0-0.5V9.3h-2.7V8.3H253z
				 M245.3,12.9c0,0.2,0,0.4,0,0.5h4.2V9.3h-4.1V12.9z"/>
			<path style="fill:#00A4FF;" d="M257.4,7.8l1,0.2l-0.8,3.1h2.6c0.3-1.2,0.5-2.5,0.7-3.8l1.1,0.1c-0.2,1.3-0.4,2.5-0.7,3.7h6.8v1.1
				H261c-0.2,0.6-0.4,1.2-0.6,1.8h6v1c-0.4,1.3-1.2,2.5-2.4,3.6c1.2,0.7,2.6,1.4,4.3,2l-0.5,1c-1.9-0.7-3.4-1.5-4.7-2.4
				c-1.2,0.9-2.7,1.7-4.5,2.4l-0.6-1c1.6-0.6,3-1.3,4.1-2.1c-1.1-0.9-1.9-1.9-2.4-3c-1.1,2.5-2.4,4.4-4.1,5.8l-0.5-1
				c2.1-2,3.7-4.7,4.7-8.2h-3.6L257.4,7.8z M263.1,17.8c1.1-0.9,1.8-1.9,2.2-2.9h-4.7C261.1,15.9,262,16.9,263.1,17.8z M267,9.9
				l-0.7,0.8c-0.6-0.8-1.5-1.7-2.6-2.6l0.7-0.7C265.5,8.2,266.3,9,267,9.9z"/>
		</g>
	</g>
</g>
</svg>
