<?xml version="1.0" encoding="UTF-8"?>
<svg width="48px" height="48px" viewBox="0 0 48 48" version="1.1" xmlns="http://www.w3.org/2000/svg" xmlns:xlink="http://www.w3.org/1999/xlink">
    <!-- Generator: Sketch 63.1 (92452) - https://sketch.com -->
    <title>丰富的案例  </title>
    <desc>Created with Sketch.</desc>
    <g id="丰富的案例--" stroke="none" stroke-width="1" fill="none" fill-rule="evenodd">
        <g id="1559546382169-48x48" fill-rule="nonzero">
            <path d="M15,31 C15,30.2606419 14.5988051,29.614988 14.0022383,29.2688611 L22.9977617,13.7311389 C23.2924403,13.9021109 23.6347886,14 24,14 C24.3652114,14 24.7075597,13.9021109 25.0022383,13.7311389 L33.9977617,29.2688611 C33.4011949,29.614988 33,30.2606419 33,31 L15,31 Z" id="Combined-Shape" fill="#00A4FF"></path>
            <path d="M24,48 C10.745166,48 0,37.254834 0,24 C0,10.745166 10.745166,0 24,0 C37.254834,0 48,10.745166 48,24 C48,37.254834 37.254834,48 24,48 Z M24,46 C36.1502645,46 46,36.1502645 46,24 C46,11.8497355 36.1502645,2 24,2 C11.8497355,2 2,11.8497355 2,24 C2,36.1502645 11.8497355,46 24,46 Z" id="Oval-7" fill="#334966"></path>
            <path d="M14.8145737,34.5656897 C15.4252294,34.2543079 15.9452801,33.7906682 16.3246941,33.2248024 C18.4050746,34.9576354 21.0808086,36 24,36 C26.9191914,36 29.5949254,34.9576354 31.6753059,33.2248024 C32.0547199,33.7906682 32.5747706,34.2543079 33.1854263,34.5656897 C30.7269515,36.7048161 27.514729,38 24,38 C20.485271,38 17.2730485,36.7048161 14.8145737,34.5656897 Z M10.5357445,27.8489923 C10.1868216,26.6261095 10,25.334872 10,24 C10,17.551591 14.3596628,12.1214358 20.2922827,10.4962402 C20.1038132,10.9604754 20,11.4681143 20,12 C20,12.2260729 20.0187548,12.4477653 20.0547934,12.6636063 C15.3654241,14.2953815 12,18.7546723 12,24 C12,25.0525528 12.1355134,26.0734547 12.390045,27.0462105 C11.6974903,27.1521733 11.0634061,27.4357513 10.5357445,27.8489923 Z M37.4642555,27.8489923 C36.9365939,27.4357513 36.3025097,27.1521733 35.609955,27.0462105 C35.8644866,26.0734547 36,25.0525528 36,24 C36,18.7546723 32.6345759,14.2953815 27.9452066,12.6636063 C27.9812452,12.4477653 28,12.2260729 28,12 C28,11.4681143 27.8961868,10.9604754 27.7077173,10.4962402 C33.6403372,12.1214358 38,17.551591 38,24 C38,25.334872 37.8131784,26.6261095 37.4642555,27.8489923 Z" id="Combined-Shape" fill="#334966"></path>
            <path d="M24,14 C25.1045695,14 26,13.1045695 26,12 C26,10.8954305 25.1045695,10 24,10 C22.8954305,10 22,10.8954305 22,12 C22,13.1045695 22.8954305,14 24,14 Z M24,16 C21.790861,16 20,14.209139 20,12 C20,9.790861 21.790861,8 24,8 C26.209139,8 28,9.790861 28,12 C28,14.209139 26.209139,16 24,16 Z" id="Oval-Copy-3" fill="#334966"></path>
            <path d="M13,33 C14.1045695,33 15,32.1045695 15,31 C15,29.8954305 14.1045695,29 13,29 C11.8954305,29 11,29.8954305 11,31 C11,32.1045695 11.8954305,33 13,33 Z M13,35 C10.790861,35 9,33.209139 9,31 C9,28.790861 10.790861,27 13,27 C15.209139,27 17,28.790861 17,31 C17,33.209139 15.209139,35 13,35 Z" id="Oval-Copy-5" fill="#334966"></path>
            <path d="M35,33 C36.1045695,33 37,32.1045695 37,31 C37,29.8954305 36.1045695,29 35,29 C33.8954305,29 33,29.8954305 33,31 C33,32.1045695 33.8954305,33 35,33 Z M35,35 C32.790861,35 31,33.209139 31,31 C31,28.790861 32.790861,27 35,27 C37.209139,27 39,28.790861 39,31 C39,33.209139 37.209139,35 35,35 Z" id="Oval-Copy-4" fill="#334966"></path>
        </g>
    </g>
</svg>