<?xml version="1.0" encoding="UTF-8"?>
<svg width="48px" height="48px" viewBox="0 0 48 48" version="1.1" xmlns="http://www.w3.org/2000/svg" xmlns:xlink="http://www.w3.org/1999/xlink">
    <!-- Generator: Sketch 51.2 (57519) - http://www.bohemiancoding.com/sketch -->
    <title>数据实时同步-48x48</title>
    <desc>Created with Sketch.</desc>
    <defs></defs>
    <g id="数据实时同步-48x48" stroke="none" stroke-width="1" fill="none" fill-rule="evenodd">
        <path d="M4.79978059,34.7516992 L9.85786438,35.3137085 L5.67331078,39.4982621 C-2.31894693,30.0687366 -1.86690477,15.9257793 7.02943725,7.02943725 C15.9257793,-1.86690477 30.0687366,-2.31894693 39.4982621,5.67331078 L38.078718,7.09285485 C29.4354283,-0.12143211 16.5584684,0.32883321 8.44365081,8.44365081 C1.31625208,15.5710495 0.10162867,26.3721759 4.79978059,34.7516992 Z M43.2002194,13.2483008 L38.1421356,12.6862915 L42.3266892,8.50173791 C50.3189469,17.9312634 49.8669048,32.0742207 40.9705627,40.9705627 C32.0742207,49.8669048 17.9312634,50.3189469 8.50173791,42.3266892 L9.92128198,40.9071451 C18.5645717,48.1214321 31.4415316,47.6711668 39.5563492,39.5563492 C46.6837479,32.4289505 47.8983713,21.6278241 43.2002194,13.2483008 Z" id="Combined-Shape" fill="#334966" fill-rule="nonzero"></path>
        <rect id="Rectangle-76" fill="#00A4FF" x="15" y="15" width="18" height="4"></rect>
        <rect id="Rectangle-76-Copy" fill="#00A4FF" x="15" y="22" width="18" height="4"></rect>
        <rect id="Rectangle-76-Copy-2" fill="#00A4FF" x="15" y="29" width="18" height="4"></rect>
    </g>
</svg>