<?xml version="1.0" encoding="UTF-8"?>
<svg width="48px" height="48px" viewBox="0 0 48 48" version="1.1" xmlns="http://www.w3.org/2000/svg" xmlns:xlink="http://www.w3.org/1999/xlink">
    <!-- Generator: Sketch 51.2 (57519) - http://www.bohemiancoding.com/sketch -->
    <title>运维-48x48</title>
    <desc>Created with Sketch.</desc>
    <defs></defs>
    <g id="运维-48x48" stroke="none" stroke-width="1" fill="none" fill-rule="evenodd">
        <path d="M25.3731037,0.0386216505 C24.6965084,0.640167328 24.0712977,1.29825074 23.5048819,2.0054615 C11.5832786,2.26871044 2,12.0152079 2,24 C2,36.1502645 11.8497355,46 24,46 C35.9847921,46 45.7312896,36.4167214 45.9945385,24.4951181 C46.7017493,23.9287023 47.3598327,23.3034916 47.9613783,22.6268963 C47.9870107,23.081333 48,23.5391496 48,24 C48,37.254834 37.254834,48 24,48 C10.745166,48 0,37.254834 0,24 C0,10.745166 10.745166,0 24,0 C24.4608504,0 24.918667,0.0129892622 25.3731037,0.0386216505 Z" id="Combined-Shape" fill="#334966" fill-rule="nonzero"></path>
        <circle id="Oval-11" fill="#00A4FF" cx="24" cy="24" r="12"></circle>
        <path d="M4.58203948,36.332174 C6.3915496,39.1751873 8.80850903,41.5943626 11.6498449,43.4065043 L32.5815201,22.4748291 L33.1394554,22.6246392 C34.0640828,22.8729092 35.0231587,23 36,23 C42.0751322,23 47,18.0751322 47,12 C47,10.5833498 46.7323538,9.20679974 46.2212088,7.92582206 L40.3220247,14.1112826 L35.1753789,12.8246211 L33.8887174,7.67797531 L40.0741779,1.77879121 C38.7932003,1.26764624 37.4166502,1 36,1 C29.9248678,1 25,5.92486775 25,12 C25,12.9693338 25.1251443,13.9211859 25.3696711,14.8392688 L25.5180083,15.3962053 L4.58203918,36.3321744 Z" id="Combined-Shape" stroke="#334966" stroke-width="2"></path>
    </g>
</svg>