<?xml version="1.0" encoding="UTF-8"?>
<svg width="48px" height="48px" viewBox="0 0 48 48" version="1.1" xmlns="http://www.w3.org/2000/svg" xmlns:xlink="http://www.w3.org/1999/xlink">
    <!-- Generator: Sketch 51.2 (57519) - http://www.bohemiancoding.com/sketch -->
    <title>内核优化-48x48</title>
    <desc>Created with Sketch.</desc>
    <defs></defs>
    <g id="内核优化-48x48" stroke="none" stroke-width="1" fill="none" fill-rule="evenodd">
        <path d="M5,10.4142136 L5,37.5857864 L10.4142136,43 L37.5857864,43 L43,37.5857864 L43,10.4142136 L37.5857864,5 L10.4142136,5 L5,10.4142136 Z" id="Rectangle-86" stroke="#334966" stroke-width="2"></path>
        <rect id="Rectangle-87" fill="#334966" x="23" y="0" width="2" height="6"></rect>
        <rect id="Rectangle-87-Copy-3" fill="#334966" x="23" y="42" width="2" height="6"></rect>
        <rect id="Rectangle-87-Copy" fill="#334966" x="29" y="0" width="2" height="6"></rect>
        <rect id="Rectangle-87-Copy-4" fill="#334966" x="29" y="42" width="2" height="6"></rect>
        <rect id="Rectangle-87-Copy-6" fill="#334966" x="0" y="17" width="6" height="2"></rect>
        <rect id="Rectangle-87-Copy-9" fill="#334966" x="42" y="17" width="6" height="2"></rect>
        <rect id="Rectangle-87-Copy-7" fill="#334966" x="0" y="23" width="6" height="2"></rect>
        <rect id="Rectangle-87-Copy-10" fill="#334966" x="42" y="23" width="6" height="2"></rect>
        <rect id="Rectangle-87-Copy-8" fill="#334966" x="0" y="29" width="6" height="2"></rect>
        <rect id="Rectangle-87-Copy-11" fill="#334966" x="42" y="29" width="6" height="2"></rect>
        <rect id="Rectangle-87-Copy-2" fill="#334966" x="17" y="0" width="2" height="6"></rect>
        <rect id="Rectangle-87-Copy-5" fill="#334966" x="17" y="42" width="2" height="6"></rect>
        <rect id="Rectangle-88" fill="#00A4FF" x="14" y="14" width="20" height="20"></rect>
    </g>
</svg>