<?xml version="1.0" encoding="UTF-8"?>
<svg width="48px" height="48px" viewBox="0 0 48 48" version="1.1" xmlns="http://www.w3.org/2000/svg" xmlns:xlink="http://www.w3.org/1999/xlink">
    <!-- Generator: Sketch 57.1 (83088) - https://sketch.com -->
    <title>2</title>
    <desc>Created with Sketch.</desc>
    <g id="2" stroke="none" stroke-width="1" fill="none" fill-rule="evenodd">
        <g id="编组-34" transform="translate(1.000000, 1.000000)">
            <g id="机器学习-48x48-01" fill="#334966" fill-rule="nonzero">
                <path d="M23,0 C10.3,0 0,10.3 0,23 C0,35.7 10.3,46 23,46 C35.7,46 46,35.7 46,23 C46,10.3 35.7,0 23,0 M23,2 C34.6,2 44,11.4 44,23 C44,34.6 34.6,44 23,44 C11.4,44 2,34.6 2,23 C2,11.4 11.4,2 23,2" id="Shape"></path>
                <path d="M8.6,16 C11.2,10.7 16.7,7 23,7 C29.3,7 34.8,10.7 37.4,16 L39.6,16 C36.9,9.5 30.5,5 23,5 C15.5,5 9.1,9.5 6.4,16 L8.6,16 Z M37.8,29 C35.4,34.9 29.7,39 23,39 C16.3,39 10.6,34.9 8.2,29 L6,29 C8.5,36 15.1,41 23,41 C30.8,41 37.5,36 40,29 L37.8,29 Z" id="Shape_1_"></path>
            </g>
            <g id="编组-22" transform="translate(11.000000, 13.000000)">
                <path d="M2.57142857,13.3875 L2.57142857,16.625 L5.05714286,14.9625 C5.91428571,15.3125 6.77142857,15.575 7.71428571,15.663375 L7.71428571,13.913375 C4.28571429,13.3875 1.71428571,10.9375 1.71428571,7.875 C1.71428571,4.4625 4.97142857,1.75 9,1.75 C11.9142857,1.75 14.4,3.15 15.6,5.25 L17.4857143,5.25 C16.2857143,2.1875 12.9428571,0 9,0 C4.02857143,0 7.28306304e-13,3.5 7.28306304e-13,7.875 C7.28306304e-13,10.0625 0.942857143,11.9875 2.57142857,13.3875" id="Fill-1" fill="#334966"></path>
                <path d="M11.1428571,5.250175 C11.1428571,4.725175 10.8,4.375175 10.2857143,4.375175 C9.77142857,4.375175 9.42857143,4.725175 9.42857143,5.250175 C9.42857143,5.775175 9.77142857,6.125175 10.2857143,6.125175 C10.8,6.125175 11.1428571,5.775175 11.1428571,5.250175" id="Fill-3" fill="#334966"></path>
                <path d="M5.14285714,5.250175 C5.14285714,5.775175 5.48571429,6.125175 6,6.125175 C6.51428571,6.125175 6.85714286,5.775175 6.85714286,5.250175 C6.85714286,4.725175 6.51428571,4.375175 6,4.375175 C5.48571429,4.375175 5.14285714,4.725175 5.14285714,5.250175" id="Fill-5" fill="#334966"></path>
                <path d="M16.2857143,17.500175 C12.9428571,17.500175 10.2857143,15.312675 10.2857143,12.687675 C10.2857143,10.062675 12.9428571,7.875175 16.2857143,7.875175 C19.6285714,7.875175 22.2857143,10.062675 22.2857143,12.687675 C22.2857143,15.312675 19.6285714,17.500175 16.2857143,17.500175 M16.2857143,6.125175 C12,6.125175 8.57142857,9.100175 8.57142857,12.687675 C8.57142857,16.275175 12,19.250175 16.2857143,19.250175 C17.1428571,19.250175 17.9142857,19.162675 18.6857143,18.900175 L21.4285714,21.000175 L21.4285714,17.587675 C22.9714286,16.362675 24,14.612675 24,12.687675 C24,9.100175 20.5714286,6.125175 16.2857143,6.125175" id="Fill-7" fill="#334966"></path>
                <path d="M18,12.250175 C17.4857143,12.250175 17.1428571,11.900175 17.1428571,11.375175 C17.1428571,10.850175 17.4857143,10.500175 18,10.500175 C18.5142857,10.500175 18.8571429,10.850175 18.8571429,11.375175 C18.8571429,11.900175 18.5142857,12.250175 18,12.250175 M13.7142857,12.250175 C13.2,12.250175 12.8571429,11.900175 12.8571429,11.375175 C12.8571429,10.850175 13.2,10.500175 13.7142857,10.500175 C14.2285714,10.500175 14.5714286,10.850175 14.5714286,11.375175 C14.5714286,11.900175 14.2285714,12.250175 13.7142857,12.250175 M16.2857143,7.875175 C12.9428571,7.875175 10.2857143,10.062675 10.2857143,12.687675 C10.2857143,15.312675 12.9428571,17.500175 16.2857143,17.500175 C19.6285714,17.500175 22.2857143,15.312675 22.2857143,12.687675 C22.2857143,10.062675 19.6285714,7.875175 16.2857143,7.875175" id="Fill-9" fill="#00A4FF"></path>
            </g>
        </g>
    </g>
</svg>