<?xml version="1.0" encoding="UTF-8"?>
<svg width="48px" height="48px" viewBox="0 0 48 48" version="1.1" xmlns="http://www.w3.org/2000/svg" xmlns:xlink="http://www.w3.org/1999/xlink">
    <!-- Generator: Sketch 52.2 (67145) - http://www.bohemiancoding.com/sketch -->
    <title>1V1专属服务-48x48</title>
    <desc>Created with Sketch.</desc>
    <defs>
        <polygon id="path-1" points="0.0197 0.03 22.0137 0.03 22.0137 20.3689 0.0197 20.3689"></polygon>
    </defs>
    <g id="1V1专属服务-48x48" stroke="none" stroke-width="1" fill="none" fill-rule="evenodd">
        <g id="Group-16" transform="translate(2.000000, 1.000000)">
            <path d="M10,18.9091 C6.687,18.9091 4,21.5961 4,24.9091 C4,28.2221 6.687,30.9091 10,30.9091 C13.313,30.9091 16,28.2221 16,24.9091 C16,21.5961 13.313,18.9091 10,18.9091 M10,20.9091 C12.206,20.9091 14,22.7031 14,24.9091 C14,27.1151 12.206,28.9091 10,28.9091 C7.794,28.9091 6,27.1151 6,24.9091 C6,22.7031 7.794,20.9091 10,20.9091" id="Fill-1" fill="#334966"></path>
            <path d="M21.9385,45.9696 C21.9595,45.6576 21.9775,45.3446 21.9775,45.0256 C21.9775,38.9196 17.9485,33.9696 12.9775,33.9696 C8.0065,33.9696 3.9775,38.9196 3.9775,45.0256 C3.9775,45.3446 3.9945,45.6576 4.0165,45.9696 L21.9385,45.9696 Z" id="Fill-3" fill="#00A4FF"></path>
            <path d="M10,31.9071 C4.477,31.9071 0,37.6821 0,44.8051 C0,45.1781 0.019,45.5441 0.043,45.9071 L19.957,45.9071 C19.981,45.5441 20,45.1781 20,44.8051 C20,37.6821 15.523,31.9071 10,31.9071 M10,33.9071 C14.189,33.9071 17.637,38.3161 17.973,43.9071 L2.027,43.9071 C2.363,38.3161 5.811,33.9071 10,33.9071" id="Fill-5" fill="#334966"></path>
            <path d="M34.167,18.9091 C30.853,18.9091 28.167,21.5961 28.167,24.9091 C28.167,28.2221 30.853,30.9091 34.167,30.9091 C37.48,30.9091 40.167,28.2221 40.167,24.9091 C40.167,21.5961 37.48,18.9091 34.167,18.9091 M34.167,20.9091 C36.372,20.9091 38.167,22.7031 38.167,24.9091 C38.167,27.1151 36.372,28.9091 34.167,28.9091 C31.961,28.9091 30.167,27.1151 30.167,24.9091 C30.167,22.7031 31.961,20.9091 34.167,20.9091" id="Fill-7" fill="#334966"></path>
            <path d="M34.04,31.9071 C28.518,31.9071 24.04,37.6821 24.04,44.8051 C24.04,45.1781 24.06,45.5441 24.083,45.9071 L43.997,45.9071 C44.02,45.5441 44.04,45.1781 44.04,44.8051 C44.04,37.6821 39.562,31.9071 34.04,31.9071 M34.04,33.9071 C38.229,33.9071 41.677,38.3161 42.013,43.9071 L26.066,43.9071 C26.403,38.3161 29.851,33.9071 34.04,33.9071" id="Fill-9" fill="#334966"></path>
            <polygon id="Fill-11" fill="#00A4FF" points="21.02 22.3393 21.02 5.0003 41.014 5.0003 41.014 15.9433 28 15.9433"></polygon>
            <g id="Group-15" transform="translate(17.000000, 0.970000)">
                <mask id="mask-2" fill="white">
                    <use xlink:href="#path-1"></use>
                </mask>
                <g id="Clip-14"></g>
                <path d="M22.0137,0.0299 L0.0197,0.0299 L0.0197,20.3689 L8.9997,12.9729 L22.0137,12.9729 L22.0137,0.0299 Z M20.0137,2.0299 L20.0137,10.9729 L8.9997,10.9729 L8.2827,10.9729 L7.7287,11.4289 L2.0197,16.1309 L2.0197,2.0299 L20.0137,2.0299 Z" id="Fill-13" fill="#334966" mask="url(#mask-2)"></path>
            </g>
        </g>
    </g>
</svg>