<?xml version="1.0" encoding="UTF-8"?>
<svg width="48px" height="48px" viewBox="0 0 48 48" version="1.1" xmlns="http://www.w3.org/2000/svg" xmlns:xlink="http://www.w3.org/1999/xlink">
    <!-- Generator: Sketch 57.1 (83088) - https://sketch.com -->
    <title>8</title>
    <desc>Created with Sketch.</desc>
    <g id="8" stroke="none" stroke-width="1" fill="none" fill-rule="evenodd">
        <g id="Group" transform="translate(2.000000, 3.000000)">
            <rect id="Rectangle" stroke="#334966" stroke-width="2" x="1" y="1" width="42" height="42"></rect>
            <path d="M21,6 L21,0 L23,0 L23,6 L23,6.20727147 C23.4823861,6.07082188 23.9861982,6 24.5,6 C27.5375661,6 30,8.46243388 30,11.5 C30,14.5375661 27.5375661,17 24.5,17 C23.9861982,17 23.4823861,16.9291781 23,16.7927285 L23,17 L23,23 L21,23 L21,17 L21,15.2422255 C21,14.4426804 21.8918308,13.9664623 22.5562596,14.4112169 C23.1270472,14.79329 23.7968449,15 24.5,15 C26.4329966,15 28,13.4329966 28,11.5 C28,9.56700338 26.4329966,8 24.5,8 C23.7968449,8 23.1270472,8.20670998 22.5562596,8.58878311 C21.8918308,9.03353769 21,8.55731955 21,7.75777452 L21,6 Z" id="Combined-Shape" fill="#334966"></path>
            <path d="M28,20 L28,14 L30,14 L30,20 L30,20.2072715 C30.4823861,20.0708219 30.9861982,20 31.5,20 C34.5375661,20 37,22.4624339 37,25.5 C37,28.5375661 34.5375661,31 31.5,31 C30.9861982,31 30.4823861,30.9291781 30,30.7927285 L30,31 L30,37 L28,37 L28,31 L28,29.2422255 C28,28.4426804 28.8918308,27.9664623 29.5562596,28.4112169 C30.1270472,28.79329 30.7968449,29 31.5,29 C33.4329966,29 35,27.4329966 35,25.5 C35,23.5670034 33.4329966,22 31.5,22 C30.7968449,22 30.1270472,22.20671 29.5562596,22.5887831 C28.8918308,23.0335377 28,22.5573196 28,21.7577745 L28,20 Z" id="Combined-Shape" fill="#334966" transform="translate(32.500000, 25.500000) rotate(90.000000) translate(-32.500000, -25.500000) "></path>
            <path d="M7,13 L7,7 L9,7 L9,13 L9,13.2072715 C9.48238612,13.0708219 9.98619816,13 10.5,13 C13.5375661,13 16,15.4624339 16,18.5 C16,21.5375661 13.5375661,24 10.5,24 C9.98619816,24 9.48238612,23.9291781 9,23.7927285 L9,24 L9,30 L7,30 L7,24 L7,22.2422255 C7,21.4426804 7.89183078,20.9664623 8.55625958,21.4112169 C9.12704715,21.79329 9.79684494,22 10.5,22 C12.4329966,22 14,20.4329966 14,18.5 C14,16.5670034 12.4329966,15 10.5,15 C9.79684494,15 9.12704715,15.20671 8.55625958,15.5887831 C7.89183078,16.0335377 7,15.5573196 7,14.7577745 L7,13 Z" id="Combined-Shape" fill="#334966" transform="translate(11.500000, 18.500000) rotate(-90.000000) translate(-11.500000, -18.500000) "></path>
            <path d="M14,25 L14,20 L16,20 L16,25 L16,25.2072715 C16.4823861,25.0708219 16.9861982,25 17.5,25 C20.5375661,25 23,27.4624339 23,30.5 C23,33.5375661 20.5375661,36 17.5,36 C16.9861982,36 16.4823861,35.9291781 16,35.7927285 L16,36 L16,43 L14,43 L14,36 L14,34.2422255 C14,33.4426804 14.8918308,32.9664623 15.5562596,33.4112169 C16.1270472,33.79329 16.7968449,34 17.5,34 C19.4329966,34 21,32.4329966 21,30.5 C21,28.5670034 19.4329966,27 17.5,27 C16.7968449,27 16.1270472,27.20671 15.5562596,27.5887831 C14.8918308,28.0335377 14,27.5573196 14,26.7577745 L14,25 Z" id="Combined-Shape" fill="#334966" transform="translate(18.500000, 31.500000) rotate(-180.000000) translate(-18.500000, -31.500000) "></path>
        </g>
        <path d="M23,24 L23,30 L23,30.2072715 C22.5176139,30.0708219 22.0138018,30 21.5,30 C18.4624339,30 16,32.4624339 16,35.5 C16,38.5375661 18.4624339,41 21.5,41 C22.0138018,41 22.5176139,40.9291781 23,40.7927285 L23,41 L23,45.1099205 L21.5,45.1099205 L19.5868732,45.1099205 L17.1125406,45.1099205 C16.3129955,45.1099205 10.5999998,45.1099205 9.80045469,45.1099205 L8,45.1099205 L3.99691946,45.1099205 C3.99691946,40.0712989 3.99691946,36.0346587 3.99691946,33 C3.99691946,29.9653413 3.99691946,26.9653413 3.99691946,24 L8,24 L8.20727147,24 C8.07082188,23.5176139 8,23.0138018 8,22.5 C8,19.4624339 10.4624339,17 13.5,17 C16.5375661,17 19,19.4624339 19,22.5 C19,23.0138018 18.9291781,23.5176139 18.7927285,24 L19,24 L23,24 Z" id="Combined-Shape" fill="#00A4FF"></path>
    </g>
</svg>