<svg height="48" viewBox="0 0 48 48" width="48" xmlns="http://www.w3.org/2000/svg"><g fill="none" transform="translate(0 3)"><g fill="#334966"><path d="m0 0h48v2h-48z"/><path d="m0 30h48v2h-48z"/><path d="m23 40v-4h-13v-2h28v2h-13v4h3v2h-8v-2z"/><path d="m2 0h2v32h-2z"/><path d="m44 0h2v32h-2z"/></g><g fill="#00a4ff" transform="translate(6 7)"><path d="m13 6h2v2h-2z"/><path d="m0 0v18h36v-18zm9 6h-4v2h4v2h-4v4h-2v-10h6zm8 4h-1v4h-2v-4h-1v4h-2v-10h6zm8-4h-4v2h4v2h-4v2h4v2h-6v-10h6zm8 0h-4v2h4v2h-4v2h4v2h-6v-10h6z"/></g></g></svg>