<?xml version="1.0" encoding="UTF-8"?>
<svg width="48px" height="48px" viewBox="0 0 48 48" version="1.1" xmlns="http://www.w3.org/2000/svg" xmlns:xlink="http://www.w3.org/1999/xlink">
    <!-- Generator: Sketch 52.2 (67145) - http://www.bohemiancoding.com/sketch -->
    <title>色情审核 copy</title>
    <desc>Created with Sketch.</desc>
    <g id="色情审核-copy" stroke="none" stroke-width="1" fill="none" fill-rule="evenodd">
        <rect id="Rectangle" fill-rule="nonzero" x="0" y="0" width="48" height="48"></rect>
        <polygon id="Combined-Shape" fill="#334966" points="48 44 46 44 46 6 2 6 2 42 46 42 46 44 0 44 0 4 48 4"></polygon>
        <rect id="Rectangle" fill="#334966" x="0" y="12" width="48" height="2"></rect>
        <rect id="Rectangle-2" fill="#334966" x="38" y="8" width="2" height="2"></rect>
        <rect id="Rectangle-2-Copy-2" fill="#334966" x="34" y="8" width="2" height="2"></rect>
        <rect id="Rectangle-2-Copy" fill="#334966" x="42" y="8" width="2" height="2"></rect>
        <rect id="Rectangle-4-Copy-7" fill="#334966" x="19" y="20" width="8" height="2"></rect>
        <rect id="Rectangle-4-Copy-13" fill="#00A4FF" x="11" y="28" width="6" height="8"></rect>
        <rect id="Rectangle-4-Copy-14" fill="#00A4FF" x="21" y="28" width="4" height="8"></rect>
        <rect id="Rectangle-4-Copy-15" fill="#00A4FF" x="29" y="28" width="12" height="8"></rect>
        <rect id="Rectangle-4-Copy-6" fill="#334966" x="19" y="34" width="7" height="2"></rect>
        <rect id="Rectangle-4-Copy-8" fill="#334966" x="19" y="20" width="2" height="16"></rect>
        <rect id="Rectangle-4-Copy-9" fill="#334966" x="25" y="20" width="2" height="16"></rect>
        <rect id="Rectangle-4-Copy-10" fill="#334966" x="29" y="20" width="2" height="16"></rect>
        <rect id="Rectangle-4-Copy-10" fill="#334966" x="30" y="20" width="11" height="2"></rect>
        <rect id="Rectangle-4-Copy-11" fill="#334966" x="34" y="20" width="2" height="16"></rect>
        <rect id="Rectangle-4-Copy-12" fill="#334966" x="39" y="20" width="2" height="16"></rect>
        <rect id="Rectangle-4-Copy-4" fill="#334966" x="9" y="20" width="8" height="2"></rect>
        <rect id="Rectangle-4-Copy-3" fill="#334966" x="9" y="34" width="8" height="2"></rect>
        <rect id="Rectangle-4-Copy-16" fill="#334966" x="5" y="34" width="2" height="2"></rect>
        <rect id="Rectangle-4-Copy-5" fill="#334966" x="9" y="20" width="2" height="16"></rect>
    </g>
</svg>