<?xml version="1.0" encoding="utf-8"?><svg width="186" height="160" viewBox="0 0 186 160" xmlns="http://www.w3.org/2000/svg" xmlns:xlink="http://www.w3.org/1999/xlink"><svg id="arrow-812-1" viewBox="-1 -1 10 14" width="10" height="14" x="150" y="126"><style>.aast0{fill-rule:evenodd;clip-rule:evenodd;fill:#7d848d}</style><g id="aaXMLID_2_"><g id="aaXMLID_48_"><path id="aaXMLID_49_" class="aast0" d="M8 6L6.5 4.5 2 0 .5 1.5 5 6 .5 10.5 2 12l4.5-4.5z"/></g></g></svg><svg id="arrow-812-2" viewBox="-1 -1 10 14" width="10" height="14" x="168" y="106"><style>.abst0{fill-rule:evenodd;clip-rule:evenodd;fill:#00a4ff}</style><g id="abXMLID_2_"><g id="abXMLID_48_"><path id="abXMLID_49_" class="abst0" d="M8 6L6.5 4.5 2 0 .5 1.5 5 6 .5 10.5 2 12l4.5-4.5z"/></g></g></svg><svg width="48" height="48" viewBox="-1 -1 48 48" id="c-thumbnail-play-btn" x="58" y="58"><title>Oval Copy 7</title><g fill="none" fill-rule="evenodd"><circle fill="#FFF" opacity=".9" cx="22.846" cy="22.846" r="22.846"/><path d="M31.68 25.27l-11.32 7.332c-2.068 1.34-3.745.468-3.745-1.944V15.035c0-2.414 1.678-3.284 3.745-1.945l11.32 7.331c2.068 1.34 2.067 3.511 0 4.85z" fill="#232733" fill-rule="nonzero"/></g></svg><svg id="dj" viewBox="-1 -1 18 18" width="18" height="18" x="150" y="90"><style>.adst0{fill:#7d848d}</style><g id="adXMLID_43_"><path id="adXMLID_44_" class="adst0" d="M8 0C3.6 0 0 3.6 0 8s3.6 8 8 8 8-3.6 8-8-3.6-8-8-8zm0 15c-3.9 0-7-3.1-7-7s3.1-7 7-7 7 3.1 7 7-3.1 7-7 7zm2.7-7.1c-.2-.2-.5-.3-.8-.4-.3-.1-.6-.2-.9-.2-.3-.1-.6-.2-.9-.2-.2-.1-.5-.2-.7-.3-.3-.1-.5-.2-.6-.3-.1-.2-.2-.4-.2-.6 0-.3 0-.5.1-.6.1-.2.3-.3.4-.4.2-.1.3-.2.5-.2s.4-.1.6-.1c.5 0 1 .1 1.3.4.3.2.5.6.6 1.2h1c0-.4-.1-.8-.2-1.1-.1-.3-.3-.6-.6-.8-.3-.2-.5-.4-.9-.4-.1-.1-.3-.1-.4-.1V3H8v.7c-.2 0-.5.1-.7.1-.3.1-.6.3-.8.5-.3.1-.5.4-.7.7-.1.2-.2.6-.2 1s.1.6.2.9c.1.2.3.4.6.6.2.1.5.3.8.4.2 0 .5 0 .8.1.3.1.6.1.9.2.3.1.5.1.8.3.2.1.4.2.6.4.1.2.2.4.2.6 0 .3-.1.5-.2.7-.1.2-.3.3-.4.4-.2.1-.4.2-.6.2-.2 0-.5.1-.7.1-.3 0-.6 0-.8-.1-.3-.1-.5-.2-.7-.3-.2-.2-.4-.3-.5-.6-.2-.2-.3-.5-.3-.8h-1c0 .5.1.9.2 1.2.2.3.4.6.7.8.3.2.6.4 1 .5.2.1.5.1.7.1V13h1v-1.3c.2 0 .4-.1.5-.1.3-.1.7-.2.9-.4.3-.2.5-.4.7-.7.2-.3.3-.6.3-1s-.1-.7-.2-.9c0-.3-.2-.5-.4-.7z"/></g></svg><svg id="dj-1" viewBox="-1 -1 18 18" width="18" height="18" x="18" y="142"><style>.aest0{fill:#00a4ff}</style><g id="aeXMLID_43_"><path id="aeXMLID_44_" class="aest0" d="M8 0C3.6 0 0 3.6 0 8s3.6 8 8 8 8-3.6 8-8-3.6-8-8-8zm0 15c-3.9 0-7-3.1-7-7s3.1-7 7-7 7 3.1 7 7-3.1 7-7 7zm2.7-7.1c-.2-.2-.5-.3-.8-.4-.3-.1-.6-.2-.9-.2-.3-.1-.6-.2-.9-.2-.2-.1-.5-.2-.7-.3-.3-.1-.5-.2-.6-.3-.1-.2-.2-.4-.2-.6 0-.3 0-.5.1-.6.1-.2.3-.3.4-.4.2-.1.3-.2.5-.2s.4-.1.6-.1c.5 0 1 .1 1.3.4.3.2.5.6.6 1.2h1c0-.4-.1-.8-.2-1.1-.1-.3-.3-.6-.6-.8-.3-.2-.5-.4-.9-.4-.1-.1-.3-.1-.4-.1V3H8v.7c-.2 0-.5.1-.7.1-.3.1-.6.3-.8.5-.3.1-.5.4-.7.7-.1.2-.2.6-.2 1s.1.6.2.9c.1.2.3.4.6.6.2.1.5.3.8.4.2 0 .5 0 .8.1.3.1.6.1.9.2.3.1.5.1.8.3.2.1.4.2.6.4.1.2.2.4.2.6 0 .3-.1.5-.2.7-.1.2-.3.3-.4.4-.2.1-.4.2-.6.2-.2 0-.5.1-.7.1-.3 0-.6 0-.8-.1-.3-.1-.5-.2-.7-.3-.2-.2-.4-.3-.5-.6-.2-.2-.3-.5-.3-.8h-1c0 .5.1.9.2 1.2.2.3.4.6.7.8.3.2.6.4 1 .5.2.1.5.1.7.1V13h1v-1.3c.2 0 .4-.1.5-.1.3-.1.7-.2.9-.4.3-.2.5-.4.7-.7.2-.3.3-.6.3-1s-.1-.7-.2-.9c0-.3-.2-.5-.4-.7z"/></g></svg><svg width="18" height="18" viewBox="-1 -1 18 18" id="doc-alarm" x="36" y="142"><title>Artboard Copy 4</title><path d="M3.998 11V7c0-2.206 1.793-4 4-4 2.205 0 4 1.794 4 4v4h-8zm4 3a1.993 1.993 0 0 1-1.723-1H9.72c-.346.595-.984 1-1.721 1zm7.728-2.681l-1.729-1.86V7a5.998 5.998 0 0 0-4.015-5.657A1.5 1.5 0 0 0 8.498 0h-1a1.5 1.5 0 0 0-1.485 1.343A5.998 5.998 0 0 0 1.997 7v2.459l-1.729 1.86c-.593.64-.14 1.681.734 1.681H4.14a3.99 3.99 0 0 0 3.858 3 3.99 3.99 0 0 0 3.858-3h3.138c.873 0 1.327-1.041.733-1.681z" fill="#C07400" fill-rule="evenodd"/></svg><svg data-name="图层 1" width="18" height="18" viewBox="-1 -1 18 18" id="doc-explain" x="54" y="142"><title>提示0</title><path fill="#7c848e" d="M9 7H6v1h1v4h1.917l1-1H9V7zM7 5.99h2v-2H7v2z"/><path d="M8 2a6 6 0 1 1-6 6 6.007 6.007 0 0 1 6-6m0-2a8 8 0 1 0 8 8 8 8 0 0 0-8-8z" fill="#7c848e"/></svg><svg width="18" height="18" viewBox="-1 -1 18 18" id="doc-forbid" x="168" y="36"><title>Artboard Copy 3</title><path d="M11.477 12.89L3.109 4.524a6 6 0 0 0 8.367 8.367zm1.414-1.413A6 6 0 0 0 4.524 3.11l8.367 8.367zM8 16A8 8 0 1 1 8 0a8 8 0 0 1 0 16z" fill="#B43537" fill-rule="nonzero"/></svg><svg data-name="图层 1" width="18" height="18" viewBox="-1 -1 18 18" id="doc-notice" x="168" y="54"><title>未标题-2</title><path d="M8 3.126l5.281 9.908H2.719L8 3.126M8 0a.989.989 0 0 0-.882.53L.171 13.564a1 1 0 0 0 .882 1.47h13.894a1 1 0 0 0 .882-1.47L8.882.53A.989.989 0 0 0 8 0z" fill="#7c848e"/><path fill="#7c848e" d="M8.969 6H7.031v3h1.938V6zM9 10H7v2h2v-2z"/></svg><svg width="18" height="18" viewBox="-1 -1 18 18" id="dt" x="44" y="116"><title>Combined Shape</title><path d="M15 8V1H5v1h9v11H7l-4 3v-3H0V2h4V0h12v9h-1V8h1v1h-2V8h1zm-2-5H1v9h3v2l2.4-1.8.27-.2H13V3zM3 5h8v1H3V5zm0 3h8v1H3V8z" fill="#7D848D" fill-rule="nonzero"/></svg><svg width="18" height="18" viewBox="-1 -1 18 18" id="dt-1" x="62" y="116"><title>Combined Shape</title><path d="M15 8V1H5v1h9v11H7l-4 3v-3H0V2h4V0h12v9h-1V8h1v1h-2V8h1zm-2-5H1v9h3v2l2.4-1.8.27-.2H13V3zM3 5h8v1H3V5zm0 3h8v1H3V8z" fill="#00A4FF" fill-rule="nonzero"/></svg><svg id="event-1214" viewBox="-1 -1 14 16" width="14" height="16" x="168" y="90"><style>.alst0{fill-rule:evenodd;clip-rule:evenodd;fill:#ff7800}</style><g id="alXMLID_2_"><g id="alXMLID_62_"><path id="alXMLID_63_" class="alst0" d="M6 3C4.3 3 3 4.3 3 6s1.3 3 3 3 3-1.3 3-3-1.3-3-3-3zm0 5c-1.1 0-2-.9-2-2s.9-2 2-2 2 .9 2 2-.9 2-2 2zm0-8C2.7 0 0 2.7 0 6s4.3 8 6 8c1.9 0 6-4.7 6-8S9.3 0 6 0zm0 13c-1.3 0-5-4.2-5-7s2.2-5 5-5 5 2.2 5 5-4 7-5 7z"/></g></g></svg><svg id="gl" viewBox="-1 -1 18 18" width="18" height="18" x="98" y="116"><style>.amst0{fill-rule:evenodd;clip-rule:evenodd;fill:#7d848d}</style><g id="amXMLID_2_"><g id="amXMLID_70_"><path id="amXMLID_71_" class="amst0" d="M11 5.1L7 6.3 4 9.1l.6.9.4.9 4-1.1 3-2.9-.5-.8-.5-1zM8.4 8.9l-3 .5 2-2.3 3.2-.7-2.2 2.5zM8 0C3.6 0 0 3.6 0 8s3.6 8 8 8 8-3.6 8-8-3.6-8-8-8zm1 14.9V14H8v1c-3.9 0-7-3.1-7-7h1V7h-.9C1.6 3.6 4.5 1 8 1v1h1v-.9c3.1.4 5.5 2.9 5.9 5.9H14v1h1c0 3.5-2.6 6.4-6 6.9z"/></g></g></svg><svg id="gl-1" viewBox="-1 -1 18 18" width="18" height="18" x="116" y="116"><style>.anst0{fill-rule:evenodd;clip-rule:evenodd;fill:#00a4ff}</style><g id="anXMLID_2_"><g id="anXMLID_70_"><path id="anXMLID_71_" class="anst0" d="M11 5.1L7 6.3 4 9.1l.6.9.4.9 4-1.1 3-2.9-.5-.8-.5-1zM8.4 8.9l-3 .5 2-2.3 3.2-.7-2.2 2.5zM8 0C3.6 0 0 3.6 0 8s3.6 8 8 8 8-3.6 8-8-3.6-8-8-8zm1 14.9V14H8v1c-3.9 0-7-3.1-7-7h1V7h-.9C1.6 3.6 4.5 1 8 1v1h1v-.9c3.1.4 5.5 2.9 5.9 5.9H14v1h1c0 3.5-2.6 6.4-6 6.9z"/></g></g></svg><svg width="12" height="10" viewBox="-1 -1 12 10" id="icon-gou" x="168" y="148"><title>duihao</title><path d="M1.536 3.894l2.15 1.536 5.35-4.423s.36-.294.674-.065c.093.07.2.266-.043.573L4.08 7.387s-.429.526-.937-.006l-2.41-2.92s-.287-.395.072-.633c.12-.08.395-.205.731.066z" fill="#00A4FF" fill-rule="evenodd"/></svg><svg width="14" height="14" viewBox="-1 -1 14 14" id="icon-support" x="168" y="134"><title>Artboard</title><g fill="none" fill-rule="evenodd"><path fill-rule="nonzero" d="M0 0h12v12H0z"/><path d="M1.992 5.595L4.331 7.41l5.821-5.231s.391-.348.733-.077c.1.082.218.314-.046.678L4.76 9.726s-.467.622-1.02-.007L1.118 6.264s-.312-.467.079-.748c.13-.095.43-.242.795.078z" fill="#00A4FF"/></g></svg><svg id="kfz" viewBox="-1 -1 18 18" width="18" height="18" x="150" y="36"><style>.aqst0{fill-rule:evenodd;clip-rule:evenodd;fill:#7d848d}</style><g id="aqXMLID_70_"><path id="aqXMLID_71_" class="aqst0" d="M6.6 10.3l.9.5 3-5.2-.9-.4-3 5.1zM4.5 6.4L3.1 7.8l-.7.7.7.7 1.4 1.4.7-.7-1.4-1.4 1.4-1.4-.7-.7zM8 0C3.6 0 0 3.6 0 8s3.6 8 8 8 8-3.6 8-8-3.6-8-8-8zm0 15c-3.9 0-7-3.1-7-7s3.1-7 7-7 7 3.1 7 7-3.1 7-7 7zm4.9-7.2l-1.4-1.4-.7.7 1.4 1.4-1.4 1.4.7.7 1.4-1.4.7-.7-.7-.7z"/></g></svg><svg id="kfz-1" viewBox="-1 -1 18 18" width="18" height="18" x="150" y="54"><style>.arst0{fill-rule:evenodd;clip-rule:evenodd;fill:#00a4ff}</style><g id="arXMLID_57_"><path id="arXMLID_58_" class="arst0" d="M6.6 10.3l.9.5 3-5.2-.9-.4-3 5.1zM4.5 6.4L3.1 7.8l-.7.7.7.7 1.4 1.4.7-.7-1.4-1.4 1.4-1.4-.7-.7zM8 0C3.6 0 0 3.6 0 8s3.6 8 8 8 8-3.6 8-8-3.6-8-8-8zm0 15c-3.9 0-7-3.1-7-7s3.1-7 7-7 7 3.1 7 7-3.1 7-7 7zm4.9-7.2l-1.4-1.4-.7.7 1.4 1.4-1.4 1.4.7.7 1.4-1.4.7-.7-.7-.7z"/></g></svg><svg width="14" height="14" viewBox="-1 -1 14 14" id="link-1212-#00a4ff" x="168" y="120"><style>.asst0{fill-rule:evenodd;clip-rule:evenodd;fill:#00a4ff}</style><path class="asst0" d="M1 11V1h3v1H2v8h8V8h1v3H1zm5.1-4.4l-.7-.7 2.8-2.8L6 1h5v5L8.9 3.9 6.1 6.6z"/></svg><svg id="pdf-3232" viewBox="-1 -1 34 34" width="34" height="34" x="116"><style>.atst0,.atst1,.atst2{fill-rule:evenodd;clip-rule:evenodd;fill:#e6e8eb}.atst1,.atst2{fill:#f6f6f6}.atst2{fill:#d3d6dc}.atst3{fill:#e54d3f}</style><path id="atXMLID_15_" class="atst0" d="M4.5 0H21l8 7v23.5c0 .9-.8 1.5-1.5 1.5h-23c-.7 0-1.5-.5-1.5-1.5v-29C3 .6 3.8 0 4.5 0z"/><g id="atXMLID_17_"><g id="atXMLID_38_"><path id="atXMLID_39_" class="atst1" d="M21 0v5c0 1.9.9 2 2 2h6l-8-7z"/></g></g><path id="atXMLID_18_" class="atst2" d="M23 7l6 6V7h-6z"/><g id="atXMLID_20_"><path id="atXMLID_24_" class="atst3" d="M9.4 19.3H7.8v3.2H6.1V14h3.3c1.8 0 2.8 1.2 2.8 2.7 0 1.4-1 2.6-2.8 2.6zm-.1-3.8H7.8v2.3h1.6c.8 0 1.2-.5 1.2-1.2 0-.6-.5-1.1-1.3-1.1z"/><path id="atXMLID_30_" class="atst3" d="M18.7 21.7c-.6.6-1.4.8-2.3.8h-3.1V14h3.1c.9 0 1.7.3 2.3.8 1 1 .9 2.1.9 3.4 0 1.3.1 2.6-.9 3.5zM17.6 16c-.3-.3-.7-.5-1.2-.5h-1.3v5.6h1.3c.6 0 1-.2 1.2-.5.3-.4.4-1 .4-2.3-.1-1.4-.1-1.9-.4-2.3z"/><path id="atXMLID_35_" class="atst3" d="M22.7 15.5v2.1h3.4v1.5h-3.4v3.5H21V14h5.6v1.5h-3.9z"/></g></svg><svg id="rm" viewBox="-1 -1 18 18" width="18" height="18" x="26" y="116"><style>.aust0{fill-rule:evenodd;clip-rule:evenodd;fill:#7d848d}</style><g id="auXMLID_74_"><path id="auXMLID_75_" class="aust0" d="M6 10h6V4H6v6zm1-5h4v4H7V5zm1-5C3.6 0 0 3.6 0 8s3.6 8 8 8 8-3.6 8-8-3.6-8-8-8zm0 15c-3.9 0-7-3.1-7-7s3.1-7 7-7 7 3.1 7 7-3.1 7-7 7zM5 5H4v7h7v-1H5V5z"/></g></svg><svg id="rm-1" viewBox="-1 -1 18 18" width="18" height="18" y="142"><style>.avst0{fill-rule:evenodd;clip-rule:evenodd;fill:#00a4ff}</style><g id="avXMLID_62_"><path id="avXMLID_63_" class="avst0" d="M5 5H4v7h7v-1H5V5zm3-5C3.6 0 0 3.6 0 8s3.6 8 8 8 8-3.6 8-8-3.6-8-8-8zm0 15c-3.9 0-7-3.1-7-7s3.1-7 7-7 7 3.1 7 7-3.1 7-7 7zm-2-5h6V4H6v6zm1-5h4v4H7V5z"/></g></svg><svg width="58" height="58" viewBox="-1 -1 58 58" id="rno-purchase-flag-1"><title>超值</title><g fill="none" fill-rule="evenodd"><path d="M0 0l56 56-.016-28.214L28.174 0z" fill="#00C8DC"/><path d="M30.36 16.571l3.26 3.259-2.64 2.639-3.258-3.259 2.639-2.639zm.595 4.803l1.561-1.561-2.155-2.156L28.8 19.22l2.155 2.155zm-1.502-11.21l1.29 1.29 1.154-1.153.585.585-1.154 1.154 1.273 1.273-.543.543-1.273-1.273-1.256 1.256 1.256 1.256-.56.56-1.086-1.086-1.196 1.196 1.094 1.095-.56.56-1.094-1.095-1.477 1.477c.026.076.051.135.076.195.331.67 1.392 1.917 3.19 3.716.79.773 1.384 1.35 1.783 1.714l-.713.51-1.51-1.51c-2.113-2.114-3.31-3.565-3.598-4.328-.246-.67-.289-1.46-.11-2.35-.696.457-1.383.84-2.088 1.136l-.042-.84c1.357-.61 2.681-1.51 3.937-2.698l.467.585c-.459.425-.917.815-1.375 1.171-.195.637-.271 1.222-.229 1.757l2.868-2.868-1.57-1.57.56-.56 1.392 1.392 1.256-1.256-1.29-1.29.543-.543zm4.777 4.439l-1.17-1.171.56-.56 3.597 3.597c-1.443 1.443-2.393 2.224-2.843 2.35-.44.137-.857.01-1.247-.38-.17-.17-.348-.383-.568-.637l.381-.688.577.662c.272.255.543.306.823.161.272-.135.849-.627 1.731-1.493L34.8 15.171c-.713.492-1.333.823-1.876.993-.653.178-1.374.204-2.155.068l.102-.9c.679.136 1.281.145 1.807.026.476-.119.993-.365 1.553-.755zm9.402 7.382l.517.687c-.271.238-.551.467-.806.688l2.105 2.104-.56.56-2.173-2.172c-.288.22-.577.424-.848.628l1.722 1.722-4.87 4.87.806.807-.56.56-5.558-5.558.56-.56.874.874 4.87-4.87 1.553 1.552c.28-.212.569-.416.849-.628l-2.172-2.172.56-.56 2.231 2.232c.306-.255.611-.51.9-.764zm-8.205 5.795l2.706 2.707.747-.747-2.707-2.706-.746.746zm1.238-1.238l2.707 2.706.713-.712-2.707-2.707-.713.713zm1.205-1.205l2.707 2.706.696-.695-2.707-2.707-.696.696zm1.188-1.188l2.707 2.706.687-.687-2.706-2.707-.688.688zm-2.02-2.987c-.729.153-1.459.254-2.197.297l.441-.849c1.85-.17 3.624-.721 5.304-1.654l.297.806c-.722.382-1.46.696-2.207.95l-5.973 5.974-.594-.594 4.93-4.93z" fill="#FFF"/></g></svg><svg width="58" height="58" viewBox="-1 -1 58 58" id="rno-purchase-flag-2" x="58"><title>热销</title><g fill="none" fill-rule="evenodd"><path d="M0 0l56 56-.016-28.214L28.174 0z" fill="#FF7801"/><path d="M31.834 21.614c-.255-.272-.365-.62-.314-1.044.102-.78.764-1.782 1.994-3.012l1.044-1.044-1.12-1.12c-.67.653-1.34 1.17-2.011 1.553.102.679.144 1.366.144 2.079l-.857.178a19.011 19.011 0 0 0-.076-1.875 5.738 5.738 0 0 1-2.851.407l-.051-.849c.942.128 1.875-.025 2.791-.432a12.589 12.589 0 0 0-.297-1.35l.798-.152c.093.365.178.72.246 1.094a9.544 9.544 0 0 0 1.57-1.247l-.984-.984.593-.594.985.984 1.111-1.112.594.594-1.111 1.112 1.722 1.722-1.637 1.638c-.968.967-1.553 1.723-1.757 2.283-.093.229-.11.381-.042.45.06.059.22.016.475-.136.271-.17.628-.459 1.069-.866l.23.704c-.773.688-1.325 1.07-1.664 1.137-.255.051-.458.017-.594-.118zm-2.512-11.591l1.205 1.205 1.103-1.103.62.619-1.103 1.103 1.035 1.035-.594.594-1.035-1.035-1.29 1.29c.433.246.874.483 1.298.704l-.594.594c-.432-.23-.848-.475-1.273-.73l-1.349 1.35c-.492.492-.975.5-1.45.025l-.79-.79.45-.72c.22.271.441.526.67.755.204.203.425.186.654-.043l1.043-1.043c-.517-.331-1.035-.68-1.552-1.027l.432-.721c.56.424 1.129.806 1.697 1.17l1.434-1.433-1.205-1.205.594-.594zm-3.852 5.77l.263.755c-.967.356-1.9.56-2.783.628l-.136-.866c.849-.034 1.74-.212 2.656-.517zm1.604 2.028c-.314.67-.679 1.357-1.112 2.062l-.755-.484c.5-.721.891-1.4 1.171-2.037l.696.459zm1.875 1.637a15.958 15.958 0 0 1-1.027 2.35l-.746-.474c.475-.815.831-1.579 1.069-2.325l.704.45zm1.85 1.46c-.127 1.145-.297 2.079-.5 2.825l-.858-.144c.23-.806.416-1.756.552-2.86l.806.179zm13.084 1.578l.603.603-2.35 2.35 1.594 1.595-4.53 4.531c-.544.543-1.07.577-1.562.085l-.849-.848.425-.747.789.84c.212.212.458.187.721-.076l.891-.891-2.588-2.588-1.875 1.875-.611-.611 5.38-5.38 1.612 1.613 2.35-2.35zm-5.396 3.394l-.934.934 2.588 2.588.934-.934-2.588-2.588zm3.114 2.062l.941-.942-2.588-2.588-.941.942 2.588 2.588zm.644-6.449a19.73 19.73 0 0 1-.653 2.198l-.738-.246c.288-.78.5-1.519.628-2.223l.763.271zm3.301 3.148l.272.747a11.93 11.93 0 0 1-2.325.696l-.246-.755a12.2 12.2 0 0 0 2.3-.688zm-5.744-6.253l.475.712c-.365.213-.713.408-1.06.586l1.552 1.553-.577.577-1.756-1.757c-.815.357-1.613.628-2.393.798l-.187-.815a13.11 13.11 0 0 0 3.946-1.654zm-2.91 2.401l2.019 2.02-.552.551-.882-.882-1.07 1.069 1.172 1.17-.569.57-1.17-1.172-1.995 1.994c.518.246 1.095.45 1.714.611l-.441.645a11.429 11.429 0 0 1-2.588-1.128l.271-.781c.23.11.4.11.51 0l1.934-1.935-1.17-1.17.568-.57 1.17 1.172 1.07-1.07-.543-.542.551-.552z" fill="#FFF"/></g></svg><svg width="58" height="58" viewBox="-1 -1 58 58" id="rno-purchase-flag-3" y="58"><title>限购</title><g fill="none" fill-rule="evenodd"><path fill="#FF7801" d="M0 0l56 56-.016-28.214L28.174 0z"/><path d="M22.459 1.365l2.605 2.605-.493.492c-1.018.51-2.112.993-3.3 1.468-.204 1.29-.586 2.266-1.163 2.91-.365.365-.721.535-1.052.526-.433-.042-.959-.364-1.578-.967l.415-.823c.12.153.213.28.297.365.331.297.586.467.764.51.178.025.365-.043.543-.222.577-.577.934-1.527 1.052-2.834 1.282-.483 2.393-.967 3.318-1.45l-1.4-1.4-6.865 6.864-.594-.594 7.45-7.45zm1.484 5.727l-.958.96 2.503 2.502.959-.958-2.504-2.504zm3.064 1.944l.975-.976-2.503-2.503-.975.975 2.503 2.504zm-3.607.551l-.975-.976-2.902 2.902c.662.357 1.366.67 2.096.942l-.433.704c-.874-.347-1.892-.857-3.063-1.535l.381-.67c.162.076.297.076.382-.01l6.568-6.567 3.7 3.7-3.632 3.631-1.57-1.57a6.464 6.464 0 0 0-.874 1.91c.636.178 1.375.237 2.215.161v.798c-.849.068-1.638-.009-2.368-.246-.144.924-.093 1.892.17 2.919l-.874.195c-.51-2.308-.119-4.413 1.18-6.288zm10.37 3.089l-5.33 5.329-.542-.544 4.76-4.76-1.757-1.756-4.76 4.76-.551-.552 5.328-5.328 2.851 2.85zm1.57.84l.517.67c-.492.323-.984.611-1.468.857l2.808 2.809c-2.952 2.953-4.81 4.71-5.574 5.303-.781.611-1.52.569-2.198-.11-.23-.23-.62-.637-1.163-1.214l.408-.695c.458.492.848.916 1.205 1.272.373.374.814.374 1.323 0 .569-.432 2.173-1.951 4.812-4.556L33.557 15.4a8.808 8.808 0 0 1-2.24.543l.11-.857c1.324-.17 2.622-.688 3.912-1.57zm-2.453 5.066c-.39.967-.866 1.968-1.409 3.02l-.755-.246c.153-.288.297-.551.424-.797a26.16 26.16 0 0 1-2.52-1.825l.425-.628c.577.068 1.934-.475 4.064-1.637l.373.73c-1.468.738-2.698 1.255-3.69 1.552.568.433 1.128.823 1.68 1.154.27-.543.509-1.069.712-1.561l.696.238zm-1.986-6.398l.51.509-2.784 2.783c-.958.925-1.84 1.536-2.664 1.833-.78.271-1.604.263-2.478-.017l.187-.832c.823.263 1.57.28 2.249.043.678-.272 1.417-.79 2.197-1.536l2.783-2.783zm-3.538 5.252c.017.933-.042 1.79-.178 2.571l-.874-.008c.17-.713.263-1.57.28-2.571l.772.008zm15.596 5.498l.543.544-6.058 6.058-.696-.696 5.21-5.21c-.772.009-1.52-.195-2.257-.594l.695-.696a5.1 5.1 0 0 0 1.214.484c.475.102.916.136 1.349.11zm7.374 9.377c-1.052.526-2.045.823-2.97.882l-.153-.865c1.527-.136 3.14-.849 4.82-2.122l.517.705c-.509.373-.992.704-1.46.984l3.565 3.564-.4.399c-.899.543-1.84 1.026-2.833 1.442l-.433-.772c.79-.263 1.595-.645 2.427-1.137l-3.08-3.08zm.297 1.45l.594.595c-.459.458-.908.857-1.341 1.205-1.001 2.019-1.307 4.106-.908 6.27l-.865.068c-.272-1.935-.068-3.767.61-5.532a7.693 7.693 0 0 1-.772.415c-1.383.654-3.046.654-4.997-.008l.084-.883c1.714.594 3.19.645 4.421.179.993-.45 2.054-1.222 3.174-2.308zm-1.969-6.143c0 1.324-.068 2.41-.204 3.259l-.814-.136c.144-.908.22-2.02.22-3.31l.798.187zm-2.605 4.676l.331.738a39.083 39.083 0 0 1-4.887 1.714l-.314-.823a36.442 36.442 0 0 0 4.87-1.63z" fill="#FFF"/></g></svg><svg width="18" height="18" viewBox="-1 -1 18 18" id="rno-purchase-next" x="72" y="142"><title>右</title><g transform="matrix(-1 0 0 1 18 0)" fill-rule="nonzero" fill="none"><path d="M0 0h16v16H0z"/><path d="M6.757 8l5.657 5.657L11 15.07 5.343 9.414 3.93 8 11 .929l1.414 1.414L6.757 8z" fill="#999"/></g></svg><svg width="18" height="18" viewBox="-1 -1 18 18" id="rno-purchase-next-hover" x="90" y="142"><title>右</title><g transform="matrix(-1 0 0 1 18 0)" fill-rule="nonzero" fill="none"><path d="M0 0h16v16H0z"/><path d="M6.757 8l5.657 5.657L11 15.07 5.343 9.414 3.93 8 11 .929l1.414 1.414L6.757 8z" fill="#00A4FF"/></g></svg><svg width="18" height="18" viewBox="-1 -1 18 18" id="rno-purchase-prev" x="108" y="142"><title>左</title><g fill-rule="nonzero" fill="none"><path d="M0 0h16v16H0z"/><path d="M5.757 8l5.657 5.657L10 15.07 4.343 9.414 2.93 8 10 .929l1.414 1.414L5.757 8z" fill="#999"/></g></svg><svg width="18" height="18" viewBox="-1 -1 18 18" id="rno-purchase-prev-hover" x="126" y="142"><title>左</title><g fill-rule="nonzero" fill="none"><path d="M0 0h16v16H0z"/><path d="M5.757 8l5.657 5.657L10 15.07 4.343 9.414 2.93 8 10 .929l1.414 1.414L5.757 8z" fill="#00A4FF"/></g></svg><svg id="sl" viewBox="-1 -1 18 18" width="18" height="18" x="144" y="142"><style>.bdst0{fill-rule:evenodd;clip-rule:evenodd;fill:#7d848d}</style><g id="bdXMLID_91_"><path id="bdXMLID_92_" class="bdst0" d="M12 4H4v1h8V4zm0 4H4v1h8V8zM1 1v14h14V1H1zm4 13H2v-2h3v2zm9 0h-3v-2h3v2zm0-3h-4v3H6v-3H2V2h12v9zm-2-5H4v1h8V6z"/></g></svg><svg id="sl-1" viewBox="-1 -1 18 18" width="18" height="18" x="168"><style>.best0{fill-rule:evenodd;clip-rule:evenodd;fill:#00a4ff}</style><g id="beXMLID_71_"><path id="beXMLID_72_" class="best0" d="M1 1v14h14V1H1zm4 13H2v-2h3v2zm9 0h-3v-2h3v2zm0-3h-4v3H6v-3H2V2h12v9zm-2-7H4v1h8V4zm0 2H4v1h8V6zm0 2H4v1h8V8z"/></g></svg><svg width="18" height="18" viewBox="-1 -1 18 18" id="triangle-down-#00a4ff" x="168" y="18"><style>.bfst0{fill:#00a4ff}</style><path class="bfst0" d="M8 11L3 5h10l-5 6z"/></svg><svg id="video-close" width="34" height="34" viewBox="-1 -1 34 34" x="116" y="34"><style>.bgst0{fill:#fff}</style><path id="bgXMLID_1_" transform="rotate(45.001 16.021 16)" class="bgst0" d="M15-2.4h2v36.7h-2z"/><path id="bgXMLID_2_" transform="rotate(134.999 16.02 16)" class="bgst0" d="M15-2.4h2v36.7h-2z"/></svg><svg width="34" height="34" viewBox="-1 -1 34 34" id="video-close-#00a4ff" x="116" y="68"><style>.bhst0{fill:#00a4ff}</style><path class="bhst0" d="M28.31 2.267l1.414 1.415-25.95 25.95-1.415-1.414z"/><path class="bhst0" d="M29.754 28.289l-1.415 1.414L2.39 3.753l1.414-1.415z"/></svg><svg id="wt" viewBox="-1 -1 18 18" width="18" height="18" x="168" y="72"><style>.bist0{fill:#7d848d}</style><g id="biXMLID_48_"><path id="biXMLID_49_" class="bist0" d="M8 0C3.6 0 0 3.6 0 8s3.6 8 8 8 8-3.6 8-8-3.6-8-8-8zm0 15c-3.9 0-7-3.1-7-7s3.1-7 7-7 7 3.1 7 7-3.1 7-7 7zm0-3.9c-.2 0-.4.1-.5.2-.1.1-.2.3-.2.5s.1.4.2.5c.1.1.3.2.5.2s.4-.1.5-.2c.1-.1.2-.3.2-.5s-.1-.4-.2-.5c-.1-.1-.3-.2-.5-.2zm.2-7.4c-.8 0-1.5.3-1.9.8-.5.5-.8 1.2-.8 2h.9c0-.6.1-1.1.4-1.4.3-.4.7-.6 1.3-.6.5 0 .9.1 1.1.4.3.3.4.7.4 1.1 0 .3-.1.7-.3 1 0 .1-.2.2-.4.4-.6.6-1 1.1-1.2 1.4-.1.4-.2.8-.2 1.2v.3h.9V10c0-.3.1-.6.2-.9.2-.2.4-.5.6-.7.5-.4.8-.8 1-.9.3-.4.4-.9.4-1.4 0-.7-.2-1.3-.6-1.7-.5-.5-1.1-.7-1.8-.7z"/></g></svg><svg id="wt-1" viewBox="-1 -1 18 18" width="18" height="18" x="150" y="108"><style>.bjst0{fill:#00a4ff}</style><g id="bjXMLID_55_"><path id="bjXMLID_56_" class="bjst0" d="M8 0C3.6 0 0 3.6 0 8s3.6 8 8 8 8-3.6 8-8-3.6-8-8-8zm0 15c-3.9 0-7-3.1-7-7s3.1-7 7-7 7 3.1 7 7-3.1 7-7 7zm0-3.9c-.2 0-.4.1-.5.2-.1.1-.2.3-.2.5s.1.4.2.5c.1.1.3.2.5.2s.4-.1.5-.2c.1-.1.2-.3.2-.5s-.1-.4-.2-.5c-.1-.1-.3-.2-.5-.2zm.2-7.4c-.8 0-1.5.3-1.9.8-.5.5-.8 1.2-.8 2h.9c0-.6.1-1.1.4-1.4.3-.4.7-.6 1.3-.6.5 0 .9.1 1.1.4.3.3.4.7.4 1.1 0 .3-.1.7-.3 1 0 .1-.2.2-.4.4-.6.6-1 1.1-1.2 1.4-.1.4-.2.8-.2 1.2v.3h.9V10c0-.3.1-.6.2-.9.2-.2.4-.5.6-.7.5-.4.8-.8 1-.9.3-.4.4-.9.4-1.4 0-.7-.2-1.3-.6-1.7-.5-.5-1.1-.7-1.8-.7z"/></g></svg><svg id="xq" viewBox="-1 -1 18 18" width="18" height="18" x="150" y="72"><style>.bkst0{fill-rule:evenodd;clip-rule:evenodd;fill:#7d848d}</style><g id="bkXMLID_76_"><path id="bkXMLID_77_" class="bkst0" d="M4 7h2V6H4v1zm0 2h2V8H4v1zm3 2h5v-1H7v1zm0-2h5V8H7v1zm0-2h5V6H7v1zm1-7C3.6 0 0 3.6 0 8s3.6 8 8 8 8-3.6 8-8-3.6-8-8-8zm0 15c-3.9 0-7-3.1-7-7s3.1-7 7-7 7 3.1 7 7-3.1 7-7 7zm-4-4h2v-1H4v1z"/></g></svg><svg id="xq-1" viewBox="-1 -1 18 18" width="18" height="18" x="150" y="18"><style>.blst0{fill-rule:evenodd;clip-rule:evenodd;fill:#00a4ff}</style><g id="blXMLID_104_"><path id="blXMLID_105_" class="blst0" d="M7 11h5v-1H7v1zM4 9h2V8H4v1zm0-2h2V6H4v1zm4-7C3.6 0 0 3.6 0 8s3.6 8 8 8 8-3.6 8-8-3.6-8-8-8zm0 15c-3.9 0-7-3.1-7-7s3.1-7 7-7 7 3.1 7 7-3.1 7-7 7zM7 7h5V6H7v1zm0 2h5V8H7v1zm-3 2h2v-1H4v1z"/></g></svg><svg id="yes-2424" viewBox="-1 -1 26 26" width="26" height="26" y="116"><style>.bmst0{fill-rule:evenodd;clip-rule:evenodd;fill:#7c848e}</style><g id="bmXMLID_2_"><g id="bmXMLID_50_"><path id="bmXMLID_51_" class="bmst0" d="M12 0C5.4 0 0 5.4 0 12s5.4 12 12 12 12-5.4 12-12S18.6 0 12 0zm0 22C6.5 22 2 17.5 2 12S6.5 2 12 2s10 4.5 10 10-4.5 10-10 10zm5.7-14.8l-7.1 7.1L6.3 10l-1.4 1.4 5.7 5.7 8.5-8.5-1.4-1.4z"/></g></g></svg><svg id="zdy" viewBox="-1 -1 18 18" width="18" height="18" x="80" y="116"><style>.bnst0{fill-rule:evenodd;clip-rule:evenodd;fill:#7d848d}</style><g id="bnXMLID_2_"><g id="bnXMLID_74_"><path id="bnXMLID_75_" class="bnst0" d="M15.7 8.2c0-1.5-.5-3-1.2-4.1L16 2.5 13.9.4l-1.4 1.4-.1.1-.7.7-2.3 2.3c-.4-.1-.8-.2-1.2-.2-1.9 0-3.5 1.6-3.5 3.5s1.6 3.5 3.5 3.5 3.5-1.6 3.5-3.5c0-1.1-.6-2.2-1.4-2.8l3-3 .4-.4v-.3h1v1h-.3l-.6.5-.2.2v1.3c.6 1 1 2.2 1 3.4 0 1.3-.4 2.4-1 3.4v1.4l.2.2.6.5h.3v1h-1v-.3l-.6-.6h-1.5c-1 .6-2.2 1-3.4 1-1.3 0-2.4-.4-3.4-1H3.4l-.1.1-.6.6v.3h-1v-1H2l.6-.6.1-.1v-1.4c-.6-1-1-2.2-1-3.4 0-1.3.4-2.4 1-3.4V3.4l-.1-.1-.6-.6h-.3v-1h1V2l.5.6.2.2h1.4c1-.6 2.2-1 3.4-1 .5 0 .9.1 1.4.2l.8-1C9.7.8 9 .7 8.2.7c-1.5 0-3 .5-4.1 1.2L2.6.4.4 2.5 2 4C1.2 5.2.7 6.7.7 8.2s.5 3 1.2 4.1L.4 13.8 2.6 16l1.5-1.5c1.2.8 2.6 1.2 4.1 1.2 1.5 0 2.9-.5 4.1-1.2l1.5 1.5 2.1-2.1-1.5-1.5c.9-1.3 1.3-2.7 1.3-4.2zm-5 0c0 1.4-1.1 2.5-2.5 2.5S5.7 9.6 5.7 8.2s1.1-2.5 2.5-2.5 2.5 1.1 2.5 2.5z"/></g></g></svg><svg id="zdy-1" viewBox="-1 -1 18 18" width="18" height="18" x="150"><style>.bost0{fill-rule:evenodd;clip-rule:evenodd;fill:#00a4ff}</style><g id="boXMLID_2_"><g id="boXMLID_74_"><path id="boXMLID_75_" class="bost0" d="M15.7 8.2c0-1.5-.5-3-1.2-4.1L16 2.5 13.9.4l-1.4 1.4-.1.1-.7.7-2.3 2.3c-.4-.1-.8-.2-1.2-.2-1.9 0-3.5 1.6-3.5 3.5s1.6 3.5 3.5 3.5 3.5-1.6 3.5-3.5c0-1.1-.6-2.2-1.4-2.8l3-3 .4-.4v-.3h1v1h-.3l-.6.5-.2.2v1.3c.6 1 1 2.2 1 3.4 0 1.3-.4 2.4-1 3.4v1.4l.2.2.6.5h.3v1h-1v-.3l-.6-.6h-1.5c-1 .6-2.2 1-3.4 1-1.3 0-2.4-.4-3.4-1H3.4l-.1.1-.6.6v.3h-1v-1H2l.6-.6.1-.1v-1.4c-.6-1-1-2.2-1-3.4 0-1.3.4-2.4 1-3.4V3.4l-.1-.1-.6-.6h-.3v-1h1V2l.5.6.2.2h1.4c1-.6 2.2-1 3.4-1 .5 0 .9.1 1.4.2l.8-1C9.7.8 9 .7 8.2.7c-1.5 0-3 .5-4.1 1.2L2.6.4.4 2.5 2 4C1.2 5.2.7 6.7.7 8.2s.5 3 1.2 4.1L.4 13.8 2.6 16l1.5-1.5c1.2.8 2.6 1.2 4.1 1.2 1.5 0 2.9-.5 4.1-1.2l1.5 1.5 2.1-2.1-1.5-1.5c.9-1.3 1.3-2.7 1.3-4.2zm-5 0c0 1.4-1.1 2.5-2.5 2.5S5.7 9.6 5.7 8.2s1.1-2.5 2.5-2.5 2.5 1.1 2.5 2.5z"/></g></g></svg></svg>