<?xml version="1.0" encoding="UTF-8"?>
<svg width="48px" height="48px" viewBox="0 0 48 48" version="1.1" xmlns="http://www.w3.org/2000/svg" xmlns:xlink="http://www.w3.org/1999/xlink">
    <!-- Generator: Sketch 52.6 (67491) - http://www.bohemiancoding.com/sketch -->
    <title>稳定可靠-48px</title>
    <desc>Created with Sketch.</desc>
    <g id="稳定可靠-48px" stroke="none" stroke-width="1" fill="none" fill-rule="evenodd">
        <rect id="Rectangle-Copy" fill="#444444" opacity="0" x="0" y="0" width="48" height="48"></rect>
        <g id="Group" transform="translate(1.000000, 1.000000)">
            <ellipse id="Oval-33" fill="#00A4FF" transform="translate(23.000000, 23.000000) rotate(-45.000000) translate(-23.000000, -23.000000) " cx="23" cy="23" rx="22" ry="7"></ellipse>
            <path d="M42.5320264,32.2024566 C44.4520264,37.0524566 44.5320264,40.8824566 42.6920264,42.6924566 C41.6050264,43.6434566 40.1820264,44.1194566 38.7420264,44.0124566 C34.9710264,44.0124566 29.9310264,42.0124566 24.7420264,38.5424566 C25.7420264,37.8224566 26.6810264,37.0424566 27.6410264,36.2424566 C29.4440264,37.5204566 31.9400264,37.0954566 33.2190264,35.2934566 C34.1460264,33.9844566 34.2030264,32.2484566 33.3620264,30.8824566 C35.2050264,28.9494566 36.9280264,26.9054566 38.5210264,24.7624566 C40.1070264,27.0984566 41.4480264,29.5914566 42.5210264,32.2024566 L42.5320264,32.2024566 Z M29.2610264,34.8624566 C29.1090264,34.8004566 28.9650264,34.7194566 28.8320264,34.6224566 L28.7820264,34.6224566 C28.6680264,34.5304566 28.5630264,34.4264566 28.4710264,34.3124566 C28.2610264,34.0354566 28.1270264,33.7074566 28.0820264,33.3624566 C28.0450264,33.2484566 28.0180264,33.1314566 28.0020264,33.0124566 C27.9970264,31.9074566 28.8890264,31.0084566 29.9940264,31.0044566 C31.0980264,30.9994566 31.9970264,31.8914566 32.0020264,32.9954566 C32.0070264,34.1004566 31.1140264,34.9994566 30.0100264,35.0044566 C29.7540264,35.0054566 29.5000264,34.9564566 29.2610264,34.8624566 Z M23.0020264,37.3324566 C20.2530264,35.3464566 17.6680264,33.1424566 15.2710264,30.7424566 C12.8690264,28.3454566 10.6620264,25.7604566 8.67202635,23.0124566 C12.6640264,17.5134566 17.5000264,12.6804566 23.0020264,8.6924566 C25.7510264,10.6784566 28.3360264,12.8824566 30.7320264,15.2824566 C33.1350264,17.6794566 35.3420264,20.2644566 37.3320264,23.0124566 C35.6730264,25.2974566 33.8610264,27.4694566 31.9120264,29.5124566 C31.3270264,29.1884566 30.6700264,29.0164566 30.0020264,29.0124566 C27.7930264,29.0204566 26.0090264,30.8174566 26.0160264,33.0274566 C26.0180264,33.5984566 26.1430264,34.1624566 26.3820264,34.6824566 C25.2610264,35.6224566 24.1320264,36.5224566 23.0020264,37.3324566 Z M7.26102635,44.0124566 C5.82102635,44.1194566 4.39802635,43.6434566 3.31102635,42.6924566 C0.662026352,40.0124566 2.07202635,32.9024566 7.46202635,24.7624566 C9.40602635,27.3834566 11.5420264,29.8564566 13.8510264,32.1624566 C16.1540264,34.4684566 18.6240264,36.6004566 21.2420264,38.5424566 C16.0820264,42.0124566 11.0020264,44.0124566 7.26102635,44.0124566 Z M3.48202635,13.8224566 C1.56102635,9.0124566 1.50202635,5.1424566 3.32202635,3.3324566 C4.40602635,2.3834566 5.82502635,1.9084566 7.26102635,2.0124566 C9.25502635,2.0814566 11.2200264,2.4944566 13.0720264,3.2324566 C12.6250264,5.3954566 14.0170264,7.5114566 16.1800264,7.9584566 C17.5930264,8.2494566 19.0530264,7.7584566 20.0020264,6.6724566 C20.4310264,6.9324566 20.8620264,7.1924566 21.2920264,7.4824566 C16.0380264,11.3774566 11.3820264,16.0194566 7.47102635,21.2624566 C5.88902635,18.9264566 4.55302635,16.4324566 3.48202635,13.8224566 Z M19.0020264,4.0124566 C18.9990264,4.1634566 18.9780264,4.3154566 18.9420264,4.4624566 L18.9420264,4.5824566 C18.9130264,4.6844566 18.8770264,4.7854566 18.8320264,4.8824566 L18.7320264,5.0124566 C18.6770264,5.1104566 18.6130264,5.2044566 18.5420264,5.2924566 L18.4820264,5.3624566 C18.3910264,5.4654566 18.2910264,5.5594566 18.1810264,5.6424566 C17.8380264,5.8874566 17.4250264,6.0164566 17.0020264,6.0124566 C15.8970264,6.0124566 15.0020264,5.1174566 15.0020264,4.0124566 C15.0020264,2.9074566 15.8970264,2.0124566 17.0020264,2.0124566 C18.1060264,2.0124566 19.0020264,2.9074566 19.0020264,4.0124566 Z M38.7420264,2.0124566 C40.1820264,1.9054566 41.6050264,2.3804566 42.6920264,3.3324566 C44.5110264,5.1524566 44.4520264,8.9724566 42.5320264,13.8224566 C41.4580264,16.4334566 40.1180264,18.9264566 38.5320264,21.2624566 C36.5880264,18.6404566 34.4520264,16.1674566 32.1410264,13.8624566 C29.8400264,11.5564566 27.3690264,9.4234566 24.7520264,7.4824566 C29.9220264,4.0124566 35.0020264,2.0124566 38.7420264,2.0124566 Z M44.1010264,1.9124566 C42.6440264,0.5824566 40.7120264,-0.1025434 38.7420264,0.0124565998 C34.4820264,0.0124565998 28.8320264,2.2524566 23.0020264,6.2424566 C22.2920264,5.7624566 21.5920264,5.3124566 20.9020264,4.8824566 C21.3310264,2.7154566 19.9230264,0.6104566 17.7560264,0.1814566 C16.3710264,-0.0935434002 14.9450264,0.3824566 14.0020264,1.4324566 C11.8560264,0.5654566 9.57502635,0.0844565998 7.26102635,0.0124565998 C5.29202635,-0.1025434 3.35902635,0.5824566 1.90202635,1.9124566 C-1.85897365,5.6724566 0.152026352,14.1324566 6.22102635,23.0124566 C0.152026352,31.8924566 -1.85897365,40.3524566 1.90202635,44.1124566 C3.35902635,45.4424566 5.29202635,46.1274566 7.26102635,46.0124566 C11.5210264,46.0124566 17.1620264,43.7724566 23.0020264,39.7824566 C28.8320264,43.7824566 34.4820264,46.0124566 38.7420264,46.0124566 C40.7120264,46.1274566 42.6440264,45.4424566 44.1010264,44.1124566 C47.8620264,40.3524566 45.8510264,31.8924566 39.7820264,23.0124566 C45.8510264,14.1324566 47.8620264,5.6724566 44.1010264,1.9124566 Z" id="Fill-2" fill="#334966"></path>
            <circle id="Oval-32" fill="#00A4FF" cx="17" cy="4" r="2"></circle>
        </g>
    </g>
</svg>