<?xml version="1.0" encoding="utf-8"?>
<!-- Generator: Adobe Illustrator 23.0.3, SVG Export Plug-In . SVG Version: 6.00 Build 0)  -->
<svg version="1.1" id="svgwrapper_svg" xmlns="http://www.w3.org/2000/svg" xmlns:xlink="http://www.w3.org/1999/xlink" x="0px"
	 y="0px" width="830px" height="328px" viewBox="0 0 830 328" style="enable-background:new 0 0 830 328;" xml:space="preserve">
<path style="display:none;fill:none;stroke:#999999;" d="M295,95l77,116"/>
<g>
	<g>
		<rect x="135.5" y="72" style="fill:#CEE3FF;" width="226" height="184"/>
		<g id="RectEndPoint1_9_" transform="translate(47,240)">
			<g>
				<rect x="106.5" y="-150" style="opacity:0.6;fill:#BBBBBB;enable-background:new    ;" width="192" height="50"/>
				<rect x="104.5" y="-152" style="fill:#FFFFFF;stroke:#E5E5E5;" width="192" height="50"/>
			</g>
			<g transform="translate(20 9)">
				<g style="enable-background:new    ;">
					<path style="fill:#444444;" d="M146.1-138.1v6.2c0.5-0.4,1-0.9,1.5-1.4l0.3,1.1c-0.8,0.8-1.7,1.6-2.7,2.2l-0.4-0.9
						c0.2-0.2,0.3-0.4,0.3-0.6v-5.5h-1.9v-1H146.1z M147.1-140.1l-0.7,0.7c-0.6-0.7-1.4-1.5-2.5-2.2l0.7-0.7
						C145.7-141.5,146.5-140.8,147.1-140.1z M151.4-140.3c-0.3-0.7-0.7-1.4-1.1-2l1-0.3c0.4,0.8,0.8,1.5,1.1,2.1l-0.5,0.2h4.1v1
						h-4.7c0,0.6,0,1.4-0.1,2.4h3.9c0,3.1-0.1,5.1-0.3,6c-0.2,0.8-0.8,1.2-1.7,1.2c-0.4,0-1,0-1.6-0.1l-0.3-0.9
						c0.7,0,1.3,0.1,1.8,0.1c0.5,0,0.9-0.3,1-0.9c0.1-0.7,0.1-2.2,0.2-4.4h-2.9c-0.1,1.1-0.4,2.2-0.8,3.1c-0.5,1.2-1.3,2.3-2.2,3.3
						l-0.7-0.7c1.1-1.2,1.8-2.4,2.2-3.5c0.4-1,0.5-2.2,0.6-3.6c0-0.9,0.1-1.6,0.1-2h-2.6v-1H151.4z"/>
					<path style="fill:#444444;" d="M158.8-140.1v10.5h-1v-10.5H158.8z M161.6-140l-0.9,0.5c-0.5-1-1.1-1.8-1.8-2.6l0.9-0.4
						C160.5-141.8,161.1-140.9,161.6-140z M166-138.1v5.3h-5v-5.3H166z M165-137.1h-3v3.3h3V-137.1z M166.1-129.7l-0.3-0.9l1.5,0
						c0.5,0,0.8-0.3,0.8-0.9v-9.1h-5.4v-1h6.5v10.4c0,1-0.5,1.6-1.6,1.6H166.1z"/>
					<path style="fill:#444444;" d="M171.6-129.7l-0.2-1c0.4,0,0.7,0.1,1.1,0.1c0.4,0,0.5-0.2,0.5-0.5v-3.4
						c-0.6,0.2-1.1,0.4-1.7,0.6l-0.3-1c0.7-0.2,1.3-0.4,1.9-0.6v-3.1h-1.7v-1h1.7v-2.7h1v2.7h1.2v1H174v2.7c0.4-0.2,0.8-0.4,1.2-0.6
						v1c-0.4,0.2-0.8,0.4-1.2,0.6v4.1c0,0.8-0.4,1.2-1.2,1.2H171.6z M175.9-134.1v-0.9h7.5v0.9h-3.2v3.1h3.7v1h-8.6v-1h3.8v-3.1
						H175.9z M180.2-140.9h3.3v2.6h-0.9v-1.7h-5.9v1.7h-1v-2.6h3.5c-0.2-0.6-0.5-1.1-0.7-1.5l1-0.2
						C179.8-142.1,180-141.5,180.2-140.9z M179.1-138.8c-0.6,1.4-1.5,2.5-2.5,3.2l-0.7-0.6c1.1-0.7,1.8-1.7,2.4-2.9L179.1-138.8z
						 M183.3-136.2l-0.9,0.4c-0.7-1.1-1.4-2.2-2.3-3.1l0.9-0.4C181.8-138.3,182.6-137.2,183.3-136.2z"/>
					<path style="fill:#444444;" d="M185.8-138.3l-0.8-0.6c0.7-0.8,1.1-1.8,1.3-3.1l1,0.2c-0.1,0.4-0.2,0.9-0.3,1.2h1.6v-1.7h1v1.7
						h2.6v0.9h-2.6v1.8h3v0.9h-3v1.5h2.7v3.7c0,0.8-0.4,1.2-1.3,1.2h-0.7l-0.3-1l0.7,0c0.4,0,0.6-0.2,0.6-0.5v-2.5h-1.8v5h-1v-5
						h-1.8v4.1h-1v-5h2.8v-1.5h-3.4v-0.9h3.4v-1.8h-2C186.4-139.2,186.1-138.7,185.8-138.3z M194.5-141.1v8.7h-1v-8.7H194.5z
						 M194-129.7l-0.2-1c0.7,0,1.3,0.1,1.9,0.1c0.4,0,0.6-0.2,0.6-0.7v-11.1h1v11.4c0,0.9-0.4,1.3-1.3,1.3H194z"/>
					<path style="fill:#444444;" d="M200.1-139l-0.9-0.6c0.8-0.9,1.5-1.8,1.8-2.9l1,0.2c-0.1,0.3-0.2,0.6-0.4,0.9h3.8v0.9h-2.4
						c0.3,0.4,0.6,0.8,0.8,1.2L203-139c-0.3-0.5-0.6-1.1-0.9-1.6h-0.8C200.9-140,200.5-139.5,200.1-139z M211.4-136.1h-1v-1.7h-9.9
						v1.7h-1v-2.5h5.5c-0.1-0.3-0.3-0.6-0.4-0.9l1-0.2l-0.1-0.1c0.7-0.8,1.1-1.8,1.5-2.8l1,0.2c-0.1,0.3-0.2,0.6-0.3,0.9h4v0.9h-2.5
						c0.3,0.4,0.5,0.8,0.7,1.1l-0.9,0.3c-0.3-0.5-0.5-1-0.9-1.4h-0.9c-0.3,0.5-0.5,0.9-0.9,1.3l-0.8-0.5c0.2,0.3,0.3,0.7,0.4,1.1
						h5.3V-136.1z M209.5-134.2h-7v1h7.6v3.6h-1v-0.6h-6.6v0.6h-1v-7.3h8V-134.2z M208.5-135v-1.1h-6v1.1H208.5z M209.2-131.1v-1.3
						h-6.6v1.3H209.2z"/>
					<path style="fill:#444444;" d="M214.9-137.2v-3.3h-1.7v-1h4.5v1h-1.7v3.3h1.5v1h-1.5v3.2c0.5-0.2,1-0.4,1.5-0.6v1
						c-1.3,0.5-2.7,1-4.2,1.3l-0.3-1c0.6-0.1,1.2-0.3,1.8-0.4v-3.5h-1.5v-1H214.9z M225.2-141.9v6.5h-2.9v1.7h3.2v1h-3.2v1.8h3.7v1
						h-8.4v-1h3.8v-1.8h-3.2v-1h3.2v-1.7h-2.9v-6.5H225.2z M221.3-139.1v-1.9h-2v1.9H221.3z M221.3-138.2h-2v1.9h2V-138.2z
						 M222.3-139.1h1.9v-1.9h-1.9V-139.1z M224.2-138.2h-1.9v1.9h1.9V-138.2z"/>
					<path style="fill:#444444;" d="M239.2-141.8v1H234v5.3h5.7v1H234v5h-1v-5h-5.6v-1h5.6v-5.3h-5.1v-1H239.2z M231.1-136.7
						l-0.9,0.5c-0.5-1.2-1-2.3-1.5-3.2l0.9-0.5C230.1-139,230.6-137.9,231.1-136.7z M238.4-139.6c-0.4,1.1-1,2.2-1.7,3.2l-0.9-0.5
						c0.7-1.1,1.2-2.2,1.6-3.2L238.4-139.6z"/>
					<path style="fill:#444444;" d="M241.6-137.8c1.2-0.4,2.8-2,4.6-4.7l1,0.4c-1.3,1.8-2.5,3.2-3.8,4.3c2.7-0.1,5.2-0.3,7.6-0.5
						c-0.5-0.8-1.1-1.5-1.6-2.1l0.9-0.4c1.2,1.4,2.3,3,3.4,4.6l-1,0.5c-0.4-0.6-0.7-1.1-1-1.7c-3,0.3-6.2,0.5-9.9,0.6L241.6-137.8z
						 M252.2-129.6h-1v-0.7h-7.3v0.7h-1v-5.8h9.4V-129.6z M251.2-131.3v-3.2h-7.3v3.2H251.2z"/>
				</g>
			</g>
		</g>
		<g id="RectEndPoint1_8_" transform="translate(47,240)">
			<g>
				<rect x="106.5" y="-50" style="opacity:0.6;fill:#BBBBBB;enable-background:new    ;" width="192" height="50"/>
				<rect x="104.5" y="-52" style="fill:#FFFFFF;stroke:#E5E5E5;" width="192" height="50"/>
			</g>
			<g transform="translate(20 9)">
				<g style="enable-background:new    ;">
					<path style="fill:#444444;" d="M172.8-37.1c-0.5,1.7-1.1,3-1.9,3.9l-0.7-0.7c0.8-0.9,1.3-2.1,1.7-3.5L172.8-37.1z M175.7-42.4
						v2.5c0,0.1,0,0.1,0,0.2h4.5c0,0.9,0,1.8-0.1,2.6l0.9-0.4c0.7,1.3,1.3,2.7,1.9,4.2l-0.9,0.4c-0.6-1.6-1.2-3-1.9-4.2
						c-0.1,1.3-0.1,2.4-0.2,3.3c-0.1,1.5-0.4,2.5-0.7,3.1c-0.3,0.6-0.8,0.9-1.5,0.9h-1.6l-0.3-1c0.5,0,0.9,0,1.4,0
						c0.7,0,1.2-0.5,1.5-1.5c0.2-1,0.4-3.2,0.5-6.6h-3.5c-0.1,2.2-0.5,4-1.1,5.5c-0.7,1.5-1.9,2.7-3.6,3.6l-0.5-0.9
						c1.6-0.9,2.7-2,3.4-3.5c0.5-1.3,0.8-2.8,0.9-4.7h-3.5v-1h3.5v-2.7H175.7z"/>
					<path style="fill:#444444;" d="M189-41.9c-1,2.9-2.4,5.2-4.1,6.7l-0.8-0.7c1.8-1.6,3.1-3.7,4-6.4L189-41.9z M195.7-30l-0.9,0.4
						c-0.2-0.5-0.4-0.9-0.6-1.3c-2.5,0.4-5.2,0.7-8.3,0.9l-0.2-1c1.1-0.6,2.5-2.8,4.2-6.6l1,0.3c-1.2,2.7-2.4,4.7-3.6,6.3
						c2.3-0.1,4.4-0.4,6.4-0.7c-0.5-1-1.1-1.9-1.7-2.8l0.9-0.3C194-33.4,194.9-31.7,195.7-30z M196.9-36l-0.7,0.8
						c-2.1-1.7-3.5-4-4.4-6.7l0.9-0.5C193.5-39.8,194.9-37.7,196.9-36z"/>
					<path style="fill:#444444;" d="M201.7-38.8c-0.7,0.7-1.6,1.4-2.6,2.1l-0.7-0.8c1.1-0.6,2-1.3,2.7-2L201.7-38.8z M205.1-34.7
						c-0.2,1.8-0.6,3-1.3,3.6c-0.7,0.8-2.4,1.2-4.9,1.4l-0.4-0.9c2.2-0.1,3.7-0.5,4.4-1.1c0.6-0.6,1-1.6,1.1-3.1L205.1-34.7z
						 M201.5-41.2l-0.5,0.8c-0.8-0.4-1.5-0.8-2.3-1l0.5-0.8C200-41.9,200.8-41.6,201.5-41.2z M209-32.1h-1v-3.2h-7v3.3h-1v-4.3h9
						V-32.1z M204.7-42.4c-0.1,0.3-0.2,0.6-0.4,0.9h5.6v0.6c-0.2,0.7-0.4,1.4-0.7,2l-1-0.3c0.2-0.4,0.4-0.9,0.6-1.5h-2.4
						c-0.1,0.3-0.1,0.6-0.3,0.9c0.7,1.1,2.2,1.8,4.3,2.2l-0.4,0.9c-2-0.4-3.5-1.2-4.4-2.3c-0.2,0.3-0.3,0.5-0.6,0.7
						c-0.7,0.6-1.8,1.2-3.4,1.5l-0.4-0.9c1.4-0.3,2.4-0.7,3-1.2c0.5-0.5,0.9-1.1,1-1.9h-1.8c-0.4,0.5-0.9,1-1.4,1.4l-0.6-0.8
						c0.9-0.7,1.5-1.5,1.9-2.5L204.7-42.4z M210.4-30.4l-0.5,0.8c-1.6-0.8-3.2-1.4-4.9-1.8l0.5-0.8C207.2-31.6,208.9-31,210.4-30.4z
						"/>
					<path style="fill:#444444;" d="M215.2-36.7l-0.7,0.7c-0.6-0.7-1.3-1.4-2.3-2.1l0.7-0.7C213.8-38,214.6-37.3,215.2-36.7z
						 M215.4-34.6c-0.6,1.8-1.3,3.4-2.1,5l-0.9-0.4c0.8-1.6,1.6-3.2,2.2-4.9L215.4-34.6z M215.6-40l-0.7,0.7
						c-0.6-0.7-1.5-1.4-2.5-2.2l0.7-0.7C214.1-41.4,214.9-40.7,215.6-40z M220.2-39.7c0.2-0.4,0.3-0.9,0.4-1.3h-3.4v4.1
						c-0.1,3-0.6,5.5-1.6,7.3l-0.8-0.7c0.9-1.6,1.3-3.8,1.4-6.6v-5h8.4v0.9h-3.1c-0.1,0.5-0.2,0.9-0.4,1.3h2.7v4.9h-2.3v4
						c0,0.8-0.4,1.1-1.1,1.1h-1.2l-0.2-0.9c0.4,0,0.7,0.1,1,0.1c0.3,0,0.5-0.2,0.5-0.5v-3.7h-2.4v-4.9H220.2z M219.5-33.5
						c-0.4,1.2-0.9,2.3-1.5,3.2l-0.8-0.5c0.7-0.9,1.1-1.8,1.4-2.9L219.5-33.5z M223-37.6v-1.3h-3.9v1.3H223z M223-36.8h-3.9v1.3h3.9
						V-36.8z M224.8-30.7l-0.9,0.4c-0.4-1.2-1-2.3-1.5-3.2l0.8-0.3C223.9-32.8,224.4-31.8,224.8-30.7z"/>
				</g>
			</g>
		</g>
		<g>
			<g>
				<path style="fill:none;stroke:#888888;" d="M258,188v-46"/>
				<g transform="translate(0.5, 0)">
					<polygon style="fill-rule:evenodd;clip-rule:evenodd;fill:#888888;" points="262,146 257.5,140 253,146 					"/>
				</g>
				<path style="fill:none;stroke:#FF0000;stroke-width:15;stroke-opacity:0;" d="M258,188v-46"/>
			</g>
			<g>
				<path style="fill:none;stroke:#888888;" d="M239,140v46"/>
				<g transform="translate(0.5, 0)">
					<polygon style="fill-rule:evenodd;clip-rule:evenodd;fill:#888888;" points="243,182 238.5,188 234,182 					"/>
				</g>
				<path style="fill:none;stroke:#FF0000;stroke-width:15;stroke-opacity:0;" d="M239,140v46"/>
			</g>
		</g>
		<g>
			<rect x="201.5" y="197" style="fill:none;" width="32" height="32"/>
			<g>
				<path style="fill:#00A4FF;" d="M220.5,206l-4-4h-12v22h26v-18H220.5z M228.5,222h-22v-18h9.2l3.4,3.4l0.6,0.6h0.8h8V222z"/>
				<path style="fill:#00A4FF;" d="M220.5,213c0-1.7-1.3-3-3-3s-3,1.3-3,3v1h-2v6h10v-6h-2V213z M220.5,218h-6v-2h6V218z M216.5,214
					v-1c0-0.6,0.4-1,1-1s1,0.4,1,1v1H216.5z"/>
			</g>
		</g>
		<g>
			<rect x="174.5" y="96" style="fill:none;" width="32" height="32"/>
			<g>
				<path style="fill:#00A4FF;" d="M203.5,120v-20h-26v20h8v2h-3v2h16v-2h-3v-2H203.5z M179.5,118v-16h22v16H179.5z M193.5,122h-6
					v-2h6V122z"/>
				<path style="fill:#00A4FF;" d="M193.5,108c0-1.7-1.3-3-3-3s-3,1.3-3,3v1h-2v6h10v-6h-2V108z M193.5,113h-6v-2h6V113z M189.5,109
					v-1c0-0.6,0.4-1,1-1s1,0.4,1,1v1H189.5z"/>
			</g>
		</g>
	</g>
	<g transform="translate(0 0)">
		<g style="enable-background:new    ;">
			<path style="fill:#878787;" d="M418.1,137.4c-0.1,0.4-0.2,0.8-0.3,1.2h1.8v0.8h-2.1c-0.3,0.8-0.6,1.6-0.9,2.3l-0.7-0.4
				c0.6-1.2,1-2.5,1.3-4L418.1,137.4z M419.4,141v0.8h-1v1.5h1.3v0.8h-1.3v2.8c0.3-0.2,0.7-0.4,1-0.7l0.1,0.7c-0.6,0.4-1.2,0.8-2,1
				l-0.3-0.7c0.2-0.1,0.3-0.2,0.3-0.4V144h-1.3v-0.8h1.3v-1.5H417V141H419.4z M427,147.2l-0.2,0.8h-1.6c-0.4,0-0.7,0-1.1,0
				c-0.6,0-1-0.1-1.5-0.2c-0.4-0.1-0.8-0.4-1.1-0.7c-0.2-0.2-0.3-0.3-0.4-0.3c-0.2,0-0.6,0.5-1.1,1.4l-0.5-0.6
				c0.5-0.8,0.9-1.3,1.3-1.5v-4h-1v-0.8h1.8v4.8c0,0,0.1,0.1,0.1,0.1c0.2,0.3,0.6,0.6,0.9,0.7c0.3,0.1,0.7,0.2,1.2,0.2
				c0.5,0,0.9,0,1.4,0C425.8,147.2,426.5,147.2,427,147.2z M421.7,139.3l-0.6,0.5c-0.3-0.6-0.7-1.2-1.3-2l0.6-0.4
				C421,138.2,421.5,138.8,421.7,139.3z M424.4,144v-1.5h-2l-0.2-0.7c0.4-0.7,0.8-1.5,1.1-2.5h-1.2v-0.8h1.4
				c0.1-0.4,0.2-0.9,0.4-1.4l0.8,0.2c-0.1,0.4-0.2,0.8-0.3,1.2h2.3v0.8h-2.5c-0.3,0.9-0.6,1.7-1,2.4h1.2v-1.6h0.8v1.6h1.4v0.8h-1.4
				v1.5h1.7v0.8h-1.7v2h-0.8v-2h-2.2V144H424.4z"/>
			<path style="fill:#878787;" d="M432.3,137.7v3.8h-1.2v1.9h1.2v0.8h-1.2v2.2c0.5-0.2,1-0.3,1.5-0.5v0.9c-1.2,0.5-2.7,0.9-4.4,1.3
				l-0.2-0.8l0.6-0.1v-4.4h0.8v4.2c0.3-0.1,0.6-0.2,0.9-0.2v-5.2h-1.7v-3.8H432.3z M431.5,138.5h-2v2.2h2V138.5z M435.4,137.3
				c-0.1,0.3-0.2,0.6-0.3,0.9h3v0.6c-0.4,1-1,1.9-1.8,2.7c0.8,0.6,1.8,1.2,2.9,1.5l-0.5,0.7c-1.2-0.4-2.2-0.9-3-1.7
				c-0.8,0.7-1.8,1.2-2.9,1.7l-0.5-0.7c1.1-0.4,2-1,2.8-1.6c-0.4-0.5-0.8-1-1.1-1.5c-0.3,0.4-0.7,0.7-1,1l-0.5-0.7
				c1.1-0.8,1.8-1.8,2.2-3.1L435.4,137.3z M438,148.2h-0.8v-0.5h-3v0.5h-0.8v-4.4h4.7V148.2z M437.2,146.8v-2.4h-3v2.4H437.2z
				 M435.6,140.9c0.6-0.6,1.1-1.2,1.5-2h-2.5c-0.1,0.1-0.1,0.2-0.2,0.3C434.8,139.9,435.2,140.5,435.6,140.9z"/>
			<path style="fill:#878787;" d="M443,137.2v2.4h2.4c0,3.7-0.1,6.1-0.2,6.9c-0.1,1-0.7,1.5-1.8,1.5c-0.2,0-0.5,0-0.9,0l-0.2-0.8
				c0.4,0,0.7,0,1,0c0.6,0,1-0.3,1.1-1c0.1-0.6,0.1-2.6,0.1-5.8H443c0,3.5-0.8,6.1-2.4,7.7l-0.6-0.6c1.4-1.5,2.1-3.9,2.1-7.2h-1.9
				v-0.8h1.9v-2.4H443z M450.4,148h-0.8v-0.8h-2.3v0.8h-0.8v-9h3.9V148z M449.6,146.4v-6.6h-2.3v6.6H449.6z"/>
			<path style="fill:#878787;" d="M457.9,148c-0.8,0-1.4-0.1-1.9-0.2c-0.5-0.1-0.9-0.4-1.3-0.9c-0.2-0.2-0.3-0.3-0.5-0.3
				c-0.3,0-0.8,0.6-1.4,1.7l-0.6-0.6c0.6-1,1.2-1.6,1.7-1.8v-3.6h-1.7v-0.8h2.5v4.5c0.1,0.1,0.2,0.2,0.3,0.3
				c0.3,0.3,0.6,0.6,0.9,0.8c0.4,0.2,0.9,0.3,1.6,0.3c0.6,0,1.4,0,2.4,0c0.6,0,1.2,0,1.7,0c0.6,0,1,0,1.4,0l-0.2,0.9H460
				C459.3,148,458.6,148,457.9,148z M455.1,139.3l-0.6,0.6c-0.5-0.6-1.2-1.2-2.1-1.9l0.6-0.6C453.8,138,454.5,138.6,455.1,139.3z
				 M458.8,138.2v-1h0.8v1h3v0.8h-3v1h2.6v3.1h-2.6v3.7h-0.8v-3.3c-0.6,1.1-1.6,2-2.8,2.7l-0.5-0.7c1.3-0.7,2.3-1.5,2.8-2.4h-2.1
				V140h2.6v-1h-3.1v-0.8H458.8z M458.8,140.8H457v1.5h1.8V140.8z M461.4,140.8h-1.8v1.5h1.8V140.8z M462.7,145.5l-0.6,0.6
				c-0.5-0.7-1.2-1.4-2.1-2.1l0.6-0.5C461.4,144.1,462.1,144.8,462.7,145.5z"/>
		</g>
	</g>
	<g>
		<g>
			<g transform="translate(0.5, 0)">
				<polygon style="fill-rule:evenodd;clip-rule:evenodd;fill:#888888;" points="367,159 361,154 367,149 				"/>
			</g>
		</g>
		<line style="fill:none;stroke:#888888;" x1="366.5" y1="154" x2="513.5" y2="154"/>
		<g>
			<g transform="translate(0.5, 0)">
				<polygon style="fill-rule:evenodd;clip-rule:evenodd;fill:#888888;" points="507,179 513,174 507,169 				"/>
			</g>
		</g>
		<line style="fill:none;stroke:#888888;" x1="508.5" y1="174" x2="361.5" y2="174"/>
	</g>
	<g>
		<rect x="513.5" style="fill:#EAEBEC;" width="181" height="328"/>
		<g id="RectEndPoint8_3_" transform="translate(408,205)">
			<rect x="123.5" y="-113" style="opacity:0.6;fill:#BBBBBB;enable-background:new    ;" width="147" height="50"/>
			<rect x="121.5" y="-115" style="fill:#FFFFFF;stroke:#E5E5E5;" width="147" height="50"/>
			<g transform="translate(20 9)">
				<g>
					<g>
						<path style="fill:#878787;" d="M150.5-109.9c2.2,0,4,1.8,4,4c0,2.2-1.8,4-4,4s-4-1.8-4-4C146.5-108.1,148.3-109.9,150.5-109.9
							 M150.5-111.9c-3.3,0-6,2.7-6,6c0,3.3,2.7,6,6,6s6-2.7,6-6C156.5-109.2,153.8-111.9,150.5-111.9z"/>
						<path style="fill:#878787;" d="M154.5-95.9c3.3,0,6,2.7,6,6v1h-20v-1c0-3.3,2.7-6,6-6H154.5 M154.5-97.9h-8c-4.4,0-8,3.6-8,8
							v3h24v-3C162.5-94.3,158.9-97.9,154.5-97.9z"/>
						<path style="fill:#878787;" d="M163.5-97.9h-3c0.8,0.6,1.4,1.2,2,2h1c2.2,0,4,1.8,4,4v1h-3c0,0.3,0,0.7,0,1v1h5v-3
							C169.5-95.2,166.8-97.9,163.5-97.9z"/>
						<path style="fill:#878787;" d="M159.5-110.9c-0.8,0-1.6,0.2-2.3,0.6c0.4,0.6,0.7,1.2,0.9,1.8c1.4-0.8,3.3-0.3,4.1,1.1
							c0.8,1.4,0.3,3.3-1.1,4.1c-0.9,0.5-2,0.5-3,0c-0.2,0.6-0.5,1.2-0.9,1.8c0.7,0.4,1.5,0.6,2.3,0.6c2.8,0,5-2.2,5-5
							C164.5-108.6,162.3-110.9,159.5-110.9z"/>
					</g>
				</g>
				<g style="enable-background:new    ;">
					<path style="fill:#444444;" d="M188.1-98.1c-0.1,0.4-0.1,0.7-0.2,1h5.4v1h-4.9c1,1.3,2.8,2.2,5.6,2.6l-0.5,1
						c-3.1-0.6-5.1-1.8-6-3.4c-0.3,0.6-0.7,1.1-1.2,1.5c-0.9,0.8-2.5,1.5-4.8,1.9l-0.4-1c2-0.4,3.5-0.9,4.4-1.6
						c0.4-0.3,0.7-0.6,0.9-1h-4.6v-1h5.1c0.1-0.4,0.2-0.7,0.3-1.1L188.1-98.1z M185-104c-0.2-0.5-0.4-0.9-0.7-1.3l1.1-0.2
						c0.2,0.4,0.4,0.9,0.6,1.5h2.9c0.2-0.5,0.4-1,0.5-1.5l1.1,0.1c-0.1,0.5-0.3,0.9-0.6,1.4h3.1v0.9H188v1.3h4.4v0.9H188v1.4h5.6
						v0.9h-12.2v-0.9h5.6v-1.4h-4.4v-0.9h4.4v-1.3h-5.1v-0.9H185z"/>
					<path style="fill:#444444;" d="M207.3-92.6h-1v-0.6h-9.5v0.6h-1v-12.2h11.5V-92.6z M206.2-94.2v-9.7h-9.5v9.7H206.2z
						 M205-102.6v0.9H202v2h2.5v0.9H202v2.2h3.3v0.9h-7.7v-0.9h3.3v-2.2h-2.5v-0.9h2.5v-2h-3v-0.9H205z M204.6-96.9l-0.8,0.4
						c-0.3-0.6-0.6-1.2-0.9-1.6l0.8-0.3C204-98,204.3-97.5,204.6-96.9z"/>
				</g>
			</g>
		</g>
		<g id="RectEndPoint9_3_" transform="translate(408,131)">
			<rect x="123.5" y="-113" style="opacity:0.6;fill:#BBBBBB;enable-background:new    ;" width="147" height="50"/>
			<rect x="121.5" y="-115" style="fill:#FFFFFF;stroke:#E5E5E5;" width="147" height="50"/>
			<g transform="translate(20 9)">
				<g>
					<g>
						<path style="fill:#878787;" d="M150.5-109.9c2.2,0,4,1.8,4,4c0,2.2-1.8,4-4,4s-4-1.8-4-4C146.5-108.1,148.3-109.9,150.5-109.9
							 M150.5-111.9c-3.3,0-6,2.7-6,6c0,3.3,2.7,6,6,6s6-2.7,6-6C156.5-109.2,153.8-111.9,150.5-111.9z"/>
						<path style="fill:#878787;" d="M154.5-95.9c3.3,0,6,2.7,6,6v1h-20v-1c0-3.3,2.7-6,6-6H154.5 M154.5-97.9h-8c-4.4,0-8,3.6-8,8
							v3h24v-3C162.5-94.3,158.9-97.9,154.5-97.9z"/>
						<path style="fill:#878787;" d="M163.5-97.9h-3c0.8,0.6,1.4,1.2,2,2h1c2.2,0,4,1.8,4,4v1h-3c0,0.3,0,0.7,0,1v1h5v-3
							C169.5-95.2,166.8-97.9,163.5-97.9z"/>
						<path style="fill:#878787;" d="M159.5-110.9c-0.8,0-1.6,0.2-2.3,0.6c0.4,0.6,0.7,1.2,0.9,1.8c1.4-0.8,3.3-0.3,4.1,1.1
							c0.8,1.4,0.3,3.3-1.1,4.1c-0.9,0.5-2,0.5-3,0c-0.2,0.6-0.5,1.2-0.9,1.8c0.7,0.4,1.5,0.6,2.3,0.6c2.8,0,5-2.2,5-5
							C164.5-108.6,162.3-110.9,159.5-110.9z"/>
					</g>
				</g>
				<g style="enable-background:new    ;">
					<path style="fill:#444444;" d="M192-92.7h-1v-1.1h-6.6v1.1h-1v-12.2h8.7V-92.7z M190.9-99.9v-4h-6.6v4H190.9z M190.9-94.7v-4.2
						h-6.6v4.2H190.9z"/>
					<path style="fill:#444444;" d="M201-102.9v-2.5h1v2.5h5.5v1h-4.6c0.9,2.2,2.6,4.2,5,6l-0.7,0.9c-2.5-2-4.2-4.3-5.1-6.8H202v5.5
						h3v1h-3v2.9h-1v-2.9h-2.9v-1h2.9v-5.5h-0.1c-1,2.8-2.8,5.2-5.3,7l-0.6-0.9c2.4-1.6,4-3.6,5.1-6.1h-4.6v-1H201z"/>
				</g>
			</g>
		</g>
		<g id="RectEndPoint6_3_" transform="translate(408,279)">
			<rect x="123.5" y="-113" style="opacity:0.6;fill:#BBBBBB;enable-background:new    ;" width="147" height="50"/>
			<rect x="121.5" y="-115" style="fill:#FFFFFF;stroke:#E5E5E5;" width="147" height="50"/>
			<g transform="translate(20 9)">
				<g>
					<g>
						<path style="fill:#878787;" d="M150.5-109.9c2.2,0,4,1.8,4,4c0,2.2-1.8,4-4,4s-4-1.8-4-4C146.5-108.1,148.3-109.9,150.5-109.9
							 M150.5-111.9c-3.3,0-6,2.7-6,6c0,3.3,2.7,6,6,6s6-2.7,6-6C156.5-109.2,153.8-111.9,150.5-111.9z"/>
						<path style="fill:#878787;" d="M154.5-95.9c3.3,0,6,2.7,6,6v1h-20v-1c0-3.3,2.7-6,6-6H154.5 M154.5-97.9h-8c-4.4,0-8,3.6-8,8
							v3h24v-3C162.5-94.3,158.9-97.9,154.5-97.9z"/>
						<path style="fill:#878787;" d="M163.5-97.9h-3c0.8,0.6,1.4,1.2,2,2h1c2.2,0,4,1.8,4,4v1h-3c0,0.3,0,0.7,0,1v1h5v-3
							C169.5-95.2,166.8-97.9,163.5-97.9z"/>
						<path style="fill:#878787;" d="M159.5-110.9c-0.8,0-1.6,0.2-2.3,0.6c0.4,0.6,0.7,1.2,0.9,1.8c1.4-0.8,3.3-0.3,4.1,1.1
							c0.8,1.4,0.3,3.3-1.1,4.1c-0.9,0.5-2,0.5-3,0c-0.2,0.6-0.5,1.2-0.9,1.8c0.7,0.4,1.5,0.6,2.3,0.6c2.8,0,5-2.2,5-5
							C164.5-108.6,162.3-110.9,159.5-110.9z"/>
					</g>
				</g>
				<g style="enable-background:new    ;">
					<path style="fill:#444444;" d="M188-102.3v1.4h3.9v3.4h1.8v0.9h-5c0.8,1.4,2.5,2.4,5.1,3.2l-0.5,0.9c-3-1-4.8-2.4-5.6-4.1h-0.3
						c-0.3,0.6-0.6,1.1-1,1.6c-0.9,1.1-2.5,1.9-4.6,2.5l-0.5-0.9c2.1-0.6,3.6-1.3,4.4-2.3c0.2-0.3,0.4-0.6,0.6-0.9h-5v-0.9h1.8v-3.4
						h4v-1.4H188z M184.6-104.2v-1.2h1v1.2h3.7v-1.2h1v1.2h3.3v0.9h-3.3v1.4h-1v-1.4h-3.7v1.4h-1v-1.4h-3.3v-0.9H184.6z M186.7-97.5
						c0.2-0.6,0.3-1.3,0.3-2v-0.4h-3v2.5H186.7z M191-97.5v-2.5H188v0.4c0,0.8-0.1,1.4-0.3,2H191z"/>
					<path style="fill:#444444;" d="M207.3-92.6h-1v-0.6h-9.5v0.6h-1v-12.2h11.5V-92.6z M206.2-94.2v-9.7h-9.5v9.7H206.2z
						 M205-102.6v0.9H202v2h2.5v0.9H202v2.2h3.3v0.9h-7.7v-0.9h3.3v-2.2h-2.5v-0.9h2.5v-2h-3v-0.9H205z M204.6-96.9l-0.8,0.4
						c-0.3-0.6-0.6-1.2-0.9-1.6l0.8-0.3C204-98,204.3-97.5,204.6-96.9z"/>
				</g>
			</g>
		</g>
		<g id="RectEndPoint7_3_" transform="translate(408,355)">
			<rect x="123.5" y="-93" style="opacity:0.6;fill:#BBBBBB;enable-background:new    ;" width="147" height="50"/>
			<rect x="121.5" y="-95" style="fill:#FFFFFF;stroke:#E5E5E5;" width="147" height="50"/>
			<g transform="translate(20 9)">
				<g>
					<g>
						<path style="fill:#878787;" d="M150.5-89.9c2.2,0,4,1.8,4,4c0,2.2-1.8,4-4,4s-4-1.8-4-4C146.5-88.1,148.3-89.9,150.5-89.9
							 M150.5-91.9c-3.3,0-6,2.7-6,6c0,3.3,2.7,6,6,6s6-2.7,6-6C156.5-89.2,153.8-91.9,150.5-91.9z"/>
						<path style="fill:#878787;" d="M154.5-75.9c3.3,0,6,2.7,6,6v1h-20v-1c0-3.3,2.7-6,6-6H154.5 M154.5-77.9h-8c-4.4,0-8,3.6-8,8
							v3h24v-3C162.5-74.3,158.9-77.9,154.5-77.9z"/>
						<path style="fill:#878787;" d="M163.5-77.9h-3c0.8,0.6,1.4,1.2,2,2h1c2.2,0,4,1.8,4,4v1h-3c0,0.3,0,0.7,0,1v1h5v-3
							C169.5-75.2,166.8-77.9,163.5-77.9z"/>
						<path style="fill:#878787;" d="M159.5-90.9c-0.8,0-1.6,0.2-2.3,0.6c0.4,0.6,0.7,1.2,0.9,1.8c1.4-0.8,3.3-0.3,4.1,1.1
							c0.8,1.4,0.3,3.3-1.1,4.1c-0.9,0.5-2,0.5-3,0c-0.2,0.6-0.5,1.2-0.9,1.8c0.7,0.4,1.5,0.6,2.3,0.6c2.8,0,5-2.2,5-5
							C164.5-88.6,162.3-90.9,159.5-90.9z"/>
					</g>
				</g>
				<g style="enable-background:new    ;">
					<path style="fill:#444444;" d="M184.1-79.9l-0.7,0.7c-0.5-0.7-1.2-1.4-2.1-2.1l0.7-0.7C182.8-81.3,183.5-80.6,184.1-79.9z
						 M184.5-77.7c-0.6,1.8-1.3,3.4-2,5l-1-0.4c0.8-1.6,1.5-3.2,2.1-4.9L184.5-77.7z M184.6-83.1l-0.7,0.7c-0.6-0.7-1.3-1.4-2.3-2.1
						l0.7-0.7C183.2-84.5,184-83.8,184.6-83.1z M189.7-85.4v2.3h3.6v1h-3.6v2.6h4v1h-4.6c-0.9,2.1-1.7,3.7-2.4,4.5
						c1.7-0.2,3.4-0.4,5.2-0.8c-0.4-0.8-0.8-1.6-1.2-2.3l1-0.3c0.8,1.4,1.6,2.9,2.2,4.5l-1,0.4c-0.2-0.5-0.4-1-0.6-1.4
						c-2.1,0.4-4.4,0.7-6.9,1l-0.2-0.9c0.1,0,0.2-0.1,0.2-0.1c0.7-0.6,1.5-2.1,2.6-4.6h-3.3v-1h4v-2.6h-3.3v-1h3.3v-2.3H189.7z"/>
					<path style="fill:#444444;" d="M207.3-72.6h-1v-0.6h-9.5v0.6h-1v-12.2h11.5V-72.6z M206.2-74.2v-9.7h-9.5v9.7H206.2z M205-82.6
						v0.9H202v2h2.5v0.9H202v2.2h3.3v0.9h-7.7v-0.9h3.3v-2.2h-2.5v-0.9h2.5v-2h-3v-0.9H205z M204.6-76.9l-0.8,0.4
						c-0.3-0.6-0.6-1.2-0.9-1.6l0.8-0.3C204-78,204.3-77.5,204.6-76.9z"/>
				</g>
			</g>
		</g>
		<g>
			<path style="fill:#878787;" d="M588.9,236.5c0.3,0.3,0.4,0.6,0.4,1s-0.1,0.8-0.4,1c-0.3,0.3-0.7,0.4-1.1,0.4
				c-0.4,0-0.7-0.1-1-0.4c-0.3-0.3-0.4-0.6-0.4-1c0-0.4,0.1-0.8,0.4-1c0.3-0.3,0.6-0.4,1-0.4C588.2,236.1,588.6,236.3,588.9,236.5z
				 M595.6,236.5c0.3,0.3,0.4,0.6,0.4,1s-0.1,0.8-0.4,1c-0.3,0.3-0.7,0.4-1.1,0.4s-0.7-0.1-1-0.4c-0.3-0.3-0.4-0.6-0.4-1
				c0-0.4,0.1-0.8,0.4-1c0.3-0.3,0.6-0.4,1-0.4C594.9,236.1,595.3,236.3,595.6,236.5z M602.2,236.5c0.3,0.3,0.4,0.6,0.4,1
				s-0.2,0.8-0.4,1c-0.3,0.3-0.6,0.4-1,0.4c-0.4,0-0.8-0.1-1-0.4c-0.3-0.3-0.4-0.6-0.4-1c0-0.4,0.1-0.8,0.4-1c0.3-0.3,0.6-0.4,1-0.4
				C601.6,236.1,601.9,236.3,602.2,236.5z"/>
			<path style="fill:#878787;" d="M608.9,236.5c0.3,0.3,0.4,0.6,0.4,1s-0.1,0.8-0.4,1c-0.3,0.3-0.7,0.4-1.1,0.4
				c-0.4,0-0.7-0.1-1-0.4c-0.3-0.3-0.4-0.6-0.4-1c0-0.4,0.1-0.8,0.4-1c0.3-0.3,0.6-0.4,1-0.4C608.2,236.1,608.6,236.3,608.9,236.5z
				 M615.6,236.5c0.3,0.3,0.4,0.6,0.4,1s-0.1,0.8-0.4,1c-0.3,0.3-0.7,0.4-1.1,0.4s-0.7-0.1-1-0.4c-0.3-0.3-0.4-0.6-0.4-1
				c0-0.4,0.1-0.8,0.4-1c0.3-0.3,0.6-0.4,1-0.4C614.9,236.1,615.3,236.3,615.6,236.5z M622.2,236.5c0.3,0.3,0.4,0.6,0.4,1
				s-0.2,0.8-0.4,1c-0.3,0.3-0.6,0.4-1,0.4c-0.4,0-0.8-0.1-1-0.4c-0.3-0.3-0.4-0.6-0.4-1c0-0.4,0.1-0.8,0.4-1c0.3-0.3,0.6-0.4,1-0.4
				C621.6,236.1,621.9,236.3,622.2,236.5z"/>
		</g>
	</g>
</g>
</svg>
