<?xml version="1.0" encoding="UTF-8"?>
<svg width="48px" height="48px" viewBox="0 0 48 48" version="1.1" xmlns="http://www.w3.org/2000/svg" xmlns:xlink="http://www.w3.org/1999/xlink">
    <!-- Generator: Sketch 56.3 (81716) - https://sketch.com -->
    <title>使用成本低</title>
    <desc>Created with Sketch.</desc>
    <g id="使用成本低" stroke="none" stroke-width="1" fill="none" fill-rule="evenodd">
        <g id="1541157770638-48x48" fill-rule="nonzero">
            <path d="M24,2 C11.869,2 2,11.869 2,24 C2,36.131 11.869,46 24,46 C36.131,46 46,36.131 46,24 C46,11.869 36.131,2 24,2 M24,48 C10.767,48 0,37.233 0,24 C0,10.767 10.767,0 24,0 C37.233,0 48,10.767 48,24 C48,37.233 37.233,48 24,48" id="Fill-1" fill="#334966"></path>
            <path d="M24,10 C16.28,10 10,16.28 10,24 C10,31.72 16.28,38 24,38 C31.72,38 38,31.72 38,24 C38,16.28 31.72,10 24,10 M24,40 C15.178,40 8,32.822 8,24 C8,15.178 15.178,8 24,8 C32.822,8 40,15.178 40,24 C40,32.822 32.822,40 24,40" id="Fill-3" fill="#334966"></path>
            <path d="M29,22 L29,24 L25,24 L25,26 L29,26 L29,28 L25,28 L25,31 L23,31 L23,28 L19,28 L19,26 L23,26 L23,24 L19,24 L19,22 L21.857,22 L19,17 L21,17 L23.857,22 L24.143,22 L27,17 L29,17 L26.143,22 L29,22 Z M24,10 C16.268,10 10,16.268 10,24 C10,31.732 16.268,38 24,38 C31.732,38 38,31.732 38,24 C38,16.268 31.732,10 24,10 Z" id="Fill-5" fill="#00A4FF"></path>
        </g>
    </g>
</svg>