<?xml version="1.0" encoding="UTF-8"?>
<svg width="48px" height="48px" viewBox="0 0 48 48" version="1.1" xmlns="http://www.w3.org/2000/svg" xmlns:xlink="http://www.w3.org/1999/xlink">
    <!-- Generator: Sketch 56.3 (81716) - https://sketch.com -->
    <title>多种识别能力</title>
    <desc>Created with Sketch.</desc>
    <g id="多种识别能力" stroke="none" stroke-width="1" fill="none" fill-rule="evenodd">
        <path d="M36,2 L46,2 L46,12 L44,12 L44,4 L36,4 L36,2 Z M12,2 L12,4 L4,4 L4,12 L2,12 L2,2 L12,2 Z M36,45 L36,43 L44,43 L44,35 L46,35 L46,45 L36,45 Z M12,46 L2,46 L2,36 L4,36 L4,44 L12,44 L12,46 Z" id="Combined-Shape" fill="#334966" fill-rule="nonzero"></path>
        <rect id="Rectangle-37" fill="#00A4FF" fill-rule="nonzero" x="2" y="16" width="44" height="16"></rect>
        <g id="编组" transform="translate(18.000000, 8.000000)" fill-rule="nonzero" stroke="#334966" stroke-width="2">
            <path d="M12,14.124305 C12,13.0239987 11.5175424,12.0141161 10.7153688,11.2114283 L7.75704252,7.54998616 L7.75704252,0.404802033 C7.75704252,0.182164568 7.52551123,0 7.24253887,0 L4.75736809,0 C4.47439573,0 4.24286444,0.182164568 4.24286444,0.404802033 L4.24286444,7.55002274 L1.28444521,11.2116112 C0.482364634,12.0142625 0,13.0240719 0,14.124305 C0,14.2094957 0.0105579983,14.2925639 0.0161858157,14.3766201 C0.0073487515,14.4176053 0,14.4590662 0,14.5019543 L0,31.595198 C0,31.8178354 0.231531283,32 0.514503644,32 L11.4854964,32 C11.7684687,32 12,31.8178354 12,31.595198 L12,14.5019543 C12,14.4590662 11.9926513,14.4176053 11.9838142,14.3766201 C11.989442,14.2925273 12,14.2094957 12,14.124305 Z" id="形状"></path>
        </g>
    </g>
</svg>