<?xml version="1.0" encoding="UTF-8"?>
<svg width="48px" height="48px" viewBox="0 0 48 48" version="1.1" xmlns="http://www.w3.org/2000/svg" xmlns:xlink="http://www.w3.org/1999/xlink">
    <!-- Generator: Sketch 63.1 (92452) - https://sketch.com -->
    <title>多码</title>
    <desc>Created with Sketch.</desc>
    <g id="多码" stroke="none" stroke-width="1" fill="none" fill-rule="evenodd">
        <g id="Group" transform="translate(0.000000, -1.000000)">
            <path d="M24,34.7002 L13.7,29.3002 L5.3,25.0002 L13.7,20.5992 L24,26.0002 L34.3,20.5992 L42.7,25.0002 L24,34.7002 Z M42.7,36.0002 L24,45.7002 L5.3,36.0002 L13.7,31.5992 L24,37.0002 L34.3,31.5992 L42.7,36.0002 Z M5.3,14.0002 L24,4.3002 L42.7,14.0002 L24,23.7002 L13.7,18.3002 L5.3,14.0002 Z M36.5,19.5002 L47,14.0002 L24,2.0002 L1,14.0002 L11.5,19.5002 L1,25.0002 L11.5,30.5002 L1,36.0002 L24,48.0002 L47,36.0002 L36.5,30.5002 L47,25.0002 L36.5,19.5002 Z" id="Fill-4" fill="#334966"></path>
            <polygon id="Fill-5" fill="#00A4FF" points="35 38 39 36 37 35 33 37"></polygon>
        </g>
        <path d="M24,15.6666667 L29,18.3333333 L24,21 L21.2459893,19.5154639 L19,18.3333333 L24,15.6666667 Z M24,17.4444444 L22.3333333,18.3333333 L23.0819964,18.7273769 L24,19.2222222 L25.6666667,18.3333333 L24,17.4444444 Z M30.6666667,15.6666667 L32.3333333,16.5555556 L30.6666667,17.4444444 L29.7486631,16.9495991 L29,16.5555556 L30.6666667,15.6666667 Z M17.3333333,8.55555556 L25.6666667,13 L17.3333333,17.4444444 L12.7433155,14.9702176 L9,13 L17.3333333,8.55555556 Z M27.3333333,13.8888889 L29,14.7777778 L27.3333333,15.6666667 L26.4153298,15.1718213 L25.6666667,14.7777778 L27.3333333,13.8888889 Z M17.3333333,10.3333333 L12.3333333,13 L14.5793226,14.1821306 L17.3333333,15.6666667 L22.3333333,13 L17.3333333,10.3333333 Z M34,10.3333333 L39,13 L34,15.6666667 L31.2459893,14.1821306 L29,13 L34,10.3333333 Z M17.3333333,12.1111111 L19,13 L17.3333333,13.8888889 L16.4153298,13.3940435 L15.6666667,13 L17.3333333,12.1111111 Z M34,12.1111111 L32.3333333,13 L33.0819964,13.3940435 L34,13.8888889 L35.6666667,13 L34,12.1111111 Z M27.3333333,10.3333333 L29,11.2222222 L27.3333333,12.1111111 L26.4153298,11.6162658 L25.6666667,11.2222222 L27.3333333,10.3333333 Z M30.6666667,8.55555556 L32.3333333,9.44444444 L30.6666667,10.3333333 L29.7486631,9.83848797 L29,9.44444444 L30.6666667,8.55555556 Z M24,5 L29,7.66666667 L24,10.3333333 L21.2459893,8.84879725 L19,7.66666667 L24,5 Z M24,6.77777778 L22.3333333,7.66666667 L23.0819964,8.06071019 L24,8.55555556 L25.6666667,7.66666667 L24,6.77777778 Z" id="形状结合" fill="#00A4FF"></path>
        <path d="M21.74,28.13 L25.617,30.192 L24,31 L20,29 L21.74,28.13 Z M23.74,27.13 L27.617,29.192 L26.715,29.643 L22.838,27.581 L23.74,27.13 Z M25.74,26.13 L29.617,28.192 L28.715,28.643 L24.838,26.581 L25.74,26.13 Z M29.739,24.13 L33.616,26.192 L30.714,27.643 L26.837,25.581 L29.739,24.13 Z M31.739,23.13 L35.616,25.192 L34.714,25.643 L30.837,23.581 L31.739,23.13 Z M34,22 L38,24 L36.714,24.643 L32.837,22.582 L34,22 Z" id="形状结合" fill="#00A4FF"></path>
    </g>
</svg>