<?xml version="1.0" encoding="UTF-8"?>
<svg width="48px" height="48px" viewBox="0 0 48 48" version="1.1" xmlns="http://www.w3.org/2000/svg" xmlns:xlink="http://www.w3.org/1999/xlink">
    <!-- Generator: Sketch 63.1 (92452) - https://sketch.com -->
    <title>性能优异</title>
    <desc>Created with Sketch.</desc>
    <g id="性能优异" stroke="none" stroke-width="1" fill="none" fill-rule="evenodd">
        <circle id="Oval-45" stroke="#334966" stroke-width="2" cx="24" cy="24" r="23"></circle>
        <circle id="Oval-45" fill="#00A4FF" cx="24" cy="24" r="10"></circle>
        <path d="M26.0322125,20.5535739 L31.7781746,14.8076118 L33.1923882,16.2218254 L27.4464261,21.9677875 C28.3523603,23.501693 28.1463606,25.5104936 26.8284271,26.8284271 C25.26633,28.3905243 22.73367,28.3905243 21.1715729,26.8284271 C19.6094757,25.26633 19.6094757,22.73367 21.1715729,21.1715729 C22.4895064,19.8536394 24.498307,19.6476397 26.0322125,20.5535739 L26.0322125,20.5535739 Z M11.2720779,36.7279221 C4.24264069,29.6984848 4.24264069,18.3015152 11.2720779,11.2720779 C18.3015152,4.24264069 29.6984848,4.24264069 36.7279221,11.2720779 C43.7573593,18.3015152 43.7573593,29.6984848 36.7279221,36.7279221 C29.6984848,43.7573593 18.3015152,43.7573593 11.2720779,36.7279221 Z M12.6862915,35.3137085 C18.9346802,41.5620972 29.0653198,41.5620972 35.3137085,35.3137085 C41.5620972,29.0653198 41.5620972,18.9346802 35.3137085,12.6862915 C29.0653198,6.43790283 18.9346802,6.43790283 12.6862915,12.6862915 C6.43790283,18.9346802 6.43790283,29.0653198 12.6862915,35.3137085 Z M22.5857864,25.4142136 C23.366835,26.1952621 24.633165,26.1952621 25.4142136,25.4142136 C26.1952621,24.633165 26.1952621,23.366835 25.4142136,22.5857864 C24.633165,21.8047379 23.366835,21.8047379 22.5857864,22.5857864 C21.8047379,23.366835 21.8047379,24.633165 22.5857864,25.4142136 Z" id="Combined-Shape" fill="#334966" fill-rule="nonzero"></path>
    </g>
</svg>