<?xml version="1.0" encoding="UTF-8"?>
<svg width="48px" height="48px" viewBox="0 0 48 48" version="1.1" xmlns="http://www.w3.org/2000/svg" xmlns:xlink="http://www.w3.org/1999/xlink">
    <!-- Generator: Sketch 63.1 (92452) - https://sketch.com -->
    <title>配套完善</title>
    <desc>Created with Sketch.</desc>
    <g id="配套完善" stroke="none" stroke-width="1" fill="none" fill-rule="evenodd">
        <polygon id="Fill-2" fill="#00A4FF" points="17 35 35 35 35 17 17 17"></polygon>
        <polygon id="Fill-3" fill="#334966" points="27 13 27 15 31.586 15 15 31.586 15 27 13 27 13 33 13 35 15 35 21 35 21 33 16.414 33 33 16.414 33 21 35 21 35 15 35 13 33 13"></polygon>
        <polygon id="Fill-4" fill="#334966" points="33 33 27 33 27 35 33 35 35 35 35 33 35 27 33 27"></polygon>
        <polygon id="Fill-5" fill="#00A4FF" points="15 15 21 15 21 13 15 13 13 13 13 15 13 21 15 21"></polygon>
        <circle id="Oval-7" stroke="#334966" stroke-width="2" cx="24" cy="24" r="23"></circle>
    </g>
</svg>