<?xml version="1.0" encoding="UTF-8"?>
<svg width="48px" height="48px" viewBox="0 0 48 48" version="1.1" xmlns="http://www.w3.org/2000/svg" xmlns:xlink="http://www.w3.org/1999/xlink">
    <!-- Generator: Sketch 63.1 (92452) - https://sketch.com -->
    <title>介入全面</title>
    <desc>Created with Sketch.</desc>
    <g id="介入全面" stroke="none" stroke-width="1" fill="none" fill-rule="evenodd">
        <g id="Group">
            <path d="M24,0 C29.2356594,0 34.0797479,1.67651453 38.0247127,4.52199086 L38.1451141,4.45515599 C38.6995372,4.16445005 39.3305639,4 40,4 C42.209139,4 44,5.790861 44,8 C44,8.73637967 43.8010154,9.426284 43.4538827,10.0188766 L43.4780091,9.97528727 C46.3234855,13.9202521 48,18.7643406 48,24 C48,29.2356594 46.3234855,34.0797479 43.4780091,38.0247127 L43.4784522,38.0236636 L43.544844,38.1451141 C43.83555,38.6995372 44,39.3305639 44,40 C44,42.209139 42.209139,44 40,44 C39.3305639,44 38.6995372,43.83555 38.1451141,43.544844 L38.0236636,43.4784522 L38.0236636,43.4784522 C34.0797479,46.3234855 29.2356594,48 24,48 C18.7643406,48 13.9202521,46.3234855 9.97528727,43.4780091 L9.85488594,43.544844 C9.30046275,43.83555 8.66943606,44 8,44 C5.790861,44 4,42.209139 4,40 C4,39.3305639 4.16445005,38.6995372 4.45515599,38.1451141 L4.52199086,38.0247127 C1.67651453,34.0797479 0,29.2356594 0,24 C0,18.7643406 1.67651453,13.9202521 4.52199086,9.97528727 C4.52965298,9.99057132 4.53784303,10.0047516 4.54611726,10.0188766 L4.45515599,9.85488594 C4.16445005,9.30046275 4,8.66943606 4,8 C4,5.790861 5.790861,4 8,4 C8.73637967,4 9.426284,4.19898456 10.0188766,4.54611726 L9.97633645,4.52154778 L9.97633645,4.52154778 C13.9202521,1.67651453 18.7643406,0 24,0 Z M24,36 C21.1190406,36 18.4752033,34.9847598 16.4067385,33.2925299 L11.5479539,38.1510572 C11.8367225,38.7040451 12,39.3329548 12,40 C12,40.7363797 11.8010154,41.426284 11.4538827,42.0188766 L11.429235,42.0571537 C14.9925861,44.5424773 19.3260817,46 24,46 C28.6739183,46 33.0074139,44.5424773 36.570765,42.0571537 L36.5694114,42.0581266 L36.5461173,42.0188766 C36.1989846,41.426284 36,40.7363797 36,40 C36,39.2581812 36.201935,38.5635268 36.5538336,37.968008 L31.7485975,33.1632607 C29.6579487,34.932926 26.9535886,36 24,36 Z M40,38 C38.8954305,38 38,38.8954305 38,40 C38,41.1045695 38.8954305,42 40,42 C41.1045695,42 42,41.1045695 42,40 C42,38.8954305 41.1045695,38 40,38 Z M8,38 C6.8954305,38 6,38.8954305 6,40 C6,41.1045695 6.8954305,42 8,42 C9.1045695,42 10,41.1045695 10,40 C10,38.8954305 9.1045695,38 8,38 Z M5.94187337,11.4305886 L5.85266536,11.5595277 C3.42230181,15.0979954 2,19.3828995 2,24 C2,28.6739183 3.45752273,33.0074139 5.94284632,36.570765 L5.98112341,36.5461173 C6.573716,36.1989846 7.26362033,36 8,36 C8.81549484,36 9.57399144,36.2440384 10.2064447,36.6630702 L14.9689082,31.9021076 C13.12034,29.7911491 12,27.0264093 12,24 C12,21.0464114 13.067074,18.3420513 14.8367393,16.2514025 L10.0309842,11.4467617 C9.43568963,11.7982928 8.74140044,12 8,12 C7.26362033,12 6.573716,11.8010154 5.98112341,11.4538827 L5.94187337,11.4305886 L5.94187337,11.4305886 Z M42.0571537,11.429235 L42.0188766,11.4538827 C41.426284,11.8010154 40.7363797,12 40,12 C39.3329548,12 38.7040451,11.8367225 38.1510572,11.5479539 L33.2925299,16.4067385 C34.9847598,18.4752033 36,21.1190406 36,24 C36,26.9535886 34.932926,29.6579487 33.1632607,31.7485975 L37.968008,36.5538336 C38.5635268,36.201935 39.2581812,36 40,36 C40.7363797,36 41.426284,36.1989846 42.0188766,36.5461173 L42.0581266,36.5694114 L42.0581266,36.5694114 C44.5424773,33.0074139 46,28.6739183 46,24 C46,19.3260817 44.5424773,14.9925861 42.0571537,11.429235 Z M24,14 C18.4771525,14 14,18.4771525 14,24 C14,29.5228475 18.4771525,34 24,34 C29.5228475,34 34,29.5228475 34,24 C34,18.4771525 29.5228475,14 24,14 Z M24,2 C19.3260817,2 14.9925861,3.45752273 11.429235,5.94284632 L11.4305886,5.94187337 L11.4538827,5.98112341 C11.8010154,6.573716 12,7.26362033 12,8 C12,8.74181883 11.798065,9.43647323 11.4461664,10.031992 L16.2514025,14.8367393 C18.3420513,13.067074 21.0464114,12 24,12 C27.0264093,12 29.7911491,13.12034 31.9021076,14.9689082 L36.6637404,10.207456 C36.2442987,9.57480006 36,8.81592954 36,8 C36,7.26362033 36.1989846,6.573716 36.5461173,5.98112341 L36.570765,5.94284632 C33.0074139,3.45752273 28.6739183,2 24,2 Z M40,6 C38.8954305,6 38,6.8954305 38,8 C38,9.1045695 38.8954305,10 40,10 C41.1045695,10 42,9.1045695 42,8 C42,6.8954305 41.1045695,6 40,6 Z M8,6 C6.8954305,6 6,6.8954305 6,8 C6,9.1045695 6.8954305,10 8,10 C9.1045695,10 10,9.1045695 10,8 C10,6.8954305 9.1045695,6 8,6 Z" id="Combined-Shape" fill="#334966" fill-rule="nonzero"></path>
            <circle id="Oval-36" fill="#00A4FF" cx="24" cy="24" r="8"></circle>
        </g>
    </g>
</svg>