<?xml version="1.0" encoding="UTF-8"?>
<svg width="24px" height="24px" viewBox="0 0 24 24" version="1.1" xmlns="http://www.w3.org/2000/svg" xmlns:xlink="http://www.w3.org/1999/xlink">
    <!-- Generator: Sketch 59 (86127) - https://sketch.com -->
    <title>云函数-24px</title>
    <desc>Created with Sketch.</desc>
    <g id="云函数-24px" stroke="none" stroke-width="1" fill="none" fill-rule="evenodd">
        <rect id="Rectangle-Copy" fill="#444444" opacity="0" x="0" y="0" width="24" height="24"></rect>
        <g id="编组" fill="#00A4FF">
            <path d="M15,5.57735027 L19.0621778,7.92264973 L19.0621778,16.0773503 L15,18.4226497 L15,16.1132487 L17.0621778,14.9226497 L17.0621778,9.07735027 L15,7.88675135 L15,5.57735027 Z M9,18.4226497 L4.93782217,16.0773503 L4.93782217,7.92264973 L9,5.57735027 L9,7.88675135 L6.93782217,9.07735027 L6.93782217,14.9226497 L9,16.1132487 L9,18.4226497 Z" id="形状" fill-rule="nonzero"></path>
            <path d="M12.0205721,0 C18.3222026,0 23.4912771,4.84074966 24.0000442,11.0005348 L21.9882456,10.9998991 C21.4856142,5.94662476 17.2147751,2 12.0205721,2 C6.48825655,2 2.00342868,6.4771525 2.00342868,12 C2.00342868,17.5228475 6.48825655,22 12.0205721,22 C17.2144329,22 21.4850514,18.0538953 21.9881462,13.0010997 L23.9999614,13.0004669 C23.4907168,19.1597751 18.321861,24 12.0205721,24 C5.38179344,24 -2.48689958e-14,18.627417 -2.48689958e-14,12 C-2.48689958e-14,5.372583 5.38179344,0 12.0205721,0 Z" id="形状结合复制-9" fill-rule="nonzero"></path>
            <path d="M14.1069789,8 L11.962927,16 L9.89392705,16 L12.0359789,8 L14.1069789,8 Z" id="形状结合"></path>
        </g>
    </g>
</svg>