<?xml version="1.0" encoding="UTF-8"?>
<svg width="24px" height="24px" viewBox="0 0 24 24" version="1.1" xmlns="http://www.w3.org/2000/svg" xmlns:xlink="http://www.w3.org/1999/xlink">
    <!-- Generator: Sketch 59 (86127) - https://sketch.com -->
    <title>ddos防护-24px</title>
    <desc>Created with Sketch.</desc>
    <g id="ddos防护-24px" stroke="none" stroke-width="1" fill="none" fill-rule="evenodd">
        <rect id="Rectangle-Copy" fill="#444444" opacity="0" x="0" y="0" width="24" height="24"></rect>
        <g id="形状结合-2" transform="translate(1.000000, 0.000000)" fill="#00A4FF" fill-rule="nonzero">
            <path d="M22,1.59872116e-14 L21.999,1.953 L18.1167861,1.95322287 L18.116,1.962 L2,1.96226415 L1.999,4.599 L11.131,11.735 L22,3.24383314 L21.999,5 L22,5 L22,7 L21.997,7 L22,13 C22,16.0734949 20.1538542,18.8256118 17.1643709,21.0786768 C14.9730787,22.730174 12.1882044,24.009139 10.9923336,24.0000196 C9.7966181,23.9908035 7.01672199,22.711151 4.8362629,21.070529 C1.84513452,18.819943 -9.59232693e-14,16.0733753 -9.59232693e-14,13 L-2.38031816e-13,1.59872116e-14 L22,1.59872116e-14 Z M19.997,7.345 L12,13.594 L12.000131,21.7303273 C13.0560739,21.3180075 14.6443775,20.4735009 15.9606291,19.4814899 C18.4076516,17.637258 19.8914131,15.4897761 19.9942748,13.2493124 L20,13 L19.997,7.345 Z M1.999,7.138 L2,12.754717 L1.9989718,12.754717 L1.9989718,13 L2,13 C2,15.3293117 3.50008061,17.5622507 6.0387371,19.4723877 C7.04789212,20.2316965 8.16681971,20.8915743 9.2228359,21.3776838 C9.49946596,21.5050232 9.76381408,21.6156516 10.0016855,21.7068747 L10,13.389 L1.999,7.138 Z" id="形状结合"></path>
        </g>
    </g>
</svg>