<?xml version="1.0" encoding="UTF-8"?>
<svg width="24px" height="24px" viewBox="0 0 24 24" version="1.1" xmlns="http://www.w3.org/2000/svg" xmlns:xlink="http://www.w3.org/1999/xlink">
    <!-- Generator: Sketch 59 (86127) - https://sketch.com -->
    <title>智慧党建-24px</title>
    <desc>Created with Sketch.</desc>
    <g id="智慧党建-24px" stroke="none" stroke-width="1" fill="none" fill-rule="evenodd">
        <rect id="Rectangle-Copy" fill="#444444" opacity="0" x="0" y="0" width="24" height="24"></rect>
        <g id="智慧党建E+24px&amp;蓝色">
            <rect id="矩形" fill="#FFFFFF" opacity="0" x="0" y="0" width="24" height="24"></rect>
            <path d="M12,0 C18.627417,0 24,5.372583 24,12 C24,18.627417 18.627417,24 12,24 C5.372583,24 0,18.627417 0,12 C0,5.372583 5.372583,0 12,0 Z M12,2 C6.4771525,2 2,6.4771525 2,12 C2,17.5228475 6.4771525,22 12,22 C17.5228475,22 22,17.5228475 22,12 C22,6.4771525 17.5228475,2 12,2 Z M12,3 L14.6450336,8.35942353 L20.5595086,9.21884705 L16.2797543,13.3905765 L17.2900673,19.2811529 L12,16.5 L6.70993273,19.2811529 L7.72024568,13.3905765 L3.44049135,9.21884705 L9.35496636,8.35942353 L12,3 Z M12,7.51910292 L10.6830974,10.1874391 L7.73841364,10.6153267 L9.86920682,12.6923367 L9.36619478,15.6251219 L12,14.2404485 L14.6338052,15.6251219 L14.1307932,12.6923367 L16.2615864,10.6153267 L13.3169026,10.1874391 L12,7.51910292 Z" id="形状结合" fill="#00A4FF" fill-rule="nonzero"></path>
        </g>
    </g>
</svg>