<?xml version="1.0" encoding="UTF-8"?>
<svg width="24px" height="24px" viewBox="0 0 24 24" version="1.1" xmlns="http://www.w3.org/2000/svg" xmlns:xlink="http://www.w3.org/1999/xlink">
    <!-- Generator: Sketch 59 (86127) - https://sketch.com -->
    <title>风控平台-24px</title>
    <desc>Created with Sketch.</desc>
    <g id="风控平台-24px" stroke="none" stroke-width="1" fill="none" fill-rule="evenodd">
        <rect id="Rectangle-Copy" fill="#444444" opacity="0" x="0" y="0" width="24" height="24"></rect>
        <g id="编组" transform="translate(1.000000, 0.000000)">
            <path d="M22,8.8817842e-15 L21.999,1.953 L18.1167861,1.95322287 L18.116,1.962 L2,1.96226415 L2,12.754717 L1.9989718,12.754717 L1.9989718,13 L2,13 C2,15.3293117 3.50008061,17.5622507 6.0387371,19.4723877 C7.04789212,20.2316965 8.16681971,20.8915743 9.2228359,21.3776838 C10.065458,21.7655628 10.794125,21.9983922 11.0076664,22.0000294 C11.665851,22.0050755 14.0884376,20.8924926 15.9606291,19.4814899 C18.498282,17.5689532 20,15.3302873 20,13 L20,13 L19.999,4 L21.999,4 L22,13 L22,13 C22,16.0734949 20.1538542,18.8256118 17.1643709,21.0786768 C14.9730787,22.730174 12.1882044,24.009139 10.9923336,24.0000196 C9.7966181,23.9908035 7.01672199,22.711151 4.8362629,21.070529 C1.84513452,18.819943 2.48689958e-14,16.0733753 2.48689958e-14,13 L-1.17239551e-13,8.8817842e-15 L22,8.8817842e-15 Z" id="形状结合" fill="#00A4FF" fill-rule="nonzero"></path>
            <ellipse id="椭圆形" stroke="#00A4FF" stroke-width="2" transform="translate(11.000000, 10.500000) rotate(-315.000000) translate(-11.000000, -10.500000) " cx="11" cy="10.5" rx="3" ry="7.5"></ellipse>
            <ellipse id="椭圆形" stroke="#00A4FF" stroke-width="2" transform="translate(11.000000, 10.500000) rotate(-225.000000) translate(-11.000000, -10.500000) " cx="11" cy="10.5" rx="3" ry="7.5"></ellipse>
        </g>
    </g>
</svg>