<?xml version="1.0" encoding="UTF-8"?>
<svg width="24px" height="24px" viewBox="0 0 24 24" version="1.1" xmlns="http://www.w3.org/2000/svg" xmlns:xlink="http://www.w3.org/1999/xlink">
    <!-- Generator: Sketch 59 (86127) - https://sketch.com -->
    <title>云服务器-24px</title>
    <desc>Created with Sketch.</desc>
    <g id="云服务器-24px" stroke="none" stroke-width="1" fill="none" fill-rule="evenodd">
        <rect id="Rectangle-Copy" fill="#444444" opacity="0" x="0" y="0" width="24" height="24"></rect>
        <g id="编组" fill="#00A4FF">
            <g id="CVM+(1)" transform="translate(6.000000, 4.967500)">
                <path d="M6,0.0325 L12,3.60985027 L12,10.7645508 L6.778,13.8775 L6.778,11.5685 L10.0633143,9.60985027 L10.063,5.7365 L6.00264677,8.20044262 L1.936,5.7585 L1.93668573,9.60985027 L3.00303888,10.2453458 C2.40061807,10.5588313 1.97839614,11.1875991 1.93960351,11.9217749 L-8.8817842e-16,10.7645508 L-8.8817842e-16,3.60985027 L6,0.0325 Z M6,2.34190108 L3.054,4.0975 L5.99735323,5.86455738 L8.927,4.0875 L6,2.34190108 Z" id="形状结合" fill-rule="nonzero"></path>
                <circle id="椭圆形" cx="6" cy="13.0325" r="2"></circle>
            </g>
            <path d="M12,0 C18.2906638,0 23.4507753,4.84046948 23.9589262,11 L21.9506248,11 C21.4489003,5.94667731 17.1853481,2 12,2 C6.4771525,2 2,6.4771525 2,12 C2,17.5228475 6.4771525,22 12,22 C17.1853481,22 21.4489003,18.0533227 21.9506248,13 L23.9589262,13 C23.4507753,19.1595305 18.2906638,24 12,24 C5.372583,24 -4.08562073e-14,18.627417 -4.08562073e-14,12 C-4.08562073e-14,5.372583 5.372583,0 12,0 Z" id="形状结合" fill-rule="nonzero"></path>
        </g>
    </g>
</svg>