<?xml version="1.0" encoding="UTF-8"?><svg width="280" height="226" viewBox="0 0 280 226" xmlns="http://www.w3.org/2000/svg" xmlns:xlink="http://www.w3.org/1999/xlink"><svg width="8" height="12" viewBox="-1 -1 8 12" id="link-arrow" x="189" y="89"><title>Path</title><path d="M3.6 5L0 1.25 1.2 0 6 5 4.8 6.25 1.2 10 0 8.75z" fill="#00A4FF" fill-rule="evenodd"/></svg><svg width="8" height="12" viewBox="-1 -1 8 12" id="link-arrow-#666" x="205" y="89"><path d="M3.6 5L0 1.25 1.2 0 6 5 4.8 6.25 1.2 10 0 8.75z" fill="#666" fill-rule="evenodd"/></svg><svg width="8" height="12" viewBox="-1 -1 8 12" id="link-arrow-#fff" x="197" y="89"><path d="M3.6 5L0 1.25 1.2 0 6 5 4.8 6.25 1.2 10 0 8.75z" fill="#fff" fill-rule="evenodd"/></svg><svg width="12" height="8" viewBox="-1 -1 12 8" id="link-arrow-bottom" x="201" y="81"><title>Path</title><path d="M5 3.6L8.75 0 10 1.2 5 6 3.75 4.8 0 1.2 1.25 0z" fill="#00A4FF" fill-rule="evenodd"/></svg><svg width="12" height="8" viewBox="-1 -1 12 8" id="link-arrow-bottom-#666" x="257" y="134"><path d="M5 3.6L8.75 0 10 1.2 5 6 3.75 4.8 0 1.2 1.25 0z" fill="#666" fill-rule="evenodd"/></svg><svg width="12" height="8" viewBox="-1 -1 12 8" id="link-arrow-bottom-#fff" x="189" y="81"><path d="M5 3.6L8.75 0 10 1.2 5 6 3.75 4.8 0 1.2 1.25 0z" fill="#fff" fill-rule="evenodd"/></svg><svg width="10" height="7" viewBox="-1 -1 10 7" id="link-arrow-bottom-s" x="253" y="152"><title>Path</title><path d="M4 2.956L6.969 0 8 1.022 4 5 0 1.023 1.031 0z" fill="#00A4FF" fill-rule="evenodd"/></svg><svg width="10" height="7" viewBox="-1 -1 10 7" id="link-arrow-bottom-s-#666" x="243" y="152"><path d="M4 2.956L6.969 0 8 1.022 4 5 0 1.023 1.031 0z" fill="#666" fill-rule="evenodd"/></svg><svg width="10" height="7" viewBox="-1 -1 10 7" id="link-arrow-bottom-s-#fff" x="233" y="152"><path d="M4 2.956L6.969 0 8 1.022 4 5 0 1.023 1.031 0z" fill="#fff" fill-rule="evenodd"/></svg><svg width="8" height="12" viewBox="-1 -1 8 12" id="link-arrow-left" x="189" y="109"><title>Path</title><path d="M2.4 5L6 1.25 4.8 0 0 5l1.2 1.25L4.8 10 6 8.75z" fill="#00A4FF" fill-rule="evenodd"/></svg><svg width="8" height="12" viewBox="-1 -1 8 12" id="link-arrow-left-#666" x="197" y="109"><path d="M2.4 5L6 1.25 4.8 0 0 5l1.2 1.25L4.8 10 6 8.75z" fill="#666" fill-rule="evenodd"/></svg><svg width="8" height="12" viewBox="-1 -1 8 12" id="link-arrow-left-#fff" x="249" y="134"><path d="M2.4 5L6 1.25 4.8 0 0 5l1.2 1.25L4.8 10 6 8.75z" fill="#fff" fill-rule="evenodd"/></svg><svg width="7" height="10" viewBox="-1 -1 7 10" id="link-arrow-left-s" x="203" y="129"><title>Path</title><path d="M2.044 4L5 1.031 3.978 0 0 4l3.978 4L5 6.969z" fill="#00A4FF" fill-rule="evenodd"/></svg><svg width="7" height="10" viewBox="-1 -1 7 10" id="link-arrow-left-s-#666" x="122" y="148"><path d="M2.044 4L5 1.031 3.978 0 0 4l3.978 4L5 6.969z" fill="#666" fill-rule="evenodd"/></svg><svg width="7" height="10" viewBox="-1 -1 7 10" id="link-arrow-s" x="196" y="129"><title>Path</title><path d="M2.956 4L0 1.031 1.022 0 5 4 1.022 8 0 6.969z" fill="#00A4FF" fill-rule="evenodd"/></svg><svg width="7" height="10" viewBox="-1 -1 7 10" id="link-arrow-s-#666" x="189" y="129"><path d="M2.956 4L0 1.031 1.022 0 5 4 1.022 8 0 6.969z" fill="#666" fill-rule="evenodd"/></svg><svg width="7" height="10" viewBox="-1 -1 7 10" id="link-arrow-s-#fff" x="205" y="109"><path d="M2.956 4L0 1.031 1.022 0 5 4 1.022 8 0 6.969z" fill="#fff" fill-rule="evenodd"/></svg><svg width="12" height="8" viewBox="-1 -1 12 8" id="link-arrow-top" x="189" y="121"><title>Path</title><path d="M5 2.4L8.75 6 10 4.8 5 0 3.75 1.2 0 4.8 1.25 6z" fill="#00A4FF" fill-rule="evenodd"/></svg><svg width="12" height="8" viewBox="-1 -1 12 8" id="link-arrow-top-#666" x="189" y="101"><path d="M5 2.4L8.75 6 10 4.8 5 0 3.75 1.2 0 4.8 1.25 6z" fill="#666" fill-rule="evenodd"/></svg><svg width="12" height="8" viewBox="-1 -1 12 8" id="link-arrow-top-#fff" x="201" y="101"><path d="M5 2.4L8.75 6 10 4.8 5 0 3.75 1.2 0 4.8 1.25 6z" fill="#fff" fill-rule="evenodd"/></svg><svg width="10" height="7" viewBox="-1 -1 10 7" id="link-arrow-top-s" x="213" y="152"><title>Path</title><path d="M4 2.044L6.969 5 8 3.978 4 0 0 3.977 1.031 5z" fill="#00A4FF" fill-rule="evenodd"/></svg><svg width="10" height="7" viewBox="-1 -1 10 7" id="link-arrow-top-s-#666" x="223" y="152"><path d="M4 2.044L6.969 5 8 3.978 4 0 0 3.977 1.031 5z" fill="#666" fill-rule="evenodd"/></svg><svg width="10" height="7" viewBox="-1 -1 10 7" id="link-arrow-top-s-#fff" x="269" y="134"><path d="M4 2.044L6.969 5 8 3.978 4 0 0 3.977 1.031 5z" fill="#fff" fill-rule="evenodd"/></svg><svg width="67" height="67" viewBox="-1 -1 67 67" id="next" y="159"><title>Group 10</title><g transform="translate(9 9)" fill="none" fill-rule="evenodd"><circle stroke="#E5E8ED" fill="#FFF" cx="24" cy="24" r="23.5"/><path d="M25.333 24L20 19.333V17l8 7-8 7.001v-2.334L25.333 24z" fill="#C2C2C2" fill-rule="nonzero"/></g></svg><svg width="67" height="67" viewBox="-1 -1 67 67" id="next-hover" x="213" y="67"><title>Group 10</title><defs><circle id="ayb" cx="24" cy="24" r="24"/><filter x="-29.2%" y="-20.8%" width="158.3%" height="158.3%" filterUnits="objectBoundingBox" id="aya"><feOffset dy="4" in="SourceAlpha" result="shadowOffsetOuter1"/><feGaussianBlur stdDeviation="4" in="shadowOffsetOuter1" result="shadowBlurOuter1"/><feComposite in="shadowBlurOuter1" in2="SourceAlpha" operator="out" result="shadowBlurOuter1"/><feColorMatrix values="0 0 0 0 0.0117647059 0 0 0 0 0.105882353 0 0 0 0 0.305882353 0 0 0 0.12 0" in="shadowBlurOuter1"/></filter></defs><g transform="translate(9 9)" fill="none" fill-rule="evenodd"><use fill="#000" filter="url(#aya)" xlink:href="#ayb"/><circle stroke="#E5E8ED" stroke-linejoin="square" fill="#FFF" cx="24" cy="24" r="23.5"/><path d="M25.333 24L20 19.333V17L28 24l-8 7.001v-2.334L25.333 24z" fill="#000" fill-rule="nonzero"/></g></svg><svg width="67" height="67" viewBox="-1 -1 67 67" id="prev" x="213"><title>Group 10</title><g transform="translate(9 9)" fill="none" fill-rule="evenodd"><circle stroke="#E5E8ED" fill="#FFF" cx="24" cy="24" r="23.5"/><path d="M22.667 24L28 19.333V17l-8 7 8 7.001v-2.334L22.667 24z" fill="#C2C2C2" fill-rule="nonzero"/></g></svg><svg width="67" height="67" viewBox="-1 -1 67 67" id="prev-hover" x="122" y="81"><title>Group 10</title><defs><circle id="bab" cx="24" cy="24" r="24"/><filter x="-29.2%" y="-20.8%" width="158.3%" height="158.3%" filterUnits="objectBoundingBox" id="baa"><feOffset dy="4" in="SourceAlpha" result="shadowOffsetOuter1"/><feGaussianBlur stdDeviation="4" in="shadowOffsetOuter1" result="shadowBlurOuter1"/><feComposite in="shadowBlurOuter1" in2="SourceAlpha" operator="out" result="shadowBlurOuter1"/><feColorMatrix values="0 0 0 0 0.0117647059 0 0 0 0 0.105882353 0 0 0 0 0.305882353 0 0 0 0.12 0" in="shadowBlurOuter1"/></filter></defs><g transform="translate(9 9)" fill="none" fill-rule="evenodd"><use fill="#000" filter="url(#baa)" xlink:href="#bab"/><circle stroke="#E5E8ED" stroke-linejoin="square" fill="#FFF" cx="24" cy="24" r="23.5"/><path d="M22.667 24L28 19.333V17L20 24l8 7.001v-2.334L22.667 24z" fill="#000" fill-rule="nonzero"/></g></svg><svg width="91" height="81" viewBox="-1 -1 91 81" id="rno-2-product-tag-enterprise" y="78"><title>rno-2-product-tag-user</title><g transform="translate(0 -3)" fill="none" fill-rule="evenodd"><path fill="#FF7801" fill-rule="nonzero" d="M0 3l89 79V52.076L34.878 3z"/><text transform="rotate(42 13.955 36.953)" fill="#FFF" font-family="PingFangSC-Regular, PingFang SC" font-size="12"><tspan x=".444" y="13.417">新企业用户专享</tspan></text></g></svg><svg width="91" height="81" viewBox="-1 -1 91 81" id="rno-2-product-tag-user" x="122"><title>未命名</title><g fill="none" fill-rule="evenodd"><path fill="#04C8DC" d="M0 0l89 79V49.076L34.878 0z"/><text fill="#FFF" transform="rotate(42 52.019 32.125)" font-family="PingFangSC-Medium, PingFang SC" font-size="14" font-weight="400"><tspan x="17.019" y="37.125">新用户专享</tspan></text></g></svg><svg width="18" height="18" viewBox="-1 -1 18 18" id="rno-i-s-2-arrow-bottom-ash" x="213" y="134"><title>下拉</title><path stroke="#999" stroke-width="2" stroke-linecap="round" stroke-linejoin="round" fill-rule="nonzero" d="M4 7l4 4 4-4" fill="none"/></svg><svg width="18" height="18" viewBox="-1 -1 18 18" id="rno-i-s-2-arrow-top-blue" x="231" y="134"><title>收起</title><path stroke="#00a4ff" stroke-width="2" stroke-linecap="round" stroke-linejoin="round" fill-rule="nonzero" d="M4 10l4-4 4 4" fill="none"/></svg><svg width="122" height="26" viewBox="-1 -1 122 26" id="text-1" y="26"><title>大学</title><g transform="translate(0 2)" fill="#000" fill-rule="nonzero"><path d="M76.184 13.915a13.393 13.393 0 0 0 5.382 4.002v1.988a.096.096 0 0 1-.127.09 15.407 15.407 0 0 1-6.822-4.843 15.179 15.179 0 0 1-2.339-4.094 14.952 14.952 0 0 1-2.128 3.84 15.181 15.181 0 0 1-7.023 5.097.096.096 0 0 1-.127-.09v-1.99a13.187 13.187 0 0 0 5.57-4.24c1.394-1.821 2.256-3.971 2.571-6.22H63v-1.82h8.277l.002-.123V0h2.002v5.634h8.285v1.821h-8.16a13.235 13.235 0 0 0 2.778 6.46zm19.103-1.116H103v1.821h-8.005v5.238H89.53l-.582-1.865a.094.094 0 0 1 .09-.121h3.955V14.62h-8.974V12.8h8.89v-.639l3.63-2.343h-9.05v-1.82h11.979V10.1L95.287 12.8zm-8.81-6.89v2.796h-2.003V4.09h11.759L99.021.074h2.251c.077 0 .122.085.078.147L98.665 4.09h3.84v4.616h-2.003V5.91H86.477zm.84-2.983L85.373.222a.094.094 0 0 1 .077-.148h2.276l1.943 2.703a.094.094 0 0 1-.077.149h-2.275zm5.383.33L90.966.215a.094.094 0 0 1 .083-.14h2.138l1.733 3.043a.094.094 0 0 1-.082.14H92.7zM6.343 1v14.544H15v1.627H6.343V20H3.419l-.45-1.463c-.043-.113.02-.164.099-.164h1.635v-5.06H2.4c-.01 1.646-.081 3.915-.631 6.648H.122c-.098 0-.154-.049-.102-.233.497-1.99.739-4.236.739-7.195V1h5.584zm-1.64 6.955H2.402v3.894h2.3V7.955zm0-5.328H2.402V6.49h2.3V2.627z"/><path d="M10.408 9.197c.41-.481.807-1.043 1.177-1.707h2.872c.387.647.803 1.211 1.232 1.707h-5.28zm6.024-1.707H18.6V6.013h-6.312c.19-.472.362-.978.518-1.527h5.398V3.01h-1.581l.591-2.052c.032-.11-.025-.152-.094-.152h-1.374l-.636 2.204h-1.942c.181-.854.339-1.8.482-2.862.017-.123-.048-.147-.128-.147h-1.563c-.16 1.128-.328 2.1-.542 3.009h-.952L9.827.805H8.454c-.07 0-.126.042-.095.152l.592 2.052h-1.54v1.477h3.596c-.146.467-.36 1.016-.59 1.527H7.016V7.49H9.57C8.54 8.978 7.44 9.662 7 9.936v1.69c0 .085.066.175.329.024.477-.276.987-.587 1.503-.976h6.01l-.052 2.213h-4.744l.072-1.323c0-.057-.04-.1-.098-.1H8.503l-.153 2.8c0 .057.04.1.099.1h8.184v3.995h-3.689c-.078 0-.138.051-.097.165L13.29 20h5.12v-7.113h-2.005l.066-2.873a11.7 11.7 0 0 0 2.201 1.636c.263.151.329.06.329-.024v-1.69c-.439-.274-1.538-.96-2.568-2.446zM38.33 1v17.176H40v1.617h-3.55v-9.671h-4.495V20h-1.88v-9.878H26V8.506h4.075v-5.89h-3.556V1h11.81zm-1.88 1.616h-4.495v5.89h4.495v-5.89z"/><path d="M27.847 14.32l-2.87 2.295V6H21v1.796h2.286v10.171l-.914.731.934 1.302L28 16.247v-1.85a.094.094 0 0 0-.153-.076M23.737 4h2.154c.095 0 .134-.096.092-.156L23.266 0H21.11c-.081 0-.14.087-.095.15L23.736 4M45 3h14V1H45zM43 9.862h4.994l-3.638 9.994c-.028.083.024.144.092.144h15.525c.074 0 .116-.076.09-.148l-2.315-6.366h-1.933c-.073 0-.117.074-.092.141l1.638 4.511H47.066l3.006-8.276H61V8H43v1.862z"/></g></svg><svg width="122" height="26" viewBox="-1 -1 122 26" id="text-2" y="52"><title>社区</title><defs><path id="bga" d="M0 .096h17.8v10.989H0z"/><path id="bgc" d="M.273.119h7.77v14.967H.273z"/><path id="bge" d="M.1.118h8.074v8.094H.1z"/></defs><g transform="translate(0 1)" fill="none" fill-rule="evenodd"><path fill="#000" d="M2 5h12V3H2z"/><g transform="translate(0 9.655)"><mask id="bgb" fill="#fff"><use xlink:href="#bga"/></mask><path d="M6.757 1.801h11.044V.096H0v1.705h4.772c-.986 2.595-3.46 9.105-3.476 9.152-.027.076.022.132.087.132H16.82c.07 0 .11-.07.085-.136l-2.211-5.83h-1.847a.094.094 0 0 0-.089.13l1.565 4.13H3.885l2.872-7.578z" fill="#000" mask="url(#bgb)"/></g><path fill="#000" d="M37.907 19.003v-9.48h4.335V7.799h-4.335V2.145H36.03v5.654h-4.335v1.724h4.335v9.48h-4.91v1.724h11.694v-1.724z"/><g transform="translate(24.379 6.034)"><mask id="bgd" fill="#fff"><use xlink:href="#bgc"/></mask><path d="M7.947 8.082c.071 0 .131-.087.07-.158-.034-.042-2.451-2.911-2.451-2.911h-.782c.8-1.111 1.426-2.264 1.77-3.327l.029-.09V.118H.434v1.567h4.287c-.782 1.877-2.56 4.097-4.448 5.54v1.92c0 .074.083.121.146.08A14.996 14.996 0 0 0 2.855 7.26v7.826h1.72V6.508L5.9 8.082h2.046z" fill="#000" mask="url(#bgd)"/></g><path d="M26.065 2.338c-.08 0-.119.084-.079.148l1.79 2.884h1.853c.075 0 .12-.085.08-.148l-1.79-2.884h-1.854zM60.03 5.63h-2.226l-3.297 4.297-3.372-4.296h-2.227a.095.095 0 0 0-.078.154l4.478 5.704-4.706 6.13c-.048.063 0 .154.081.154h2.227l3.624-4.722 3.706 4.722h2.235a.091.091 0 0 0 .075-.148l-4.817-6.136 4.378-5.704c.048-.064.001-.154-.08-.154" fill="#000"/><path fill="#000" d="M61.77 19.003H47.38V4.4H61.62V2.676H45.504v18.05H61.77z"/><g transform="translate(14.447)"><mask id="bgf" fill="#fff"><use xlink:href="#bge"/></mask><path fill="#000" mask="url(#bgf)" d="M8.174 3.31H4.99V.118H3.284V3.31H.1v1.71h3.184v3.192H4.99V5.02h3.184z"/></g></g></svg><svg width="122" height="26" viewBox="-1 -1 122 26" id="text-3"><title>tvp</title><defs><path id="bha" d="M0 .072h35v14.764H0z"/></defs><g transform="translate(0 2)" fill="none" fill-rule="evenodd"><g transform="translate(63 3)"><path fill="#000" fill-rule="nonzero" d="M15.833 0l.789 1.25.788 1.25 1.295-1.25L20 0z"/><mask id="bhb" fill="#fff"><use xlink:href="#bha"/></mask><path d="M34.805 2.536a3.569 3.569 0 0 0-.898-1.464 3.192 3.192 0 0 0-1.31-.78c-.49-.147-1.163-.22-2.02-.22H21.82l-5.18 8.17-3.082-8.17H.382L0 3.031h4.18L2.658 14.836h2.982L7.164 3.031h4.181l3.203 8.512-.001.002 1.241 3.291L23.28 3.032l.005.01 7.08.01c.615 0 1.038.085 1.272.257.315.227.443.567.385 1.021-.073.557-.361.938-.867 1.145-.27.11-.691.164-1.265.164h-5.642l-1.188 9.197h2.983l.805-6.228h2.82c.77 0 1.401-.07 1.899-.21.516-.151 1-.398 1.429-.728.531-.406.98-.914 1.32-1.495.35-.59.565-1.205.648-1.845a4.05 4.05 0 0 0-.158-1.794" fill="#000" fill-rule="nonzero" mask="url(#bhb)"/></g><g fill="#000" fill-rule="nonzero"><path d="M6.365.832v14.585h8.688v1.632H6.365v2.837H3.43l-.452-1.468c-.042-.113.02-.165.1-.165h1.64V13.18H2.41c-.01 1.65-.082 3.925-.634 6.667H.122c-.098 0-.155-.05-.102-.235.499-1.995.741-4.248.741-7.215V.832h5.604zM4.719 7.807H2.41v3.905h2.31V7.806h-.002zm0-5.344H2.41v3.875h2.31V2.463h-.002z"/><path d="M10.357 9.143c.42-.479.824-1.037 1.203-1.697h2.935c.368.602.79 1.17 1.259 1.697h-5.397zm6.156-1.697h2.214V5.978h-6.45c.195-.47.37-.973.529-1.518h5.517V2.99h-1.617l.605-2.04c.032-.107-.025-.15-.096-.15H15.81l-.65 2.19h-1.985c.186-.848.347-1.788.493-2.843.017-.123-.048-.147-.131-.147H11.94c-.164 1.122-.334 2.087-.553 2.992h-.974L9.763.8H8.359c-.07 0-.128.042-.096.15l.605 2.04H7.294v1.47h3.675a14.068 14.068 0 0 1-.604 1.518H6.889v1.468H9.5c-1.053 1.479-2.177 2.16-2.626 2.431v1.68c0 .085.067.175.336.024a14.812 14.812 0 0 0 1.536-.97h6.141l-.052 2.2H9.986l.075-1.315a.097.097 0 0 0-.1-.1H8.41l-.157 2.784c0 .057.042.1.1.1h8.365v3.97h-3.77c-.08 0-.141.052-.1.164l.453 1.468h5.231V12.81h-2.047l.067-2.855a11.942 11.942 0 0 0 2.25 1.625c.268.15.335.06.335-.023v-1.68c-.448-.272-1.572-.955-2.624-2.432zM38.483.79v17.347h1.612v1.634h-3.426v-9.77h-4.336v9.977h-1.814v-9.976h-3.931V8.372h3.931v-5.95h-3.43V.792h11.394V.79zM36.67 2.422h-4.337v5.95h4.337v-5.95z"/><path d="M28.238 14.283l-3.058 2.293V5.968h-4.237v1.795h2.436v10.164l-.974.73.995 1.301 5.002-3.75v-1.85c0-.088-.099-.125-.164-.076zm-4.62-9.922H25.6c.088 0 .124-.094.085-.154L23.185.43h-1.982c-.075 0-.13.086-.089.149l2.504 3.783zm20.82-1.34h14.314V1.226H44.438V3.02zm-2.015 6.783h5.088l-3.705 9.638c-.029.079.023.138.093.138h15.823c.075 0 .116-.073.09-.142l-2.36-6.14h-1.969a.1.1 0 0 0-.094.137l1.67 4.35H46.566l3.063-7.98h11.139V8.008H42.422v1.795z"/></g></g></svg></svg>