<?xml version="1.0" standalone="no"?><!DOCTYPE svg PUBLIC "-//W3C//DTD SVG 1.1//EN" "http://www.w3.org/Graphics/SVG/1.1/DTD/svg11.dtd"><svg t="1588339688762" class="icon" viewBox="0 0 1024 1024" version="1.1" xmlns="http://www.w3.org/2000/svg" p-id="3069" width="48" height="48" xmlns:xlink="http://www.w3.org/1999/xlink"><defs><style type="text/css"></style></defs><path d="M511.994934 64.884641a447.282535 447.282535 0 0 1 174.025389 859.184501A447.297733 447.297733 0 0 1 337.959413 99.961253a444.232836 444.232836 0 0 1 174.035521-35.076612m0-64.844113C229.223941 0.040528 0 229.234072 0 512.005066s229.223941 511.994934 511.994934 511.994934 511.994934-229.234072 511.994934-511.994934S794.755796 0.040528 511.994934 0.040528z" fill="#333333" p-id="3070"></path><path d="M471.55855 330.725242l220.875261 181.279824-221.158954 181.502726 0.607914-230.693065v-82.828223l-0.324221-49.210603m-24.184828-87.002563a58.501548 58.501548 0 0 0-16.646699 2.411391 34.509227 34.509227 0 0 0-24.316543 33.435246l0.668705 100.822464v82.270969l-0.74976 281.930046a34.509227 34.509227 0 0 0 24.367202 33.263004 58.18746 58.18746 0 0 0 56.839918-13.597c0.688969-0.658573 1.377937-1.296882 2.107434-1.894664l253.297317-207.855779a34.711864 34.711864 0 0 0 3.758933-3.566426 58.167196 58.167196 0 0 0 0-77.843332 34.711864 34.711864 0 0 0-3.758933-3.566426l-253.297317-207.855779c-0.729496-0.597782-1.418465-1.236091-2.107434-1.894664a58.015218 58.015218 0 0 0-40.122295-16.038786z" fill="#333333" p-id="3071"></path></svg>