<?xml version="1.0" standalone="no"?><!DOCTYPE svg PUBLIC "-//W3C//DTD SVG 1.1//EN" "http://www.w3.org/Graphics/SVG/1.1/DTD/svg11.dtd"><svg t="1588340049271" class="icon" viewBox="0 0 1024 1024" version="1.1" xmlns="http://www.w3.org/2000/svg" p-id="3922" xmlns:xlink="http://www.w3.org/1999/xlink" width="48" height="48"><defs><style type="text/css"></style></defs><path d="M430.4 340.608c-18.24 0-33.088 12.736-33.088 28.544v285.696c0 15.744 14.784 28.544 33.088 28.544 18.24 0 33.024-12.8 33.024-28.544V369.152c0-15.808-14.848-28.544-33.024-28.544z m164.224 0c-18.24 0-33.024 12.736-33.024 28.544v285.696c0 15.744 14.72 28.544 33.024 28.544s33.088-12.8 33.088-28.544V369.152c0-15.808-14.848-28.544-33.088-28.544z" p-id="3923" fill="#333333"></path><path d="M512.512 65.984C266.56 65.984 66.496 266.048 66.496 512S266.56 958.016 512.512 958.016 958.528 757.952 958.528 512 758.464 65.984 512.512 65.984z m0 828.032c-210.624 0-382.016-171.392-382.016-382.016s171.392-382.016 382.016-382.016S894.528 301.376 894.528 512 723.136 894.016 512.512 894.016z" p-id="3924" fill="#333333"></path></svg>