<?xml version="1.0" encoding="UTF-8"?>
<svg width="48px" height="48px" viewBox="0 0 48 48" version="1.1" xmlns="http://www.w3.org/2000/svg" xmlns:xlink="http://www.w3.org/1999/xlink">
    <!-- Generator: Sketch 63.1 (92452) - https://sketch.com -->
    <title>产品图标-蓝色-48</title>
    <desc>Created with Sketch.</desc>
    <g id="页面1" stroke="none" stroke-width="1" fill="none" fill-rule="evenodd">
        <g id="设计资源" transform="translate(-163.000000, -284.000000)" fill="#00A4FF" fill-rule="nonzero">
            <g id="产品图标-蓝色-48" transform="translate(163.000000, 284.000000)">
                <g id="image" transform="translate(4.000000, 2.000000)">
                    <path d="M19.9975412,41.9729376 C13.2801248,40.393571 8.60295517,37.2449916 5.59486347,32.9873872 C4.04714967,30.7967781 3.03985875,28.4475106 2.46778359,26.0990783 C2.26813725,25.2795078 2.13730807,24.5205487 2.06186563,23.8429316 C2.01761761,23.4455 2.00153266,23.1702114 1.99992635,23.0378638 L2,2 L40,2 L40,0 L0,0 L0,23.05 C0.00891715512,23.7907736 0.145214642,25.0149851 0.524607136,26.5724336 C1.153141,29.1526352 2.25909106,31.7320017 3.96142024,34.141451 C7.28797486,38.8498026 12.4594805,42.3037886 19.7773709,43.9749032 L20.0024723,44.0263074 L20.2273233,43.9738193 C27.5022198,42.2756051 32.655912,38.839109 35.9847655,34.176724 C37.7101398,31.7601687 38.8311644,29.1728292 39.4682376,26.5845171 C39.852845,25.0219278 39.9909948,23.7935389 40,23.0622106 L40,8 L38,8 L38,23.05 C37.9984566,23.1702873 37.982182,23.4461458 37.9373806,23.8445071 C37.8609788,24.5238496 37.7284565,25.2847796 37.5261992,26.1065142 C36.9465616,28.4614757 35.9257988,30.8174096 34.3570639,33.0145763 C31.3452221,37.2329554 26.6799235,40.3682227 19.9975412,41.9729376 Z" id="形状"></path>
                    <g id="编组" transform="translate(9.500000, 6.000000)">
                        <path d="M7.19639314,15.7023647 L7.13299231,15.7415031 C5.40085742,16.8478688 4.72164362,18.5384207 4.99336245,20.8849737 L3.00663755,21.1150263 C2.68957678,18.376902 3.43342524,16.2309587 5.1668101,14.7274535 C5.78161476,15.1012349 6.4590875,15.4266446 7.19639314,15.7023647 Z M17.9933624,5.88497371 C18.3104232,8.62309799 17.5665748,10.7690413 15.8331899,12.2725465 C15.2181046,11.8985947 14.5402939,11.5730583 13.802597,11.2972577 C15.5826223,10.1928104 16.2816332,8.48987769 16.0066376,6.11502629 L17.9933624,5.88497371 Z" id="形状结合"></path>
                        <path d="M3.00663755,5.88497371 C2.46479904,10.5642697 5.02132815,13.514111 10.3200076,14.483668 C14.6420964,15.2745276 16.4189006,17.3246863 16.0066376,20.8849737 L17.9933624,21.1150263 C18.535201,16.4357303 15.9786718,13.485889 10.6799924,12.516332 C6.35790362,11.7254724 4.5810994,9.67531366 4.99336245,6.11502629 L3.00663755,5.88497371 Z" id="路径-10"></path>
                        <path d="M17,8 C19.209139,8 21,6.209139 21,4 C21,1.790861 19.209139,0 17,0 C14.790861,0 13,1.790861 13,4 C13,6.209139 14.790861,8 17,8 Z M17,6 C15.8954305,6 15,5.1045695 15,4 C15,2.8954305 15.8954305,2 17,2 C18.1045695,2 19,2.8954305 19,4 C19,5.1045695 18.1045695,6 17,6 Z" id="椭圆形备份-4"></path>
                        <path d="M4,8 C6.209139,8 8,6.209139 8,4 C8,1.790861 6.209139,0 4,0 C1.790861,0 0,1.790861 0,4 C0,6.209139 1.790861,8 4,8 Z M4,6 C2.8954305,6 2,5.1045695 2,4 C2,2.8954305 2.8954305,2 4,2 C5.1045695,2 6,2.8954305 6,4 C6,5.1045695 5.1045695,6 4,6 Z" id="椭圆形备份-5"></path>
                        <path d="M4,27 C6.209139,27 8,25.209139 8,23 C8,20.790861 6.209139,19 4,19 C1.790861,19 0,20.790861 0,23 C0,25.209139 1.790861,27 4,27 Z M4,25 C2.8954305,25 2,24.1045695 2,23 C2,21.8954305 2.8954305,21 4,21 C5.1045695,21 6,21.8954305 6,23 C6,24.1045695 5.1045695,25 4,25 Z" id="椭圆形备份-3"></path>
                        <path d="M17,27 C19.209139,27 21,25.209139 21,23 C21,20.790861 19.209139,19 17,19 C14.790861,19 13,20.790861 13,23 C13,25.209139 14.790861,27 17,27 Z M17,25 C15.8954305,25 15,24.1045695 15,23 C15,21.8954305 15.8954305,21 17,21 C18.1045695,21 19,21.8954305 19,23 C19,24.1045695 18.1045695,25 17,25 Z" id="椭圆形备份-6"></path>
                    </g>
                </g>
            </g>
        </g>
    </g>
</svg>