<?xml version="1.0" encoding="UTF-8"?>
<svg width="48px" height="48px" viewBox="0 0 48 48" version="1.1" xmlns="http://www.w3.org/2000/svg" xmlns:xlink="http://www.w3.org/1999/xlink">
    <!-- Generator: Sketch 63.1 (92452) - https://sketch.com -->
    <title>识别伪造下载</title>
    <desc>Created with Sketch.</desc>
    <g id="页面1" stroke="none" stroke-width="1" fill="none" fill-rule="evenodd">
        <g id="设计资源" transform="translate(-466.000000, -518.000000)" fill-rule="nonzero">
            <g id="识别伪造下载" transform="translate(466.000000, 518.000000)">
                <g id="1541161002582-48x48">
                    <path d="M24,48 C10.745166,48 0,37.254834 0,24 C0,10.745166 10.745166,0 24,0 C37.254834,0 48,10.745166 48,24 C48,37.254834 37.254834,48 24,48 Z M24,46 C36.1502645,46 46,36.1502645 46,24 C46,11.8497355 36.1502645,2 24,2 C11.8497355,2 2,11.8497355 2,24 C2,36.1502645 11.8497355,46 24,46 Z" id="Oval-7" fill="#334966"></path>
                    <path d="M4.00135657,23.7646227 C4.00380652,23.9770682 4.00956882,24.1887177 4.01859424,24.3995219 L4.97837325,25.2132476 C7.4596515,27.31694 11.0631617,27.4340365 13.6757806,25.4958708 L15.7133001,23.9843414 C17.4824705,22.6718862 19.9021449,22.6718862 21.6713153,23.9843414 L23.9575945,25.6804127 C26.4344331,27.51785 29.8219772,27.51785 32.2988157,25.6804127 L34.585095,23.9843414 C36.3542654,22.6718862 38.7739397,22.6718862 40.5431101,23.9843414 L43.7958817,26.397403 C43.9061786,25.6293569 43.972836,24.8472169 43.9932605,24.0535764 L43.9999454,24.0475638 C43.974283,35.0713893 35.0298359,44 24,44 C12.954305,44 4,35.045695 4,24 C4,23.9214343 4.00045301,23.8429743 4.00135657,23.7646227 Z" id="Combined-Shape" fill="#00A4FF"></path>
                    <polygon id="Combined-Shape" fill="#334966" transform="translate(24.000000, 24.000000) scale(-1, 1) rotate(-180.000000) translate(-24.000000, -24.000000) " points="23 16.2666667 19.5 20 18 18.4 24 12 30 18.4 28.5 20 25 16.2666667 25 36 23 36"></polygon>
                </g>
            </g>
        </g>
    </g>
</svg>