<?xml version="1.0" encoding="UTF-8"?>
<svg width="48px" height="48px" viewBox="0 0 48 48" version="1.1" xmlns="http://www.w3.org/2000/svg" xmlns:xlink="http://www.w3.org/1999/xlink">
    <!-- Generator: Sketch 63.1 (92452) - https://sketch.com -->
    <title>识别伪造曝光</title>
    <desc>Created with Sketch.</desc>
    <g id="页面1" stroke="none" stroke-width="1" fill="none" fill-rule="evenodd">
        <g id="设计资源" transform="translate(-307.000000, -518.000000)">
            <g id="识别伪造曝光" transform="translate(307.000000, 518.000000)">
                <g id="1541158043509-48x48" transform="translate(2.000000, 0.000000)">
                    <path d="M40,20.575 C39.3581001,20.1723845 38.6899359,19.8132463 38,19.5 L38,2 L2,2 L2,46 L18.038,46 C18.6505214,46.7210391 19.3218252,47.3900016 20.045,48 L0,48 L0,0 L40,0 L40,20.575 Z" id="Combined-Shape" fill="#334966" fill-rule="nonzero"></path>
                    <rect id="Rectangle-60" fill="#334966" fill-rule="nonzero" x="5" y="7" width="29" height="2"></rect>
                    <rect id="Rectangle-60-Copy" fill="#334966" fill-rule="nonzero" x="5" y="16" width="29" height="2"></rect>
                    <path d="M16.5,25 C16.0217359,25.6363605 15.5873963,26.3045754 15.2,27 L5,27 L5,25 L16.5,25 Z" id="Combined-Shape-2" fill="#334966" fill-rule="nonzero"></path>
                    <path d="M32.5,26 C26.7010102,26 22,30.7010102 22,36.5 C22,42.2989898 26.7010102,47 32.5,47 C38.2989898,47 43,42.2989898 43,36.5 C43,33.7152268 41.8937532,31.0445108 39.9246212,29.0753788 C37.9554892,27.1062468 35.2847732,26 32.5,26 Z" id="Shape" fill="#00A4FF" fill-rule="nonzero"></path>
                    <rect id="矩形" fill="#334966" transform="translate(30.717514, 34.717514) rotate(45.000000) translate(-30.717514, -34.717514) " x="22.2175144" y="33.7175144" width="17" height="2"></rect>
                    <rect id="矩形" fill="#334966" transform="translate(30.717514, 34.717514) scale(-1, 1) rotate(45.000000) translate(-30.717514, -34.717514) " x="22.2175144" y="33.7175144" width="17" height="2"></rect>
                    <path d="M31,48 C23.8202983,48 18,42.1797017 18,35 C18,27.8202983 23.8202983,22 31,22 C38.1797017,22 44,27.8202983 44,35 C44,42.1797017 38.1797017,48 31,48 Z M31,46 C37.0751322,46 42,41.0751322 42,35 C42,28.9248678 37.0751322,24 31,24 C24.9248678,24 20,28.9248678 20,35 C20,41.0751322 24.9248678,46 31,46 Z" id="Combined-Shape-3" fill="#334966" fill-rule="nonzero"></path>
                </g>
            </g>
        </g>
    </g>
</svg>