<?xml version="1.0" encoding="UTF-8"?>
<svg width="830px" height="530px" viewBox="0 0 830 530" version="1.1" xmlns="http://www.w3.org/2000/svg" xmlns:xlink="http://www.w3.org/1999/xlink">
    <!-- Generator: Sketch 53.2 (72643) - https://sketchapp.com -->
    <title>Easily create Tencent Cloud infrastructures</title>
    <desc>Created with Sketch.</desc>
    <g id="Easily-create-Tencent-Cloud-infrastructures" stroke="none" stroke-width="1" fill="none" fill-rule="evenodd">
        <rect id="Rectangle" x="0" y="0" width="830" height="530"></rect>
        <g id="bottomgroup" transform="translate(95.000000, 105.000000)">
            <g id="BlueRectGroup8">
                <rect id="Rectangle" fill="#CEE3FF" fill-rule="nonzero" x="0" y="0" width="644" height="160"></rect>
                <g id="Group" transform="translate(10.000000, 9.000000)" fill="#00A4FF">
                    <g transform="translate(0.000000, 3.000000)" fill-rule="nonzero">
                        <g>
                            <path d="M7.5,0 C6.7,0 6,0.7 6,1.5 C6,2.2 6.4,2.7 7,2.9 L7,5 L8,5 L8,2.9 C8.6,2.7 9,2.1 9,1.5 C9,0.7 8.3,0 7.5,0 Z" id="Path"></path>
                            <circle id="Oval" cx="7.5" cy="13.5" r="1.5"></circle>
                            <path d="M3.3,3.2 C2.5,2.8 1.6,3 1.2,3.8 C0.8,4.5 1,5.4 1.8,5.8 C1.9,5.8 2,5.9 2,5.9 L2,8 L3,8 L3,5.9 C3.1,5.9 3.3,5.8 3.4,5.7 L5.1,6.7 L5.6,5.8 L3.9,4.9 C4.1,4.2 3.8,3.5 3.3,3.2 Z" id="Path"></path>
                            <circle id="Oval" transform="translate(12.500100, 10.500600) rotate(-59.999272) translate(-12.500100, -10.500600) " cx="12.5001" cy="10.5006" r="1.499967"></circle>
                            <circle id="Oval" transform="translate(2.500200, 10.499700) rotate(-30.000728) translate(-2.500200, -10.499700) " cx="2.5002" cy="10.4997" r="1.499967"></circle>
                            <path d="M12,5.9 L12,8 L13,8 L13,5.9 C13.1,5.9 13.2,5.8 13.2,5.8 C13.9,5.4 14.2,4.5 13.7,3.8 C13.3,3.1 12.4,2.8 11.7,3.3 C11.1,3.6 10.8,4.3 11,5 L9.4,5.8 L9.9,6.7 L11.6,5.7 C11.7,5.8 11.9,5.9 12,5.9 Z" id="Path"></path>
                            <path d="M7.5,6 C6.7,6 6,6.7 6,7.5 C6,8.2 6.4,8.7 7,8.9 L7,11 L8,11 L8,8.9 C8.6,8.7 9,8.1 9,7.5 C9,6.7 8.3,6 7.5,6 Z" id="Path"></path>
                        </g>
                    </g>
                    <text id="TIC" font-family="PingFangSC-Regular, PingFang SC" font-size="14" font-weight="normal">
                        <tspan x="21" y="15">TIC</tspan>
                    </text>
                </g>
            </g>
            <g id="QcloudGroup23" transform="translate(0.000000, 183.000000)" fill-rule="nonzero">
                <rect id="Rectangle" fill="#EAEBEC" x="0" y="0" width="644" height="223"></rect>
                <g id="Group" transform="translate(10.000000, 10.000000)">
                    <g>
                        <g>
                            <path d="M23.23,8.19 C22.1491407,7.08299314 20.6671653,6.45919326 19.12,6.46 C17.787354,6.45774204 16.4972685,6.92911945 15.48,7.79 C15.02,8.16 14.54,8.61 13.94,9.19 L4.94,17.91 C5.48432487,17.9733569 6.03201094,18.0034128 6.58,18 L19.51,18 C20.8799779,17.925008 22.1765091,17.3566655 23.16,16.4 C24.2581458,15.3339119 24.8877411,13.8752034 24.9102462,12.3448566 C24.9327513,10.8145097 24.3463222,9.33791847 23.28,8.24 L23.23,8.19 Z M21.56,14.74 C20.8770392,15.3869029 19.9706872,15.7451448 19.03,15.74 L10.41,15.7400547 L15.41,10.89 C15.64,10.67 16.16,10.17 16.6,9.77 C17.2670486,9.12974396 18.1554032,8.77153647 19.08,8.77 C20.4973993,8.77960392 21.769915,9.64077945 22.3057496,10.9530273 C22.8415841,12.2652751 22.5355611,13.7710206 21.53,14.77 L21.56,14.74 Z" id="Shape" fill="#00A3FF"></path>
                            <path d="M9.21,7.64 C8.22132552,6.86916995 7.00365707,6.45037647 5.75,6.45 C3.40864898,6.46189587 1.3066145,7.88750008 0.429491185,10.0583803 C-0.447632125,12.2292605 0.0740764485,14.7149629 1.75,16.35 C2.63220296,17.2133953 3.77454253,17.7617183 5,17.91 L7.24,15.74 L5.9,15.74 C4.95931284,15.7451448 4.0529608,15.3869029 3.37,14.74 C2.36443891,13.7410206 2.05841592,12.2352751 2.59425044,10.9230273 C3.13008496,9.61077945 4.40260072,8.74960392 5.82,8.74 C6.70866071,8.77228534 7.5549686,9.12787689 8.2,9.74 C8.66,10.12 9.71,11.04 10.12,11.41 L11.74,9.83 C10.94,9.09 9.86,8.12 9.21,7.64 Z" id="Path" fill="#00C5D9"></path>
                            <path d="M19.72,5.15 C18.5371664,1.81788832 15.2442215,-0.286892382 11.723424,0.0387577941 C8.20262642,0.36440797 5.35159948,3.03746489 4.8,6.53 C5.13036606,6.47425062 5.46497255,6.4474821 5.8,6.45 C6.23774812,6.4482763 6.67414731,6.49863005 7.1,6.6 L7.1,6.6 C7.59995045,4.3078739 9.50586309,2.58978544 11.8373922,2.32946909 C14.1689213,2.06915273 16.4068286,3.32458168 17.4,5.45 C18.1088707,5.25290211 18.8456052,5.17517324 19.58,5.22 C19.72,5.26 19.75,5.22 19.72,5.15 Z" id="Path" fill="#006EFF"></path>
                        </g>
                        <g transform="translate(28.000000, 2.000000)" fill="#000000">
                            <path d="M25.27,1 L17.94,1 L17.94,2.1 L20.15,2.1 L20.15,6 L17.61,6 L17.61,7 L20.14,7 L20.14,13.49 L21.31,13.49 L21.31,7 L24.1,7 L24.1,13.36 L26.31,13.36 L26.31,12.36 L25.31,12.36 L25.27,1 Z M21.27,5.93 L21.27,2.1 L24.06,2.1 L24.06,6 L21.27,5.93 Z" id="Shape"></path>
                            <rect id="Rectangle" x="4.92" y="10.56" width="5.79" height="1.06"></rect>
                            <path d="M1,8.6 C1.03358639,10.1804325 0.872372559,11.7589846 0.52,13.3 C0.52,13.42 0.52,13.45 0.59,13.45 L1.65,13.45 C1.90937825,12.0150308 2.02661223,10.5579799 2,9.1 L3.49,9.1 L3.49,12.4 L2.49,12.4 C2.49,12.4 2.4,12.4 2.43,12.51 L2.72,13.51 L4.61,13.51 L4.61,1.07 L1,1.07 L1,8.6 Z M2,8.15 L2,5.61 L3.49,5.61 L3.49,8.15 L2,8.15 Z M3.49,2.15 L3.49,4.67 L2,4.67 L2,2.13 L3.49,2.15 Z" id="Shape"></path>
                            <path d="M11.12,5.37 L12.55,5.37 L12.55,4.37 L8.39,4.37 C8.5214108,4.04308898 8.63491235,3.70926089 8.73,3.37 L12.28,3.37 L12.28,2.37 L11.28,2.37 L11.67,1 C11.67,0.93 11.67,0.9 11.61,0.9 L10.71,0.9 L10.29,2.33 L9,2.33 C9.12,1.78 9.22,1.17 9.32,0.48 C9.32,0.4 9.32,0.38 9.24,0.38 L8.24,0.38 C8.13,1.11 8.02,1.74 7.88,2.33 L7.25,2.33 L6.77,1 L5.87,1 C5.87,1 5.79,1 5.81,1.1 L6.2,2.43 L5.2,2.43 L5.2,3.43 L7.57,3.43 C7.4595295,3.77062399 7.32930889,4.10452298 7.18,4.43 L4.92,4.43 L4.92,5.43 L6.6,5.43 C6.15490507,6.06771719 5.57871475,6.60299459 4.91,7 L4.91,8 C4.91,8.06 4.91,8.11 5.13,8 C5.47593068,7.81069437 5.80989413,7.60029739 6.13,7.37 L10.13,7.37 L10.13,8.8 L6.92,8.8 L7,8 C7,7.96686292 6.97313708,7.94 6.94,7.94 L5.94,7.94 L5.84,9.75 C5.84,9.78313708 5.86686292,9.81 5.9,9.81 L11.29,9.81 L11.29,12.4 L8.82,12.4 C8.82,12.4 8.73,12.4 8.76,12.51 L9.05,13.51 L12.42,13.51 L12.42,8.91 L11.1,8.91 L11.1,7 C11.5402688,7.4087596 12.0269207,7.76451896 12.55,8.06 C12.72,8.16 12.77,8.06 12.77,8.06 L12.77,7 C12.1098085,6.58085736 11.5471623,6.0250311 11.12,5.37 L11.12,5.37 Z M9.82,5.37 C10.0570954,5.75979403 10.3281481,6.12789026 10.63,6.47 L7.15,6.47 C7.44248359,6.129755 7.70041855,5.7612765 7.92,5.37 L9.82,5.37 Z" id="Shape"></path>
                            <path d="M18.68,9.82 L16.68,11.31 L16.68,4.41 L14,4.41 L14,5.58 L15.57,5.58 L15.57,12.19 L14.94,12.67 L15.58,13.52 L18.8,11.08 L18.8,9.88 C18.8204598,9.85818707 18.824802,9.82578537 18.8108072,9.79935518 C18.7968125,9.772925 18.7675725,9.75830498 18.7380315,9.76296732 C18.7084905,9.76762966 18.6851745,9.79054441 18.68,9.82 L18.68,9.82 Z" id="Path"></path>
                            <path d="M15.7,3.37 L17,3.37 C17.0167587,3.35888353 17.0268338,3.34011045 17.0268338,3.32 C17.0268338,3.29988955 17.0167587,3.28111647 17,3.27 L15.39,0.81 L14.15,0.81 C14.1235675,0.801751636 14.0949234,0.812662708 14.0806772,0.836406323 C14.066431,0.860149938 14.0702832,0.890558789 14.09,0.91 L15.7,3.37 Z" id="Path"></path>
                            <rect id="Rectangle" x="28.78" y="1.33" width="9.22" height="1.17"></rect>
                            <path d="M32.12,6.91 L39.3,6.91 L39.3,5.74 L27.48,5.74 L27.48,6.91 L30.76,6.91 L28.37,13.18 C28.3496285,13.2027761 28.3496285,13.2372239 28.37,13.26 L38.62,13.26 C38.6386499,13.2575297 38.6555205,13.2476564 38.6668082,13.2326061 C38.6780959,13.2175559 38.6828504,13.1985956 38.68,13.18 L38.68,13.18 L37.16,9.18 L35.89,9.18 C35.8671577,9.17677706 35.8444904,9.18693534 35.8316943,9.20612952 C35.8188982,9.22532371 35.8182395,9.2501544 35.83,9.27 L36.91,12.1 L30.15,12.1 L32.12,6.91 Z" id="Path"></path>
                        </g>
                    </g>
                </g>
            </g>
        </g>
        <g id="middlegroup" transform="translate(0.000000, -55.000000)">
            <g id="Link9">
                <polyline id="Path" stroke="#888888" points="236.5 239.5 250.5 239.5 250.5 239.5 263.5 239.5"></polyline>
                <g id="Group" transform="translate(258.500000, 235.000000)" fill="#888888">
                    <polygon id="Path" points="0.5 9 6.5 4.5 0.5 0"></polygon>
                </g>
                <path d="M236.5,239.5 L250.5,239.5" id="Path" stroke-opacity="0" stroke="#FF0000" stroke-width="15"></path>
                <g id="Group"></g>
                <path d="M250.5,239.5 L263.5,239.5" id="Path" stroke-opacity="0" stroke="#FF0000" stroke-width="15"></path>
            </g>
            <g id="Link10">
                <polyline id="Path" stroke="#888888" points="365.5 239.5 377.5 239.5 377.5 239.5 390.5 239.5"></polyline>
                <g id="Group" transform="translate(385.500000, 235.000000)" fill="#888888">
                    <polygon id="Path" points="0.5 9 6.5 4.5 0.5 0"></polygon>
                </g>
                <path d="M365.5,239.5 L377.5,239.5" id="Path" stroke-opacity="0" stroke="#FF0000" stroke-width="15"></path>
                <g id="Group"></g>
                <path d="M377.5,239.5 L390.5,239.5" id="Path" stroke-opacity="0" stroke="#FF0000" stroke-width="15"></path>
            </g>
            <g id="Link11">
                <polyline id="Path" stroke="#888888" points="494.5 239.5 507.5 239.5 507.5 239.5 520.5 239.5"></polyline>
                <g id="Group" transform="translate(515.500000, 235.000000)" fill="#888888">
                    <polygon id="Path" points="0.5 9 6.5 4.5 0.5 0"></polygon>
                </g>
                <path d="M494.5,239.5 L507.5,239.5" id="Path" stroke-opacity="0" stroke="#FF0000" stroke-width="15"></path>
                <g id="Group"></g>
                <path d="M507.5,239.5 L520.5,239.5" id="Path" stroke-opacity="0" stroke="#FF0000" stroke-width="15"></path>
            </g>
            <g id="Link12">
                <polyline id="Path" stroke="#888888" points="592.5 239.5 608.5 239.5 608.5 239.5 624.5 239.5"></polyline>
                <g id="Group" transform="translate(619.500000, 235.000000)" fill="#888888">
                    <polygon id="Path" points="0.5 9 6.5 4.5 0.5 0"></polygon>
                </g>
                <path d="M592.5,239.5 L608.5,239.5" id="Path" stroke-opacity="0" stroke="#FF0000" stroke-width="15"></path>
                <g id="Group"></g>
                <path d="M608.5,239.5 L624.5,239.5" id="Path" stroke-opacity="0" stroke="#FF0000" stroke-width="15"></path>
            </g>
            <g id="Link24" transform="translate(738.000000, 239.000000)">
                <polyline id="Path" stroke="#888888" points="0.5 0.5 35.5 0.5 35.5 215.5 5.5 215.5"></polyline>
                <g id="Group" transform="translate(3.500000, 211.000000)" fill="#888888">
                    <polygon id="Path" points="6.5 0 0.5 4.5 6.5 9"></polygon>
                </g>
                <path d="M0.5,0.5 L35.5,0.5" id="Path" stroke-opacity="0" stroke="#FF0000" stroke-width="15"></path>
                <path d="M35.5,0.5 L35.5,215.5" id="Path" stroke-opacity="0" stroke="#FF0000" stroke-width="15"></path>
                <path d="M35.5,215.5 L5.5,215.5" id="Path" stroke-opacity="0" stroke="#FF0000" stroke-width="15"></path>
            </g>
            <g id="Link14" transform="translate(57.000000, 95.000000)">
                <polyline id="Path" stroke="#888888" points="317.5 0.5 0.5 0.5 0.5 144.5 30.5 144.5"></polyline>
                <g id="Group" transform="translate(25.500000, 140.000000)" fill="#888888">
                    <polygon id="Path" points="0.5 9 6.5 4.5 0.5 0"></polygon>
                </g>
                <path d="M317.5,0.5 L0.5,0.5" id="Path" stroke-opacity="0" stroke="#FF0000" stroke-width="15"></path>
                <path d="M0.5,0.5 L0.5,144.5" id="Path" stroke-opacity="0" stroke="#FF0000" stroke-width="15"></path>
                <path d="M0.5,144.5 L30.5,144.5" id="Path" stroke-opacity="0" stroke="#FF0000" stroke-width="15"></path>
            </g>
        </g>
        <g id="RectEndPoint1" transform="translate(354.000000, 16.000000)">
            <rect id="Rectangle" fill="#BBBBBB" fill-rule="nonzero" opacity="0.6" x="2" y="2" width="120" height="50"></rect>
            <rect id="Rectangle" stroke="#E5E5E5" fill="#FFFFFF" fill-rule="nonzero" x="0" y="0" width="120" height="50"></rect>
            <g id="Group" transform="translate(20.000000, 12.000000)">
                <g fill="#878787" fill-rule="nonzero">
                    <g>
                        <path d="M12,2.13 C14.209139,2.13 16,3.920861 16,6.13 C16,8.339139 14.209139,10.13 12,10.13 C9.790861,10.13 8,8.339139 8,6.13 C8,3.920861 9.790861,2.13 12,2.13 L12,2.13 Z M12,0.13 C8.6862915,0.13 6,2.8162915 6,6.13 C6,9.4437085 8.6862915,12.13 12,12.13 C15.3137085,12.13 18,9.4437085 18,6.13 C18,2.8162915 15.3137085,0.13 12,0.13 Z" id="Shape"></path>
                        <path d="M16,16.13 C19.3137085,16.13 22,18.8162915 22,22.13 L22,23.13 L2,23.13 L2,22.13 C2,18.8162915 4.6862915,16.13 8,16.13 L16,16.13 L16,16.13 Z M16,14.13 L8,14.13 C3.581722,14.13 5.41083001e-16,17.711722 0,22.13 L0,25.13 L24,25.13 L24,22.13 C24,17.711722 20.418278,14.13 16,14.13 Z" id="Shape"></path>
                        <path d="M25,14.12 L22,14.12 C22.7575263,14.6891538 23.4308462,15.3624737 24,16.12 L25,16.12 C27.209139,16.12 29,17.910861 29,20.12 L29,21.12 L26,21.12 C26,21.45 26,21.78 26,22.12 L26,23.12 L31,23.12 L31,20.12 C31,16.8062915 28.3137085,14.12 25,14.12 L25,14.12 Z" id="Path"></path>
                        <path d="M21,1.12 C20.1857537,1.12491632 19.3853482,1.33102935 18.67,1.72 C19.0368586,2.27761909 19.3324892,2.87895854 19.55,3.51 C20.8113612,2.79515369 22.403453,3.08465116 23.3324257,4.19777604 C24.2613983,5.31090092 24.2613983,6.92909908 23.3324257,8.04222396 C22.403453,9.15534884 20.8113612,9.44484631 19.55,8.73 C19.3324892,9.36104146 19.0368586,9.96238091 18.67,10.52 C19.3853482,10.9089707 20.1857537,11.1150837 21,11.12 C23.7614237,11.12 26,8.88142375 26,6.12 C26,3.35857625 23.7614237,1.12 21,1.12 L21,1.12 Z" id="Path"></path>
                    </g>
                </g>
                <text id="客户" fill="#444444" font-family="PingFangSC-Regular, PingFang SC" font-size="14" font-weight="normal">
                    <tspan x="42" y="18">客户</tspan>
                </text>
            </g>
        </g>
        <g id="RectEndPoint2" transform="translate(119.000000, 160.000000)">
            <rect id="Rectangle" fill="#BBBBBB" fill-rule="nonzero" opacity="0.6" x="2" y="2" width="117.796875" height="50"></rect>
            <rect id="Rectangle" stroke="#E5E5E5" fill="#FFFFFF" fill-rule="nonzero" x="0" y="0" width="117.796875" height="50"></rect>
            <g id="Group" transform="translate(20.000000, 15.000000)" fill="#444444" font-family="PingFangSC-Regular, PingFang SC" font-size="14" font-weight="normal">
                <text id="选择-Region">
                    <tspan x="0" y="15">选择 Region</tspan>
                </text>
            </g>
        </g>
        <g id="RectEndPoint3" transform="translate(268.500000, 160.000000)">
            <rect id="Rectangle" fill="#BBBBBB" fill-rule="nonzero" opacity="0.6" x="2" y="2" width="97" height="50"></rect>
            <rect id="Rectangle" stroke="#E5E5E5" fill="#FFFFFF" fill-rule="nonzero" x="0" y="0" width="97" height="50"></rect>
            <g id="Group" transform="translate(20.000000, 15.000000)" fill="#444444" font-family="PingFangSC-Regular, PingFang SC" font-size="14" font-weight="normal">
                <text id="选择模版">
                    <tspan x="0" y="15">选择模版</tspan>
                </text>
            </g>
        </g>
        <g id="RectEndPoint4" transform="translate(398.000000, 160.000000)">
            <rect id="Rectangle" fill="#BBBBBB" fill-rule="nonzero" opacity="0.6" x="2" y="2" width="97" height="50"></rect>
            <rect id="Rectangle" stroke="#E5E5E5" fill="#FFFFFF" fill-rule="nonzero" x="0" y="0" width="97" height="50"></rect>
            <g id="Group" transform="translate(20.000000, 15.000000)" fill="#444444" font-family="PingFangSC-Regular, PingFang SC" font-size="14" font-weight="normal">
                <text id="配置参数">
                    <tspan x="0" y="15">配置参数</tspan>
                </text>
            </g>
        </g>
        <g id="RectEndPoint5" transform="translate(526.000000, 160.000000)">
            <rect id="Rectangle" fill="#BBBBBB" fill-rule="nonzero" opacity="0.6" x="2" y="2" width="67" height="50"></rect>
            <rect id="Rectangle" stroke="#E5E5E5" fill="#FFFFFF" fill-rule="nonzero" x="0" y="0" width="67" height="50"></rect>
            <g id="Group" transform="translate(20.000000, 15.000000)" fill="#444444" font-family="PingFangSC-Regular, PingFang SC" font-size="14" font-weight="normal">
                <text id="Plan">
                    <tspan x="0" y="15">Plan</tspan>
                </text>
            </g>
        </g>
        <g id="RectEndPoint7" transform="translate(630.000000, 160.000000)">
            <rect id="Rectangle" fill="#BBBBBB" fill-rule="nonzero" opacity="0.6" x="2" y="2" width="75" height="50"></rect>
            <rect id="Rectangle" stroke="#E5E5E5" fill="#FFFFFF" fill-rule="nonzero" x="0" y="0" width="75" height="50"></rect>
            <g id="Group" transform="translate(20.000000, 15.000000)" fill="#444444" font-family="PingFangSC-Regular, PingFang SC" font-size="14" font-weight="normal">
                <text id="Apply">
                    <tspan x="0" y="15">Apply</tspan>
                </text>
            </g>
        </g>
        <g id="ShadowBasicRect15" transform="translate(121.000000, 352.000002)">
            <rect id="Rectangle" fill="#BBBBBB" fill-rule="nonzero" opacity="0.6" x="2" y="2" width="138" height="50.0000019"></rect>
            <rect id="Rectangle" stroke="#E5E5E5" fill="#FFFFFF" fill-rule="nonzero" x="0" y="0" width="138" height="50.0000019"></rect>
            <g id="Group" transform="translate(20.000000, 10.000000)">
                <g fill="#00A4FF" fill-rule="nonzero" id="Shape">
                    <path d="M16,28 C9.07835773,28.0081096 3.36413722,22.5913761 3.0025223,15.6791816 C2.64090739,8.76698719 7.75872332,2.78357028 14.6434274,2.06939397 C21.5281314,1.35521766 27.7651265,6.16075721 28.83,13 L30.83,13 C29.7773016,5.17525662 22.8392862,-0.494007791 14.9616916,0.0335202668 C7.08409694,0.561048325 0.963931253,7.10476201 0.963931253,15 C0.963931253,22.895238 7.08409694,29.4389517 14.9616916,29.9664797 C22.8392862,30.4940078 29.7773016,24.8247434 30.83,17 L28.83,17 C27.8451216,23.325525 22.4017338,27.9924982 16,28 Z M23,11 L16,7 L9,11 L9,19 L12.2,20.83 C12.3846869,20.1851714 12.7285651,19.5971397 13.2,19.12 L11,17.84 L11,14.14 L16,17 L21,14.14 L21,17.84 L16.86,20.2 C16.0555273,19.8168495 15.0946129,20.0121119 14.5034836,20.6788554 C13.9123543,21.3455989 13.8336085,22.3229847 14.3103699,23.0757658 C14.7871312,23.8285468 15.7043903,24.1751295 16.5598275,23.9257142 C17.4152647,23.676299 18.0025224,22.8910524 18,22 L18,21.86 L23,19 L23,11 Z M16,14.7 L11.28,12 L16,9.3 L20.72,12 L16,14.7 Z"></path>
                </g>
                <text id="CVM" fill="#444444" font-family="PingFangSC-Regular, PingFang SC" font-size="14" font-weight="normal">
                    <tspan x="42" y="20">CVM</tspan>
                </text>
            </g>
        </g>
        <g id="ShadowBasicRect16" transform="translate(274.000000, 352.000002)">
            <rect id="Rectangle" fill="#BBBBBB" fill-rule="nonzero" opacity="0.6" x="2" y="2" width="138" height="50.0000019"></rect>
            <rect id="Rectangle" stroke="#E5E5E5" fill="#FFFFFF" fill-rule="nonzero" x="0" y="0" width="138" height="50.0000019"></rect>
            <path d="M36.0378271,38.0017554 C28.8581271,38.0101554 23.0310171,32.1966554 23.0226071,25.0169554 C23.0141971,17.8372954 28.8276671,12.0101854 36.0073271,12.0017754 C42.4206271,11.9942554 47.8811271,16.6648354 48.8678271,23.0017554 L50.8678271,23.0017554 C49.7632271,14.7914554 42.2120271,9.03111719 34.0017271,10.1356854 C25.7914571,11.2402554 20.0311199,18.7914554 21.1356871,27.0017554 C22.2402571,35.2120554 29.7914571,40.9723554 38.0017271,39.8678554 C44.6989271,38.9668554 49.9668271,33.6989554 50.8678271,27.0017554 L48.8678271,27.0017554 C47.8829271,33.3272554 42.4395271,37.9942554 36.0378271,38.0017554 Z M36.0378271,17.0017554 C33.2764271,17.0017554 31.0378271,19.2403554 31.0378271,22.0017554 L31.0378271,23.0017554 L30.0378271,23.0017554 L30.0378271,32.0017554 L42.0378271,32.0017554 L42.0378271,23.0017554 L41.0378271,23.0017554 L41.0378271,22.0017554 C41.0378271,19.2403554 38.7992271,17.0017554 36.0378271,17.0017554 Z M33.0378271,22.0017554 C33.0378271,20.3448554 34.3809271,19.0017554 36.0378271,19.0017554 C37.6947271,19.0017554 39.0378271,20.3448554 39.0378271,22.0017554 L39.0378271,23.0017554 L33.0378271,23.0017554 L33.0378271,22.0017554 Z M40.0378271,30.0017554 L32.0378271,30.0017554 L32.0378271,25.0017554 L40.0378271,25.0017554 L40.0378271,30.0017554 Z" id="_复合路径_" fill="#00A4FF" fill-rule="nonzero"></path>
            <g id="Group" transform="translate(62.000000, 15.000000)" fill="#444444" font-family="PingFangSC-Regular, PingFang SC" font-size="14" font-weight="normal">
                <text id="VPC">
                    <tspan x="0" y="15">VPC</tspan>
                </text>
            </g>
        </g>
        <g id="ShadowBasicRect17" transform="translate(427.000000, 352.000002)">
            <rect id="Rectangle" fill="#BBBBBB" fill-rule="nonzero" opacity="0.6" x="2" y="2" width="138" height="50.0000019"></rect>
            <rect id="Rectangle" stroke="#E5E5E5" fill="#FFFFFF" fill-rule="nonzero" x="0" y="0" width="138" height="50.0000019"></rect>
            <g id="Group" transform="translate(62.000000, 15.000000)" fill="#444444" font-family="PingFangSC-Regular, PingFang SC" font-size="14" font-weight="normal">
                <text id="COS">
                    <tspan x="0" y="15">COS</tspan>
                </text>
            </g>
        </g>
        <g id="ShadowBasicRect18" transform="translate(121.000000, 413.000000)">
            <rect id="Rectangle" fill="#BBBBBB" fill-rule="nonzero" opacity="0.6" x="2" y="2" width="138" height="50.0000019"></rect>
            <rect id="Rectangle" stroke="#E5E5E5" fill="#FFFFFF" fill-rule="nonzero" x="0" y="0" width="138" height="50.0000019"></rect>
            <path d="M36,38 C28.8,38 23,32.2 23,25 C23,17.8 28.8,12 36,12 C42.5,12 47.9,16.8 48.8,23 L50.8,23 C49.9,15.7 43.6,10 36,10 C27.7,10 21,16.7 21,25 C21,33.3 27.7,40 36,40 C43.6,40 49.9,34.3 50.9,27 L48.9,27 C47.9,33.2 42.5,38 36,38 Z M43,25.2 L43,21 L40.3,19.4 L38.3,20.6 L40.7,22 L36,24.7 L31.3,22 L33.7,20.6 L31.7,19.4 L29,21 L29,25.2 L31,26.4 L31,24.2 L35,26.5 L35,30.2 L33,29 L33,31.3 L36,33 L39,31.3 L39,29 L37,30.1 L37,26.4 L41,24.1 L41,26.3 L43,25.2 Z" id="Shape-Copy" fill="#00A4FF" fill-rule="nonzero"></path>
            <g id="Group" transform="translate(62.000000, 15.000000)" fill="#444444" font-family="PingFangSC-Regular, PingFang SC" font-size="14" font-weight="normal">
                <text id="AS">
                    <tspan x="0" y="15">AS</tspan>
                </text>
            </g>
        </g>
        <g id="ShadowBasicRect19" transform="translate(274.000000, 413.000000)">
            <polygon id="Rectangle" fill="#BBBBBB" fill-rule="nonzero" opacity="0.6" points="2 2 163 2 163 52.0000019 2 52.0000019"></polygon>
            <polygon id="Rectangle" stroke="#E5E5E5" fill="#FFFFFF" fill-rule="nonzero" points="0 0 161 0 161 50.0000019 0 50.0000019"></polygon>
            <path d="M34.6,27.9999981 L34,27.9999981 C28.5,27.9999981 24,26.6999981 24,24.9999981 L24,18.6999981 C26.2,20.0999981 29.8,20.9999981 34,20.9999981 C38.2,20.9999981 41.9,20.0999981 44,18.7999981 L44,23.2999981 C44.6894,23.5057981 45.3588,23.7734981 46,24.0999981 L46,15.9999981 C46,13.1999981 40.6,10.9999981 34,10.9999981 C27.4,10.9999981 22,13.1999981 22,15.9999981 L22,33.9999981 L24,33.9999981 L24,27.7999981 C26,29.0999981 29.3,29.8999981 33.2,29.9999981 C33.5462,29.6757981 33.9137,29.3750981 34.3,29.0999981 C34.34,28.7194981 34.4413,28.3480981 34.6,27.9999981 Z M34,12.9999981 C39.5,12.9999981 44,14.2999981 44,15.9999981 C44,17.6999981 39.5,18.9999981 34,18.9999981 C28.5,18.9999981 24,17.5999981 24,15.9999981 C24,14.2999981 28.5,12.9999981 34,12.9999981 Z M24,33.9999981 L22,33.9999981 C22,36.4999981 26.4,38.5999981 32.2,38.8999981 C31.788,38.2401981 31.4525,37.5356981 31.2,36.7999981 C27.1,36.4999981 24,35.3999981 24,33.9999981 Z M47,31.0999981 L47,30.9999981 C47,28.2385981 44.7614,25.9999981 42,25.9999981 C39.2386,25.9999981 37,28.2385981 37,30.9999981 L37,31.0999981 C34.8544,31.6595981 33.5687,33.8526981 34.1283,35.9982981 C34.5882,37.7615981 36.1778,38.9939981 38,38.9999981 L46,38.9999981 C48.2064,38.9933981 49.9934,37.2063981 50,34.9999981 C49.9849,33.1752981 48.7598,31.5825981 47,31.0999981 Z M46,36.9999981 L38,36.9999981 C36.8968,36.9966981 36.0033,36.1031981 36,34.9999981 C35.9902,34.0924981 36.6149,33.3010981 37.5,33.0999981 L39,32.6999981 L39,30.8999981 C39.0483,29.2797981 40.3791,27.9932981 42,27.9999981 C43.6066,28.0282981 44.9172,29.2952981 45,30.8999981 L45,32.6999981 L46.5,33.0999981 C47.3851,33.3010981 48.0098,34.0924981 48,34.9999981 C47.9967,36.1031981 47.1032,36.9966981 46,36.9999981 Z" id="Shape" fill="#00A4FF" fill-rule="nonzero"></path>
            <g id="Group" transform="translate(62.000000, 15.000000)" fill="#444444" font-family="PingFangSC-Regular, PingFang SC" font-size="14" font-weight="normal">
                <text id="TencentDB">
                    <tspan x="0" y="15">TencentDB</tspan>
                </text>
            </g>
        </g>
        <g id="ShadowBasicRect20" transform="translate(580.000000, 352.000000)">
            <rect id="Rectangle" fill="#BBBBBB" fill-rule="nonzero" opacity="0.6" x="2" y="2" width="138" height="50"></rect>
            <rect id="Rectangle" stroke="#E5E5E5" fill="#FFFFFF" fill-rule="nonzero" x="0" y="0" width="138" height="50"></rect>
            <path d="M40.0378271,23.0017554 C38.9332271,23.0017554 38.0378271,23.8971554 38.0378271,25.0017554 C38.0378271,26.1063554 38.9332271,27.0017554 40.0378271,27.0017554 C41.1424271,27.0017554 42.0378271,26.1063554 42.0378271,25.0017554 C42.0378271,23.8971554 41.1424271,23.0017554 40.0378271,23.0017554 Z M36.0378271,38.0017554 C28.8581271,38.0101554 23.0310171,32.1966554 23.0226071,25.0169554 C23.0141971,17.8372954 28.8276671,12.0101854 36.0073271,12.0017754 C42.4206271,11.9942554 47.8811271,16.6648354 48.8678271,23.0017554 L50.8678271,23.0017554 C49.7632271,14.7914554 42.2120271,9.03111719 34.0017271,10.1356854 C25.7914571,11.2402554 20.0311199,18.7914554 21.1356871,27.0017554 C22.2402571,35.2120554 29.7914571,40.9723554 38.0017271,39.8678554 C44.6989271,38.9668554 49.9668271,33.6989554 50.8678271,27.0017554 L48.8678271,27.0017554 C47.8829271,33.3272554 42.4395271,37.9942554 36.0378271,38.0017554 Z M36.0378271,21.0017554 L36.0378271,19.0017554 L30.0378271,19.0017554 L30.0378271,31.0017554 L36.0378271,31.0017554 L36.0378271,29.0017554 L32.0378271,29.0017554 L32.0378271,26.0017554 L36.0378271,26.0017554 L36.0378271,24.0017554 L32.0378271,24.0017554 L32.0378271,21.0017554 L36.0378271,21.0017554 Z M40.0378271,18.0017554 C38.9332271,18.0017554 38.0378271,18.8971854 38.0378271,20.0017554 C38.0378271,21.1063554 38.9332271,22.0017554 40.0378271,22.0017554 C41.1424271,22.0017554 42.0378271,21.1063554 42.0378271,20.0017554 C42.0378271,18.8971854 41.1424271,18.0017554 40.0378271,18.0017554 Z M40.0378271,28.0017554 C38.9332271,28.0017554 38.0378271,28.8971554 38.0378271,30.0017554 C38.0378271,31.1063554 38.9332271,32.0017554 40.0378271,32.0017554 C41.1424271,32.0017554 42.0378271,31.1063554 42.0378271,30.0017554 C42.0378271,28.8971554 41.1424271,28.0017554 40.0378271,28.0017554 Z" id="_复合路径_" fill="#00A4FF" fill-rule="nonzero"></path>
            <g id="Group" transform="translate(62.000000, 15.000000)" fill="#444444" font-family="PingFangSC-Regular, PingFang SC" font-size="14" font-weight="normal">
                <text id="CLB">
                    <tspan x="0" y="15">CLB</tspan>
                </text>
            </g>
        </g>
        <g id="RectEndPoint21" transform="translate(450.000000, 413.000000)">
            <polygon id="Rectangle" fill="#BBBBBB" fill-rule="nonzero" opacity="0.6" points="2 2 117 2 117 52 2 52"></polygon>
            <polygon id="Rectangle" stroke="#E5E5E5" fill="#FFFFFF" fill-rule="nonzero" points="0 0 115 0 115 50 0 50"></polygon>
            <g id="Group" transform="translate(20.000000, 15.000000)" fill="#444444" font-family="PingFangSC-Regular, PingFang SC" font-size="14" font-weight="normal">
                <text id="...">
                    <tspan x="0" y="15">...</tspan>
                </text>
            </g>
        </g>
        <g id="RectEndPoint22" transform="translate(581.000000, 413.000000)">
            <rect id="Rectangle" fill="#BBBBBB" fill-rule="nonzero" opacity="0.6" x="2" y="2" width="138" height="50"></rect>
            <rect id="Rectangle" stroke="#E5E5E5" fill="#FFFFFF" fill-rule="nonzero" x="0" y="0" width="138" height="50"></rect>
            <g id="Group" transform="translate(20.000000, 15.000000)" fill="#444444" font-family="PingFangSC-Regular, PingFang SC" font-size="14" font-weight="normal">
                <text id="更多腾讯云产品">
                    <tspan x="0" y="15">更多腾讯云产品</tspan>
                </text>
            </g>
        </g>
        <g id="Group" transform="translate(449.000000, 362.000000)" fill="#00A4FF" fill-rule="nonzero">
            <g id="图层_1">
                <g id="Group">
                    <polygon id="Path" points="19 15.84 14 18.7 9 15.84 9 15.83 7 14.69 7 17 14 21 21 17 21 14.69 19 15.83"></polygon>
                    <path d="M14,7 L7,11 L7,13 L9,14.14 L14,17 L19,14.14 L21,13 L21,11 L14,7 Z M14,14.7 L9.28,12 L14,9.3 L18.72,12 L14,14.7 Z" id="Shape"></path>
                    <g id="_编组_">
                        <polygon id="Path" points="26 22.84 14 29.7 2 22.84 2 9.16 14 2.3 26 9.16 26 9.14 28 8 14 0 0 8 0 24 14 32 28 24 28 12 26 13.14"></polygon>
                    </g>
                    <polygon id="Path" points="19 19.84 14 22.7 9 19.84 9 19.83 7 18.69 7 21 14 25 21 21 21 18.69 19 19.83"></polygon>
                </g>
            </g>
        </g>
    </g>
</svg>