<?xml version="1.0" encoding="UTF-8"?>
<svg width="48px" height="48px" viewBox="0 0 48 48" version="1.1" xmlns="http://www.w3.org/2000/svg" xmlns:xlink="http://www.w3.org/1999/xlink">
    <!-- Generator: Sketch 52.6 (67491) - http://www.bohemiancoding.com/sketch -->
    <title>免费幕布-48px</title>
    <desc>Created with Sketch.</desc>
    <g id="免费幕布-48px" stroke="none" stroke-width="1" fill="none" fill-rule="evenodd">
        <rect id="Rectangle-Copy" fill="#444444" opacity="0" x="0" y="0" width="48" height="48"></rect>
        <g id="免费幕布-48x48-01" transform="translate(0.000000, 3.000000)" fill-rule="nonzero">
            <rect id="Rectangle-67" fill="#334966" x="0" y="0" width="48" height="2"></rect>
            <rect id="Rectangle-67-Copy" fill="#334966" x="0" y="30" width="48" height="2"></rect>
            <polygon id="Combined-Shape" fill="#334966" points="23 40 23 36 10 36 10 34 38 34 38 36 25 36 25 40 28 40 28 42 20 42 20 40"></polygon>
            <rect id="Rectangle-68" fill="#334966" x="2" y="0" width="2" height="32"></rect>
            <rect id="Rectangle-68-Copy" fill="#334966" x="44" y="0" width="2" height="32"></rect>
            <g id="Group" transform="translate(6.000000, 7.000000)" fill="#00A4FF">
                <rect id="Rectangle-path" x="13" y="6" width="2" height="2"></rect>
                <path d="M0,0 L0,18 L36,18 L36,0 L0,0 Z M9,6 L5,6 L5,8 L9,8 L9,10 L5,10 L5,14 L3,14 L3,4 L9,4 L9,6 Z M17,10 L16,10 L16,14 L14,14 L14,10 L13,10 L13,14 L11,14 L11,4 L17,4 L17,10 Z M25,6 L21,6 L21,8 L25,8 L25,10 L21,10 L21,12 L25,12 L25,14 L19,14 L19,4 L25,4 L25,6 Z M33,6 L29,6 L29,8 L33,8 L33,10 L29,10 L29,12 L33,12 L33,14 L27,14 L27,4 L33,4 L33,6 Z" id="Shape"></path>
            </g>
        </g>
    </g>
</svg>