<?xml version="1.0" encoding="UTF-8"?>
<svg width="48px" height="48px" viewBox="0 0 48 48" version="1.1" xmlns="http://www.w3.org/2000/svg" xmlns:xlink="http://www.w3.org/1999/xlink">
    <!-- Generator: Sketch 52.6 (67491) - http://www.bohemiancoding.com/sketch -->
    <title>便捷个性化-48px</title>
    <desc>Created with Sketch.</desc>
    <g id="便捷个性化-48px" stroke="none" stroke-width="1" fill="none" fill-rule="evenodd">
        <rect id="Rectangle-Copy" fill="#444444" opacity="0" x="0" y="0" width="48" height="48"></rect>
        <g id="Group">
            <circle id="Oval-7" stroke="#334966" stroke-width="2" cx="24" cy="24" r="23"></circle>
            <path d="M8,24.969258 L10.0044221,24.969258 C10.4938575,31.9042321 16.034284,37.4446585 22.969258,37.934094 L22.969258,39.938516 C14.9292438,39.4427138 8.49580222,33.0092722 8,24.969258 Z M8,22.969258 C8.49580222,14.9292438 14.9292438,8.49580222 22.969258,8 L22.969258,10.0044221 C16.034284,10.4938575 10.4938575,16.034284 10.0044221,22.969258 L8,22.969258 Z M39.938516,22.969258 L37.934094,22.969258 C37.4446585,16.034284 31.9042321,10.4938575 24.969258,10.0044221 L24.969258,8 C33.0092722,8.49580222 39.4427138,14.9292438 39.938516,22.969258 Z M39.938516,24.969258 C39.4427138,33.0092722 33.0092722,39.4427138 24.969258,39.938516 L24.969258,37.934094 C31.9042321,37.4446585 37.4446585,31.9042321 37.934094,24.969258 L39.938516,24.969258 Z" id="Combined-Shape" fill="#334966" fill-rule="nonzero"></path>
            <circle id="Oval-46" fill="#00A4FF" cx="24" cy="24" r="8"></circle>
        </g>
    </g>
</svg>