<?xml version="1.0" encoding="UTF-8"?>
<svg width="48px" height="48px" viewBox="0 0 48 48" version="1.1" xmlns="http://www.w3.org/2000/svg" xmlns:xlink="http://www.w3.org/1999/xlink">
    <!-- Generator: Sketch 59.1 (86144) - https://sketch.com -->
    <title>成本开销</title>
    <desc>Created with Sketch.</desc>
    <g id="成本开销" stroke="none" stroke-width="1" fill="none" fill-rule="evenodd">
        <circle id="Oval-7" stroke="#334966" stroke-width="2" cx="24" cy="24" r="23"></circle>
        <circle id="Oval-31" stroke="#00A4FF" stroke-width="2" fill="#00A4FF" cx="24" cy="24" r="13"></circle>
        <circle id="Oval-31-Copy" stroke="#334966" stroke-width="2" cx="24" cy="24" r="15"></circle>
        <path d="M21,17 L23.857,22 L24.143,22 L27,17 L29,17 L26.143,22 L29,22 L29,24 L25,24 L25,26 L29,26 L29,28 L25,28 L25,31 L23,31 L23,28 L19,28 L19,26 L23,26 L23,24 L19,24 L19,22 L21.857,22 L19,17 L21,17 Z" id="Combined-Shape" fill="#FFFFFF"></path>
    </g>
</svg>