<?xml version="1.0" encoding="utf-8"?>
<!-- Generator: Adobe Illustrator 23.0.3, SVG Export Plug-In . SVG Version: 6.00 Build 0)  -->
<svg version="1.1" id="svgwrapper_svg" xmlns="http://www.w3.org/2000/svg" xmlns:xlink="http://www.w3.org/1999/xlink" x="0px"
	 y="0px" width="830px" height="254px" viewBox="0 0 830 254" style="enable-background:new 0 0 830 254;" xml:space="preserve">
<rect y="0.1" style="fill:#EAEBEC;" width="395" height="254"/>
<g transform="translate(0 0)">
	<g>
		<g>
			<path style="fill:#00A3FF;" d="M39.2,24.2c-1.1-1.1-2.6-1.7-4.1-1.7c-1.3,0-2.6,0.5-3.6,1.3c-0.5,0.4-0.9,0.8-1.5,1.4l-9,8.7
				C21.5,34,22,34,22.6,34h12.9c1.4-0.1,2.7-0.6,3.6-1.6C41.4,30.2,41.5,26.5,39.2,24.2C39.3,24.2,39.3,24.2,39.2,24.2L39.2,24.2z
				 M37.6,30.7c-0.7,0.6-1.6,1-2.5,1h-8.6l5-4.9c0.2-0.2,0.7-0.7,1.2-1.1c0.7-0.6,1.6-1,2.5-1c1.9,0,3.5,1.6,3.5,3.5
				C38.6,29.2,38.2,30.1,37.6,30.7L37.6,30.7z"/>
			<path style="fill:#00C5D9;" d="M25.2,23.6c-1-0.8-2.2-1.2-3.5-1.2c-3.2,0-5.8,2.6-5.7,5.8c0,1.5,0.6,3,1.7,4.1
				c0.9,0.9,2,1.4,3.3,1.6l2.2-2.2h-1.3c-0.9,0-1.8-0.4-2.5-1c-1.4-1.4-1.4-3.6,0-5c0.7-0.7,1.5-1,2.5-1c0.9,0,1.7,0.4,2.4,1
				c0.5,0.4,1.5,1.3,1.9,1.7l1.6-1.6C26.9,25.1,25.9,24.1,25.2,23.6z"/>
			<path style="fill:#006EFF;" d="M35.7,21.1c-1.4-4-5.8-6.1-9.9-4.7c-2.7,0.9-4.6,3.3-5,6.1c0.3-0.1,0.7-0.1,1-0.1
				c0.4,0,0.9,0,1.3,0.1l0,0c0.6-3,3.6-4.8,6.5-4.2c1.7,0.4,3.1,1.5,3.8,3c0.7-0.2,1.4-0.3,2.2-0.2C35.7,21.3,35.7,21.2,35.7,21.1z"
				/>
		</g>
		<g>
			<path d="M69.3,19h-7.3v1.1h2.2V24h-2.5v1h2.5v6.5h1.2V25h2.8v6.4h2.2v-1h-1L69.3,19z M65.3,23.9v-3.8h2.8V24L65.3,23.9z"/>
			<rect x="48.9" y="28.6" width="5.8" height="1.1"/>
			<path d="M45,26.6c0,1.6-0.1,3.2-0.5,4.7c0,0.1,0,0.1,0.1,0.1h1.1c0.3-1.4,0.4-2.9,0.3-4.3h1.5v3.3h-1c0,0-0.1,0-0.1,0.1l0.3,1
				h1.9V19.1H45V26.6z M46,26.1v-2.5h1.5v2.5L46,26.1z M47.5,20.1v2.5H46v-2.5L47.5,20.1z"/>
			<path d="M55.1,23.4h1.4v-1h-4.2c0.1-0.3,0.2-0.7,0.3-1h3.5v-1h-1l0.4-1.4c0-0.1,0-0.1-0.1-0.1h-0.9l-0.4,1.4H53
				c0.1-0.5,0.2-1.2,0.3-1.9c0-0.1,0-0.1-0.1-0.1h-1c-0.1,0.7-0.2,1.4-0.4,2h-0.6L50.8,19h-0.9c0,0-0.1,0-0.1,0.1l0.4,1.3h-1v1h2.4
				c-0.1,0.3-0.2,0.7-0.4,1h-2.3v1h1.7c-0.4,0.6-1,1.2-1.7,1.6v1c0,0.1,0,0.1,0.2,0c0.3-0.2,0.7-0.4,1-0.6h4v1.4h-3.2L51,26
				c0,0,0-0.1-0.1-0.1l0,0h-1l-0.1,1.8c0,0,0,0.1,0.1,0.1l0,0h5.4v2.6h-2.5c0,0-0.1,0-0.1,0.1l0.3,1h3.4v-4.6h-1.3V25
				c0.4,0.4,0.9,0.8,1.5,1.1c0.2,0.1,0.2,0,0.2,0V25C56.1,24.6,55.5,24,55.1,23.4z M53.8,23.4c0.2,0.4,0.5,0.8,0.8,1.1h-3.5
				c0.3-0.3,0.6-0.7,0.8-1.1H53.8z"/>
			<path d="M62.7,27.8l-2,1.5v-6.9H58v1.2h1.6v6.6l-0.6,0.5l0.6,0.9l3.2-2.4v-1.2c0,0,0-0.1,0-0.1C62.8,27.8,62.7,27.8,62.7,27.8
				C62.7,27.8,62.7,27.8,62.7,27.8z"/>
			<path d="M59.7,21.4H61c0,0,0-0.1,0-0.1c0,0,0,0,0,0l-1.6-2.5h-1.2c0,0-0.1,0-0.1,0c0,0,0,0,0,0.1L59.7,21.4z"/>
			<rect x="72.8" y="19.3" width="9.2" height="1.2"/>
			<path d="M76.1,24.9h7.2v-1.2H71.5v1.2h3.3l-2.4,6.3c0,0,0,0.1,0,0.1h10.2c0,0,0.1,0,0.1-0.1c0,0,0,0,0,0l0,0l-1.5-4h-1.3
				c0,0-0.1,0-0.1,0.1c0,0,0,0,0,0l1.1,2.8h-6.8L76.1,24.9z"/>
		</g>
	</g>
</g>
<g id="Link8" transform="translate(0,0)">
	<path style="fill:none;stroke:#888888;" d="M156,76h34l0,0h34"/>
	<g transform="translate(-0.5, 0)">
		<polygon style="fill-rule:evenodd;clip-rule:evenodd;fill:#888888;" points="219.5,72 225.5,76 219.5,80 		"/>
	</g>
</g>
<g id="Link8_1_" transform="translate(0,0)">
	<path style="fill:none;stroke:#888888;" d="M156,144h34l0,0h34"/>
	<g transform="translate(-0.5, 0)">
		<polygon style="fill-rule:evenodd;clip-rule:evenodd;fill:#888888;" points="219.5,140 225.5,144 219.5,148 		"/>
	</g>
</g>
<g id="Link8_3_" transform="translate(0,0)">
	<path style="fill:none;stroke:#888888;" d="M395,144h34l0,0h34"/>
	<g transform="translate(-0.5, 0)">
		<polygon style="fill-rule:evenodd;clip-rule:evenodd;fill:#888888;" points="458.5,140 464.5,144 458.5,148 		"/>
	</g>
</g>
<g id="Link8_4_" transform="translate(0,0)">
	<path style="fill:none;stroke:#888888;" d="M608,144h34l0,0h34"/>
	<g transform="translate(-0.5, 0)">
		<polygon style="fill-rule:evenodd;clip-rule:evenodd;fill:#888888;" points="671.5,140 677.5,144 671.5,148 		"/>
	</g>
</g>
<g id="Link8_2_" transform="translate(0,0)">
	<path style="fill:none;stroke:#888888;" d="M156,212h34l0,0h34"/>
	<g transform="translate(-0.5, 0)">
		<polygon style="fill-rule:evenodd;clip-rule:evenodd;fill:#888888;" points="219.5,208 225.5,212 219.5,216 		"/>
	</g>
</g>
<g id="ShadowBasicRect1_5_" transform="translate(661,106)">
	<rect x="-643" y="-54" style="opacity:0.6;fill:#BBBBBB;enable-background:new    ;" width="138" height="50"/>
	<g>
		<rect x="-644.5" y="-55.5" style="fill:#FFFFFF;" width="137" height="49"/>
		<path style="fill:#E5E5E5;" d="M-508-55v48h-136v-48H-508 M-507-56h-138v50h138V-56L-507-56z"/>
	</g>
	<g transform="translate(20 9)">
		<g>
			<path style="fill:#00A4FF;" d="M-629-27c-7.2,0-13-5.8-13-13c0-7.2,5.8-13,13-13c6.4,0,11.9,4.7,12.9,11h2
				c-1.1-8.2-8.7-14-16.9-12.9c-8.2,1.1-14,8.7-12.9,16.9c1.1,8.2,8.7,14,16.9,12.9c6.7-0.9,12-6.2,12.9-12.9h-2
				C-617.2-31.7-622.6-27-629-27z M-622-44l-7-4l-7,4v8l3.2,1.8c0.2-0.6,0.5-1.2,1-1.7l-2.2-1.3v-3.7l5,2.9l5-2.9v3.7l-4.1,2.4
				c-1-0.5-2.2-0.1-2.7,0.9s-0.1,2.2,0.9,2.7s2.2,0.1,2.7-0.9c0.1-0.3,0.2-0.6,0.2-0.9v-0.1l5-2.9V-44z M-629-40.3l-4.7-2.7l4.7-2.7
				l4.7,2.7L-629-40.3z"/>
		</g>
		<g style="enable-background:new    ;">
			<path style="fill:#444444;" d="M-589.7-41.7v1h-6.7c-1.3,2.6-2.4,4.5-3.4,5.5c2.5-0.1,5-0.4,7.5-0.7c-0.5-0.9-1.1-1.8-1.7-2.8
				l0.8-0.5c1.3,1.9,2.3,3.6,3,5.1l-0.9,0.6c-0.2-0.5-0.5-1-0.7-1.5c-2.8,0.4-5.9,0.6-9.3,0.9l-0.3-1c0.1,0,0.2-0.1,0.2-0.1
				c0.9-0.7,2.1-2.5,3.6-5.5h-4.7v-1H-589.7z M-590.9-45.6v1h-10v-1H-590.9z"/>
			<path style="fill:#444444;" d="M-587.5-33.6l-0.8-0.7c0.6-1.3,0.8-2.9,0.9-4.8v-6.7h4.1v10.9c0,0.8-0.4,1.3-1.2,1.3h-1.1
				l-0.2-0.9c0.4,0,0.7,0.1,1.1,0.1c0.4,0,0.5-0.3,0.5-0.8v-3.2h-2.3C-586.5-36.4-586.9-34.8-587.5-33.6z M-584.2-44.9h-2.3v2.4h2.3
				V-44.9z M-586.5-39.3h2.3v-2.3h-2.3V-39.3z M-581.1-33.6h-1v-12.3h5.7c0,1.7-0.1,2.9-0.3,3.4c-0.2,0.6-0.7,0.9-1.6,0.9h-1.1
				l-0.3-0.9c0.2,0,0.5,0,0.9,0c0.3,0,0.6,0,0.7-0.1c0.2-0.1,0.3-0.2,0.4-0.4c0.1-0.3,0.2-1,0.2-2.1h-3.7v4.2h4.8v0.9
				c-0.3,1.4-0.7,2.7-1.4,3.7c0.6,0.6,1.4,1.2,2.2,1.7l-0.5,0.9c-0.9-0.5-1.7-1.1-2.3-1.7c-0.6,0.7-1.3,1.3-2.2,1.7l-0.5-0.8
				c0.8-0.4,1.5-1,2-1.7c-0.9-1.1-1.5-2.3-1.8-3.7h-0.3V-33.6z M-578.4-36.9c0.5-0.8,0.9-1.8,1.1-2.9h-2.7
				C-579.6-38.7-579.1-37.7-578.4-36.9z"/>
			<path style="fill:#444444;" d="M-569.2-46.3c-0.2,0.4-0.3,0.7-0.5,1.1h6.1v0.8c-0.9,1-2,1.9-3.3,2.6c1.6,0.7,3.3,1.1,5.3,1.3
				l-0.5,0.9c-2.2-0.3-4.2-0.8-5.9-1.7c-1.7,0.8-3.7,1.4-6,1.7l-0.5-1c2-0.3,3.8-0.7,5.4-1.3c-0.8-0.5-1.5-1-2.2-1.6
				c-0.5,0.5-1.1,0.9-1.8,1.3l-0.6-0.8c1.7-1,2.8-2.1,3.4-3.5L-569.2-46.3z M-567.8-40.3c0,0.6-0.1,1.1-0.1,1.6h4.9
				c0,2.4-0.2,3.8-0.6,4.2c-0.4,0.5-1.1,0.7-2.1,0.7c-0.4,0-1,0-1.6-0.1l-0.3-0.9l1.7,0.1c0.8,0,1.4-0.2,1.6-0.5
				c0.2-0.3,0.3-1.2,0.4-2.6h-4.1c-0.1,0.4-0.3,0.7-0.4,1c-0.7,1.3-2.4,2.3-4.9,3.1l-0.7-0.8c2.3-0.7,3.8-1.5,4.6-2.5
				c0.2-0.3,0.3-0.5,0.4-0.8h-4.2v-0.9h4.5c0.1-0.5,0.2-1,0.2-1.6H-567.8z M-565-44.3h-5.4l-0.2,0.2c0.8,0.7,1.7,1.3,2.6,1.8
				C-566.8-42.9-565.9-43.6-565-44.3z"/>
			<path style="fill:#444444;" d="M-555.5-41.1c0.3-0.4,0.5-0.7,0.6-1.1l1,0.1c-0.1,0.4-0.3,0.7-0.5,1h3.6c-0.2-0.3-0.4-0.7-0.6-1
				l0.9-0.3c0.3,0.4,0.5,0.8,0.8,1.2h1.9v0.9h-3.8c0.9,0.8,2.3,1.5,4.1,2l-0.4,0.9c-0.4-0.1-0.7-0.2-1-0.3v4.1h-0.9v-0.6h-2.6v0.6
				h-0.9V-38h3.7c-1.3-0.6-2.4-1.4-3.1-2.2h-2.4c-0.8,0.9-1.8,1.6-3.2,2.2h3.5v4.4h-0.9v-0.6h-2.4v0.6h-0.9v-4.1
				c-0.4,0.1-0.8,0.3-1.1,0.4l-0.5-0.8c1.8-0.5,3.2-1.2,4.1-2.1h-3.9v-0.9H-555.5z M-554.8-45.9v3.4h-4.3v-3.4H-554.8z M-555.7-45
				h-2.4v1.7h2.4V-45z M-555.6-35.1v-2.1h-2.4v2.1H-555.6z M-548.9-45.9v3.4h-4.4v-3.4H-548.9z M-549.8-35.1v-2.1h-2.6v2.1H-549.8z
				 M-549.8-45h-2.5v1.7h2.5V-45z"/>
		</g>
	</g>
</g>
<g id="ShadowBasicRect3_3_" transform="translate(435,178)">
	<rect x="-206" y="-58" style="opacity:0.6;fill:#BBBBBB;enable-background:new    ;" width="149.9" height="50"/>
	<g>
		<rect x="-207.5" y="-59.5" style="fill:#FFFFFF;" width="148.9" height="49"/>
		<path style="fill:#E5E5E5;" d="M-59.1-59v48H-207v-48H-59.1 M-58.1-60H-208v50h149.9V-60L-58.1-60z"/>
	</g>
	<g transform="translate(20 9)">
		<g>
			<g>
				<path style="fill:#00A4FF;" d="M-192.1-30.6c-7.2,0-13-5.8-13-13s5.8-13,13-13c6.5,0,11.9,4.8,12.8,11h2c-1-7.3-7.2-13-14.9-13
					c-8.3,0-15,6.7-15,15s6.7,15,15,15c7.6,0,13.9-5.7,14.9-13h-2C-180.3-35.3-185.7-30.6-192.1-30.6z"/>
				<g>
					<path style="fill:#00A4FF;stroke:#00A4FF;stroke-width:0.25;stroke-miterlimit:10;" d="M-197.1-49.3h1.7v11.4h-1.7V-49.3z"/>
					<path style="fill:#00A4FF;stroke:#00A4FF;stroke-width:0.25;stroke-miterlimit:10;" d="M-193-49.3h4c0.4,0,0.8,0,1.3,0.1
						c0.5,0.1,0.9,0.4,1.2,0.7c0.4,0.3,0.7,0.7,0.8,1.1c0.2,0.5,0.4,1.1,0.3,1.6c0,0.8-0.3,1.7-0.9,2.3c-0.6,0.8-1.6,1.2-2.6,1.1
						h-2.5v4.5h-1.6V-49.3z M-191.3-43.9h2.5c0.5,0,1.1-0.2,1.4-0.6c0.3-0.4,0.4-0.8,0.4-1.3c0-0.3-0.1-0.7-0.2-1
						c-0.1-0.2-0.3-0.4-0.5-0.6c-0.4-0.2-0.8-0.3-1.2-0.3h-2.4C-191.3-47.7-191.3-43.9-191.3-43.9z"/>
				</g>
			</g>
		</g>
		<g style="enable-background:new    ;">
			<path style="fill:#444444;" d="M-164.2-43.6h3c0,2.4-0.1,3.9-0.2,4.6c-0.2,0.8-0.9,1.2-2.1,1.3c-0.3,0-0.7,0-1-0.1l-0.3-0.9
				c0.3,0,0.7,0.1,1,0.1c0.8,0,1.3-0.3,1.4-0.8c0.1-0.5,0.2-1.7,0.2-3.3h-3.1l0.4-4h2.5V-49h-2.8v-0.9h3.7v4h-2.6L-164.2-43.6z
				 M-156-48.2c0.4-0.8,0.8-1.5,1.1-2.4l1,0.3c-0.3,0.8-0.7,1.4-1.1,2h1.8v5.6h-3v1.4h3.6v0.9h-3.6v2.7h-1v-2.7h-3.5v-0.9h3.5v-1.4
				h-2.9v-5.6H-156z M-157.4-48.6l-0.9,0.4c-0.3-0.7-0.7-1.4-1.1-1.9l0.9-0.3C-158-49.9-157.7-49.3-157.4-48.6z M-157.2-45.8v-1.6
				h-2v1.6H-157.2z M-157.2-44.9h-2v1.5h2V-44.9z M-156.2-45.8h2.1v-1.6h-2.1V-45.8z M-154.1-44.9h-2.1v1.5h2.1V-44.9z"/>
			<path style="fill:#444444;" d="M-150.2-47.7c0,1.4-0.2,2.7-0.5,4l-0.8-0.2c0.3-1.2,0.5-2.5,0.5-3.8L-150.2-47.7z M-148.4-50.4
				v12.7h-1v-12.7H-148.4z M-146.6-45.7c0.5-1.2,0.8-2.5,0.8-3.9l0.9,0.1c0,0.6-0.1,1.1-0.2,1.7h2v-2.6h1v2.6h3.1v1h-3.1v3.4h2.8v1
				h-2.8v3.4h3.4v1h-8.5v-1h4v-3.4h-3.2v-1h3.2v-3.4h-2.2c-0.3,1-0.6,2-1.1,2.8l-0.7-0.7c0.2-0.3,0.3-0.6,0.4-0.9l-0.7,0.2
				c-0.2-0.9-0.5-1.7-0.8-2.5l0.7-0.2C-147.1-47.3-146.9-46.6-146.6-45.7z"/>
			<path style="fill:#444444;" d="M-132.5-49.9c-1,2.9-2.4,5.2-4.1,6.7l-0.8-0.7c1.8-1.6,3.1-3.7,4-6.4L-132.5-49.9z M-125.8-38
				l-0.9,0.4c-0.2-0.5-0.4-0.9-0.6-1.3c-2.5,0.4-5.2,0.7-8.3,0.9l-0.2-1c1.1-0.6,2.5-2.8,4.2-6.6l1,0.3c-1.2,2.7-2.4,4.7-3.6,6.3
				c2.3-0.1,4.4-0.4,6.4-0.7c-0.5-1-1.1-1.9-1.7-2.8l0.9-0.3C-127.5-41.4-126.6-39.7-125.8-38z M-124.6-44l-0.7,0.8
				c-2.1-1.7-3.5-4-4.4-6.7l0.9-0.5C-128-47.8-126.6-45.7-124.6-44z"/>
			<path style="fill:#444444;" d="M-114.1-37.7l-0.3-1l1.3,0c0.4,0,0.6-0.2,0.6-0.6v-9.7h-9.2v11.3h-1v-12.2h11.2V-39
				c0,0.9-0.4,1.3-1.2,1.3H-114.1z M-118.7-42.8c-0.5,1.4-1.1,2.5-1.8,3.5l-0.6-0.8c0.7-1,1.3-2.3,1.8-3.7c-0.7-0.9-1.3-1.7-2-2.5
				l0.6-0.6c0.5,0.5,1.1,1.2,1.7,2c0.3-1,0.5-2,0.7-3.2l0.9,0.2c-0.2,1.4-0.5,2.8-0.9,4c0.5,0.7,1.1,1.5,1.7,2.4l-0.7,0.7
				C-117.9-41.5-118.3-42.2-118.7-42.8z M-114.7-42.5c-0.6,1.4-1.2,2.5-2,3.5l-0.6-0.8c0.8-1.1,1.4-2.3,2-3.7
				c-0.6-1-1.3-1.8-1.9-2.6l0.6-0.6c0.5,0.6,1.1,1.3,1.7,2.1c0.3-1.1,0.5-2.2,0.7-3.4l1,0.2c-0.3,1.6-0.6,3-1,4.2
				c0.5,0.8,1.1,1.7,1.7,2.7l-0.7,0.7C-113.8-41-114.3-41.7-114.7-42.5z"/>
			<path style="fill:#444444;" d="M-107.8-49v10h-1.1v-10H-107.8z"/>
			<path style="fill:#444444;" d="M-101.6-49c2.3,0,3.4,1,3.4,2.9c0,2-1.2,3-3.5,3h-2.9v4.1h-1.1v-10H-101.6z M-104.5-44.1h2.9
				c0.8,0,1.4-0.2,1.8-0.5c0.4-0.3,0.6-0.8,0.6-1.5c0-0.7-0.2-1.2-0.6-1.5c-0.4-0.3-1-0.5-1.8-0.5h-2.9V-44.1z"/>
		</g>
	</g>
</g>
<g id="ShadowBasicRect3_5_" transform="translate(435,178)">
	<rect x="33" y="-58" style="opacity:0.6;fill:#BBBBBB;enable-background:new    ;" width="139.9" height="50"/>
	<g>
		<rect x="31.5" y="-59.5" style="fill:#FFFFFF;" width="138.9" height="49"/>
		<path style="fill:#E5E5E5;" d="M169.9-59v48H32v-48H169.9 M170.9-60H31v50h139.9V-60L170.9-60z"/>
	</g>
	<g transform="translate(20 9)">
		<g style="enable-background:new    ;">
			<path style="fill:#444444;" d="M53-47.6v-2.9h1v2.9h4v-2.9h1v2.9h2.6v1H59v3.4h3.2v1H49.8v-1H53v-3.4h-2.5v-1H53z M54.8-41.1
				c-1.2,1.3-2.6,2.5-4.3,3.5l-0.7-0.9c1.7-0.9,3.1-2,4.3-3.2L54.8-41.1z M58-43.2v-3.4h-4v3.4H58z M62.2-38.4l-0.8,0.8
				c-1-1.1-2.4-2.2-4.1-3.4l0.7-0.7C59.7-40.6,61.1-39.5,62.2-38.4z"/>
			<path style="fill:#444444;" d="M69.8-41.1v-0.5c0.9-0.3,1.9-0.7,3.1-1.2H65v-0.9h9.8v0.7c-1.2,0.5-2.5,1.1-4.1,1.7v0.3h5.6v0.9
				h-5.6v1.3c0,0.8-0.4,1.3-1.2,1.3h-2l-0.3-0.9c0.8,0,1.4,0.1,1.8,0.1c0.4,0,0.6-0.2,0.6-0.7v-1h-6.1v-0.9H69.8z M70.5-49.3h5.6v1
				H63.9v-1h5.4c-0.2-0.4-0.4-0.7-0.7-1l1.1-0.2C70.1-50.1,70.3-49.7,70.5-49.3z M74.2-47.5v2.8h-8.4v-2.8H74.2z M73.2-46.6h-6.5
				v1.1h6.5V-46.6z"/>
			<path style="fill:#444444;" d="M80.7-44.9L80-44.1c-0.5-0.6-1.3-1.3-2.2-2.1l0.7-0.7C79.4-46.2,80.1-45.5,80.7-44.9z M80.8-42.8
				c-0.6,1.8-1.2,3.5-1.8,5l-0.9-0.4c0.7-1.6,1.3-3.3,1.9-5L80.8-42.8z M81-48.4l-0.7,0.7c-0.5-0.6-1.2-1.2-2.2-1.8l0.7-0.7
				C79.7-49.6,80.4-49,81-48.4z M83.4-44c-0.1,1.8-0.2,3.2-0.5,4c-0.3,0.9-0.9,1.7-1.7,2.3l-0.6-0.8c0.7-0.5,1.1-1.2,1.4-1.9
				c0.3-0.7,0.4-1.9,0.5-3.6H83.4z M81.6-45.4c0.1,0,0.2-0.1,0.2-0.1c0.5-0.3,1.2-1.2,2-2.6h-2.5V-49h3.9c-0.2-0.5-0.4-1-0.6-1.4
				l1-0.2c0.2,0.5,0.4,1,0.6,1.6H90v0.9h-5.1c-0.7,1.2-1.2,2-1.7,2.6c1.6-0.1,3.2-0.2,4.8-0.4c-0.3-0.4-0.6-0.8-1-1.2l0.8-0.5
				c1,1.1,1.7,2.1,2.2,3l-0.8,0.6c-0.2-0.3-0.4-0.7-0.6-1.1c-2.1,0.2-4.3,0.4-6.7,0.6L81.6-45.4z M85.7-43.9v6.1h-1v-6.1H85.7z
				 M88.4-37.7c-0.8,0-1.2-0.4-1.2-1.1v-5.1h1v4.9c0,0.2,0.1,0.3,0.3,0.3H89c0.3,0,0.4-0.2,0.4-0.5c0.1-0.3,0.1-0.9,0.1-1.6l0.9,0.3
				c0,1.2-0.1,2-0.3,2.3c-0.2,0.3-0.5,0.4-1.1,0.4H88.4z"/>
			<path style="fill:#444444;" d="M104.3-46v0.8H91.7V-46H104.3z M102.9-44.6v3.6h-4.4v0.8h4.7v0.7h-4.7v0.8h5.8v0.8H91.7v-0.8h5.7
				v-0.8h-4.7v-0.7h4.7V-41h-4.3v-3.6H102.9z M102.6-50.2v3.5h-9.1v-3.5H102.6z M97.5-43.1v-0.9h-3.4v0.9H97.5z M97.5-42.5h-3.4v0.9
				h3.4V-42.5z M101.6-48.8v-0.8h-7.2v0.8H101.6z M101.6-48.2h-7.2v0.8h7.2V-48.2z M98.5-43.1h3.4v-0.9h-3.4V-43.1z M101.9-42.5
				h-3.4v0.9h3.4V-42.5z"/>
			<path style="fill:#444444;" d="M110.1-50.3c-0.2,0.5-0.4,1-0.6,1.4h7.8c0,3.5-0.1,5.7-0.2,6.6c-0.1,0.9-0.7,1.3-1.6,1.3
				c-0.2,0-0.5,0-0.9,0l-0.2-0.9c0.4,0,0.7,0.1,1,0.1c0.5,0,0.7-0.3,0.8-0.8c0.1-0.6,0.1-2.3,0.2-5.2h-7.3c-0.7,1.1-1.5,2.2-2.4,3
				l-0.7-0.8c1.3-1.2,2.4-2.8,3.2-4.8L110.1-50.3z M113.9-41.9h-5.1v2.6c0,0.4,0.2,0.6,0.7,0.6h6.7c0.3,0,0.5-0.2,0.7-0.4
				c0.1-0.2,0.2-0.8,0.3-1.7l1,0.3c-0.1,0.9-0.2,1.5-0.3,1.8c-0.2,0.6-0.6,0.8-1.3,0.9h-7.4c-0.9,0-1.3-0.4-1.3-1.2v-7.2h6.1V-41.9z
				 M112.9-42.9v-2.4h-4v2.4H112.9z"/>
		</g>
	</g>
</g>
<g id="ShadowBasicRect4_1_" transform="translate(661,178)">
	<rect x="-643" y="-58" style="opacity:0.6;fill:#BBBBBB;enable-background:new    ;" width="138" height="50"/>
	<g>
		<rect x="-644.5" y="-59.5" style="fill:#FFFFFF;" width="137" height="49"/>
		<path style="fill:#E5E5E5;" d="M-508-59v48h-136v-48H-508 M-507-60h-138v50h138V-60L-507-60z"/>
	</g>
	<g transform="translate(20 9)">
		<g>
			<path style="fill:#00A4FF;" d="M-629-31c-7.2,0-13-5.8-13-13c0-7.2,5.8-13,13-13c6.4,0,11.9,4.7,12.9,11h2
				c-1.1-8.2-8.7-14-16.9-12.9c-8.2,1.1-14,8.7-12.9,16.9c1.1,8.2,8.7,14,16.9,12.9c6.7-0.9,12-6.2,12.9-12.9h-2
				C-617.2-35.7-622.6-31-629-31z M-622-48l-7-4l-7,4v8l3.2,1.8c0.2-0.6,0.5-1.2,1-1.7l-2.2-1.3v-3.7l5,2.9l5-2.9v3.7l-4.1,2.4
				c-1-0.5-2.2-0.1-2.7,0.9s-0.1,2.2,0.9,2.7s2.2,0.1,2.7-0.9c0.1-0.3,0.2-0.6,0.2-0.9v-0.1l5-2.9V-48z M-629-44.3l-4.7-2.7l4.7-2.7
				l4.7,2.7L-629-44.3z"/>
		</g>
		<g style="enable-background:new    ;">
			<path style="fill:#444444;" d="M-589.7-45.7v1h-6.7c-1.3,2.6-2.4,4.5-3.4,5.5c2.5-0.1,5-0.4,7.5-0.7c-0.5-0.9-1.1-1.8-1.7-2.8
				l0.8-0.5c1.3,1.9,2.3,3.6,3,5.1l-0.9,0.6c-0.2-0.5-0.5-1-0.7-1.5c-2.8,0.4-5.9,0.6-9.3,0.9l-0.3-1c0.1,0,0.2-0.1,0.2-0.1
				c0.9-0.7,2.1-2.5,3.6-5.5h-4.7v-1H-589.7z M-590.9-49.6v1h-10v-1H-590.9z"/>
			<path style="fill:#444444;" d="M-587.5-37.6l-0.8-0.7c0.6-1.3,0.8-2.9,0.9-4.8v-6.7h4.1v10.9c0,0.8-0.4,1.3-1.2,1.3h-1.1
				l-0.2-0.9c0.4,0,0.7,0.1,1.1,0.1c0.4,0,0.5-0.3,0.5-0.8v-3.2h-2.3C-586.5-40.4-586.9-38.8-587.5-37.6z M-584.2-48.9h-2.3v2.4h2.3
				V-48.9z M-586.5-43.3h2.3v-2.3h-2.3V-43.3z M-581.1-37.6h-1v-12.3h5.7c0,1.7-0.1,2.9-0.3,3.4c-0.2,0.6-0.7,0.9-1.6,0.9h-1.1
				l-0.3-0.9c0.2,0,0.5,0,0.9,0c0.3,0,0.6,0,0.7-0.1c0.2-0.1,0.3-0.2,0.4-0.4c0.1-0.3,0.2-1,0.2-2.1h-3.7v4.2h4.8v0.9
				c-0.3,1.4-0.7,2.7-1.4,3.7c0.6,0.6,1.4,1.2,2.2,1.7l-0.5,0.9c-0.9-0.5-1.7-1.1-2.3-1.7c-0.6,0.7-1.3,1.3-2.2,1.7l-0.5-0.8
				c0.8-0.4,1.5-1,2-1.7c-0.9-1.1-1.5-2.3-1.8-3.7h-0.3V-37.6z M-578.4-40.9c0.5-0.8,0.9-1.8,1.1-2.9h-2.7
				C-579.6-42.7-579.1-41.7-578.4-40.9z"/>
			<path style="fill:#444444;" d="M-569.2-50.3c-0.2,0.4-0.3,0.7-0.5,1.1h6.1v0.8c-0.9,1-2,1.9-3.3,2.6c1.6,0.7,3.3,1.1,5.3,1.3
				l-0.5,0.9c-2.2-0.3-4.2-0.8-5.9-1.7c-1.7,0.8-3.7,1.4-6,1.7l-0.5-1c2-0.3,3.8-0.7,5.4-1.3c-0.8-0.5-1.5-1-2.2-1.6
				c-0.5,0.5-1.1,0.9-1.8,1.3l-0.6-0.8c1.7-1,2.8-2.1,3.4-3.5L-569.2-50.3z M-567.8-44.3c0,0.6-0.1,1.1-0.1,1.6h4.9
				c0,2.4-0.2,3.8-0.6,4.2c-0.4,0.5-1.1,0.7-2.1,0.7c-0.4,0-1,0-1.6-0.1l-0.3-0.9l1.7,0.1c0.8,0,1.4-0.2,1.6-0.5
				c0.2-0.3,0.3-1.2,0.4-2.6h-4.1c-0.1,0.4-0.3,0.7-0.4,1c-0.7,1.3-2.4,2.3-4.9,3.1l-0.7-0.8c2.3-0.7,3.8-1.5,4.6-2.5
				c0.2-0.3,0.3-0.5,0.4-0.8h-4.2v-0.9h4.5c0.1-0.5,0.2-1,0.2-1.6H-567.8z M-565-48.3h-5.4l-0.2,0.2c0.8,0.7,1.7,1.3,2.6,1.8
				C-566.8-46.9-565.9-47.6-565-48.3z"/>
			<path style="fill:#444444;" d="M-555.5-45.1c0.3-0.4,0.5-0.7,0.6-1.1l1,0.1c-0.1,0.4-0.3,0.7-0.5,1h3.6c-0.2-0.3-0.4-0.7-0.6-1
				l0.9-0.3c0.3,0.4,0.5,0.8,0.8,1.2h1.9v0.9h-3.8c0.9,0.8,2.3,1.5,4.1,2l-0.4,0.9c-0.4-0.1-0.7-0.2-1-0.3v4.1h-0.9v-0.6h-2.6v0.6
				h-0.9V-42h3.7c-1.3-0.6-2.4-1.4-3.1-2.2h-2.4c-0.8,0.9-1.8,1.6-3.2,2.2h3.5v4.4h-0.9v-0.6h-2.4v0.6h-0.9v-4.1
				c-0.4,0.1-0.8,0.3-1.1,0.4l-0.5-0.8c1.8-0.5,3.2-1.2,4.1-2.1h-3.9v-0.9H-555.5z M-554.8-49.9v3.4h-4.3v-3.4H-554.8z M-555.7-49
				h-2.4v1.7h2.4V-49z M-555.6-39.1v-2.1h-2.4v2.1H-555.6z M-548.9-49.9v3.4h-4.4v-3.4H-548.9z M-549.8-39.1v-2.1h-2.6v2.1H-549.8z
				 M-549.8-49h-2.5v1.7h2.5V-49z"/>
		</g>
	</g>
</g>
<g id="ShadowBasicRect5_5_" transform="translate(435,252.0078125)">
	<rect x="-206" y="-64" style="opacity:0.6;fill:#BBBBBB;enable-background:new    ;" width="149.9" height="50"/>
	<g>
		<rect x="-207.5" y="-65.5" style="fill:#FFFFFF;" width="148.9" height="49"/>
		<path style="fill:#E5E5E5;" d="M-59.1-65v48H-207v-48H-59.1 M-58.1-66H-208v50h149.9V-66L-58.1-66z"/>
	</g>
	<g transform="translate(20 9)">
		<g>
			<g>
				<path style="fill:#00A4FF;" d="M-192.1-36.6c-7.2,0-13-5.8-13-13s5.8-13,13-13c6.5,0,11.9,4.8,12.8,11h2c-1-7.3-7.2-13-14.9-13
					c-8.3,0-15,6.7-15,15s6.7,15,15,15c7.6,0,13.9-5.7,14.9-13h-2C-180.3-41.3-185.7-36.6-192.1-36.6z"/>
				<g>
					<path style="fill:#00A4FF;stroke:#00A4FF;stroke-width:0.25;stroke-miterlimit:10;" d="M-197.1-55.3h1.7v11.4h-1.7V-55.3z"/>
					<path style="fill:#00A4FF;stroke:#00A4FF;stroke-width:0.25;stroke-miterlimit:10;" d="M-193-55.3h4c0.4,0,0.8,0,1.3,0.1
						c0.5,0.1,0.9,0.4,1.2,0.7c0.4,0.3,0.7,0.7,0.8,1.1c0.2,0.5,0.4,1.1,0.3,1.6c0,0.8-0.3,1.7-0.9,2.3c-0.6,0.8-1.6,1.2-2.6,1.1
						h-2.5v4.5h-1.6V-55.3z M-191.3-49.9h2.5c0.5,0,1.1-0.2,1.4-0.6c0.3-0.4,0.4-0.8,0.4-1.3c0-0.3-0.1-0.7-0.2-1
						c-0.1-0.2-0.3-0.4-0.5-0.6c-0.4-0.2-0.8-0.3-1.2-0.3h-2.4C-191.3-53.7-191.3-49.9-191.3-49.9z"/>
				</g>
			</g>
		</g>
		<g style="enable-background:new    ;">
			<path style="fill:#444444;" d="M-164.2-49.6h3c0,2.4-0.1,3.9-0.2,4.6c-0.2,0.8-0.9,1.2-2.1,1.3c-0.3,0-0.7,0-1-0.1l-0.3-0.9
				c0.3,0,0.7,0.1,1,0.1c0.8,0,1.3-0.3,1.4-0.8c0.1-0.5,0.2-1.7,0.2-3.3h-3.1l0.4-4h2.5V-55h-2.8v-0.9h3.7v4h-2.6L-164.2-49.6z
				 M-156-54.2c0.4-0.8,0.8-1.5,1.1-2.4l1,0.3c-0.3,0.8-0.7,1.4-1.1,2h1.8v5.6h-3v1.4h3.6v0.9h-3.6v2.7h-1v-2.7h-3.5v-0.9h3.5v-1.4
				h-2.9v-5.6H-156z M-157.4-54.6l-0.9,0.4c-0.3-0.7-0.7-1.4-1.1-1.9l0.9-0.3C-158-55.9-157.7-55.3-157.4-54.6z M-157.2-51.8v-1.6
				h-2v1.6H-157.2z M-157.2-50.9h-2v1.5h2V-50.9z M-156.2-51.8h2.1v-1.6h-2.1V-51.8z M-154.1-50.9h-2.1v1.5h2.1V-50.9z"/>
			<path style="fill:#444444;" d="M-150.2-53.7c0,1.4-0.2,2.7-0.5,4l-0.8-0.2c0.3-1.2,0.5-2.5,0.5-3.8L-150.2-53.7z M-148.4-56.4
				v12.7h-1v-12.7H-148.4z M-146.6-51.7c0.5-1.2,0.8-2.5,0.8-3.9l0.9,0.1c0,0.6-0.1,1.1-0.2,1.7h2v-2.6h1v2.6h3.1v1h-3.1v3.4h2.8v1
				h-2.8v3.4h3.4v1h-8.5v-1h4v-3.4h-3.2v-1h3.2v-3.4h-2.2c-0.3,1-0.6,2-1.1,2.8l-0.7-0.7c0.2-0.3,0.3-0.6,0.4-0.9l-0.7,0.2
				c-0.2-0.9-0.5-1.7-0.8-2.5l0.7-0.2C-147.1-53.4-146.9-52.6-146.6-51.7z"/>
			<path style="fill:#444444;" d="M-132.5-55.9c-1,2.9-2.4,5.2-4.1,6.7l-0.8-0.7c1.8-1.6,3.1-3.7,4-6.4L-132.5-55.9z M-125.8-44
				l-0.9,0.4c-0.2-0.5-0.4-0.9-0.6-1.3c-2.5,0.4-5.2,0.7-8.3,0.9l-0.2-1c1.1-0.6,2.5-2.8,4.2-6.6l1,0.3c-1.2,2.7-2.4,4.7-3.6,6.3
				c2.3-0.1,4.4-0.4,6.4-0.7c-0.5-1-1.1-1.9-1.7-2.8l0.9-0.3C-127.5-47.4-126.6-45.8-125.8-44z M-124.6-50l-0.7,0.8
				c-2.1-1.7-3.5-4-4.4-6.7l0.9-0.5C-128-53.8-126.6-51.7-124.6-50z"/>
			<path style="fill:#444444;" d="M-114.1-43.7l-0.3-1l1.3,0c0.4,0,0.6-0.2,0.6-0.6v-9.7h-9.2v11.3h-1v-12.2h11.2V-45
				c0,0.9-0.4,1.3-1.2,1.3H-114.1z M-118.7-48.8c-0.5,1.4-1.1,2.5-1.8,3.5l-0.6-0.8c0.7-1,1.3-2.3,1.8-3.7c-0.7-0.9-1.3-1.7-2-2.5
				l0.6-0.6c0.5,0.5,1.1,1.2,1.7,2c0.3-1,0.5-2,0.7-3.2l0.9,0.2c-0.2,1.4-0.5,2.8-0.9,4c0.5,0.7,1.1,1.5,1.7,2.4l-0.7,0.7
				C-117.9-47.5-118.3-48.2-118.7-48.8z M-114.7-48.5c-0.6,1.4-1.2,2.5-2,3.5l-0.6-0.8c0.8-1.1,1.4-2.3,2-3.7
				c-0.6-1-1.3-1.8-1.9-2.6l0.6-0.6c0.5,0.6,1.1,1.3,1.7,2.1c0.3-1.1,0.5-2.2,0.7-3.4l1,0.2c-0.3,1.6-0.6,3-1,4.2
				c0.5,0.8,1.1,1.7,1.7,2.7l-0.7,0.7C-113.8-47-114.3-47.7-114.7-48.5z"/>
			<path style="fill:#444444;" d="M-107.8-55v10h-1.1v-10H-107.8z"/>
			<path style="fill:#444444;" d="M-101.6-55c2.3,0,3.4,1,3.4,2.9c0,2-1.2,3-3.5,3h-2.9v4.1h-1.1v-10H-101.6z M-104.5-50.1h2.9
				c0.8,0,1.4-0.2,1.8-0.5c0.4-0.3,0.6-0.8,0.6-1.5c0-0.7-0.2-1.2-0.6-1.5c-0.4-0.3-1-0.5-1.8-0.5h-2.9V-50.1z"/>
		</g>
	</g>
</g>
<g id="ShadowBasicRect6_5_" transform="translate(661,252.0078125)">
	<rect x="-643" y="-64" style="opacity:0.6;fill:#BBBBBB;enable-background:new    ;" width="138" height="50"/>
	<g>
		<rect x="-644.5" y="-65.5" style="fill:#FFFFFF;" width="137" height="49"/>
		<path style="fill:#E5E5E5;" d="M-508-65v48h-136v-48H-508 M-507-66h-138v50h138V-66L-507-66z"/>
	</g>
	<g transform="translate(20 9)">
		<g>
			<path style="fill:#00A4FF;" d="M-629-37c-7.2,0-13-5.8-13-13c0-7.2,5.8-13,13-13c6.4,0,11.9,4.7,12.9,11h2
				c-1.1-8.2-8.7-14-16.9-12.9s-14,8.7-12.9,16.9c1.1,8.2,8.7,14,16.9,12.9c6.7-0.9,12-6.2,12.9-12.9h-2
				C-617.2-41.7-622.6-37-629-37z M-622-54l-7-4l-7,4v8l3.2,1.8c0.2-0.6,0.5-1.2,1-1.7l-2.2-1.3v-3.7l5,2.9l5-2.9v3.7l-4.1,2.4
				c-1-0.5-2.2-0.1-2.7,0.9c-0.5,1-0.1,2.2,0.9,2.7s2.2,0.1,2.7-0.9c0.1-0.3,0.2-0.6,0.2-0.9v-0.1l5-2.9V-54z M-629-50.3l-4.7-2.7
				l4.7-2.7l4.7,2.7L-629-50.3z"/>
		</g>
		<g style="enable-background:new    ;">
			<path style="fill:#444444;" d="M-589.7-51.7v1h-6.7c-1.3,2.6-2.4,4.5-3.4,5.5c2.5-0.1,5-0.4,7.5-0.7c-0.5-0.9-1.1-1.8-1.7-2.8
				l0.8-0.5c1.3,1.9,2.3,3.6,3,5.1l-0.9,0.6c-0.2-0.5-0.5-1-0.7-1.5c-2.8,0.4-5.9,0.6-9.3,0.9l-0.3-1c0.1,0,0.2-0.1,0.2-0.1
				c0.9-0.7,2.1-2.5,3.6-5.5h-4.7v-1H-589.7z M-590.9-55.6v1h-10v-1H-590.9z"/>
			<path style="fill:#444444;" d="M-587.5-43.6l-0.8-0.7c0.6-1.3,0.8-2.9,0.9-4.8v-6.7h4.1v10.9c0,0.8-0.4,1.3-1.2,1.3h-1.1
				l-0.2-0.9c0.4,0,0.7,0.1,1.1,0.1c0.4,0,0.5-0.3,0.5-0.8v-3.2h-2.3C-586.5-46.5-586.9-44.8-587.5-43.6z M-584.2-54.9h-2.3v2.4h2.3
				V-54.9z M-586.5-49.3h2.3v-2.3h-2.3V-49.3z M-581.1-43.6h-1v-12.3h5.7c0,1.7-0.1,2.9-0.3,3.4c-0.2,0.6-0.7,0.9-1.6,0.9h-1.1
				l-0.3-0.9c0.2,0,0.5,0,0.9,0c0.3,0,0.6,0,0.7-0.1c0.2-0.1,0.3-0.2,0.4-0.4c0.1-0.3,0.2-1,0.2-2.1h-3.7v4.2h4.8v0.9
				c-0.3,1.4-0.7,2.7-1.4,3.7c0.6,0.6,1.4,1.2,2.2,1.7l-0.5,0.9c-0.9-0.5-1.7-1.1-2.3-1.7c-0.6,0.7-1.3,1.3-2.2,1.7l-0.5-0.8
				c0.8-0.4,1.5-1,2-1.7c-0.9-1.1-1.5-2.3-1.8-3.7h-0.3V-43.6z M-578.4-46.9c0.5-0.8,0.9-1.8,1.1-2.9h-2.7
				C-579.6-48.7-579.1-47.8-578.4-46.9z"/>
			<path style="fill:#444444;" d="M-569.2-56.4c-0.2,0.4-0.3,0.7-0.5,1.1h6.1v0.8c-0.9,1-2,1.9-3.3,2.6c1.6,0.7,3.3,1.1,5.3,1.3
				l-0.5,0.9c-2.2-0.3-4.2-0.8-5.9-1.7c-1.7,0.8-3.7,1.4-6,1.7l-0.5-1c2-0.3,3.8-0.7,5.4-1.3c-0.8-0.5-1.5-1-2.2-1.6
				c-0.5,0.5-1.1,0.9-1.8,1.3l-0.6-0.8c1.7-1,2.8-2.1,3.4-3.5L-569.2-56.4z M-567.8-50.3c0,0.6-0.1,1.1-0.1,1.6h4.9
				c0,2.4-0.2,3.8-0.6,4.2c-0.4,0.5-1.1,0.7-2.1,0.7c-0.4,0-1,0-1.6-0.1l-0.3-0.9l1.7,0.1c0.8,0,1.4-0.2,1.6-0.5
				c0.2-0.3,0.3-1.2,0.4-2.6h-4.1c-0.1,0.4-0.3,0.7-0.4,1c-0.7,1.3-2.4,2.3-4.9,3.1l-0.7-0.8c2.3-0.7,3.8-1.5,4.6-2.5
				c0.2-0.3,0.3-0.5,0.4-0.8h-4.2v-0.9h4.5c0.1-0.5,0.2-1,0.2-1.6H-567.8z M-565-54.3h-5.4l-0.2,0.2c0.8,0.7,1.7,1.3,2.6,1.8
				C-566.8-52.9-565.9-53.6-565-54.3z"/>
			<path style="fill:#444444;" d="M-555.5-51.1c0.3-0.4,0.5-0.7,0.6-1.1l1,0.1c-0.1,0.4-0.3,0.7-0.5,1h3.6c-0.2-0.3-0.4-0.7-0.6-1
				l0.9-0.3c0.3,0.4,0.5,0.8,0.8,1.2h1.9v0.9h-3.8c0.9,0.8,2.3,1.5,4.1,2l-0.4,0.9c-0.4-0.1-0.7-0.2-1-0.3v4.1h-0.9v-0.6h-2.6v0.6
				h-0.9V-48h3.7c-1.3-0.6-2.4-1.4-3.1-2.2h-2.4c-0.8,0.9-1.8,1.6-3.2,2.2h3.5v4.4h-0.9v-0.6h-2.4v0.6h-0.9v-4.1
				c-0.4,0.1-0.8,0.3-1.1,0.4l-0.5-0.8c1.8-0.5,3.2-1.2,4.1-2.1h-3.9v-0.9H-555.5z M-554.8-55.9v3.4h-4.3v-3.4H-554.8z M-555.7-55.1
				h-2.4v1.7h2.4V-55.1z M-555.6-45.1v-2.1h-2.4v2.1H-555.6z M-548.9-55.9v3.4h-4.4v-3.4H-548.9z M-549.8-45.1v-2.1h-2.6v2.1H-549.8
				z M-549.8-55.1h-2.5v1.7h2.5V-55.1z"/>
		</g>
	</g>
</g>
<g id="ShadowBasicRect11" transform="translate(54,168)">
	<rect x="628" y="-48" style="opacity:0.6;fill:#BBBBBB;enable-background:new    ;" width="148" height="50"/>
	<g>
		<rect x="626.5" y="-49.5" style="fill:#FFFFFF;" width="147" height="49"/>
		<path style="fill:#E5E5E5;" d="M773-49v48H627v-48H773 M774-50H626V0h148V-50L774-50z"/>
	</g>
	<g transform="translate(20 9)">
		<g>
			<g id="页面-1">
				<g id="internet-01">
					<circle id="椭圆形" style="fill:none;stroke:#00A4FF;stroke-width:2;" cx="645" cy="-35" r="14"/>
					<path id="形状" style="fill:#00A4FF;" d="M645-41c8.3,0,15,2.4,15,6s-6.7,6-15,6c-0.5,0-1.1,0-1.6,0l0.1-2c0.5,0,1,0,1.5,0
						c7.2,0,13-2.1,13-4s-5.8-4-13-4c-0.5,0-1,0-1.5,0l-0.1-2C643.9-41,644.5-41,645-41z M636.9-38.2c-3.4,0.8-4.9,2.1-4.9,3.2
						c0,1,1.8,2.2,4.9,3l0.2,2.2c-4.2-1-7.2-2.9-7.2-5.2c0-2.3,2.9-4.1,7.2-5.1L636.9-38.2z"/>
					<path id="形状结合" style="fill:#00A4FF;" d="M645-50c3,0,5.4,4.7,5.9,12.2c-0.9-0.1-1.5-0.2-2-0.2
						c-0.2-2.9-0.7-5.6-1.5-7.6c-0.9-2.3-1.8-2.4-2.4-2.4s-1.5,0.1-2.4,2.4c-1,2.7-1.6,6.5-1.6,10.6s0.6,7.9,1.6,10.6
						c0.9,2.3,1.8,2.4,2.4,2.4s1.5-0.1,2.4-2.4c0.7-2,1.3-4.6,1.5-7.4c0.5,0,1-0.1,1.5-0.2c0.2,0,0.4-0.1,0.5-0.1
						c-0.5,7.4-3,12-5.9,12c-3.3,0-6-6.2-6-15S641.7-50,645-50z M649.1-36.1c0.6-0.1,1.2,0,1.9,0c0,0.3,0,0.7,0,1c0,0.4,0,0.9,0,1.3
						c-0.4,0.1-0.8,0.1-1.1,0.1l-0.9,0c0-0.5,0-0.9,0-1.4c0-0.4,0-0.7,0-1.1L649.1-36.1z"/>
				</g>
			</g>
		</g>
		<g style="enable-background:new    ;">
			<path style="fill:#444444;" d="M674.2-39v10h-1.1v-10H674.2z"/>
			<path style="fill:#444444;" d="M682.3-33.5v4.5h-1.1v-4.4c0-1.4-0.6-2.1-1.9-2.1c-0.5,0-0.9,0.2-1.3,0.5
				c-0.4,0.4-0.6,0.9-0.6,1.6v4.4h-1.1v-7.2h1.1v1.1c0.3-0.4,0.6-0.7,1-0.9c0.4-0.2,0.8-0.3,1.3-0.3
				C681.4-36.4,682.3-35.4,682.3-33.5z"/>
			<path style="fill:#444444;" d="M685.9-36.2h1.8v0.9h-1.8v4.6c0,0.3,0,0.5,0.2,0.6c0.1,0.1,0.3,0.2,0.5,0.2h0.9v0.9h-1.1
				c-0.6,0-1-0.2-1.3-0.5c-0.2-0.3-0.4-0.7-0.4-1.2v-4.6h-1.5v-0.9h1.5v-1.9l1.1-0.5V-36.2z"/>
			<path style="fill:#444444;" d="M694.6-35.3c0.5,0.7,0.8,1.7,0.8,3h-5.7c0.1,0.8,0.3,1.4,0.7,1.9c0.4,0.4,0.9,0.7,1.6,0.7
				c0.6,0,1.1-0.2,1.4-0.4c0.3-0.3,0.5-0.6,0.7-1.1h1.1c-0.2,0.7-0.5,1.3-1,1.7c-0.6,0.5-1.4,0.8-2.3,0.8c-1,0-1.9-0.4-2.5-1
				c-0.6-0.7-1-1.6-1-2.8c0-1.1,0.3-2,0.9-2.7c0.6-0.8,1.4-1.1,2.5-1.1C693.1-36.4,694-36,694.6-35.3z M690.4-34.9
				c-0.4,0.4-0.6,1-0.7,1.7h4.5c-0.1-1.6-0.9-2.3-2.3-2.3C691.3-35.5,690.8-35.3,690.4-34.9z"/>
			<path style="fill:#444444;" d="M700.9-36.3v1.1c-0.4-0.1-0.7-0.2-1.1-0.2c-0.6,0-1,0.2-1.4,0.7c-0.4,0.5-0.6,1-0.6,1.7v3.8h-1.1
				v-7.2h1.1v1.3c0.2-0.4,0.4-0.8,0.8-1c0.4-0.3,0.8-0.5,1.3-0.5C700.3-36.4,700.7-36.4,700.9-36.3z"/>
			<path style="fill:#444444;" d="M708-33.5v4.5h-1.1v-4.4c0-1.4-0.6-2.1-1.9-2.1c-0.5,0-0.9,0.2-1.3,0.5c-0.4,0.4-0.6,0.9-0.6,1.6
				v4.4h-1.1v-7.2h1.1v1.1c0.3-0.4,0.6-0.7,1-0.9c0.4-0.2,0.8-0.3,1.3-0.3C707-36.4,708-35.4,708-33.5z"/>
			<path style="fill:#444444;" d="M715.3-35.3c0.5,0.7,0.8,1.7,0.8,3h-5.7c0.1,0.8,0.3,1.4,0.7,1.9s0.9,0.7,1.6,0.7
				c0.6,0,1.1-0.2,1.4-0.4c0.3-0.3,0.5-0.6,0.7-1.1h1.1c-0.2,0.7-0.5,1.3-1,1.7c-0.6,0.5-1.4,0.8-2.3,0.8c-1,0-1.9-0.4-2.5-1
				c-0.6-0.7-1-1.6-1-2.8c0-1.1,0.3-2,0.9-2.7c0.6-0.8,1.4-1.1,2.5-1.1C713.8-36.4,714.7-36,715.3-35.3z M711.1-34.9
				c-0.4,0.4-0.6,1-0.7,1.7h4.5c-0.1-1.6-0.9-2.3-2.3-2.3C712.1-35.5,711.5-35.3,711.1-34.9z"/>
			<path style="fill:#444444;" d="M719.4-36.2h1.8v0.9h-1.8v4.6c0,0.3,0,0.5,0.2,0.6c0.1,0.1,0.3,0.2,0.5,0.2h0.9v0.9h-1.1
				c-0.6,0-1-0.2-1.3-0.5c-0.2-0.3-0.4-0.7-0.4-1.2v-4.6h-1.5v-0.9h1.5v-1.9l1.1-0.5V-36.2z"/>
		</g>
	</g>
</g>
<g id="ShadowBasicRect2_4_" transform="translate(435,106)">
	<rect x="-206" y="-54" style="opacity:0.6;fill:#BBBBBB;enable-background:new    ;" width="149.9" height="50"/>
	<g>
		<rect x="-207.5" y="-55.5" style="fill:#FFFFFF;" width="148.9" height="49"/>
		<path style="fill:#E5E5E5;" d="M-59.1-55v48H-207v-48H-59.1 M-58.1-56H-208v50h149.9V-56L-58.1-56z"/>
	</g>
	<g transform="translate(20 9)">
		<g>
			<g>
				<path style="fill:#00A4FF;" d="M-192.1-26.6c-7.2,0-13-5.8-13-13s5.8-13,13-13c6.5,0,11.9,4.8,12.8,11h2c-1-7.3-7.2-13-14.9-13
					c-8.3,0-15,6.7-15,15s6.7,15,15,15c7.6,0,13.9-5.7,14.9-13h-2C-180.3-31.3-185.7-26.6-192.1-26.6z"/>
				<g>
					<path style="fill:#00A4FF;stroke:#00A4FF;stroke-width:0.25;stroke-miterlimit:10;" d="M-197.1-45.3h1.7v11.4h-1.7V-45.3z"/>
					<path style="fill:#00A4FF;stroke:#00A4FF;stroke-width:0.25;stroke-miterlimit:10;" d="M-193-45.3h4c0.4,0,0.8,0,1.3,0.1
						c0.5,0.1,0.9,0.4,1.2,0.7c0.4,0.3,0.7,0.7,0.8,1.1c0.2,0.5,0.4,1.1,0.3,1.6c0,0.8-0.3,1.7-0.9,2.3c-0.6,0.8-1.6,1.2-2.6,1.1
						h-2.5v4.5h-1.6V-45.3z M-191.3-39.9h2.5c0.5,0,1.1-0.2,1.4-0.6c0.3-0.4,0.4-0.8,0.4-1.3c0-0.3-0.1-0.7-0.2-1
						c-0.1-0.2-0.3-0.4-0.5-0.6c-0.4-0.2-0.8-0.3-1.2-0.3h-2.4C-191.3-43.7-191.3-39.9-191.3-39.9z"/>
				</g>
			</g>
		</g>
		<g style="enable-background:new    ;">
			<path style="fill:#444444;" d="M-164.2-39.6h3c0,2.4-0.1,3.9-0.2,4.6c-0.2,0.8-0.9,1.2-2.1,1.3c-0.3,0-0.7,0-1-0.1l-0.3-0.9
				c0.3,0,0.7,0.1,1,0.1c0.8,0,1.3-0.3,1.4-0.8c0.1-0.5,0.2-1.7,0.2-3.3h-3.1l0.4-4h2.5V-45h-2.8v-0.9h3.7v4h-2.6L-164.2-39.6z
				 M-156-44.2c0.4-0.8,0.8-1.5,1.1-2.4l1,0.3c-0.3,0.8-0.7,1.4-1.1,2h1.8v5.6h-3v1.4h3.6v0.9h-3.6v2.7h-1v-2.7h-3.5v-0.9h3.5v-1.4
				h-2.9v-5.6H-156z M-157.4-44.6l-0.9,0.4c-0.3-0.7-0.7-1.4-1.1-1.9l0.9-0.3C-158-45.9-157.7-45.3-157.4-44.6z M-157.2-41.8v-1.6
				h-2v1.6H-157.2z M-157.2-40.9h-2v1.5h2V-40.9z M-156.2-41.8h2.1v-1.6h-2.1V-41.8z M-154.1-40.9h-2.1v1.5h2.1V-40.9z"/>
			<path style="fill:#444444;" d="M-150.2-43.7c0,1.4-0.2,2.7-0.5,4l-0.8-0.2c0.3-1.2,0.5-2.5,0.5-3.8L-150.2-43.7z M-148.4-46.4
				v12.7h-1v-12.7H-148.4z M-146.6-41.7c0.5-1.2,0.8-2.5,0.8-3.9l0.9,0.1c0,0.6-0.1,1.1-0.2,1.7h2v-2.6h1v2.6h3.1v1h-3.1v3.4h2.8v1
				h-2.8v3.4h3.4v1h-8.5v-1h4v-3.4h-3.2v-1h3.2v-3.4h-2.2c-0.3,1-0.6,2-1.1,2.8l-0.7-0.7c0.2-0.3,0.3-0.6,0.4-0.9l-0.7,0.2
				c-0.2-0.9-0.5-1.7-0.8-2.5l0.7-0.2C-147.1-43.3-146.9-42.6-146.6-41.7z"/>
			<path style="fill:#444444;" d="M-132.5-45.9c-1,2.9-2.4,5.2-4.1,6.7l-0.8-0.7c1.8-1.6,3.1-3.7,4-6.4L-132.5-45.9z M-125.8-34
				l-0.9,0.4c-0.2-0.5-0.4-0.9-0.6-1.3c-2.5,0.4-5.2,0.7-8.3,0.9l-0.2-1c1.1-0.6,2.5-2.8,4.2-6.6l1,0.3c-1.2,2.7-2.4,4.7-3.6,6.3
				c2.3-0.1,4.4-0.4,6.4-0.7c-0.5-1-1.1-1.9-1.7-2.8l0.9-0.3C-127.5-37.4-126.6-35.7-125.8-34z M-124.6-40l-0.7,0.8
				c-2.1-1.7-3.5-4-4.4-6.7l0.9-0.5C-128-43.8-126.6-41.7-124.6-40z"/>
			<path style="fill:#444444;" d="M-114.1-33.7l-0.3-1l1.3,0c0.4,0,0.6-0.2,0.6-0.6v-9.7h-9.2v11.3h-1v-12.2h11.2V-35
				c0,0.9-0.4,1.3-1.2,1.3H-114.1z M-118.7-38.8c-0.5,1.4-1.1,2.5-1.8,3.5l-0.6-0.8c0.7-1,1.3-2.3,1.8-3.7c-0.7-0.9-1.3-1.7-2-2.5
				l0.6-0.6c0.5,0.5,1.1,1.2,1.7,2c0.3-1,0.5-2,0.7-3.2l0.9,0.2c-0.2,1.4-0.5,2.8-0.9,4c0.5,0.7,1.1,1.5,1.7,2.4l-0.7,0.7
				C-117.9-37.5-118.3-38.2-118.7-38.8z M-114.7-38.5c-0.6,1.4-1.2,2.5-2,3.5l-0.6-0.8c0.8-1.1,1.4-2.3,2-3.7
				c-0.6-1-1.3-1.8-1.9-2.6l0.6-0.6c0.5,0.6,1.1,1.3,1.7,2.1c0.3-1.1,0.5-2.2,0.7-3.4l1,0.2c-0.3,1.6-0.6,3-1,4.2
				c0.5,0.8,1.1,1.7,1.7,2.7l-0.7,0.7C-113.8-37-114.3-37.7-114.7-38.5z"/>
			<path style="fill:#444444;" d="M-107.8-45v10h-1.1v-10H-107.8z"/>
			<path style="fill:#444444;" d="M-101.6-45c2.3,0,3.4,1,3.4,2.9c0,2-1.2,3-3.5,3h-2.9v4.1h-1.1v-10H-101.6z M-104.5-40.1h2.9
				c0.8,0,1.4-0.2,1.8-0.5c0.4-0.3,0.6-0.8,0.6-1.5c0-0.7-0.2-1.2-0.6-1.5c-0.4-0.3-1-0.5-1.8-0.5h-2.9V-40.1z"/>
		</g>
	</g>
</g>
</svg>
